<?xml version="1.0" encoding="utf-8"?>
<!-- Generator: Adobe Illustrator 22.1.0, SVG Export Plug-In . SVG Version: 6.00 Build 0)  -->
<svg version="1.1" id="Layer_1" xmlns="http://www.w3.org/2000/svg" xmlns:xlink="http://www.w3.org/1999/xlink" x="0px" y="0px"
	 viewBox="0 0 211.6 60.8" style="enable-background:new 0 0 211.6 60.8;" xml:space="preserve">
<style type="text/css">
	.st0{fill:#1A0A29;}
	.st1{fill:#42EBB5;}
	.st2{fill:#FFFFFF;}
	.st3{fill:#FF2E66;}
</style>
<g>
	<path class="st0" d="M205.7,60.4h-102c-1.5,0-2.7-1.3-2.5-2.9l3.4-27.7c0.2-1.3,1.2-2.2,2.5-2.2h102c1.5,0,2.7,1.3,2.5,2.9
		l-3.4,27.7C208,59.4,207,60.4,205.7,60.4"/>
	<path class="st1" d="M101.2,24.6H7.1c-1.8,0-3.2-1.6-3-3.4L6.4,2.6C6.6,1.1,7.8,0,9.3,0h94.3c1.8,0,3.2,1.6,3,3.4l-2.3,18.5
		C104.1,23.4,102.8,24.6,101.2,24.6"/>
	<path class="st2" d="M3.3,59.6c-0.6,0-1.2-0.3-1.6-0.7c-0.4-0.5-0.6-1.1-0.5-1.7L4.5,30c0.1-1.1,1.1-1.9,2.1-1.9h91.8
		c0.6,0,1.2,0.3,1.6,0.7c0.4,0.5,0.6,1.1,0.5,1.7l-3.3,27.1c-0.1,1.1-1.1,2-2.3,2H3.3z"/>
	<path class="st0" d="M98.5,26.9H6.7c-1.7,0-3.1,1.3-3.3,2.9L0,57c-0.1,0.9,0.2,1.9,0.8,2.6c0.6,0.7,1.5,1.1,2.5,1.1H95
		c1.7,0,3.2-1.3,3.4-3l3.3-27.1c0.1-0.9-0.2-1.9-0.8-2.6C100.3,27.3,99.4,26.9,98.5,26.9 M98.5,29.2c0.6,0,1.1,0.5,1,1.1l-3.3,27.1
		c-0.1,0.6-0.5,1-1.1,1H3.3c-0.6,0-1.1-0.5-1-1.1l3.3-27.2c0.1-0.5,0.5-0.9,1-0.9H98.5z"/>
	<path class="st0" d="M11.4,19.7c-0.7-0.7-1.1-1.6-1.1-2.7c0-0.1,0-0.4,0-0.6l0.1-0.8c0-0.1,0-0.1,0.1-0.2c0.1-0.1,0.1-0.1,0.2-0.1
		h2.6c0.1,0,0.1,0,0.2,0.1c0,0.1,0.1,0.1,0,0.2l-0.1,0.6c0,0.1,0,0.2,0,0.3c0,0.4,0.1,0.7,0.3,1c0.2,0.2,0.5,0.4,0.8,0.4
		c0.4,0,0.8-0.2,1.1-0.5c0.3-0.3,0.4-0.8,0.4-1.3c0-0.4-0.1-0.8-0.4-1.1c-0.3-0.3-0.8-0.8-1.5-1.4c-0.6-0.5-1.2-1-1.5-1.4
		c-0.4-0.4-0.7-0.9-1-1.4c-0.3-0.6-0.4-1.2-0.4-1.9c0-0.2,0-0.4,0-0.7C11.5,6.9,12,5.8,12.9,5c0.9-0.8,2-1.2,3.3-1.2
		c1.2,0,2.2,0.3,2.9,1c0.7,0.7,1.1,1.6,1.1,2.8c0,0.1,0,0.4,0,0.7l-0.1,0.6c0,0.1,0,0.1-0.1,0.2c-0.1,0.1-0.1,0.1-0.2,0.1h-2.6
		c-0.1,0-0.1,0-0.2-0.1c0-0.1-0.1-0.1,0-0.2L17,8.3c0-0.1,0-0.2,0-0.3c0-0.4-0.1-0.7-0.3-0.9c-0.2-0.2-0.5-0.4-0.8-0.4
		c-0.4,0-0.7,0.1-0.9,0.4c-0.3,0.3-0.4,0.7-0.5,1.1l0,0.3c0,0.4,0.1,0.8,0.4,1.1s0.7,0.8,1.4,1.4c0.8,0.6,1.4,1.2,1.8,1.6
		c0.4,0.4,0.7,0.9,1,1.3c0.2,0.5,0.3,1,0.3,1.6c0,0.1,0,0.3,0,0.7c-0.2,1.4-0.7,2.5-1.7,3.3c-0.9,0.8-2.1,1.2-3.4,1.2
		C13.1,20.7,12.1,20.4,11.4,19.7"/>
	<path class="st0" d="M22.6,20.3l-1.1-16v0c0-0.2,0.1-0.3,0.3-0.3h2.8c0.2,0,0.3,0.1,0.3,0.3l0.3,8.5c0,0.1,0,0.1,0.1,0.1
		c0,0,0.1,0,0.1-0.1l2.3-8.5c0-0.2,0.2-0.3,0.3-0.3h2.3c0.2,0,0.3,0.1,0.3,0.3l0.3,8.5c0,0.1,0,0.1,0.1,0.1s0.1,0,0.1-0.1l2.2-8.5
		c0-0.2,0.2-0.3,0.3-0.3h2.7c0.2,0,0.3,0.1,0.2,0.3l-4.9,16c0,0.2-0.2,0.3-0.3,0.3h-2.5c-0.2,0-0.3-0.1-0.3-0.3l-0.3-8.7
		c0-0.1,0-0.1,0-0.1c0,0-0.1,0-0.1,0.1l-2.3,8.7c0,0.2-0.2,0.3-0.3,0.3h-2.4C22.7,20.6,22.6,20.5,22.6,20.3"/>
	<path class="st0" d="M35.9,20.5c0-0.1-0.1-0.1,0-0.2l2-16c0-0.1,0.1-0.1,0.1-0.2C38,4,38.1,4,38.1,4h2.7c0.2,0,0.3,0.1,0.3,0.3
		l-2,16c0,0.1-0.1,0.1-0.1,0.2c-0.1,0.1-0.1,0.1-0.2,0.1h-2.7C36,20.6,36,20.5,35.9,20.5"/>
	<path class="st0" d="M47.9,10.6c0.4-0.5,0.5-1.1,0.5-1.9c0-0.6-0.1-1-0.4-1.3c-0.2-0.3-0.6-0.5-1-0.5h-1C46,6.9,46,6.9,46,7
		l-0.5,4.2c0,0.1,0,0.1,0.1,0.1h1C47.1,11.3,47.6,11,47.9,10.6 M50.7,5.1c0.7,0.8,1,1.8,1,3c0,0.4,0,0.7,0,0.9
		c-0.2,1.5-0.7,2.6-1.6,3.5c-0.9,0.9-1.9,1.3-3.2,1.3h-1.7c-0.1,0-0.1,0-0.1,0.1l-0.8,6.3c0,0.1-0.1,0.1-0.1,0.2
		c-0.1,0.1-0.1,0.1-0.2,0.1h-2.7c-0.1,0-0.1,0-0.2-0.1c0-0.1-0.1-0.1,0-0.2l2-16c0-0.1,0.1-0.1,0.1-0.2C43.2,4,43.3,4,43.4,4H48
		C49.2,4,50.1,4.4,50.7,5.1"/>
	<path class="st0" d="M61.8,6.8c-0.1,0.1-0.1,0.1-0.2,0.1h-4.8c-0.1,0-0.1,0-0.1,0.1l-0.5,3.7c0,0.1,0,0.1,0.1,0.1H59
		c0.1,0,0.1,0,0.2,0.1c0,0.1,0.1,0.1,0,0.2L59,13.4c0,0.1-0.1,0.1-0.1,0.2c-0.1,0.1-0.1,0.1-0.2,0.1h-2.7c-0.1,0-0.1,0-0.1,0.1
		l-0.4,3.8c0,0.1,0,0.1,0.1,0.1h4.8c0.1,0,0.1,0,0.2,0.1s0.1,0.1,0.1,0.2l-0.3,2.3c0,0.1-0.1,0.1-0.1,0.2c-0.1,0.1-0.1,0.1-0.2,0.1
		H52c-0.1,0-0.1,0-0.2-0.1c0-0.1-0.1-0.1,0-0.2l2-16c0-0.1,0.1-0.1,0.1-0.2C53.9,4,54,4,54.1,4h7.9c0.1,0,0.1,0,0.2,0.1
		c0,0.1,0.1,0.1,0,0.2l-0.3,2.3C61.9,6.7,61.8,6.7,61.8,6.8"/>
	<path class="st3" d="M92.6,47.5H8.4c-0.4,0-0.6-0.3-0.6-0.7l0.8-6.5c0-0.3,0.3-0.5,0.6-0.5h84.2c0.4,0,0.6,0.3,0.6,0.7l-0.8,6.5
		C93.1,47.2,92.9,47.5,92.6,47.5"/>
	<path class="st0" d="M74.4,17.4c0.3-0.3,0.5-0.7,0.5-1.2l1-7.8c0-0.1,0-0.2,0-0.3c0-0.4-0.1-0.8-0.3-1c-0.2-0.3-0.5-0.4-0.9-0.4
		c-0.4,0-0.8,0.2-1.1,0.5c-0.3,0.3-0.5,0.7-0.5,1.2l-1,7.8c0,0.1,0,0.2,0,0.3c0,0.4,0.1,0.8,0.3,1c0.2,0.3,0.5,0.4,0.9,0.4
		C73.7,17.9,74.1,17.7,74.4,17.4 M69.9,19.7c-0.7-0.7-1.1-1.7-1.1-2.9c0-0.2,0-0.4,0-0.8l0.9-7.6c0.2-1.4,0.7-2.6,1.7-3.4
		c0.9-0.9,2.1-1.3,3.5-1.3c1.3,0,2.3,0.4,3,1.1c0.7,0.7,1.1,1.7,1.1,2.9c0,0.2,0,0.4,0,0.8L78.2,16c-0.2,1.4-0.7,2.6-1.7,3.4
		c-1,0.9-2.1,1.3-3.5,1.3C71.7,20.7,70.7,20.4,69.9,19.7"/>
	<path class="st0" d="M81,19.6c-0.7-0.7-1.1-1.7-1.1-2.9c0-0.4,0-0.7,0-0.9l1.4-11.6c0-0.1,0.1-0.1,0.1-0.2C81.5,4,81.6,4,81.7,4
		h2.7c0.2,0,0.3,0.1,0.3,0.3l-1.5,11.9c0,0.1,0,0.2,0,0.3c0,0.4,0.1,0.7,0.3,1c0.2,0.3,0.5,0.4,0.8,0.4c0.4,0,0.7-0.2,1-0.5
		c0.3-0.3,0.4-0.7,0.5-1.2l1.5-11.9c0-0.1,0.1-0.1,0.1-0.2C87.4,4,87.4,4,87.5,4h2.7c0.1,0,0.1,0,0.2,0.1s0.1,0.1,0,0.2L89,15.8
		c-0.2,1.5-0.7,2.7-1.7,3.6c-0.9,0.9-2.1,1.3-3.5,1.3C82.6,20.7,81.7,20.4,81,19.6"/>
	<path class="st0" d="M101.5,4.1c0,0.1,0.1,0.1,0,0.2l-0.3,2.3c0,0.1-0.1,0.1-0.1,0.2c-0.1,0.1-0.1,0.1-0.2,0.1h-2.9
		c0,0-0.1,0-0.1,0c0,0,0,0.1,0,0.1l-1.6,13.3c0,0.1-0.1,0.1-0.1,0.2c-0.1,0.1-0.1,0.1-0.2,0.1h-2.7c-0.1,0-0.1,0-0.2-0.1
		c0-0.1-0.1-0.1,0-0.2L94.7,7c0-0.1,0-0.1-0.1-0.1h-2.7c-0.2,0-0.3-0.1-0.3-0.3l0.3-2.3c0-0.1,0.1-0.1,0.1-0.2C92.1,4,92.2,4,92.2,4
		h9.1C101.4,4,101.5,4,101.5,4.1"/>
	<path class="st0" d="M21.3,33.8c0.1-0.1,0.1-0.1,0.2-0.1h3.2c0.1,0,0.2,0,0.2,0.1c0.1,0.1,0.1,0.1,0.1,0.2l-2.3,19
		c0,0.1-0.1,0.2-0.1,0.2c-0.1,0.1-0.1,0.1-0.2,0.1h-3.2c-0.1,0-0.2,0-0.2-0.1c-0.1-0.1-0.1-0.1-0.1-0.2l1-7.7c0-0.1,0-0.1-0.1-0.1
		H17c-0.1,0-0.2,0-0.2,0.1L15.9,53c0,0.1-0.1,0.2-0.1,0.2c-0.1,0.1-0.2,0.1-0.3,0.1h-3.2c-0.1,0-0.2,0-0.2-0.1
		c-0.1-0.1-0.1-0.1-0.1-0.2l2.3-19c0-0.1,0.1-0.2,0.1-0.2c0.1-0.1,0.1-0.1,0.2-0.1h3.2c0.2,0,0.3,0.1,0.3,0.3l-1,7.6
		c0,0.1,0,0.1,0.1,0.1h2.7c0.1,0,0.1,0,0.2-0.1l0.9-7.6C21.2,33.9,21.3,33.9,21.3,33.8"/>
	<path class="st0" d="M26.9,52.3c-0.9-0.9-1.3-2-1.3-3.5c0-0.5,0-0.8,0.1-1L27.4,34c0-0.1,0.1-0.2,0.1-0.2c0.1-0.1,0.1-0.1,0.2-0.1
		h3.2c0.2,0,0.3,0.1,0.3,0.3l-1.7,14.1c0,0.1,0,0.2,0,0.4c0,0.5,0.1,0.9,0.4,1.2c0.2,0.3,0.6,0.4,1,0.4c0.5,0,0.9-0.2,1.2-0.6
		c0.3-0.4,0.5-0.9,0.6-1.5L34.4,34c0-0.1,0.1-0.2,0.1-0.2c0.1-0.1,0.1-0.1,0.2-0.1h3.2c0.1,0,0.2,0,0.2,0.1c0.1,0.1,0.1,0.1,0.1,0.2
		l-1.7,13.7c-0.2,1.8-0.9,3.2-2,4.2c-1.1,1.1-2.5,1.6-4.1,1.6C28.9,53.6,27.8,53.1,26.9,52.3"/>
	<path class="st0" d="M38.1,53.3c-0.1-0.1-0.1-0.1-0.1-0.2l2.3-19c0-0.1,0.1-0.2,0.1-0.2c0.1-0.1,0.1-0.1,0.2-0.1h3.4
		c0.2,0,0.3,0.1,0.3,0.3l2.2,10.5c0,0.1,0,0.1,0.1,0.1c0,0,0.1,0,0.1-0.1L48.2,34c0-0.1,0.1-0.2,0.1-0.2c0.1-0.1,0.1-0.1,0.2-0.1
		h3.1c0.1,0,0.2,0,0.2,0.1C52,33.9,52,33.9,52,34l-2.3,19c0,0.1-0.1,0.2-0.1,0.2c-0.1,0.1-0.1,0.1-0.2,0.1h-3.5
		c-0.2,0-0.3-0.1-0.3-0.3l-2.2-10.5c0-0.1,0-0.1-0.1-0.1s-0.1,0-0.1,0.1L41.9,53c0,0.1-0.1,0.2-0.1,0.2c-0.1,0.1-0.2,0.1-0.3,0.1
		h-3.1C38.3,53.4,38.2,53.3,38.1,53.3"/>
	<path class="st0" d="M53.6,52.4c-0.9-0.8-1.3-1.9-1.3-3.3c0-0.2,0-0.4,0.1-0.8l1.2-9.5c0.2-1.6,0.8-2.9,2-3.9
		c1.1-1,2.5-1.4,4.1-1.4c1.5,0,2.7,0.4,3.5,1.2c0.9,0.8,1.3,1.9,1.3,3.3c0,0.2,0,0.4-0.1,0.8l-0.1,1.1c0,0.1-0.1,0.2-0.1,0.2
		c-0.1,0.1-0.2,0.1-0.3,0.1h-3.2c-0.1,0-0.2,0-0.2-0.1c-0.1-0.1-0.1-0.1-0.1-0.2l0.1-1.1c0-0.1,0-0.2,0-0.3c0-0.5-0.1-0.8-0.4-1.1
		c-0.3-0.3-0.6-0.4-1-0.4c-0.5,0-0.9,0.2-1.2,0.5c-0.3,0.3-0.5,0.8-0.6,1.4l-1.2,9.6c-0.1,0.6,0,1,0.3,1.4c0.2,0.3,0.6,0.5,1.1,0.5
		c0.5,0,0.9-0.2,1.2-0.5c0.3-0.3,0.5-0.8,0.6-1.4l0.3-2.2c0-0.1,0-0.1-0.1-0.1h-1.2c-0.1,0-0.2,0-0.2-0.1c-0.1-0.1-0.1-0.1-0.1-0.2
		l0.3-2.5c0-0.1,0-0.2,0.1-0.2c0.1-0.1,0.2-0.1,0.3-0.1h4.8c0.2,0,0.3,0.1,0.3,0.3l-0.6,5.2c-0.2,1.6-0.8,2.9-2,3.9
		c-1.1,1-2.5,1.4-4.1,1.4C55.7,53.6,54.5,53.2,53.6,52.4"/>
	<path class="st0" d="M76.6,37c-0.1,0.1-0.1,0.1-0.2,0.1h-5.7c-0.1,0-0.1,0-0.1,0.1l-0.6,4.4c0,0.1,0,0.1,0.1,0.1h3.3
		c0.1,0,0.2,0,0.2,0.1c0.1,0.1,0.1,0.1,0.1,0.2l-0.3,2.7c0,0.1-0.1,0.2-0.1,0.2c-0.1,0.1-0.1,0.1-0.2,0.1h-3.3c-0.1,0-0.2,0-0.2,0.1
		L69,49.8c0,0.1,0,0.1,0.1,0.1h5.7c0.1,0,0.2,0,0.2,0.1c0.1,0.1,0.1,0.1,0.1,0.2L74.7,53c0,0.1-0.1,0.2-0.1,0.2
		c-0.1,0.1-0.1,0.1-0.2,0.1H65c-0.1,0-0.2,0-0.2-0.1c-0.1-0.1-0.1-0.1-0.1-0.2l2.3-19c0-0.1,0.1-0.2,0.1-0.2
		c0.1-0.1,0.1-0.1,0.2-0.1h9.4c0.1,0,0.2,0,0.2,0.1c0.1,0.1,0.1,0.1,0.1,0.2l-0.3,2.7C76.7,36.8,76.7,36.9,76.6,37"/>
	<path class="st0" d="M82.4,37.2L81.9,42c0,0.1,0,0.1,0.1,0.1h1.2c0.6,0,1.1-0.3,1.6-0.8c0.4-0.6,0.6-1.3,0.6-2.2
		c0-0.6-0.1-1.1-0.4-1.5c-0.3-0.4-0.7-0.5-1.2-0.5h-1.2C82.5,37.1,82.4,37.1,82.4,37.2 M83.8,53.1l-1.2-7.8c0-0.1-0.1-0.1-0.1-0.1
		h-0.9c-0.1,0-0.2,0-0.2,0.1L80.5,53c0,0.1-0.1,0.2-0.1,0.2c-0.1,0.1-0.2,0.1-0.3,0.1h-3.2c-0.1,0-0.2,0-0.2-0.1
		c-0.1-0.1-0.1-0.1-0.1-0.2L79,34c0-0.1,0.1-0.2,0.1-0.2c0.1-0.1,0.1-0.1,0.2-0.1h5.5c1.4,0,2.4,0.4,3.2,1.3
		c0.8,0.9,1.2,2.1,1.2,3.6c0,0.5,0,0.8-0.1,1c-0.1,1.1-0.4,2.1-1,2.9c-0.5,0.9-1.2,1.5-2,2c0,0-0.1,0-0.1,0.1c0,0,0,0.1,0,0.1
		l1.5,8.3V53c0,0.1,0,0.2-0.1,0.2c-0.1,0.1-0.1,0.1-0.2,0.1h-3.3C83.9,53.4,83.8,53.3,83.8,53.1"/>
</g>
<g>
	<path class="st2" d="M109.3,54.2c-1-1-1.5-2.3-1.5-3.9c0-0.2,0-0.6,0.1-1l1.3-10.6c0.2-1.9,1-3.5,2.3-4.6c1.3-1.2,2.9-1.7,4.8-1.7
		c1.7,0,3.1,0.5,4.1,1.5c1,1,1.5,2.3,1.5,3.9c0,0.2,0,0.5-0.1,1l-0.1,0.4c0,0.1-0.1,0.2-0.1,0.3s-0.2,0.1-0.3,0.1l-3.7,0.2
		c-0.2,0-0.3-0.1-0.3-0.4l0.1-0.8c0-0.1,0-0.2,0-0.4c0-0.5-0.1-0.9-0.4-1.3c-0.3-0.3-0.7-0.5-1.2-0.5c-0.5,0-1,0.2-1.4,0.6
		c-0.4,0.4-0.6,0.9-0.7,1.5l-1.4,11.2c0,0.1,0,0.2,0,0.4c0,0.5,0.1,0.9,0.4,1.3c0.3,0.3,0.7,0.5,1.2,0.5c0.6,0,1-0.2,1.4-0.6
		c0.4-0.4,0.6-0.9,0.7-1.5l0.1-0.9c0-0.1,0.1-0.2,0.1-0.3s0.2-0.1,0.3-0.1l3.7,0.2c0.3,0,0.4,0.1,0.3,0.4l0,0.4
		c-0.2,2-1,3.5-2.3,4.7c-1.3,1.2-2.9,1.7-4.8,1.7C111.6,55.6,110.3,55.2,109.3,54.2z"/>
	<path class="st2" d="M123.9,54.2c-1-1-1.5-2.3-1.5-4c0-0.2,0-0.6,0.1-1l1.3-10.4c0.2-2,1-3.5,2.3-4.7c1.3-1.2,2.9-1.8,4.9-1.8
		c1.8,0,3.2,0.5,4.2,1.5c1,1,1.5,2.3,1.5,4c0,0.2,0,0.6-0.1,1l-1.3,10.4c-0.2,2-1,3.5-2.3,4.7s-2.9,1.8-4.9,1.8
		C126.3,55.6,125,55.2,123.9,54.2z M130.1,51.1c0.4-0.4,0.6-1,0.7-1.7l1.3-10.8c0-0.1,0-0.2,0-0.4c0-0.6-0.2-1.1-0.5-1.4
		c-0.3-0.3-0.7-0.5-1.2-0.5c-0.6,0-1.1,0.2-1.5,0.6s-0.6,1-0.7,1.7l-1.3,10.8c0,0.1,0,0.2,0,0.4c0,0.6,0.2,1.1,0.5,1.4
		c0.3,0.3,0.7,0.5,1.2,0.5C129.2,51.7,129.7,51.5,130.1,51.1z"/>
	<path class="st2" d="M137.1,55.3c-0.1-0.1-0.1-0.2-0.1-0.3l2.7-22c0-0.1,0.1-0.2,0.1-0.3c0.1-0.1,0.2-0.1,0.3-0.1h3.7
		c0.2,0,0.4,0.1,0.4,0.4L142,51.3c0,0.1,0,0.2,0.1,0.2h6.6c0.2,0,0.4,0.1,0.4,0.4l-0.4,3.2c0,0.1-0.1,0.2-0.1,0.3
		c-0.1,0.1-0.2,0.1-0.3,0.1h-10.9C137.3,55.4,137.2,55.3,137.1,55.3z"/>
	<path class="st2" d="M150.6,55.3c-0.1-0.1-0.1-0.2-0.1-0.3l2.7-22c0-0.1,0.1-0.2,0.1-0.3c0.1-0.1,0.2-0.1,0.3-0.1h3.7
		c0.2,0,0.4,0.1,0.4,0.4l-2.2,18.3c0,0.1,0,0.2,0.1,0.2h6.6c0.2,0,0.4,0.1,0.4,0.4l-0.4,3.2c0,0.1-0.1,0.2-0.1,0.3
		c-0.1,0.1-0.2,0.1-0.3,0.1h-10.9C150.7,55.4,150.7,55.3,150.6,55.3z"/>
	<path class="st2" d="M177.8,36.4c-0.1,0.1-0.2,0.1-0.3,0.1h-6.6c-0.1,0-0.2,0.1-0.2,0.2l-0.7,5.2c0,0.1,0,0.2,0.1,0.2h3.8
		c0.1,0,0.2,0,0.3,0.1c0.1,0.1,0.1,0.2,0.1,0.3l-0.4,3.2c0,0.1-0.1,0.2-0.1,0.3c-0.1,0.1-0.2,0.1-0.3,0.1h-3.8
		c-0.1,0-0.2,0.1-0.2,0.2l-0.6,5.2c0,0.1,0,0.2,0.1,0.2h6.6c0.1,0,0.2,0,0.3,0.1c0.1,0.1,0.1,0.2,0.1,0.3l-0.4,3.2
		c0,0.1-0.1,0.2-0.1,0.3s-0.2,0.1-0.3,0.1h-10.9c-0.1,0-0.2,0-0.3-0.1c-0.1-0.1-0.1-0.2-0.1-0.3l2.7-22c0-0.1,0.1-0.2,0.1-0.3
		c0.1-0.1,0.2-0.1,0.3-0.1H178c0.1,0,0.2,0,0.3,0.1c0.1,0.1,0.1,0.2,0.1,0.3l-0.4,3.2C177.9,36.2,177.8,36.3,177.8,36.4z"/>
	<path class="st2" d="M179.6,54.2c-1-0.9-1.5-2.2-1.5-3.8c0-0.2,0-0.5,0.1-0.9l1.3-11c0.2-1.9,1-3.4,2.3-4.5
		c1.3-1.1,2.9-1.7,4.8-1.7c1.7,0,3.1,0.5,4.1,1.4s1.5,2.2,1.5,3.8c0,0.2,0,0.5-0.1,0.9l-0.1,1.2c0,0.1-0.1,0.2-0.2,0.3
		c-0.1,0.1-0.2,0.1-0.3,0.1h-3.7c-0.1,0-0.2,0-0.3-0.1c-0.1-0.1-0.1-0.2-0.1-0.3l0.2-1.3c0-0.1,0-0.2,0-0.4c0-0.5-0.1-1-0.4-1.3
		c-0.3-0.3-0.7-0.5-1.2-0.5c-0.5,0-1,0.2-1.4,0.6c-0.4,0.4-0.6,0.9-0.7,1.6l-1.4,11.1c-0.1,0.7,0,1.2,0.3,1.6
		c0.3,0.4,0.7,0.6,1.2,0.6c0.6,0,1-0.2,1.4-0.6c0.4-0.4,0.6-0.9,0.7-1.6l0.3-2.6c0-0.1,0-0.2-0.1-0.2h-1.4c-0.1,0-0.2,0-0.3-0.1
		c-0.1-0.1-0.1-0.2-0.1-0.3l0.4-2.9c0-0.1,0-0.2,0.1-0.3c0.1-0.1,0.2-0.1,0.3-0.1h5.6c0.2,0,0.4,0.1,0.4,0.4l-0.7,6
		c-0.2,1.9-1,3.4-2.3,4.5c-1.3,1.1-2.9,1.7-4.8,1.7C182,55.6,180.6,55.2,179.6,54.2z"/>
	<path class="st2" d="M206.3,36.4c-0.1,0.1-0.2,0.1-0.3,0.1h-6.6c-0.1,0-0.2,0.1-0.2,0.2l-0.7,5.2c0,0.1,0,0.2,0.1,0.2h3.8
		c0.1,0,0.2,0,0.3,0.1c0.1,0.1,0.1,0.2,0.1,0.3l-0.4,3.2c0,0.1-0.1,0.2-0.1,0.3c-0.1,0.1-0.2,0.1-0.3,0.1h-3.8
		c-0.1,0-0.2,0.1-0.2,0.2l-0.6,5.2c0,0.1,0,0.2,0.1,0.2h6.6c0.1,0,0.2,0,0.3,0.1c0.1,0.1,0.1,0.2,0.1,0.3l-0.4,3.2
		c0,0.1-0.1,0.2-0.1,0.3s-0.2,0.1-0.3,0.1h-10.9c-0.1,0-0.2,0-0.3-0.1c-0.1-0.1-0.1-0.2-0.1-0.3l2.7-22c0-0.1,0.1-0.2,0.1-0.3
		c0.1-0.1,0.2-0.1,0.3-0.1h10.9c0.1,0,0.2,0,0.3,0.1c0.1,0.1,0.1,0.2,0.1,0.3l-0.4,3.2C206.4,36.2,206.4,36.3,206.3,36.4z"/>
</g>
</svg>
