<?xml version="1.0" encoding="utf-8"?>
<!-- Generator: Adobe Illustrator 22.1.0, SVG Export Plug-In . SVG Version: 6.00 Build 0)  -->
<svg version="1.1" id="Layer_1" xmlns="http://www.w3.org/2000/svg" xmlns:xlink="http://www.w3.org/1999/xlink" x="0px" y="0px"
	 viewBox="0 0 254 316" style="enable-background:new 0 0 254 316;" xml:space="preserve">
<style type="text/css">
	.st0{fill:#42EBB5;}
	.st1{fill:#1A0A29;}
	.st2{fill:#FFFFFF;}
	.st3{fill:#F0F0F0;}
	.st4{fill:#FF2E66;}
</style>
<g>
	<path class="st0" d="M243.1,144h-232c-5.5,0-10-4.5-10-10V10c0-5.5,4.5-10,10-10h232c5.5,0,10,4.5,10,10v124
		C253.1,139.5,248.6,144,243.1,144"/>
</g>
<g>
	<path class="st1" d="M98.2,124.8c-0.3-0.3-0.4-0.6-0.4-1c0-0.1,0-0.1,0-0.2l0-0.3c0,0,0-0.1,0-0.1c0,0,0,0,0.1,0h1c0,0,0.1,0,0.1,0
		c0,0,0,0,0,0.1l0,0.2c0,0,0,0.1,0,0.1c0,0.2,0,0.3,0.1,0.4c0.1,0.1,0.2,0.1,0.3,0.1c0.2,0,0.3-0.1,0.4-0.2c0.1-0.1,0.2-0.3,0.2-0.5
		c0-0.2,0-0.3-0.1-0.4c-0.1-0.1-0.3-0.3-0.6-0.5c-0.2-0.2-0.4-0.4-0.6-0.5s-0.3-0.3-0.4-0.5c-0.1-0.2-0.2-0.5-0.2-0.7
		c0-0.1,0-0.1,0-0.3c0.1-0.5,0.3-0.9,0.6-1.2c0.3-0.3,0.8-0.5,1.3-0.5c0.5,0,0.8,0.1,1.1,0.4c0.3,0.3,0.4,0.6,0.4,1.1
		c0,0.1,0,0.1,0,0.3l0,0.2c0,0,0,0.1,0,0.1c0,0-0.1,0-0.1,0h-1c0,0-0.1,0-0.1,0s0,0,0-0.1l0-0.2c0,0,0-0.1,0-0.1
		c0-0.1,0-0.3-0.1-0.4c-0.1-0.1-0.2-0.1-0.3-0.1c-0.1,0-0.3,0.1-0.4,0.2s-0.2,0.3-0.2,0.4l0,0.1c0,0.1,0,0.3,0.1,0.4
		s0.3,0.3,0.5,0.5c0.3,0.2,0.5,0.4,0.7,0.6c0.2,0.2,0.3,0.3,0.4,0.5c0.1,0.2,0.1,0.4,0.1,0.6c0,0,0,0.1,0,0.3
		c-0.1,0.5-0.3,0.9-0.6,1.3c-0.4,0.3-0.8,0.5-1.3,0.5C98.8,125.1,98.5,125,98.2,124.8z"/>
	<path class="st1" d="M102.6,125l-0.4-6.1v0c0-0.1,0-0.1,0.1-0.1h1.1c0.1,0,0.1,0,0.1,0.1l0.1,3.2c0,0,0,0,0,0c0,0,0,0,0,0l0.9-3.2
		c0-0.1,0.1-0.1,0.1-0.1h0.9c0.1,0,0.1,0,0.1,0.1l0.1,3.2c0,0,0,0,0,0c0,0,0,0,0,0l0.8-3.2c0-0.1,0.1-0.1,0.1-0.1h1
		c0.1,0,0.1,0,0.1,0.1L106,125c0,0.1-0.1,0.1-0.1,0.1h-0.9c-0.1,0-0.1,0-0.1-0.1l-0.1-3.3c0,0,0,0,0,0c0,0,0,0,0,0l-0.9,3.3
		c0,0.1-0.1,0.1-0.1,0.1h-0.9C102.6,125.1,102.6,125,102.6,125z"/>
</g>
<g>
	<path class="st1" d="M107.5,125C107.5,125,107.5,125,107.5,125l0.7-6.2c0,0,0-0.1,0-0.1c0,0,0,0,0.1,0h1c0.1,0,0.1,0,0.1,0.1
		l-0.7,6.1c0,0,0,0.1,0,0.1c0,0-0.1,0-0.1,0L107.5,125C107.6,125.1,107.5,125.1,107.5,125z"/>
	<path class="st1" d="M113.2,119.2c0.3,0.3,0.4,0.7,0.4,1.1c0,0.1,0,0.3,0,0.3c-0.1,0.6-0.3,1-0.6,1.3s-0.7,0.5-1.2,0.5h-0.6
		c0,0,0,0-0.1,0l-0.3,2.4c0,0,0,0.1,0,0.1c0,0-0.1,0-0.1,0h-1c0,0-0.1,0-0.1,0c0,0,0,0,0-0.1l0.7-6.1c0,0,0-0.1,0-0.1c0,0,0,0,0.1,0
		h1.8C112.6,118.8,112.9,118.9,113.2,119.2z M112.1,121.3c0.1-0.2,0.2-0.4,0.2-0.7c0-0.2,0-0.4-0.1-0.5c-0.1-0.1-0.2-0.2-0.4-0.2
		h-0.4c0,0,0,0,0,0l-0.2,1.6c0,0,0,0,0,0h0.4C111.8,121.5,112,121.4,112.1,121.3z"/>
	<path class="st1" d="M117.4,119.8C117.4,119.8,117.3,119.9,117.4,119.8l-1.9,0c0,0,0,0,0,0l-0.2,1.4c0,0,0,0,0,0h1.1
		c0,0,0.1,0,0.1,0c0,0,0,0,0,0.1l-0.1,0.9c0,0,0,0.1,0,0.1c0,0,0,0-0.1,0h-1c0,0-0.1,0-0.1,0l-0.2,1.4c0,0,0,0,0,0h1.8
		c0,0,0.1,0,0.1,0c0,0,0,0,0,0.1l-0.1,0.9c0,0,0,0.1,0,0.1c0,0,0,0-0.1,0h-3c0,0-0.1,0-0.1,0c0,0,0,0,0-0.1l0.7-6.1c0,0,0-0.1,0-0.1
		c0,0,0,0,0.1,0h3c0,0,0.1,0,0.1,0c0,0,0,0,0,0.1L117.4,119.8C117.4,119.8,117.4,119.8,117.4,119.8z"/>
	<path class="st1" d="M120.4,118.8C120.4,118.8,120.4,118.8,120.4,118.8l1.1,0c0,0,0.1,0,0.1,0s0,0,0,0.1l-0.7,6.1c0,0,0,0.1,0,0.1
		c0,0,0,0-0.1,0h-1c0,0-0.1,0-0.1,0c0,0,0,0,0-0.1l0.3-2.5c0,0,0,0,0,0H119c0,0-0.1,0-0.1,0l-0.3,2.5c0,0,0,0.1,0,0.1
		c0,0-0.1,0-0.1,0h-1c0,0-0.1,0-0.1,0c0,0,0,0,0-0.1l0.7-6.1c0,0,0-0.1,0-0.1c0,0,0,0,0.1,0h1c0.1,0,0.1,0,0.1,0.1l-0.3,2.4
		c0,0,0,0,0,0h0.9c0,0,0,0,0.1,0L120.4,118.8C120.3,118.8,120.4,118.8,120.4,118.8z"/>
	<path class="st1" d="M122.2,124.7c-0.3-0.3-0.4-0.7-0.4-1.1c0-0.1,0-0.3,0-0.3l0.5-4.4c0,0,0-0.1,0-0.1c0,0,0,0,0.1,0h1
		c0.1,0,0.1,0,0.1,0.1l-0.6,4.5c0,0,0,0.1,0,0.1c0,0.2,0,0.3,0.1,0.4c0.1,0.1,0.2,0.1,0.3,0.1c0.2,0,0.3-0.1,0.4-0.2
		c0.1-0.1,0.2-0.3,0.2-0.5l0.6-4.5c0,0,0-0.1,0-0.1c0,0,0,0,0.1,0h1c0,0,0.1,0,0.1,0c0,0,0,0,0,0.1l-0.5,4.4c-0.1,0.6-0.3,1-0.6,1.4
		c-0.4,0.3-0.8,0.5-1.3,0.5C122.8,125.1,122.4,125,122.2,124.7z"/>
	<path class="st1" d="M125.8,125C125.8,125,125.8,125,125.8,125l0.7-6.2c0,0,0-0.1,0-0.1c0,0,0,0,0.1,0h1.1c0.1,0,0.1,0,0.1,0.1
		l0.7,3.4c0,0,0,0,0,0c0,0,0,0,0,0l0.4-3.3c0,0,0-0.1,0-0.1c0,0,0,0,0.1,0h1c0,0,0.1,0,0.1,0c0,0,0,0,0,0.1l-0.7,6.1
		c0,0,0,0.1,0,0.1c0,0,0,0-0.1,0h-1.1c-0.1,0-0.1,0-0.1-0.1l-0.7-3.4c0,0,0,0,0,0c0,0,0,0,0,0L127,125c0,0,0,0.1,0,0.1
		c0,0-0.1,0-0.1,0L125.8,125C125.8,125.1,125.8,125.1,125.8,125z"/>
	<path class="st1" d="M130.8,124.8c-0.3-0.3-0.4-0.6-0.4-1.1c0-0.1,0-0.1,0-0.3l0.4-3c0.1-0.5,0.3-0.9,0.6-1.2
		c0.4-0.3,0.8-0.5,1.3-0.5c0.5,0,0.8,0.1,1.1,0.4c0.3,0.3,0.4,0.6,0.4,1.1c0,0.1,0,0.1,0,0.3l0,0.3c0,0,0,0.1,0,0.1c0,0-0.1,0-0.1,0
		h-1c0,0-0.1,0-0.1,0c0,0,0,0,0-0.1l0-0.4c0,0,0-0.1,0-0.1c0-0.1,0-0.3-0.1-0.4s-0.2-0.1-0.3-0.1c-0.1,0-0.3,0.1-0.4,0.2
		c-0.1,0.1-0.2,0.3-0.2,0.4l-0.4,3.1c0,0.2,0,0.3,0.1,0.4c0.1,0.1,0.2,0.2,0.3,0.2c0.2,0,0.3-0.1,0.4-0.2c0.1-0.1,0.2-0.3,0.2-0.4
		l0.1-0.7c0,0,0,0,0,0h-0.4c0,0-0.1,0-0.1,0s0,0,0-0.1l0.1-0.8c0,0,0-0.1,0-0.1c0,0,0.1,0,0.1,0h1.5c0.1,0,0.1,0,0.1,0.1l-0.2,1.7
		c-0.1,0.5-0.3,0.9-0.6,1.2c-0.4,0.3-0.8,0.5-1.3,0.5C131.4,125.1,131,125,130.8,124.8z"/>
	<path class="st1" d="M138.1,119.8C138.1,119.8,138.1,119.9,138.1,119.8l-1.9,0c0,0,0,0,0,0l-0.2,1.4c0,0,0,0,0,0h1.1
		c0,0,0.1,0,0.1,0c0,0,0,0,0,0.1l-0.1,0.9c0,0,0,0.1,0,0.1c0,0,0,0-0.1,0h-1c0,0-0.1,0-0.1,0l-0.2,1.4c0,0,0,0,0,0h1.8
		c0,0,0.1,0,0.1,0c0,0,0,0,0,0.1l-0.1,0.9c0,0,0,0.1,0,0.1c0,0,0,0-0.1,0h-3c0,0-0.1,0-0.1,0c0,0,0,0,0-0.1l0.7-6.1c0,0,0-0.1,0-0.1
		c0,0,0,0,0.1,0h3c0,0,0.1,0,0.1,0c0,0,0,0,0,0.1L138.1,119.8C138.2,119.8,138.1,119.8,138.1,119.8z"/>
	<path class="st1" d="M140.4,125l-0.4-2.5c0,0,0,0,0,0h-0.3c0,0-0.1,0-0.1,0l-0.3,2.5c0,0,0,0.1,0,0.1c0,0-0.1,0-0.1,0h-1
		c0,0-0.1,0-0.1,0c0,0,0,0,0-0.1l0.7-6.1c0,0,0-0.1,0-0.1c0,0,0,0,0.1,0h1.8c0.4,0,0.8,0.1,1,0.4c0.3,0.3,0.4,0.7,0.4,1.1
		c0,0.1,0,0.3,0,0.3c0,0.3-0.1,0.7-0.3,0.9s-0.4,0.5-0.6,0.6c0,0,0,0,0,0s0,0,0,0l0.5,2.7v0c0,0,0,0.1,0,0.1c0,0,0,0-0.1,0h-1
		C140.5,125.1,140.4,125,140.4,125z M140,119.9l-0.2,1.5c0,0,0,0,0,0h0.4c0.2,0,0.4-0.1,0.5-0.3c0.1-0.2,0.2-0.4,0.2-0.7
		c0-0.2,0-0.4-0.1-0.5c-0.1-0.1-0.2-0.2-0.4-0.2L140,119.9C140,119.9,140,119.9,140,119.9z"/>
	<path class="st1" d="M142.5,124.9c-0.1-0.1-0.2-0.3-0.2-0.5c0-0.1,0-0.3,0.1-0.4c0.1-0.1,0.2-0.2,0.3-0.3s0.3-0.1,0.4-0.1
		c0.2,0,0.3,0.1,0.5,0.2c0.1,0.1,0.2,0.3,0.2,0.5c0,0.2-0.1,0.4-0.2,0.6c-0.2,0.2-0.4,0.3-0.6,0.3
		C142.8,125.1,142.6,125,142.5,124.9z"/>
	<path class="st1" d="M145.1,124.7c-0.3-0.3-0.4-0.6-0.4-1.1c0-0.1,0-0.2,0-0.3l0.4-2.9c0.1-0.5,0.3-1,0.6-1.3
		c0.4-0.3,0.8-0.5,1.3-0.5c0.5,0,0.9,0.1,1.2,0.4c0.3,0.3,0.4,0.6,0.4,1.1c0,0.1,0,0.2,0,0.3l-0.4,2.9c-0.1,0.5-0.3,1-0.6,1.3
		c-0.4,0.3-0.8,0.5-1.3,0.5C145.8,125.1,145.4,125,145.1,124.7z M146.8,123.9c0.1-0.1,0.2-0.3,0.2-0.5l0.4-3c0,0,0-0.1,0-0.1
		c0-0.2,0-0.3-0.1-0.4c-0.1-0.1-0.2-0.1-0.3-0.1c-0.2,0-0.3,0.1-0.4,0.2c-0.1,0.1-0.2,0.3-0.2,0.5l-0.4,3c0,0,0,0.1,0,0.1
		c0,0.2,0,0.3,0.1,0.4c0.1,0.1,0.2,0.1,0.3,0.1C146.5,124.1,146.7,124,146.8,123.9z"/>
	<path class="st1" d="M151,125l-0.4-2.5c0,0,0,0,0,0h-0.3c0,0-0.1,0-0.1,0L150,125c0,0,0,0.1,0,0.1c0,0-0.1,0-0.1,0h-1
		c0,0-0.1,0-0.1,0c0,0,0,0,0-0.1l0.7-6.1c0,0,0-0.1,0-0.1c0,0,0,0,0.1,0h1.8c0.4,0,0.8,0.1,1,0.4c0.3,0.3,0.4,0.7,0.4,1.1
		c0,0.1,0,0.3,0,0.3c0,0.3-0.1,0.7-0.3,0.9s-0.4,0.5-0.6,0.6c0,0,0,0,0,0s0,0,0,0l0.5,2.7v0c0,0,0,0.1,0,0.1c0,0,0,0-0.1,0h-1
		C151.1,125.1,151,125,151,125z M150.6,119.9l-0.2,1.5c0,0,0,0,0,0h0.4c0.2,0,0.4-0.1,0.5-0.3c0.1-0.2,0.2-0.4,0.2-0.7
		c0-0.2,0-0.4-0.1-0.5c-0.1-0.1-0.2-0.2-0.4-0.2L150.6,119.9C150.6,119.9,150.6,119.9,150.6,119.9z"/>
	<path class="st1" d="M153.3,124.8c-0.3-0.3-0.4-0.6-0.4-1.1c0-0.1,0-0.1,0-0.3l0.4-3c0.1-0.5,0.3-0.9,0.6-1.2
		c0.4-0.3,0.8-0.5,1.3-0.5c0.5,0,0.8,0.1,1.1,0.4c0.3,0.3,0.4,0.6,0.4,1.1c0,0.1,0,0.1,0,0.3l0,0.3c0,0,0,0.1,0,0.1c0,0-0.1,0-0.1,0
		h-1c0,0-0.1,0-0.1,0c0,0,0,0,0-0.1l0-0.4c0,0,0-0.1,0-0.1c0-0.1,0-0.3-0.1-0.4s-0.2-0.1-0.3-0.1c-0.1,0-0.3,0.1-0.4,0.2
		c-0.1,0.1-0.2,0.3-0.2,0.4l-0.4,3.1c0,0.2,0,0.3,0.1,0.4c0.1,0.1,0.2,0.2,0.3,0.2c0.2,0,0.3-0.1,0.4-0.2c0.1-0.1,0.2-0.3,0.2-0.4
		l0.1-0.7c0,0,0,0,0,0h-0.4c0,0-0.1,0-0.1,0s0,0,0-0.1l0.1-0.8c0,0,0-0.1,0-0.1c0,0,0.1,0,0.1,0h1.5c0.1,0,0.1,0,0.1,0.1l-0.2,1.7
		c-0.1,0.5-0.3,0.9-0.6,1.2c-0.4,0.3-0.8,0.5-1.3,0.5C154,125.1,153.6,125,153.3,124.8z"/>
</g>
<g>
	<path class="st2" d="M130.4,44.9H46c-1.2,0-2.1-1-1.9-2.2l2.7-21.7c0.1-1,1-1.7,1.9-1.7h84.5c1.2,0,2.1,1,1.9,2.2l-2.7,21.6
		C132.3,44.1,131.4,44.9,130.4,44.9"/>
	<path class="st1" d="M194.9,73.6h-89.7c-1.2,0-2.1-1-1.9-2.2l2.7-21.7c0.1-1,1-1.7,1.9-1.7h89.8c1.2,0,2.1,1,1.9,2.2L197,71.8
		C196.8,72.8,196,73.6,194.9,73.6"/>
	<path class="st1" d="M212.4,102.2H38.8c-1.2,0-2.1-1-1.9-2.2l2.7-21.7c0.1-1,1-1.7,1.9-1.7h173.7c1.2,0,2.1,1,1.9,2.2l-2.7,21.6
		C214.3,101.4,213.4,102.2,212.4,102.2"/>
</g>
<g>
	<path class="st1" d="M51.6,65.9c-0.7,0.7-1.6,1-2.7,1h-3.2c-0.1,0-0.1,0-0.1-0.1c0,0,0-0.1,0-0.1l1.6-13.3c0-0.1,0-0.1,0.1-0.1
		c0,0,0.1-0.1,0.1-0.1h2.9c1,0,1.8,0.3,2.4,0.8c0.6,0.5,0.9,1.2,0.9,2.2c0,0.1,0,0.4,0,0.7c-0.2,1.4-0.8,2.4-1.8,2.9
		c-0.1,0-0.1,0.1,0,0.1c0.9,0.6,1.3,1.5,1.3,2.7c0,0.1,0,0.3,0,0.6C52.8,64.3,52.4,65.2,51.6,65.9z M50.4,64.6
		c0.4-0.4,0.6-1,0.7-1.7c0-0.2,0-0.4,0-0.5c0-0.6-0.1-1.1-0.4-1.4c-0.3-0.3-0.7-0.5-1.2-0.5h-1.3c0,0-0.1,0-0.1,0.1l-0.5,4.6
		c0,0,0,0,0,0c0,0,0,0,0.1,0H49C49.5,65.2,50,65,50.4,64.6z M48.9,54.8C48.8,54.8,48.8,54.8,48.9,54.8L48.3,59c0,0,0,0,0,0.1
		c0,0,0,0,0,0h1.2c0.7,0,1.2-0.2,1.6-0.7c0.4-0.5,0.6-1.1,0.6-1.9c0-0.5-0.1-1-0.4-1.3c-0.3-0.3-0.7-0.5-1.2-0.5L48.9,54.8
		C48.9,54.8,48.9,54.8,48.9,54.8z"/>
	<path class="st1" d="M60.6,62.7h-4.3c0,0-0.1,0-0.1,0.1l-0.1,1.1c0,0.1,0,0.2,0,0.3c0,0.4,0.1,0.7,0.3,1s0.5,0.4,0.9,0.4
		s0.7-0.1,0.9-0.3c0.3-0.2,0.5-0.5,0.6-0.9c0.1-0.1,0.1-0.2,0.2-0.2l1.4,0.1c0.1,0,0.1,0,0.1,0.1c0,0,0,0.1,0,0.1
		c-0.2,0.9-0.6,1.5-1.2,2C58.7,66.8,58,67,57,67c-0.9,0-1.6-0.2-2.1-0.7c-0.5-0.5-0.8-1.1-0.8-1.9c0-0.1,0-0.3,0-0.5l0.5-4.1
		c0.1-0.9,0.5-1.7,1.2-2.3c0.7-0.6,1.5-0.9,2.4-0.9c0.9,0,1.6,0.2,2.1,0.7s0.8,1.1,0.8,1.9c0,0.1,0,0.3,0,0.5l-0.3,2.6
		C60.8,62.6,60.7,62.7,60.6,62.7z M57.1,58.8c-0.3,0.3-0.5,0.7-0.5,1.2l-0.1,1c0,0.1,0,0.1,0.1,0.1h2.6c0,0,0,0,0.1,0s0,0,0-0.1
		l0.1-1c0-0.1,0-0.2,0-0.3c0-0.4-0.1-0.7-0.3-1s-0.5-0.4-0.9-0.4C57.7,58.4,57.3,58.5,57.1,58.8z"/>
	<path class="st1" d="M62.9,66.4c-0.5-0.5-0.8-1.1-0.8-1.9c0-0.1,0-0.3,0-0.5l0.5-4.1c0.1-0.9,0.5-1.7,1.2-2.3
		c0.7-0.6,1.5-0.9,2.4-0.9c0.9,0,1.6,0.2,2.1,0.7s0.8,1.1,0.8,1.8c0,0.2,0,0.3,0,0.4l0,0.3c0,0.1-0.1,0.2-0.2,0.2l-1.5,0.1
		c-0.1,0-0.2-0.1-0.2-0.2l0-0.2c0-0.4-0.1-0.7-0.3-1c-0.2-0.3-0.5-0.4-0.9-0.4c-0.4,0-0.8,0.2-1,0.5c-0.3,0.3-0.5,0.7-0.5,1.2
		L64,63.8c0,0.1,0,0.2,0,0.3c0,0.4,0.1,0.7,0.3,1s0.5,0.4,0.9,0.4c0.4,0,0.8-0.1,1-0.4c0.3-0.3,0.5-0.6,0.5-1l0-0.2
		c0-0.1,0.1-0.2,0.2-0.2l1.5,0c0.1,0,0.2,0.1,0.2,0.2l0,0.3c-0.1,0.9-0.5,1.5-1.1,2.1C66.7,66.8,65.9,67,65,67
		C64.1,67,63.4,66.8,62.9,66.4z"/>
	<path class="st1" d="M75.5,57c0,0,0.1-0.1,0.1-0.1h1.5c0.1,0,0.2,0.1,0.2,0.2L76,66.7c0,0.1,0,0.1-0.1,0.1c0,0-0.1,0.1-0.1,0.1
		h-1.5c-0.1,0-0.2-0.1-0.2-0.2l0.1-0.4c0-0.1,0-0.1-0.1,0c-0.3,0.3-0.6,0.5-0.9,0.6c-0.3,0.1-0.7,0.2-1,0.2c-0.7,0-1.3-0.2-1.7-0.7
		S70,65.3,70,64.6c0-0.1,0-0.3,0-0.6l0.5-4.1c0.1-1,0.4-1.7,1-2.3c0.5-0.5,1.2-0.8,2-0.8c0.3,0,0.6,0.1,1,0.2
		c0.3,0.1,0.6,0.3,0.8,0.6c0.1,0.1,0.1,0,0.1,0l0-0.5C75.4,57,75.4,57,75.5,57z M74,65c0.3-0.3,0.5-0.7,0.5-1.1L75,60
		c0-0.1,0-0.2,0-0.3c0-0.4-0.1-0.7-0.3-1c-0.2-0.2-0.5-0.4-0.8-0.4c-0.4,0-0.8,0.2-1,0.5c-0.3,0.3-0.5,0.7-0.5,1.2l-0.5,3.8
		c0,0.1,0,0.2,0,0.3c0,0.4,0.1,0.7,0.3,1s0.5,0.4,0.9,0.4C73.4,65.4,73.8,65.3,74,65z"/>
	<path class="st1" d="M83.8,56.9h1.5c0.1,0,0.2,0.1,0.2,0.2l-1.2,9.6c0,0.1,0,0.1-0.1,0.1c0,0-0.1,0.1-0.1,0.1h-1.5
		c-0.1,0-0.2-0.1-0.2-0.2l0.1-0.6c0,0,0-0.1,0-0.1s0,0,0,0c-0.5,0.6-1.1,0.9-2,0.9c-0.7,0-1.2-0.2-1.6-0.6c-0.4-0.4-0.6-1-0.6-1.8
		c0-0.1,0-0.3,0-0.6l0.9-7c0-0.1,0-0.1,0.1-0.1c0,0,0.1-0.1,0.1-0.1h1.5c0.1,0,0.2,0.1,0.2,0.2l-0.8,6.6c0,0.1,0,0.2,0,0.4
		c0,0.9,0.4,1.3,1.1,1.3c0.4,0,0.8-0.2,1-0.5s0.5-0.8,0.5-1.3l0.8-6.5C83.6,57,83.7,56.9,83.8,56.9z"/>
	<path class="st1" d="M87,66.4c-0.5-0.4-0.7-1-0.7-1.7c0-0.2,0-0.3,0-0.4l0-0.2c0-0.1,0-0.1,0.1-0.1c0,0,0.1-0.1,0.1-0.1h1.4
		c0.1,0,0.1,0,0.1,0c0,0,0,0.1,0,0.1l0,0.2c-0.1,0.4,0,0.7,0.3,0.9c0.2,0.2,0.6,0.4,1,0.4c0.4,0,0.8-0.1,1-0.4
		c0.3-0.3,0.4-0.6,0.4-1c0-0.4-0.1-0.6-0.4-0.8c-0.3-0.2-0.7-0.4-1.3-0.7c-0.4-0.2-0.8-0.4-1-0.6c-0.3-0.2-0.5-0.4-0.7-0.8
		c-0.2-0.3-0.3-0.8-0.3-1.3c0-0.2,0-0.3,0-0.4c0.1-0.9,0.5-1.6,1.1-2.1c0.6-0.5,1.4-0.7,2.3-0.7c0.9,0,1.5,0.2,2,0.6s0.7,1,0.7,1.8
		c0,0.2,0,0.3,0,0.5v0.1c0,0.1-0.1,0.2-0.2,0.2h-1.3c-0.1,0-0.2-0.1-0.2-0.2l0-0.2l0-0.2c0-0.3-0.1-0.6-0.3-0.8
		c-0.2-0.2-0.5-0.3-0.8-0.3c-0.4,0-0.7,0.1-1,0.4s-0.4,0.5-0.5,0.9c0,0.3,0,0.5,0.2,0.7c0.1,0.2,0.3,0.3,0.5,0.4s0.5,0.3,1,0.5
		c0.4,0.2,0.8,0.4,1.1,0.6c0.3,0.2,0.6,0.5,0.8,0.8c0.2,0.3,0.3,0.8,0.3,1.2c0,1-0.3,1.7-1,2.3C90.9,66.7,90,67,89,67
		C88.1,67,87.5,66.8,87,66.4z"/>
	<path class="st1" d="M100.2,62.7h-4.3c0,0-0.1,0-0.1,0.1l-0.1,1.1c0,0.1,0,0.2,0,0.3c0,0.4,0.1,0.7,0.3,1s0.5,0.4,0.9,0.4
		s0.7-0.1,0.9-0.3c0.3-0.2,0.5-0.5,0.6-0.9c0.1-0.1,0.1-0.2,0.2-0.2l1.4,0.1c0.1,0,0.1,0,0.1,0.1c0,0,0,0.1,0,0.1
		c-0.2,0.9-0.6,1.5-1.2,2c-0.6,0.5-1.4,0.7-2.3,0.7c-0.9,0-1.6-0.2-2.1-0.7c-0.5-0.5-0.8-1.1-0.8-1.9c0-0.1,0-0.3,0-0.5l0.5-4.1
		c0.1-0.9,0.5-1.7,1.2-2.3c0.7-0.6,1.5-0.9,2.4-0.9c0.9,0,1.6,0.2,2.1,0.7s0.8,1.1,0.8,1.9c0,0.1,0,0.3,0,0.5l-0.3,2.6
		C100.4,62.6,100.3,62.7,100.2,62.7z M96.7,58.8c-0.3,0.3-0.5,0.7-0.5,1.2L96,61c0,0.1,0,0.1,0.1,0.1h2.6c0,0,0,0,0.1,0s0,0,0-0.1
		l0.1-1c0-0.1,0-0.2,0-0.3c0-0.4-0.1-0.7-0.3-1s-0.5-0.4-0.9-0.4C97.3,58.4,96.9,58.5,96.7,58.8z"/>
</g>
<g>
	<path class="st2" d="M112.2,53.2h1.5c0.1,0,0.1,0,0.1,0.1c0,0,0,0.1,0,0.1l-1.6,13.3c0,0.1,0,0.1-0.1,0.1c0,0-0.1,0.1-0.1,0.1h-1.5
		c-0.1,0-0.2-0.1-0.2-0.2l1.4-11.6c0-0.1,0-0.1-0.1-0.1l-1.6,0.6l-0.1,0c-0.1,0-0.1-0.1-0.1-0.2l0.1-1.1c0-0.1,0.1-0.2,0.2-0.2
		l1.7-0.9C112,53.2,112.1,53.2,112.2,53.2z"/>
	<path class="st2" d="M118,66.8c0,0,0-0.1,0-0.1l1.2-9.6c0-0.1,0.1-0.2,0.2-0.2h1.5c0.1,0,0.2,0.1,0.2,0.2l-1.2,9.6
		c0,0.1-0.1,0.2-0.2,0.2h-1.4C118.1,66.9,118.1,66.9,118,66.8z M119.6,55.1c-0.2-0.2-0.3-0.4-0.3-0.8c0-0.4,0.1-0.8,0.4-1
		c0.3-0.3,0.6-0.4,1-0.4c0.3,0,0.5,0.1,0.7,0.3c0.2,0.2,0.3,0.4,0.3,0.7c0,0.4-0.1,0.8-0.4,1.1c-0.2,0.3-0.6,0.4-0.9,0.4
		C120,55.4,119.7,55.3,119.6,55.1z"/>
	<path class="st2" d="M128.6,57.4c0.4,0.4,0.5,1,0.5,1.8c0,0.2,0,0.5-0.1,0.7l-0.8,6.7c0,0.1,0,0.1-0.1,0.1c0,0-0.1,0.1-0.2,0.1
		h-1.4c-0.1,0-0.1,0-0.1-0.1c0,0,0-0.1,0-0.1l0.8-6.6c0-0.1,0-0.2,0-0.4c0-0.4-0.1-0.7-0.3-1c-0.2-0.2-0.5-0.3-0.8-0.3
		c-0.4,0-0.8,0.2-1.1,0.5c-0.3,0.3-0.5,0.8-0.5,1.3l-0.8,6.5c0,0.1,0,0.1-0.1,0.1c0,0-0.1,0.1-0.2,0.1h-1.4c-0.1,0-0.2-0.1-0.2-0.2
		l1.2-9.6c0-0.1,0.1-0.2,0.2-0.2h1.5c0.1,0,0.2,0.1,0.2,0.2l-0.1,0.5c0,0,0,0,0,0c0,0,0.1,0,0.1,0c0.5-0.6,1.2-0.9,2-0.9
		C127.7,56.8,128.2,57,128.6,57.4z"/>
	<path class="st2" d="M141.1,64.1c-0.2,0.9-0.7,1.6-1.4,2.2s-1.5,0.8-2.5,0.8c-1,0-1.8-0.3-2.4-0.8S134,65,134,64.1
		c0-0.2,0-0.6,0.1-1.2c0-0.1,0.1-0.2,0.2-0.2h1.4c0.1,0,0.2,0.1,0.2,0.2c-0.1,0.4-0.1,0.7-0.1,0.9c0,0.5,0.2,0.9,0.5,1.2
		c0.3,0.3,0.7,0.5,1.1,0.5s0.9-0.2,1.3-0.5c0.4-0.3,0.6-0.7,0.7-1.2c0.1-0.2,0.1-0.5,0.2-0.9l0.1-0.4c0.1-0.6,0.1-1.1,0.1-1.4
		c0-0.5-0.2-0.9-0.5-1.2c-0.3-0.3-0.7-0.5-1.1-0.5c-0.2,0-0.4,0.1-0.6,0.2c-0.1,0.1-0.2,0.1-0.3,0l-0.6-0.8c0,0-0.1-0.1-0.1-0.1
		c0,0,0-0.1,0.1-0.2l3.4-3.7c0,0,0,0,0-0.1c0,0,0,0,0,0h-4.7c-0.1,0-0.2-0.1-0.2-0.2l0.2-1.2c0-0.1,0.1-0.2,0.2-0.2h6.7
		c0.1,0,0.1,0,0.1,0.1c0,0,0,0.1,0,0.1l-0.2,1.3c0,0.1,0,0.2-0.1,0.2l-2.7,3.1c0,0.1,0,0.1,0,0.1c0.6,0.1,1.1,0.5,1.5,1.1
		c0.4,0.6,0.5,1.3,0.5,2c0,0.3,0,0.6,0,0.9c0,0.3-0.1,0.5-0.1,0.6C141.3,63.3,141.2,63.8,141.1,64.1z"/>
	<path class="st2" d="M147.4,66.4c-0.5-0.5-0.8-1.1-0.8-1.9c0-0.1,0-0.3,0-0.5l0.5-4.1c0.1-0.9,0.5-1.7,1.2-2.3
		c0.7-0.6,1.5-0.9,2.4-0.9c0.9,0,1.6,0.2,2.1,0.7s0.8,1.1,0.8,1.8c0,0.2,0,0.3,0,0.4l0,0.3c0,0.1-0.1,0.2-0.2,0.2l-1.5,0.1
		c-0.1,0-0.2-0.1-0.2-0.2l0-0.2c0-0.4-0.1-0.7-0.3-1c-0.2-0.3-0.5-0.4-0.9-0.4c-0.4,0-0.8,0.2-1,0.5c-0.3,0.3-0.5,0.7-0.5,1.2
		l-0.5,3.8c0,0.1,0,0.2,0,0.3c0,0.4,0.1,0.7,0.3,1s0.5,0.4,0.9,0.4c0.4,0,0.8-0.1,1-0.4c0.3-0.3,0.5-0.6,0.5-1l0-0.2
		c0-0.1,0.1-0.2,0.2-0.2l1.5,0c0.1,0,0.2,0.1,0.2,0.2l0,0.3c-0.1,0.9-0.5,1.5-1.1,2.1c-0.6,0.5-1.5,0.8-2.4,0.8
		C148.6,67,147.9,66.8,147.4,66.4z"/>
	<path class="st2" d="M155.2,66.4c-0.5-0.5-0.8-1.1-0.8-1.9c0-0.1,0-0.3,0-0.5l0.5-4.1c0.1-0.9,0.5-1.7,1.2-2.3
		c0.7-0.6,1.5-0.9,2.5-0.9c0.9,0,1.6,0.2,2.1,0.7c0.5,0.5,0.8,1.1,0.8,1.9c0,0.1,0,0.3,0,0.5l-0.5,4.1c-0.1,0.9-0.5,1.7-1.1,2.3
		c-0.6,0.6-1.5,0.8-2.5,0.8C156.4,67,155.7,66.8,155.2,66.4z M158.6,65c0.3-0.3,0.5-0.7,0.5-1.1l0.5-3.8c0-0.1,0-0.2,0-0.3
		c0-0.4-0.1-0.7-0.3-1s-0.5-0.4-0.9-0.4c-0.4,0-0.8,0.2-1,0.5c-0.3,0.3-0.5,0.7-0.5,1.2l-0.5,3.8c0,0.1,0,0.2,0,0.3
		c0,0.4,0.1,0.7,0.3,1s0.5,0.4,0.9,0.4C158,65.4,158.3,65.3,158.6,65z"/>
	<path class="st2" d="M162.3,66.7l1.6-13.3c0-0.1,0.1-0.2,0.2-0.2h1.5c0.1,0,0.1,0,0.1,0.1c0,0,0,0.1,0,0.1l-1.6,13.3
		c0,0.1,0,0.1-0.1,0.1c0,0-0.1,0.1-0.1,0.1h-1.5C162.4,66.9,162.3,66.8,162.3,66.7z"/>
	<path class="st2" d="M166,66.7l1.6-13.3c0-0.1,0.1-0.2,0.2-0.2h1.5c0.1,0,0.1,0,0.1,0.1c0,0,0,0.1,0,0.1l-1.6,13.3
		c0,0.1,0,0.1-0.1,0.1c0,0-0.1,0.1-0.1,0.1h-1.5C166,66.9,166,66.8,166,66.7z"/>
	<path class="st2" d="M176.2,62.7h-4.3c0,0-0.1,0-0.1,0.1l-0.1,1.1c0,0.1,0,0.2,0,0.3c0,0.4,0.1,0.7,0.3,1s0.5,0.4,0.9,0.4
		s0.7-0.1,0.9-0.3c0.3-0.2,0.5-0.5,0.6-0.9c0.1-0.1,0.1-0.2,0.2-0.2l1.4,0.1c0.1,0,0.1,0,0.1,0.1c0,0,0,0.1,0,0.1
		c-0.2,0.9-0.6,1.5-1.2,2c-0.6,0.5-1.4,0.7-2.3,0.7c-0.9,0-1.6-0.2-2.1-0.7c-0.5-0.5-0.8-1.1-0.8-1.9c0-0.1,0-0.3,0-0.5l0.5-4.1
		c0.1-0.9,0.5-1.7,1.2-2.3c0.7-0.6,1.5-0.9,2.4-0.9c0.9,0,1.6,0.2,2.1,0.7s0.8,1.1,0.8,1.9c0,0.1,0,0.3,0,0.5l-0.3,2.6
		C176.4,62.6,176.3,62.7,176.2,62.7z M172.7,58.8c-0.3,0.3-0.5,0.7-0.5,1.2l-0.1,1c0,0.1,0,0.1,0.1,0.1h2.6c0,0,0,0,0.1,0s0,0,0-0.1
		l0.1-1c0-0.1,0-0.2,0-0.3c0-0.4-0.1-0.7-0.3-1s-0.5-0.4-0.9-0.4C173.3,58.4,173,58.5,172.7,58.8z"/>
	<path class="st2" d="M183.2,57c0,0,0.1-0.1,0.1-0.1h1.5c0.1,0,0.2,0.1,0.2,0.2l-1.2,9.5c-0.2,1.4-0.6,2.4-1.3,3.2
		c-0.7,0.8-1.8,1.1-3.3,1.1l-0.5,0c-0.1,0-0.2-0.1-0.2-0.2l0.2-1.3c0-0.1,0.1-0.2,0.2-0.2c1,0,1.8-0.2,2.2-0.6
		c0.4-0.5,0.7-1.2,0.8-2.2l0.1-0.4c0,0,0,0,0,0c0,0,0,0-0.1,0c-0.3,0.3-0.6,0.5-0.9,0.7c-0.3,0.1-0.7,0.2-1.1,0.2
		c-0.7,0-1.3-0.2-1.7-0.7c-0.4-0.4-0.6-1-0.6-1.8c0-0.1,0-0.3,0-0.6l0.5-3.9c0.1-1,0.4-1.7,1-2.3c0.5-0.6,1.2-0.8,2-0.8
		c0.8,0,1.4,0.3,1.7,0.9c0,0,0,0,0.1,0c0,0,0,0,0-0.1l0.1-0.5C183.2,57,183.2,57,183.2,57z M181.8,64.8c0.3-0.3,0.5-0.7,0.5-1.1
		l0.5-3.7c0-0.1,0-0.2,0-0.3c0-0.4-0.1-0.7-0.3-1c-0.2-0.2-0.5-0.4-0.8-0.4c-0.4,0-0.8,0.2-1,0.5c-0.3,0.3-0.5,0.7-0.5,1.2l-0.5,3.7
		c0,0.1,0,0.2,0,0.3c0,0.4,0.1,0.7,0.3,1c0.2,0.2,0.5,0.4,0.9,0.4C181.2,65.3,181.6,65.1,181.8,64.8z"/>
	<path class="st2" d="M192.2,62.7h-4.3c0,0-0.1,0-0.1,0.1l-0.1,1.1c0,0.1,0,0.2,0,0.3c0,0.4,0.1,0.7,0.3,1s0.5,0.4,0.9,0.4
		s0.7-0.1,0.9-0.3c0.3-0.2,0.5-0.5,0.6-0.9c0.1-0.1,0.1-0.2,0.2-0.2l1.4,0.1c0.1,0,0.1,0,0.1,0.1c0,0,0,0.1,0,0.1
		c-0.2,0.9-0.6,1.5-1.2,2c-0.6,0.5-1.4,0.7-2.3,0.7c-0.9,0-1.6-0.2-2.1-0.7c-0.5-0.5-0.8-1.1-0.8-1.9c0-0.1,0-0.3,0-0.5l0.5-4.1
		c0.1-0.9,0.5-1.7,1.2-2.3c0.7-0.6,1.5-0.9,2.4-0.9c0.9,0,1.6,0.2,2.1,0.7s0.8,1.1,0.8,1.9c0,0.1,0,0.3,0,0.5l-0.3,2.6
		C192.4,62.6,192.3,62.7,192.2,62.7z M188.7,58.8c-0.3,0.3-0.5,0.7-0.5,1.2l-0.1,1c0,0.1,0,0.1,0.1,0.1h2.6c0,0,0,0,0.1,0s0,0,0-0.1
		l0.1-1c0-0.1,0-0.2,0-0.3c0-0.4-0.1-0.7-0.3-1s-0.5-0.4-0.9-0.4C189.3,58.4,189,58.5,188.7,58.8z"/>
</g>
<g>
	<path class="st2" d="M42.5,93.9c-0.5-0.4-0.7-1-0.7-1.7c0-0.2,0-0.3,0-0.4l0-0.2c0-0.1,0-0.1,0.1-0.1c0,0,0.1-0.1,0.1-0.1h1.4
		c0.1,0,0.1,0,0.1,0c0,0,0,0.1,0,0.1l0,0.2c-0.1,0.4,0,0.7,0.3,0.9c0.2,0.2,0.6,0.4,1,0.4c0.4,0,0.8-0.1,1-0.4
		c0.3-0.3,0.4-0.6,0.4-1c0-0.4-0.1-0.6-0.4-0.8c-0.3-0.2-0.7-0.4-1.3-0.7c-0.4-0.2-0.8-0.4-1-0.6c-0.3-0.2-0.5-0.4-0.7-0.8
		c-0.2-0.3-0.3-0.8-0.3-1.3c0-0.2,0-0.3,0-0.4c0.1-0.9,0.5-1.6,1.1-2.1c0.6-0.5,1.4-0.7,2.3-0.7c0.9,0,1.5,0.2,2,0.6s0.7,1,0.7,1.8
		c0,0.2,0,0.3,0,0.5v0.1c0,0.1-0.1,0.2-0.2,0.2h-1.3c-0.1,0-0.2-0.1-0.2-0.2l0-0.2l0-0.2c0-0.3-0.1-0.6-0.3-0.8
		c-0.2-0.2-0.5-0.3-0.8-0.3c-0.4,0-0.7,0.1-1,0.4s-0.4,0.5-0.5,0.9c0,0.3,0,0.5,0.2,0.7c0.1,0.2,0.3,0.3,0.5,0.4s0.5,0.3,1,0.5
		c0.4,0.2,0.8,0.4,1.1,0.6c0.3,0.2,0.6,0.5,0.8,0.8c0.2,0.3,0.3,0.8,0.3,1.2c0,1-0.3,1.7-1,2.3c-0.6,0.6-1.5,0.9-2.5,0.9
		C43.7,94.5,43,94.3,42.5,93.9z"/>
	<path class="st2" d="M53.8,85.8h-1.3c-0.1,0-0.1,0-0.1,0.1l-0.7,5.5c0,0.1,0,0.2,0,0.4c0,0.4,0.1,0.6,0.2,0.8
		c0.2,0.1,0.4,0.2,0.7,0.2h0.2c0.1,0,0.2,0.1,0.2,0.2l-0.1,1.3c0,0.1,0,0.1-0.1,0.1c0,0-0.1,0.1-0.1,0.1h-0.6
		c-0.7,0-1.3-0.1-1.7-0.4c-0.4-0.3-0.6-0.7-0.6-1.4c0-0.1,0-0.3,0-0.5l0.8-6.2c0-0.1,0-0.1-0.1-0.1h-0.7c-0.1,0-0.1,0-0.1-0.1
		c0,0,0-0.1,0-0.1l0.1-1c0-0.1,0.1-0.2,0.2-0.2h0.7c0.1,0,0.1,0,0.1-0.1l0.3-2.2c0-0.1,0.1-0.2,0.2-0.2h1.4c0.1,0,0.2,0.1,0.2,0.2
		l-0.3,2.2c0,0,0,0,0,0c0,0,0,0,0.1,0H54c0.1,0,0.2,0.1,0.2,0.2l-0.1,1C54,85.7,53.9,85.8,53.8,85.8z"/>
	<path class="st2" d="M60.2,84.4h1.5c0.1,0,0.2,0.1,0.2,0.2l-1.2,9.6c0,0.1,0,0.1-0.1,0.1c0,0-0.1,0.1-0.1,0.1H59
		c-0.1,0-0.2-0.1-0.2-0.2l0.1-0.6c0,0,0-0.1,0-0.1s0,0,0,0c-0.5,0.6-1.1,0.9-2,0.9c-0.7,0-1.2-0.2-1.6-0.6c-0.4-0.4-0.6-1-0.6-1.8
		c0-0.1,0-0.3,0-0.6l0.9-7c0-0.1,0-0.1,0.1-0.1c0,0,0.1-0.1,0.1-0.1h1.5c0.1,0,0.2,0.1,0.2,0.2l-0.8,6.6c0,0.1,0,0.2,0,0.4
		c0,0.9,0.4,1.3,1.1,1.3c0.4,0,0.8-0.2,1-0.5s0.5-0.8,0.5-1.3l0.8-6.5C60,84.4,60.1,84.4,60.2,84.4z"/>
	<path class="st2" d="M68.9,80.6h1.4c0.1,0,0.1,0,0.1,0.1c0,0,0,0.1,0,0.1l-1.6,13.3c0,0.1,0,0.1-0.1,0.1c0,0-0.1,0.1-0.1,0.1h-1.5
		c-0.1,0-0.2-0.1-0.2-0.2l0.1-0.5c0,0,0,0,0-0.1s0,0-0.1,0c-0.3,0.3-0.6,0.5-0.9,0.6c-0.3,0.1-0.7,0.2-1,0.2c-0.7,0-1.3-0.2-1.7-0.7
		s-0.6-1.1-0.6-1.8c0-0.1,0-0.3,0-0.6l0.5-4.1c0.1-1,0.4-1.7,1-2.3c0.5-0.5,1.2-0.8,2-0.8c0.3,0,0.7,0.1,1,0.2
		c0.3,0.1,0.6,0.4,0.8,0.6c0,0,0,0,0.1,0c0,0,0,0,0-0.1l0.5-4.2C68.7,80.7,68.8,80.6,68.9,80.6z M67.9,87.2c0-0.4-0.1-0.7-0.3-1
		c-0.2-0.2-0.5-0.4-0.8-0.4c-0.4,0-0.8,0.2-1,0.5c-0.3,0.3-0.5,0.7-0.5,1.2l-0.5,3.8c0,0.1,0,0.2,0,0.3c0,0.4,0.1,0.7,0.3,1
		s0.5,0.4,0.9,0.4c0.4,0,0.7-0.1,1-0.4s0.5-0.7,0.5-1.1l0.5-3.8C67.9,87.4,67.9,87.3,67.9,87.2z"/>
	<path class="st2" d="M77.4,90.2h-4.3c0,0-0.1,0-0.1,0.1l-0.1,1.1c0,0.1,0,0.2,0,0.3c0,0.4,0.1,0.7,0.3,1s0.5,0.4,0.9,0.4
		s0.7-0.1,0.9-0.3c0.3-0.2,0.5-0.5,0.6-0.9c0.1-0.1,0.1-0.2,0.2-0.2l1.4,0.1c0.1,0,0.1,0,0.1,0.1c0,0,0,0.1,0,0.1
		c-0.2,0.9-0.6,1.5-1.2,2c-0.6,0.5-1.4,0.7-2.3,0.7c-0.9,0-1.6-0.2-2.1-0.7c-0.5-0.5-0.8-1.1-0.8-1.9c0-0.1,0-0.3,0-0.5l0.5-4.1
		c0.1-0.9,0.5-1.7,1.2-2.3c0.7-0.6,1.5-0.9,2.4-0.9c0.9,0,1.6,0.2,2.1,0.7S78,86,78,86.8c0,0.1,0,0.3,0,0.5L77.6,90
		C77.6,90.1,77.5,90.2,77.4,90.2z M73.9,86.3c-0.3,0.3-0.5,0.7-0.5,1.2l-0.1,1c0,0.1,0,0.1,0.1,0.1h2.6c0,0,0,0,0.1,0s0,0,0-0.1
		l0.1-1c0-0.1,0-0.2,0-0.3c0-0.4-0.1-0.7-0.3-1s-0.5-0.4-0.9-0.4C74.5,85.9,74.2,86,73.9,86.3z"/>
	<path class="st2" d="M85.5,84.9c0.4,0.4,0.5,1,0.5,1.8c0,0.2,0,0.5-0.1,0.7l-0.8,6.7c0,0.1,0,0.1-0.1,0.1c0,0-0.1,0.1-0.2,0.1h-1.4
		c-0.1,0-0.1,0-0.1-0.1c0,0,0-0.1,0-0.1l0.8-6.6c0-0.1,0-0.2,0-0.4c0-0.4-0.1-0.7-0.3-1c-0.2-0.2-0.5-0.3-0.8-0.3
		c-0.4,0-0.8,0.2-1.1,0.5c-0.3,0.3-0.5,0.8-0.5,1.3l-0.8,6.5c0,0.1,0,0.1-0.1,0.1c0,0-0.1,0.1-0.2,0.1H79c-0.1,0-0.2-0.1-0.2-0.2
		l1.2-9.6c0-0.1,0.1-0.2,0.2-0.2h1.5c0.1,0,0.2,0.1,0.2,0.2l-0.1,0.5c0,0,0,0,0,0c0,0,0.1,0,0.1,0c0.5-0.6,1.2-0.9,2-0.9
		C84.6,84.2,85.1,84.5,85.5,84.9z"/>
	<path class="st2" d="M91.6,85.8h-1.3c-0.1,0-0.1,0-0.1,0.1l-0.7,5.5c0,0.1,0,0.2,0,0.4c0,0.4,0.1,0.6,0.2,0.8
		c0.2,0.1,0.4,0.2,0.7,0.2h0.2c0.1,0,0.2,0.1,0.2,0.2l-0.1,1.3c0,0.1,0,0.1-0.1,0.1c0,0-0.1,0.1-0.1,0.1h-0.6
		c-0.7,0-1.3-0.1-1.7-0.4c-0.4-0.3-0.6-0.7-0.6-1.4c0-0.1,0-0.3,0-0.5l0.8-6.2c0-0.1,0-0.1-0.1-0.1h-0.7c-0.1,0-0.1,0-0.1-0.1
		c0,0,0-0.1,0-0.1l0.1-1c0-0.1,0.1-0.2,0.2-0.2h0.7c0.1,0,0.1,0,0.1-0.1l0.3-2.2c0-0.1,0.1-0.2,0.2-0.2h1.4c0.1,0,0.2,0.1,0.2,0.2
		l-0.3,2.2c0,0,0,0,0,0c0,0,0,0,0.1,0h1.3c0.1,0,0.2,0.1,0.2,0.2l-0.1,1C91.8,85.7,91.8,85.8,91.6,85.8z"/>
	<path class="st2" d="M92.9,93.9c-0.5-0.4-0.7-1-0.7-1.7c0-0.2,0-0.3,0-0.4l0-0.2c0-0.1,0-0.1,0.1-0.1c0,0,0.1-0.1,0.1-0.1h1.4
		c0.1,0,0.1,0,0.1,0c0,0,0,0.1,0,0.1l0,0.2c-0.1,0.4,0,0.7,0.3,0.9c0.2,0.2,0.6,0.4,1,0.4c0.4,0,0.8-0.1,1-0.4
		c0.3-0.3,0.4-0.6,0.4-1c0-0.4-0.1-0.6-0.4-0.8c-0.3-0.2-0.7-0.4-1.3-0.7c-0.4-0.2-0.8-0.4-1-0.6c-0.3-0.2-0.5-0.4-0.7-0.8
		c-0.2-0.3-0.3-0.8-0.3-1.3c0-0.2,0-0.3,0-0.4c0.1-0.9,0.5-1.6,1.1-2.1c0.6-0.5,1.4-0.7,2.3-0.7c0.9,0,1.5,0.2,2,0.6s0.7,1,0.7,1.8
		c0,0.2,0,0.3,0,0.5v0.1c0,0.1-0.1,0.2-0.2,0.2h-1.3c-0.1,0-0.2-0.1-0.2-0.2l0-0.2l0-0.2c0-0.3-0.1-0.6-0.3-0.8
		c-0.2-0.2-0.5-0.3-0.8-0.3c-0.4,0-0.7,0.1-1,0.4s-0.4,0.5-0.5,0.9c0,0.3,0,0.5,0.2,0.7c0.1,0.2,0.3,0.3,0.5,0.4s0.5,0.3,1,0.5
		c0.4,0.2,0.8,0.4,1.1,0.6c0.3,0.2,0.6,0.5,0.8,0.8c0.2,0.3,0.3,0.8,0.3,1.2c0,1-0.3,1.7-1,2.3c-0.6,0.6-1.5,0.9-2.5,0.9
		C94.1,94.5,93.4,94.3,92.9,93.9z"/>
	<path class="st2" d="M103.6,94.3c0,0,0-0.1,0-0.1l1.2-9.6c0-0.1,0.1-0.2,0.2-0.2h1.5c0.1,0,0.2,0.1,0.2,0.2l-1.2,9.6
		c0,0.1-0.1,0.2-0.2,0.2h-1.4C103.7,94.4,103.6,94.4,103.6,94.3z M105.1,82.6c-0.2-0.2-0.3-0.4-0.3-0.8c0-0.4,0.1-0.8,0.4-1
		c0.3-0.3,0.6-0.4,1-0.4c0.3,0,0.5,0.1,0.7,0.3c0.2,0.2,0.3,0.4,0.3,0.7c0,0.4-0.1,0.8-0.4,1.1c-0.2,0.3-0.6,0.4-0.9,0.4
		C105.5,82.9,105.3,82.8,105.1,82.6z"/>
	<path class="st2" d="M108.1,93.9c-0.5-0.4-0.7-1-0.7-1.7c0-0.2,0-0.3,0-0.4l0-0.2c0-0.1,0-0.1,0.1-0.1c0,0,0.1-0.1,0.1-0.1h1.4
		c0.1,0,0.1,0,0.1,0c0,0,0,0.1,0,0.1l0,0.2c-0.1,0.4,0,0.7,0.3,0.9c0.2,0.2,0.6,0.4,1,0.4c0.4,0,0.8-0.1,1-0.4
		c0.3-0.3,0.4-0.6,0.4-1c0-0.4-0.1-0.6-0.4-0.8c-0.3-0.2-0.7-0.4-1.3-0.7c-0.4-0.2-0.8-0.4-1-0.6c-0.3-0.2-0.5-0.4-0.7-0.8
		c-0.2-0.3-0.3-0.8-0.3-1.3c0-0.2,0-0.3,0-0.4c0.1-0.9,0.5-1.6,1.1-2.1c0.6-0.5,1.4-0.7,2.3-0.7c0.9,0,1.5,0.2,2,0.6s0.7,1,0.7,1.8
		c0,0.2,0,0.3,0,0.5v0.1c0,0.1-0.1,0.2-0.2,0.2h-1.3c-0.1,0-0.2-0.1-0.2-0.2l0-0.2l0-0.2c0-0.3-0.1-0.6-0.3-0.8
		c-0.2-0.2-0.5-0.3-0.8-0.3c-0.4,0-0.7,0.1-1,0.4s-0.4,0.5-0.5,0.9c0,0.3,0,0.5,0.2,0.7c0.1,0.2,0.3,0.3,0.5,0.4s0.5,0.3,1,0.5
		c0.4,0.2,0.8,0.4,1.1,0.6c0.3,0.2,0.6,0.5,0.8,0.8c0.2,0.3,0.3,0.8,0.3,1.2c0,1-0.3,1.7-1,2.3c-0.6,0.6-1.5,0.9-2.5,0.9
		C109.3,94.5,108.6,94.3,108.1,93.9z"/>
	<path class="st2" d="M122.1,84.3C122.1,84.4,122.1,84.4,122.1,84.3l1.4,0.1c0.1,0,0.2,0.1,0.2,0.2l-0.1,1c0,0.1-0.1,0.2-0.2,0.2
		H122c-0.1,0-0.1,0-0.1,0.1l-1,8.3c0,0.1-0.1,0.2-0.2,0.2h-1.4c-0.1,0-0.2-0.1-0.2-0.2l1-8.3c0-0.1,0-0.1-0.1-0.1h-0.7
		c-0.1,0-0.1,0-0.1-0.1c0,0,0-0.1,0-0.1l0.1-1c0-0.1,0.1-0.2,0.2-0.2h0.7c0.1,0,0.1,0,0.1-0.1l0.1-0.5c0.1-1.2,0.5-2,1-2.5
		c0.5-0.5,1.3-0.8,2.4-0.8h0.3c0.1,0,0.2,0.1,0.2,0.2l-0.2,1.2c0,0.1-0.1,0.2-0.2,0.2h-0.2c-0.4,0-0.7,0.1-1,0.4
		c-0.2,0.3-0.4,0.7-0.5,1.3L122.1,84.3z"/>
	<path class="st2" d="M124.9,93.8c-0.5-0.5-0.8-1.1-0.8-1.9c0-0.1,0-0.3,0-0.5l0.5-4.1c0.1-0.9,0.5-1.7,1.2-2.3
		c0.7-0.6,1.5-0.9,2.5-0.9c0.9,0,1.6,0.2,2.1,0.7c0.5,0.5,0.8,1.1,0.8,1.9c0,0.1,0,0.3,0,0.5l-0.5,4.1c-0.1,0.9-0.5,1.7-1.1,2.3
		c-0.6,0.6-1.5,0.8-2.5,0.8C126.1,94.5,125.4,94.3,124.9,93.8z M128.3,92.4c0.3-0.3,0.5-0.7,0.5-1.1l0.5-3.8c0-0.1,0-0.2,0-0.3
		c0-0.4-0.1-0.7-0.3-1s-0.5-0.4-0.9-0.4c-0.4,0-0.8,0.2-1,0.5c-0.3,0.3-0.5,0.7-0.5,1.2l-0.5,3.8c0,0.1,0,0.2,0,0.3
		c0,0.4,0.1,0.7,0.3,1s0.5,0.4,0.9,0.4C127.6,92.9,128,92.7,128.3,92.4z"/>
	<path class="st2" d="M133,93.8c-0.5-0.5-0.8-1.1-0.8-1.9c0-0.1,0-0.3,0-0.5l0.5-4.1c0.1-0.9,0.5-1.7,1.2-2.3
		c0.7-0.6,1.5-0.9,2.5-0.9c0.9,0,1.6,0.2,2.1,0.7c0.5,0.5,0.8,1.1,0.8,1.9c0,0.1,0,0.3,0,0.5l-0.5,4.1c-0.1,0.9-0.5,1.7-1.1,2.3
		c-0.6,0.6-1.5,0.8-2.5,0.8C134.2,94.5,133.5,94.3,133,93.8z M136.4,92.4c0.3-0.3,0.5-0.7,0.5-1.1l0.5-3.8c0-0.1,0-0.2,0-0.3
		c0-0.4-0.1-0.7-0.3-1s-0.5-0.4-0.9-0.4c-0.4,0-0.8,0.2-1,0.5c-0.3,0.3-0.5,0.7-0.5,1.2l-0.5,3.8c0,0.1,0,0.2,0,0.3
		c0,0.4,0.1,0.7,0.3,1s0.5,0.4,0.9,0.4C135.7,92.9,136.1,92.7,136.4,92.4z"/>
	<path class="st2" d="M146.4,80.6h1.4c0.1,0,0.1,0,0.1,0.1c0,0,0,0.1,0,0.1l-1.6,13.3c0,0.1,0,0.1-0.1,0.1c0,0-0.1,0.1-0.1,0.1h-1.5
		c-0.1,0-0.2-0.1-0.2-0.2l0.1-0.5c0,0,0,0,0-0.1s0,0-0.1,0c-0.3,0.3-0.6,0.5-0.9,0.6c-0.3,0.1-0.7,0.2-1,0.2c-0.7,0-1.3-0.2-1.7-0.7
		s-0.6-1.1-0.6-1.8c0-0.1,0-0.3,0-0.6l0.5-4.1c0.1-1,0.4-1.7,1-2.3c0.5-0.5,1.2-0.8,2-0.8c0.3,0,0.7,0.1,1,0.2
		c0.3,0.1,0.6,0.4,0.8,0.6c0,0,0,0,0.1,0c0,0,0,0,0-0.1l0.5-4.2C146.2,80.7,146.3,80.6,146.4,80.6z M145.4,87.2c0-0.4-0.1-0.7-0.3-1
		c-0.2-0.2-0.5-0.4-0.8-0.4c-0.4,0-0.8,0.2-1,0.5c-0.3,0.3-0.5,0.7-0.5,1.2l-0.5,3.8c0,0.1,0,0.2,0,0.3c0,0.4,0.1,0.7,0.3,1
		s0.5,0.4,0.9,0.4c0.4,0,0.7-0.1,1-0.4s0.5-0.7,0.5-1.1l0.5-3.8C145.4,87.4,145.4,87.3,145.4,87.2z"/>
	<path class="st2" d="M152.3,94.3c0,0,0-0.1,0-0.1l1.2-9.6c0-0.1,0.1-0.2,0.2-0.2h1.5c0.1,0,0.2,0.1,0.2,0.2l-1.2,9.6
		c0,0.1-0.1,0.2-0.2,0.2h-1.4C152.4,94.4,152.3,94.4,152.3,94.3z M153.8,82.6c-0.2-0.2-0.3-0.4-0.3-0.8c0-0.4,0.1-0.8,0.4-1
		c0.3-0.3,0.6-0.4,1-0.4c0.3,0,0.5,0.1,0.7,0.3c0.2,0.2,0.3,0.4,0.3,0.7c0,0.4-0.1,0.8-0.4,1.1c-0.2,0.3-0.6,0.4-0.9,0.4
		C154.3,82.9,154,82.8,153.8,82.6z"/>
	<path class="st2" d="M162.9,84.9c0.4,0.4,0.5,1,0.5,1.8c0,0.2,0,0.5-0.1,0.7l-0.8,6.7c0,0.1,0,0.1-0.1,0.1c0,0-0.1,0.1-0.2,0.1
		h-1.4c-0.1,0-0.1,0-0.1-0.1c0,0,0-0.1,0-0.1l0.8-6.6c0-0.1,0-0.2,0-0.4c0-0.4-0.1-0.7-0.3-1c-0.2-0.2-0.5-0.3-0.8-0.3
		c-0.4,0-0.8,0.2-1.1,0.5c-0.3,0.3-0.5,0.8-0.5,1.3l-0.8,6.5c0,0.1,0,0.1-0.1,0.1c0,0-0.1,0.1-0.2,0.1h-1.4c-0.1,0-0.2-0.1-0.2-0.2
		l1.2-9.6c0-0.1,0.1-0.2,0.2-0.2h1.5c0.1,0,0.2,0.1,0.2,0.2l-0.1,0.5c0,0,0,0,0,0c0,0,0.1,0,0.1,0c0.5-0.6,1.2-0.9,2-0.9
		C162,84.2,162.5,84.5,162.9,84.9z"/>
	<path class="st2" d="M165.1,93.9c-0.5-0.4-0.7-1-0.7-1.7c0-0.2,0-0.3,0-0.4l0-0.2c0-0.1,0-0.1,0.1-0.1c0,0,0.1-0.1,0.1-0.1h1.4
		c0.1,0,0.1,0,0.1,0c0,0,0,0.1,0,0.1l0,0.2c-0.1,0.4,0,0.7,0.3,0.9c0.2,0.2,0.6,0.4,1,0.4c0.4,0,0.8-0.1,1-0.4
		c0.3-0.3,0.4-0.6,0.4-1c0-0.4-0.1-0.6-0.4-0.8c-0.3-0.2-0.7-0.4-1.3-0.7c-0.4-0.2-0.8-0.4-1-0.6c-0.3-0.2-0.5-0.4-0.7-0.8
		c-0.2-0.3-0.3-0.8-0.3-1.3c0-0.2,0-0.3,0-0.4c0.1-0.9,0.5-1.6,1.1-2.1c0.6-0.5,1.4-0.7,2.3-0.7c0.9,0,1.5,0.2,2,0.6s0.7,1,0.7,1.8
		c0,0.2,0,0.3,0,0.5v0.1c0,0.1-0.1,0.2-0.2,0.2h-1.3c-0.1,0-0.2-0.1-0.2-0.2l0-0.2l0-0.2c0-0.3-0.1-0.6-0.3-0.8
		c-0.2-0.2-0.5-0.3-0.8-0.3c-0.4,0-0.7,0.1-1,0.4s-0.4,0.5-0.5,0.9c0,0.3,0,0.5,0.2,0.7c0.1,0.2,0.3,0.3,0.5,0.4s0.5,0.3,1,0.5
		c0.4,0.2,0.8,0.4,1.1,0.6c0.3,0.2,0.6,0.5,0.8,0.8c0.2,0.3,0.3,0.8,0.3,1.2c0,1-0.3,1.7-1,2.3c-0.6,0.6-1.5,0.9-2.5,0.9
		C166.3,94.5,165.6,94.3,165.1,93.9z"/>
	<path class="st2" d="M178.3,90.2H174c0,0-0.1,0-0.1,0.1l-0.1,1.1c0,0.1,0,0.2,0,0.3c0,0.4,0.1,0.7,0.3,1s0.5,0.4,0.9,0.4
		s0.7-0.1,0.9-0.3c0.3-0.2,0.5-0.5,0.6-0.9c0.1-0.1,0.1-0.2,0.2-0.2l1.4,0.1c0.1,0,0.1,0,0.1,0.1c0,0,0,0.1,0,0.1
		c-0.2,0.9-0.6,1.5-1.2,2c-0.6,0.5-1.4,0.7-2.3,0.7c-0.9,0-1.6-0.2-2.1-0.7c-0.5-0.5-0.8-1.1-0.8-1.9c0-0.1,0-0.3,0-0.5l0.5-4.1
		c0.1-0.9,0.5-1.7,1.2-2.3c0.7-0.6,1.5-0.9,2.4-0.9c0.9,0,1.6,0.2,2.1,0.7s0.8,1.1,0.8,1.9c0,0.1,0,0.3,0,0.5l-0.3,2.6
		C178.5,90.1,178.4,90.2,178.3,90.2z M174.8,86.3c-0.3,0.3-0.5,0.7-0.5,1.2l-0.1,1c0,0.1,0,0.1,0.1,0.1h2.6c0,0,0,0,0.1,0s0,0,0-0.1
		l0.1-1c0-0.1,0-0.2,0-0.3c0-0.4-0.1-0.7-0.3-1s-0.5-0.4-0.9-0.4C175.4,85.9,175.1,86,174.8,86.3z"/>
	<path class="st2" d="M180.6,93.8c-0.5-0.5-0.8-1.1-0.8-1.9c0-0.1,0-0.3,0-0.5l0.5-4.1c0.1-0.9,0.5-1.7,1.2-2.3
		c0.7-0.6,1.5-0.9,2.4-0.9c0.9,0,1.6,0.2,2.1,0.7s0.8,1.1,0.8,1.8c0,0.2,0,0.3,0,0.4l0,0.3c0,0.1-0.1,0.2-0.2,0.2l-1.5,0.1
		c-0.1,0-0.2-0.1-0.2-0.2l0-0.2c0-0.4-0.1-0.7-0.3-1c-0.2-0.3-0.5-0.4-0.9-0.4c-0.4,0-0.8,0.2-1,0.5c-0.3,0.3-0.5,0.7-0.5,1.2
		l-0.5,3.8c0,0.1,0,0.2,0,0.3c0,0.4,0.1,0.7,0.3,1s0.5,0.4,0.9,0.4c0.4,0,0.8-0.1,1-0.4c0.3-0.3,0.5-0.6,0.5-1l0-0.2
		c0-0.1,0.1-0.2,0.2-0.2l1.5,0c0.1,0,0.2,0.1,0.2,0.2l0,0.3c-0.1,0.9-0.5,1.5-1.1,2.1c-0.6,0.5-1.5,0.8-2.4,0.8
		C181.8,94.5,181.1,94.3,180.6,93.8z"/>
	<path class="st2" d="M193.4,84.4h1.5c0.1,0,0.2,0.1,0.2,0.2l-1.2,9.6c0,0.1,0,0.1-0.1,0.1c0,0-0.1,0.1-0.1,0.1h-1.5
		c-0.1,0-0.2-0.1-0.2-0.2l0.1-0.6c0,0,0-0.1,0-0.1s0,0,0,0c-0.5,0.6-1.1,0.9-2,0.9c-0.7,0-1.2-0.2-1.6-0.6c-0.4-0.4-0.6-1-0.6-1.8
		c0-0.1,0-0.3,0-0.6l0.9-7c0-0.1,0-0.1,0.1-0.1c0,0,0.1-0.1,0.1-0.1h1.5c0.1,0,0.2,0.1,0.2,0.2l-0.8,6.6c0,0.1,0,0.2,0,0.4
		c0,0.9,0.4,1.3,1.1,1.3c0.4,0,0.8-0.2,1-0.5s0.5-0.8,0.5-1.3l0.8-6.5C193.2,84.4,193.3,84.4,193.4,84.4z"/>
	<path class="st2" d="M201.5,84.5c0.1,0.1,0.1,0.2,0.1,0.3l-0.5,1.5c0,0.1-0.1,0.2-0.2,0.1c-0.2-0.1-0.4-0.1-0.6-0.1
		c-0.1,0-0.2,0-0.3,0c-0.4,0.1-0.8,0.3-1.1,0.7c-0.3,0.4-0.5,0.9-0.6,1.5l-0.7,5.7c0,0.1,0,0.1-0.1,0.1c0,0-0.1,0.1-0.2,0.1H196
		c-0.1,0-0.2-0.1-0.2-0.2l1.2-9.6c0-0.1,0.1-0.2,0.2-0.2h1.5c0.1,0,0.2,0.1,0.2,0.2l-0.1,1.1c0,0,0,0.1,0,0.1c0,0,0,0,0,0
		c0.5-1,1.1-1.5,1.9-1.5C201,84.3,201.3,84.4,201.5,84.5z"/>
	<path class="st2" d="M208.1,90.2h-4.3c0,0-0.1,0-0.1,0.1l-0.1,1.1c0,0.1,0,0.2,0,0.3c0,0.4,0.1,0.7,0.3,1s0.5,0.4,0.9,0.4
		s0.7-0.1,0.9-0.3c0.3-0.2,0.5-0.5,0.6-0.9c0.1-0.1,0.1-0.2,0.2-0.2l1.4,0.1c0.1,0,0.1,0,0.1,0.1c0,0,0,0.1,0,0.1
		c-0.2,0.9-0.6,1.5-1.2,2c-0.6,0.5-1.4,0.7-2.3,0.7c-0.9,0-1.6-0.2-2.1-0.7c-0.5-0.5-0.8-1.1-0.8-1.9c0-0.1,0-0.3,0-0.5l0.5-4.1
		c0.1-0.9,0.5-1.7,1.2-2.3c0.7-0.6,1.5-0.9,2.4-0.9c0.9,0,1.6,0.2,2.1,0.7s0.8,1.1,0.8,1.9c0,0.1,0,0.3,0,0.5l-0.3,2.6
		C208.3,90.1,208.3,90.2,208.1,90.2z M204.6,86.3c-0.3,0.3-0.5,0.7-0.5,1.2l-0.1,1c0,0.1,0,0.1,0.1,0.1h2.6c0,0,0,0,0.1,0s0,0,0-0.1
		l0.1-1c0-0.1,0-0.2,0-0.3c0-0.4-0.1-0.7-0.3-1s-0.5-0.4-0.9-0.4C205.3,85.9,204.9,86,204.6,86.3z"/>
	<path class="st2" d="M209.9,94.1c-0.2-0.2-0.3-0.5-0.3-0.8c0-0.4,0.1-0.8,0.4-1.1c0.3-0.3,0.6-0.5,1-0.5c0.3,0,0.6,0.1,0.8,0.3
		c0.2,0.2,0.3,0.5,0.3,0.8c0,0.4-0.1,0.8-0.4,1.1c-0.3,0.3-0.6,0.5-1,0.5C210.3,94.4,210.1,94.3,209.9,94.1z"/>
</g>
<g>
	<path class="st1" d="M55,38.7L54,25.4v0c0-0.1,0.1-0.2,0.2-0.2h2.3c0.1,0,0.2,0.1,0.2,0.2l0.2,7.1c0,0.1,0,0.1,0.1,0.1s0,0,0.1-0.1
		l1.9-7.1c0-0.1,0.1-0.2,0.3-0.2h1.9c0.1,0,0.2,0.1,0.2,0.2l0.3,7.1c0,0.1,0,0.1,0,0.1c0,0,0.1,0,0.1-0.1l1.8-7.1
		c0-0.1,0.1-0.2,0.3-0.2h2.3c0.2,0,0.2,0.1,0.2,0.3l-4,13.3c0,0.1-0.1,0.2-0.3,0.2H60c-0.1,0-0.2-0.1-0.2-0.2l-0.2-7.3
		c0-0.1,0-0.1,0-0.1s-0.1,0-0.1,0.1l-1.9,7.3c0,0.1-0.1,0.2-0.3,0.2h-2C55,38.9,55,38.8,55,38.7z"/>
	<path class="st1" d="M72.4,25.2c0,0,0.1-0.1,0.2-0.1h2.2c0.1,0,0.1,0,0.2,0.1c0,0,0.1,0.1,0,0.2l-1.6,13.3c0,0.1,0,0.1-0.1,0.2
		c0,0-0.1,0.1-0.2,0.1h-2.2c-0.1,0-0.1,0-0.2-0.1c0,0-0.1-0.1,0-0.2l0.7-5.4c0-0.1,0-0.1-0.1-0.1h-1.9c-0.1,0-0.1,0-0.1,0.1
		l-0.6,5.4c0,0.1,0,0.1-0.1,0.2c-0.1,0-0.1,0.1-0.2,0.1h-2.2c-0.1,0-0.1,0-0.2-0.1c0,0-0.1-0.1,0-0.2l1.6-13.3c0-0.1,0-0.1,0.1-0.2
		c0,0,0.1-0.1,0.2-0.1h2.2c0.1,0,0.2,0.1,0.2,0.2l-0.7,5.3c0,0.1,0,0.1,0.1,0.1h1.9c0.1,0,0.1,0,0.1-0.1l0.6-5.3
		C72.4,25.3,72.4,25.3,72.4,25.2z"/>
	<path class="st1" d="M77.5,38.8c0,0-0.1-0.1,0-0.2l0.6-5.1c0,0,0,0,0,0c0,0,0,0,0-0.1l-1.7-8v-0.1c0-0.1,0-0.1,0.1-0.2
		c0,0,0.1-0.1,0.2-0.1h2.4c0.1,0,0.2,0.1,0.2,0.2l0.6,4.7c0,0,0,0.1,0,0.1c0,0,0.1,0,0.1-0.1l1.7-4.7c0.1-0.1,0.2-0.2,0.3-0.2h2.3
		c0.1,0,0.1,0,0.2,0.1c0,0,0,0.1,0,0.2l-3.7,8c0,0,0,0.1,0,0.1l-0.6,5.1c0,0.1,0,0.1-0.1,0.2s-0.1,0.1-0.2,0.1h-2.2
		C77.5,38.9,77.5,38.9,77.5,38.8z"/>
	<path class="st1" d="M88,38.8c0,0-0.1-0.1,0-0.2l1.6-13.3c0-0.1,0-0.1,0.1-0.2c0,0,0.1-0.1,0.2-0.1h2.4c0.1,0,0.2,0.1,0.2,0.2
		l1.6,7.3c0,0,0,0.1,0,0c0,0,0.1,0,0.1-0.1l0.9-7.3c0-0.1,0-0.1,0.1-0.2c0,0,0.1-0.1,0.2-0.1h2.2c0.1,0,0.1,0,0.2,0.1
		c0,0,0.1,0.1,0,0.2L96,38.7c0,0.1,0,0.1-0.1,0.2c0,0-0.1,0.1-0.2,0.1h-2.4c-0.1,0-0.2-0.1-0.2-0.2l-1.6-7.4c0,0,0-0.1,0-0.1
		s-0.1,0-0.1,0.1l-0.9,7.3c0,0.1,0,0.1-0.1,0.2c-0.1,0-0.1,0.1-0.2,0.1h-2.2C88.1,38.9,88,38.9,88,38.8z"/>
	<path class="st1" d="M98.8,38.2c-0.6-0.6-0.9-1.4-0.9-2.4c0-0.1,0-0.3,0-0.6l0.8-6.3c0.1-1.2,0.6-2.1,1.4-2.8s1.8-1.1,2.9-1.1
		c1.1,0,1.9,0.3,2.5,0.9c0.6,0.6,0.9,1.4,0.9,2.4c0,0.1,0,0.3,0,0.6l-0.8,6.3c-0.1,1.2-0.6,2.1-1.4,2.8c-0.8,0.7-1.8,1.1-2.9,1.1
		C100.3,39.1,99.5,38.8,98.8,38.2z M102.5,36.3c0.2-0.3,0.4-0.6,0.4-1l0.8-6.5c0-0.1,0-0.1,0-0.2c0-0.4-0.1-0.6-0.3-0.8
		c-0.2-0.2-0.4-0.3-0.7-0.3c-0.4,0-0.7,0.1-0.9,0.4c-0.2,0.3-0.4,0.6-0.4,1l-0.8,6.5c0,0.1,0,0.1,0,0.2c0,0.4,0.1,0.6,0.3,0.8
		c0.2,0.2,0.4,0.3,0.7,0.3C102,36.7,102.3,36.6,102.5,36.3z"/>
</g>
<g>
	<path class="st1" d="M108.5,38.7l-0.9-13.3v0c0-0.1,0.1-0.2,0.2-0.2h2.3c0.1,0,0.2,0.1,0.2,0.2l0.2,7.1c0,0.1,0,0.1,0.1,0.1
		s0,0,0.1-0.1l1.9-7.1c0-0.1,0.1-0.2,0.3-0.2h1.9c0.1,0,0.2,0.1,0.2,0.2l0.3,7.1c0,0.1,0,0.1,0,0.1c0,0,0.1,0,0.1-0.1l1.8-7.1
		c0-0.1,0.1-0.2,0.3-0.2h2.3c0.2,0,0.2,0.1,0.2,0.3l-4,13.3c0,0.1-0.1,0.2-0.3,0.2h-2.1c-0.1,0-0.2-0.1-0.2-0.2l-0.2-7.3
		c0-0.1,0-0.1,0-0.1s-0.1,0-0.1,0.1l-1.9,7.3c0,0.1-0.1,0.2-0.3,0.2h-2C108.6,38.9,108.5,38.8,108.5,38.7z"/>
	<path class="st1" d="M121.8,34.5c0,0-0.1-0.1,0-0.2l0.1-0.6c0.1-0.7,0.3-1.2,0.6-1.6c0.3-0.4,0.7-0.8,1.3-1.2
		c0.5-0.4,0.8-0.7,1.1-1.1c0.2-0.3,0.4-0.7,0.4-1.2c0-0.3-0.1-0.6-0.2-0.8c-0.2-0.2-0.4-0.3-0.7-0.3c-0.4,0-0.7,0.1-0.9,0.4
		c-0.2,0.3-0.4,0.6-0.5,1.1l0,0.3c0,0.1-0.1,0.2-0.3,0.2l-2.2-0.1c-0.2,0-0.2-0.1-0.2-0.2l0-0.2c0.1-0.8,0.3-1.5,0.8-2.1
		c0.4-0.6,0.9-1.1,1.6-1.4c0.6-0.3,1.3-0.5,2.1-0.5c1,0,1.8,0.3,2.4,0.9c0.6,0.6,0.9,1.4,0.9,2.3c0,0.1,0,0.3,0,0.6
		c-0.1,0.6-0.2,1.1-0.4,1.5c-0.2,0.4-0.4,0.7-0.7,1s-0.6,0.5-1,0.9c-0.4,0.3-0.7,0.6-0.9,0.9s-0.3,0.5-0.4,0.9l-0.1,0.5
		c0,0.1,0,0.1-0.1,0.2c0,0-0.1,0.1-0.2,0.1H122C121.9,34.5,121.9,34.5,121.8,34.5z M121.7,38.5c-0.2-0.3-0.4-0.6-0.4-1
		c0-0.5,0.2-0.9,0.5-1.2c0.3-0.4,0.7-0.5,1.2-0.5c0.4,0,0.7,0.1,0.9,0.4c0.3,0.3,0.4,0.6,0.4,1c0,0.5-0.2,0.9-0.5,1.2
		s-0.7,0.5-1.2,0.5C122.3,38.9,122,38.8,121.7,38.5z"/>
</g>
<g>
	<path class="st2" d="M243,315H11c-5.5,0-10-4.5-10-10V181c0-5.5,4.5-10,10-10h232c5.5,0,10,4.5,10,10v124
		C253,310.5,248.5,315,243,315"/>
	<path class="st3" d="M243,316H11c-6.1,0-11-4.9-11-11V181c0-6.1,4.9-11,11-11h232c6.1,0,11,4.9,11,11v124
		C254,311,249.1,316,243,316z M11,172c-5,0-9,4-9,9v124c0,5,4,9,9,9h232c5,0,9-4,9-9V181c0-5-4-9-9-9H11z"/>
	<path class="st1" d="M29.4,195.2l-0.3,2.4c0,0,0,0.1,0.1,0.1h0.6c0.3,0,0.6-0.1,0.8-0.4c0.2-0.3,0.3-0.6,0.3-1.1
		c0-0.3-0.1-0.6-0.2-0.7c-0.1-0.2-0.3-0.3-0.6-0.3L29.4,195.2C29.4,195.1,29.4,195.1,29.4,195.2 M30,203.1l-0.6-3.9
		c0,0,0-0.1-0.1-0.1h-0.4c-0.1,0-0.1,0-0.1,0.1l-0.5,3.8c0,0,0,0.1-0.1,0.1c0,0-0.1,0-0.1,0h-1.6c0,0-0.1,0-0.1,0c0,0,0-0.1,0-0.1
		l1.2-9.5c0,0,0-0.1,0.1-0.1c0,0,0.1,0,0.1,0h2.7c0.7,0,1.2,0.2,1.6,0.7c0.4,0.4,0.6,1,0.6,1.8c0,0.2,0,0.4,0,0.5
		c-0.1,0.5-0.2,1-0.5,1.4c-0.3,0.4-0.6,0.8-1,1c0,0,0,0,0,0c0,0,0,0,0,0L32,203v0c0,0,0,0.1,0,0.1c0,0-0.1,0-0.1,0h-1.6
		C30.1,203.2,30.1,203.2,30,203.1"/>
	<path class="st1" d="M35.5,200.1h1.2c0,0,0.1,0,0.1-0.1l-0.1-3.6c0,0,0,0,0,0c0,0,0,0,0,0L35.5,200.1
		C35.5,200.1,35.5,200.1,35.5,200.1 M36.9,203.1l-0.1-1.3c0,0,0,0,0,0c0,0,0,0-0.1,0h-1.7c-0.1,0-0.1,0-0.1,0.1l-0.4,1.4
		c0,0.1-0.1,0.2-0.2,0.2h-1.6c-0.1,0-0.2-0.1-0.1-0.2l3.1-9.5c0-0.1,0.1-0.2,0.2-0.2h1.8c0.1,0,0.2,0.1,0.2,0.2l0.8,9.5v0
		c0,0.1-0.1,0.2-0.2,0.2H37C36.9,203.2,36.9,203.2,36.9,203.1"/>
	<path class="st1" d="M40.3,202.7c-0.4-0.4-0.6-1-0.6-1.7c0-0.1,0-0.2,0-0.4l0.6-4.5c0.1-0.8,0.4-1.5,1-2c0.6-0.5,1.2-0.7,2.1-0.7
		c0.7,0,1.3,0.2,1.8,0.6c0.4,0.4,0.6,1,0.6,1.7c0,0.1,0,0.2,0,0.4l0,0.2c0,0,0,0.1-0.1,0.1c0,0-0.1,0-0.1,0l-1.6,0.1
		c-0.1,0-0.1-0.1-0.1-0.2l0-0.4c0,0,0-0.1,0-0.2c0-0.2-0.1-0.4-0.2-0.5c-0.1-0.1-0.3-0.2-0.5-0.2c-0.2,0-0.4,0.1-0.6,0.3
		s-0.3,0.4-0.3,0.7l-0.6,4.8c0,0,0,0.1,0,0.2c0,0.2,0.1,0.4,0.2,0.5c0.1,0.1,0.3,0.2,0.5,0.2c0.2,0,0.4-0.1,0.6-0.2
		c0.2-0.2,0.3-0.4,0.3-0.7l0-0.4c0,0,0-0.1,0.1-0.1c0,0,0.1,0,0.1,0l1.6,0.1c0.1,0,0.2,0.1,0.1,0.2l0,0.2c-0.1,0.8-0.4,1.5-1,2
		c-0.6,0.5-1.2,0.7-2.1,0.7C41.3,203.3,40.7,203.1,40.3,202.7"/>
	<path class="st1" d="M50.4,193.5c0,0,0.1,0,0.1,0h1.6c0,0,0.1,0,0.1,0c0,0,0,0.1,0,0.1l-1.2,9.5c0,0,0,0.1-0.1,0.1c0,0-0.1,0-0.1,0
		h-1.6c0,0-0.1,0-0.1,0c0,0,0-0.1,0-0.1l0.5-3.8c0,0,0-0.1-0.1-0.1h-1.4c-0.1,0-0.1,0-0.1,0.1l-0.5,3.8c0,0,0,0.1-0.1,0.1
		c0,0-0.1,0-0.1,0h-1.6c0,0-0.1,0-0.1,0c0,0,0-0.1,0-0.1l1.2-9.5c0,0,0-0.1,0.1-0.1c0,0,0.1,0,0.1,0h1.6c0.1,0,0.2,0.1,0.2,0.2
		l-0.5,3.8c0,0,0,0.1,0.1,0.1h1.4c0,0,0.1,0,0.1-0.1l0.5-3.8C50.3,193.5,50.4,193.5,50.4,193.5"/>
	<path class="st1" d="M58.2,195.1c0,0-0.1,0-0.1,0h-2.8c0,0-0.1,0-0.1,0.1l-0.3,2.2c0,0,0,0.1,0.1,0.1h1.6c0,0,0.1,0,0.1,0
		c0,0,0,0.1,0,0.1l-0.2,1.4c0,0,0,0.1-0.1,0.1c0,0-0.1,0-0.1,0h-1.6c-0.1,0-0.1,0-0.1,0.1l-0.3,2.2c0,0,0,0.1,0.1,0.1h2.8
		c0,0,0.1,0,0.1,0c0,0,0,0.1,0,0.1l-0.2,1.4c0,0,0,0.1-0.1,0.1c0,0-0.1,0-0.1,0h-4.7c0,0-0.1,0-0.1,0c0,0,0-0.1,0-0.1l1.2-9.5
		c0,0,0-0.1,0.1-0.1c0,0,0.1,0,0.1,0h4.7c0,0,0.1,0,0.1,0c0,0,0,0.1,0,0.1l-0.2,1.4C58.2,195,58.2,195,58.2,195.1"/>
	<path class="st1" d="M58.2,203.2c0,0,0-0.1,0-0.1l1.2-9.5c0,0,0-0.1,0.1-0.1c0,0,0.1,0,0.1,0h1.6c0.1,0,0.2,0.1,0.2,0.2l-1,7.9
		c0,0,0,0.1,0.1,0.1h2.8c0.1,0,0.2,0.1,0.2,0.2l-0.2,1.4c0,0,0,0.1-0.1,0.1c0,0-0.1,0-0.1,0h-4.7C58.3,203.2,58.3,203.2,58.2,203.2"
		/>
	<path class="st1" d="M67.4,202.7c-0.4-0.4-0.6-0.9-0.6-1.6c0-0.1,0-0.2,0-0.4l0.1-0.4c0,0,0-0.1,0.1-0.1c0,0,0.1,0,0.1,0h1.6
		c0,0,0.1,0,0.1,0c0,0,0,0.1,0,0.1l0,0.4c0,0,0,0.1,0,0.2c0,0.2,0.1,0.4,0.2,0.6c0.1,0.1,0.3,0.2,0.5,0.2c0.2,0,0.4-0.1,0.6-0.3
		c0.2-0.2,0.3-0.5,0.3-0.7c0-0.2-0.1-0.5-0.2-0.6c-0.2-0.2-0.5-0.5-0.9-0.8c-0.4-0.3-0.7-0.6-0.9-0.8c-0.2-0.2-0.4-0.5-0.6-0.8
		c-0.2-0.3-0.2-0.7-0.2-1.1c0-0.1,0-0.2,0-0.4c0.1-0.8,0.4-1.4,0.9-1.9c0.5-0.5,1.2-0.7,2-0.7c0.7,0,1.3,0.2,1.7,0.6
		c0.4,0.4,0.6,1,0.6,1.6c0,0.1,0,0.2,0,0.4l0,0.3c0,0,0,0.1-0.1,0.1c0,0-0.1,0-0.1,0h-1.6c0,0-0.1,0-0.1,0c0,0,0-0.1,0-0.1l0-0.4
		c0,0,0-0.1,0-0.2c0-0.2-0.1-0.4-0.2-0.6c-0.1-0.1-0.3-0.2-0.5-0.2c-0.2,0-0.4,0.1-0.6,0.2c-0.2,0.2-0.2,0.4-0.3,0.7l0,0.2
		c0,0.2,0.1,0.4,0.2,0.6c0.2,0.2,0.4,0.5,0.8,0.8c0.5,0.4,0.8,0.7,1.1,0.9c0.2,0.2,0.4,0.5,0.6,0.8c0.1,0.3,0.2,0.6,0.2,1
		c0,0.1,0,0.2,0,0.4c-0.1,0.8-0.4,1.5-1,2c-0.6,0.5-1.2,0.7-2,0.7C68.4,203.3,67.9,203.1,67.4,202.7"/>
	<path class="st1" d="M73.7,202.7c-0.4-0.4-0.6-1-0.6-1.7c0-0.2,0-0.4,0-0.5l0.8-6.8c0,0,0-0.1,0.1-0.1c0,0,0.1,0,0.1,0h1.6
		c0.1,0,0.2,0.1,0.2,0.2l-0.9,7c0,0,0,0.1,0,0.2c0,0.2,0.1,0.4,0.2,0.6c0.1,0.1,0.3,0.2,0.5,0.2c0.2,0,0.4-0.1,0.6-0.3
		c0.2-0.2,0.3-0.4,0.3-0.7l0.9-7c0,0,0-0.1,0.1-0.1c0,0,0.1,0,0.1,0h1.6c0,0,0.1,0,0.1,0c0,0,0,0.1,0,0.1l-0.8,6.8
		c-0.1,0.9-0.4,1.6-1,2.1c-0.6,0.5-1.2,0.8-2.1,0.8C74.7,203.3,74.1,203.1,73.7,202.7"/>
	<path class="st1" d="M79.3,203.2c0,0,0-0.1,0-0.1l1.2-9.5c0,0,0-0.1,0.1-0.1c0,0,0.1,0,0.1,0h1.6c0.1,0,0.2,0,0.2,0.1l0.9,2.6
		c0,0.1,0.1,0.1,0.1,0l1.5-2.6c0-0.1,0.1-0.1,0.2-0.1h1.6c0,0,0.1,0,0.1,0c0,0,0,0.1,0,0.1l-1.2,9.5c0,0,0,0.1-0.1,0.1
		c0,0-0.1,0-0.1,0h-1.6c0,0-0.1,0-0.1,0c0,0,0-0.1,0-0.1l0.7-6c0,0,0-0.1,0-0.1c0,0,0,0-0.1,0l-1.3,2.2c-0.1,0.1-0.1,0.1-0.1,0.1
		c0,0-0.1,0-0.1-0.1L82,197c0,0,0,0-0.1,0c0,0,0,0,0,0.1l-0.7,6.1c0,0,0,0.1-0.1,0.1c0,0-0.1,0-0.1,0h-1.6
		C79.4,203.2,79.3,203.2,79.3,203.2"/>
	<path class="st1" d="M92.6,195.1c0,0-0.1,0-0.1,0h-2.8c0,0-0.1,0-0.1,0.1l-0.3,2.2c0,0,0,0.1,0.1,0.1H91c0,0,0.1,0,0.1,0
		c0,0,0,0.1,0,0.1l-0.2,1.4c0,0,0,0.1-0.1,0.1c0,0-0.1,0-0.1,0h-1.6c-0.1,0-0.1,0-0.1,0.1l-0.3,2.2c0,0,0,0.1,0.1,0.1h2.8
		c0,0,0.1,0,0.1,0c0,0,0,0.1,0,0.1l-0.2,1.4c0,0,0,0.1-0.1,0.1c0,0-0.1,0-0.1,0h-4.7c0,0-0.1,0-0.1,0c0,0,0-0.1,0-0.1l1.2-9.5
		c0,0,0-0.1,0.1-0.1c0,0,0.1,0,0.1,0h4.7c0,0,0.1,0,0.1,0c0,0,0,0.1,0,0.1l-0.2,1.4C92.6,195,92.6,195,92.6,195.1"/>
	<path class="st1" d="M92.7,203.2c0,0,0-0.1,0-0.1l1.2-9.5c0,0,0-0.1,0.1-0.1c0,0,0.1,0,0.1,0h1.6c0.1,0,0.2,0.1,0.2,0.2l-0.4,3.5
		c0,0,0,0.1,0,0.1c0,0,0,0,0,0l2.2-3.6c0-0.1,0.1-0.1,0.2-0.1h1.7c0.1,0,0.1,0,0.1,0c0,0,0,0.1,0,0.1l-2.5,4c0,0,0,0,0,0
		c0,0,0,0,0,0l1.5,5.3l0,0.1c0,0.1-0.1,0.1-0.2,0.1h-1.7c-0.1,0-0.1,0-0.2-0.1l-1-3.7c0,0,0,0,0,0c0,0,0,0-0.1,0l-0.5,0.7
		c0,0,0,0,0,0c0,0,0,0,0,0l-0.3,2.8c0,0,0,0.1-0.1,0.1c0,0-0.1,0-0.1,0h-1.6C92.7,203.2,92.7,203.2,92.7,203.2"/>
	<path class="st1" d="M103.9,193.5c0,0,0.1,0,0.1,0h1.6c0,0,0.1,0,0.1,0c0,0,0,0.1,0,0.1l-1.2,9.5c0,0,0,0.1-0.1,0.1
		c0,0-0.1,0-0.1,0h-1.6c0,0-0.1,0-0.1,0c0,0,0-0.1,0-0.1l0.5-3.8c0,0,0-0.1-0.1-0.1h-1.4c-0.1,0-0.1,0-0.1,0.1l-0.5,3.8
		c0,0,0,0.1-0.1,0.1c0,0-0.1,0-0.1,0h-1.6c0,0-0.1,0-0.1,0c0,0,0-0.1,0-0.1l1.2-9.5c0,0,0-0.1,0.1-0.1c0,0,0.1,0,0.1,0h1.6
		c0.1,0,0.2,0.1,0.2,0.2l-0.5,3.8c0,0,0,0.1,0.1,0.1h1.4c0,0,0.1,0,0.1-0.1l0.5-3.8C103.9,193.5,103.9,193.5,103.9,193.5"/>
	<path class="st1" d="M30.1,208.8C30.1,208.8,30.1,208.8,30.1,208.8l-1.9,0c0,0,0,0,0,0l-0.2,1.4c0,0,0,0,0,0h1c0,0,0.1,0,0.1,0
		c0,0,0,0,0,0.1l-0.1,0.9c0,0,0,0.1,0,0.1s0,0-0.1,0h-1c0,0-0.1,0-0.1,0l-0.3,2.5c0,0,0,0.1,0,0.1c0,0-0.1,0-0.1,0h-1
		c0,0-0.1,0-0.1,0c0,0,0,0,0-0.1l0.7-6.1c0,0,0-0.1,0-0.1c0,0,0,0,0.1,0h3c0,0,0.1,0,0.1,0c0,0,0,0,0,0.1L30.1,208.8
		C30.2,208.7,30.2,208.7,30.1,208.8"/>
	<path class="st1" d="M32.2,212.8c0.1-0.1,0.2-0.3,0.2-0.5l0.4-3c0,0,0-0.1,0-0.1c0-0.2,0-0.3-0.1-0.4c-0.1-0.1-0.2-0.1-0.3-0.1
		c-0.2,0-0.3,0.1-0.4,0.2c-0.1,0.1-0.2,0.3-0.2,0.5l-0.4,3c0,0,0,0.1,0,0.1c0,0.2,0,0.3,0.1,0.4c0.1,0.1,0.2,0.1,0.3,0.1
		C32,213,32.1,212.9,32.2,212.8 M30.5,213.7c-0.3-0.3-0.4-0.6-0.4-1.1c0-0.1,0-0.2,0-0.3l0.4-2.9c0.1-0.5,0.3-1,0.6-1.3
		c0.4-0.3,0.8-0.5,1.3-0.5c0.5,0,0.9,0.1,1.2,0.4c0.3,0.3,0.4,0.6,0.4,1.1c0,0.1,0,0.2,0,0.3l-0.4,2.9c-0.1,0.5-0.3,1-0.6,1.3
		s-0.8,0.5-1.3,0.5C31.2,214.1,30.8,214,30.5,213.7"/>
	<path class="st1" d="M34.7,213.7c-0.3-0.3-0.4-0.7-0.4-1.1c0-0.1,0-0.3,0-0.3l0.5-4.4c0,0,0-0.1,0-0.1c0,0,0,0,0.1,0h1
		c0.1,0,0.1,0,0.1,0.1l-0.6,4.5c0,0,0,0.1,0,0.1c0,0.2,0,0.3,0.1,0.4c0.1,0.1,0.2,0.1,0.3,0.1c0.2,0,0.3-0.1,0.4-0.2
		c0.1-0.1,0.2-0.3,0.2-0.5l0.6-4.5c0,0,0-0.1,0-0.1c0,0,0,0,0.1,0h1c0,0,0.1,0,0.1,0c0,0,0,0,0,0.1l-0.5,4.4c-0.1,0.6-0.3,1-0.6,1.4
		c-0.4,0.3-0.8,0.5-1.3,0.5C35.4,214.1,35,213.9,34.7,213.7"/>
	<path class="st1" d="M38.3,214C38.3,214,38.3,213.9,38.3,214l0.7-6.2c0,0,0-0.1,0-0.1c0,0,0,0,0.1,0h1.1c0.1,0,0.1,0,0.1,0.1
		l0.7,3.4c0,0,0,0,0,0c0,0,0,0,0,0l0.4-3.3c0,0,0-0.1,0-0.1c0,0,0,0,0.1,0h1c0,0,0.1,0,0.1,0c0,0,0,0,0,0.1l-0.7,6.1
		c0,0,0,0.1,0,0.1c0,0,0,0-0.1,0h-1.1c-0.1,0-0.1,0-0.1-0.1l-0.7-3.4c0,0,0,0,0,0c0,0,0,0,0,0l-0.4,3.4c0,0,0,0.1,0,0.1
		c0,0-0.1,0-0.1,0L38.3,214C38.4,214,38.3,214,38.3,214"/>
	<path class="st1" d="M44.2,212.9l0.4,0c0.2,0,0.3-0.1,0.4-0.2c0.1-0.1,0.2-0.3,0.2-0.5l0.3-2.6c0,0,0-0.1,0-0.2
		c0-0.2,0-0.3-0.1-0.4c-0.1-0.1-0.2-0.2-0.3-0.2h-0.4c0,0,0,0,0,0L44.2,212.9C44.1,212.9,44.1,212.9,44.2,212.9 M42.8,214
		C42.8,214,42.8,213.9,42.8,214l0.7-6.2c0,0,0-0.1,0-0.1c0,0,0,0,0.1,0h1.6c0.5,0,0.9,0.1,1.1,0.4c0.3,0.3,0.4,0.6,0.4,1.1
		c0,0.1,0,0.1,0,0.3l-0.4,2.8c-0.1,0.5-0.3,1-0.6,1.3c-0.4,0.3-0.8,0.5-1.3,0.5L42.8,214C42.8,214,42.8,214,42.8,214"/>
	<path class="st1" d="M50.7,208.8C50.7,208.8,50.7,208.8,50.7,208.8l-1.9,0c0,0,0,0,0,0l-0.2,1.4c0,0,0,0,0,0h1.1c0,0,0.1,0,0.1,0
		c0,0,0,0,0,0.1l-0.1,0.9c0,0,0,0.1,0,0.1s0,0-0.1,0h-1c0,0-0.1,0-0.1,0l-0.2,1.4c0,0,0,0,0,0h1.8c0,0,0.1,0,0.1,0c0,0,0,0,0,0.1
		l-0.1,0.9c0,0,0,0.1,0,0.1c0,0,0,0-0.1,0h-3c0,0-0.1,0-0.1,0c0,0,0,0,0-0.1l0.7-6.1c0,0,0-0.1,0-0.1c0,0,0,0,0.1,0h3
		c0,0,0.1,0,0.1,0c0,0,0,0,0,0.1L50.7,208.8C50.7,208.7,50.7,208.7,50.7,208.8"/>
	<path class="st1" d="M52.6,208.8l-0.2,1.5c0,0,0,0,0,0h0.4c0.2,0,0.4-0.1,0.5-0.3c0.1-0.2,0.2-0.4,0.2-0.7c0-0.2,0-0.4-0.1-0.5
		c-0.1-0.1-0.2-0.2-0.4-0.2L52.6,208.8C52.6,208.8,52.6,208.8,52.6,208.8 M53,213.9l-0.4-2.5c0,0,0,0,0,0h-0.3c0,0-0.1,0-0.1,0
		l-0.3,2.5c0,0,0,0.1,0,0.1c0,0,0,0-0.1,0h-1c0,0-0.1,0-0.1,0c0,0,0,0,0-0.1l0.7-6.1c0,0,0-0.1,0-0.1c0,0,0,0,0.1,0h1.8
		c0.4,0,0.8,0.1,1,0.4s0.4,0.7,0.4,1.1c0,0.1,0,0.3,0,0.3c0,0.3-0.1,0.7-0.3,0.9c-0.2,0.3-0.4,0.5-0.6,0.6c0,0,0,0,0,0c0,0,0,0,0,0
		l0.5,2.7v0c0,0,0,0.1,0,0.1c0,0,0,0-0.1,0h-1C53.1,214,53,214,53,213.9"/>
	<path class="st1" d="M60.2,210.8C60.2,210.8,60.2,210.8,60.2,210.8l-0.1,0.8c0,0,0,0.1,0,0.1s0,0-0.1,0h-1.1c0,0,0,0,0,0l-0.1,1.1
		c0,0,0,0.1,0,0.1c0,0,0,0-0.1,0h-0.7c0,0-0.1,0-0.1,0s0,0,0-0.1l0.1-1.1c0,0,0,0,0,0h-1.1c0,0-0.1,0-0.1,0c0,0,0,0,0-0.1l0.1-0.7
		c0,0,0-0.1,0-0.1c0,0,0,0,0.1,0H58c0,0,0.1,0,0.1,0l0.1-1.1c0,0,0-0.1,0-0.1c0,0,0.1,0,0.1,0H59c0,0,0.1,0,0.1,0c0,0,0,0,0,0.1
		l-0.1,1.1c0,0,0,0,0,0L60.2,210.8C60.1,210.7,60.2,210.7,60.2,210.8"/>
	<path class="st1" d="M66,208.8C65.9,208.8,65.9,208.8,66,208.8l-1.9,0c0,0,0,0,0,0l-0.2,1.4c0,0,0,0,0,0h1.1c0,0,0.1,0,0.1,0
		c0,0,0,0,0,0.1l-0.1,0.9c0,0,0,0.1,0,0.1s0,0-0.1,0h-1c0,0-0.1,0-0.1,0l-0.2,1.4c0,0,0,0,0,0h1.8c0,0,0.1,0,0.1,0c0,0,0,0,0,0.1
		l-0.1,0.9c0,0,0,0.1,0,0.1c0,0,0,0-0.1,0h-3c0,0-0.1,0-0.1,0c0,0,0,0,0-0.1l0.7-6.1c0,0,0-0.1,0-0.1c0,0,0,0,0.1,0h3
		c0,0,0.1,0,0.1,0c0,0,0,0,0,0.1L66,208.8C66,208.7,66,208.7,66,208.8"/>
	<path class="st1" d="M65.8,214C65.8,214,65.8,213.9,65.8,214l1.6-3.1c0,0,0,0,0-0.1l-0.8-3l0,0c0-0.1,0-0.1,0.1-0.1h1.1
		c0.1,0,0.1,0,0.1,0.1l0.4,1.7c0,0,0,0,0,0c0,0,0,0,0,0l0.8-1.7c0-0.1,0.1-0.1,0.1-0.1h1c0,0,0.1,0,0.1,0c0,0,0,0.1,0,0.1l-1.5,3
		c0,0,0,0,0,0.1l0.8,3l0,0c0,0,0,0,0,0.1c0,0,0,0-0.1,0h-1c-0.1,0-0.1,0-0.1-0.1l-0.4-1.7c0,0,0,0,0,0c0,0,0,0,0,0l-0.8,1.7
		c0,0.1-0.1,0.1-0.1,0.1L65.8,214C65.9,214,65.8,214,65.8,214"/>
	<path class="st1" d="M73.9,208.8C73.9,208.8,73.9,208.8,73.9,208.8l-1.9,0c0,0,0,0,0,0l-0.2,1.4c0,0,0,0,0,0h1.1c0,0,0.1,0,0.1,0
		c0,0,0,0,0,0.1l-0.1,0.9c0,0,0,0.1,0,0.1s0,0-0.1,0h-1c0,0-0.1,0-0.1,0l-0.2,1.4c0,0,0,0,0,0h1.8c0,0,0.1,0,0.1,0c0,0,0,0,0,0.1
		l-0.1,0.9c0,0,0,0.1,0,0.1c0,0,0,0-0.1,0h-3c0,0-0.1,0-0.1,0c0,0,0,0,0-0.1l0.7-6.1c0,0,0-0.1,0-0.1c0,0,0,0,0.1,0h3
		c0,0,0.1,0,0.1,0c0,0,0,0,0,0.1L73.9,208.8C74,208.7,74,208.7,73.9,208.8"/>
	<path class="st1" d="M74.5,213.7c-0.3-0.3-0.4-0.6-0.4-1.1c0-0.1,0-0.2,0-0.3l0.4-2.9c0.1-0.5,0.3-1,0.6-1.3
		c0.4-0.3,0.8-0.5,1.3-0.5c0.5,0,0.9,0.1,1.1,0.4c0.3,0.3,0.4,0.6,0.4,1.1c0,0.1,0,0.2,0,0.3l0,0.1c0,0,0,0.1,0,0.1s0,0-0.1,0l-1,0
		c-0.1,0-0.1,0-0.1-0.1l0-0.2c0,0,0-0.1,0-0.1c0-0.1,0-0.3-0.1-0.3c-0.1-0.1-0.2-0.1-0.3-0.1c-0.1,0-0.3,0.1-0.4,0.2
		c-0.1,0.1-0.2,0.2-0.2,0.4l-0.4,3.1c0,0,0,0.1,0,0.1c0,0.1,0,0.3,0.1,0.3c0.1,0.1,0.2,0.1,0.3,0.1c0.2,0,0.3-0.1,0.4-0.2
		c0.1-0.1,0.2-0.2,0.2-0.4l0-0.2c0,0,0-0.1,0-0.1s0,0,0.1,0l1,0c0.1,0,0.1,0,0.1,0.1l0,0.1c-0.1,0.5-0.3,1-0.6,1.3
		c-0.4,0.3-0.8,0.5-1.3,0.5C75.1,214.1,74.7,214,74.5,213.7"/>
	<path class="st1" d="M78.6,213.7c-0.3-0.3-0.4-0.7-0.4-1.1c0-0.1,0-0.3,0-0.3l0.5-4.4c0,0,0-0.1,0-0.1c0,0,0,0,0.1,0h1
		c0.1,0,0.1,0,0.1,0.1l-0.6,4.5c0,0,0,0.1,0,0.1c0,0.2,0,0.3,0.1,0.4c0.1,0.1,0.2,0.1,0.3,0.1c0.2,0,0.3-0.1,0.4-0.2
		c0.1-0.1,0.2-0.3,0.2-0.5l0.6-4.5c0,0,0-0.1,0-0.1c0,0,0,0,0.1,0h1c0,0,0.1,0,0.1,0c0,0,0,0,0,0.1l-0.5,4.4c-0.1,0.6-0.3,1-0.6,1.4
		c-0.4,0.3-0.8,0.5-1.3,0.5C79.2,214.1,78.9,213.9,78.6,213.7"/>
	<path class="st1" d="M86.4,207.7C86.4,207.8,86.4,207.8,86.4,207.7l-0.1,1c0,0,0,0.1,0,0.1c0,0,0,0-0.1,0h-1.1c0,0,0,0,0,0
		c0,0,0,0,0,0l-0.6,5.1c0,0,0,0.1,0,0.1c0,0,0,0-0.1,0h-1c0,0-0.1,0-0.1,0c0,0,0,0,0-0.1l0.6-5.1c0,0,0,0,0,0h-1
		c-0.1,0-0.1,0-0.1-0.1l0.1-0.9c0,0,0-0.1,0-0.1c0,0,0,0,0.1,0L86.4,207.7C86.4,207.7,86.4,207.7,86.4,207.7"/>
	<path class="st1" d="M86.3,214C86.3,214,86.3,213.9,86.3,214l0.7-6.2c0,0,0-0.1,0-0.1c0,0,0,0,0.1,0h1c0.1,0,0.1,0,0.1,0.1
		l-0.7,6.1c0,0,0,0.1,0,0.1c0,0-0.1,0-0.1,0L86.3,214C86.3,214,86.3,214,86.3,214"/>
	<path class="st1" d="M89.3,213.9l-0.5-6.1v0c0-0.1,0-0.1,0.1-0.1h1.1c0.1,0,0.1,0,0.1,0.1l0.1,4c0,0,0,0,0,0c0,0,0,0,0,0l1.1-4
		c0-0.1,0.1-0.1,0.1-0.1h1.1c0.1,0,0.1,0,0.1,0.1l-2,6.1c0,0.1-0.1,0.1-0.1,0.1L89.3,213.9C89.4,214,89.3,214,89.3,213.9"/>
	<path class="st1" d="M96.3,208.8C96.3,208.8,96.3,208.8,96.3,208.8l-1.9,0c0,0,0,0,0,0l-0.2,1.4c0,0,0,0,0,0h1.1c0,0,0.1,0,0.1,0
		c0,0,0,0,0,0.1l-0.1,0.9c0,0,0,0.1,0,0.1s0,0-0.1,0h-1c0,0-0.1,0-0.1,0l-0.2,1.4c0,0,0,0,0,0h1.8c0,0,0.1,0,0.1,0c0,0,0,0,0,0.1
		l-0.1,0.9c0,0,0,0.1,0,0.1c0,0,0,0-0.1,0h-3c0,0-0.1,0-0.1,0c0,0,0,0,0-0.1l0.7-6.1c0,0,0-0.1,0-0.1c0,0,0,0,0.1,0h3
		c0,0,0.1,0,0.1,0c0,0,0,0,0,0.1L96.3,208.8C96.4,208.7,96.4,208.7,96.3,208.8"/>
	<path class="st1" d="M99.5,212.9l0.4,0c0.2,0,0.3-0.1,0.4-0.2c0.1-0.1,0.2-0.3,0.2-0.5l0.3-2.6c0,0,0-0.1,0-0.2
		c0-0.2,0-0.3-0.1-0.4c-0.1-0.1-0.2-0.2-0.3-0.2H100c0,0,0,0,0,0L99.5,212.9C99.5,212.9,99.5,212.9,99.5,212.9 M98.1,214
		C98.1,214,98.1,213.9,98.1,214l0.7-6.2c0,0,0-0.1,0-0.1c0,0,0,0,0.1,0h1.6c0.5,0,0.9,0.1,1.1,0.4c0.3,0.3,0.4,0.6,0.4,1.1
		c0,0.1,0,0.1,0,0.3l-0.4,2.8c-0.1,0.5-0.3,1-0.6,1.3s-0.8,0.5-1.3,0.5L98.1,214C98.2,214,98.2,214,98.1,214"/>
	<path class="st1" d="M102.3,214C102.3,214,102.3,213.9,102.3,214l0.7-6.2c0,0,0-0.1,0-0.1c0,0,0,0,0.1,0h1c0.1,0,0.1,0,0.1,0.1
		l-0.7,6.1c0,0,0,0.1,0,0.1c0,0-0.1,0-0.1,0L102.3,214C102.3,214,102.3,214,102.3,214"/>
	<path class="st1" d="M106.1,208.8l-0.2,1.5c0,0,0,0,0,0h0.4c0.2,0,0.4-0.1,0.5-0.3c0.1-0.2,0.2-0.4,0.2-0.7c0-0.2,0-0.4-0.1-0.5
		c-0.1-0.1-0.2-0.2-0.4-0.2L106.1,208.8C106.1,208.8,106.1,208.8,106.1,208.8 M106.6,213.9l-0.4-2.5c0,0,0,0,0,0h-0.3
		c0,0-0.1,0-0.1,0l-0.3,2.5c0,0,0,0.1,0,0.1c0,0,0,0-0.1,0h-1c0,0-0.1,0-0.1,0c0,0,0,0,0-0.1l0.7-6.1c0,0,0-0.1,0-0.1c0,0,0,0,0.1,0
		h1.8c0.4,0,0.8,0.1,1,0.4s0.4,0.7,0.4,1.1c0,0.1,0,0.3,0,0.3c0,0.3-0.1,0.7-0.3,0.9c-0.2,0.3-0.4,0.5-0.6,0.6c0,0,0,0,0,0
		c0,0,0,0,0,0l0.5,2.7v0c0,0,0,0.1,0,0.1c0,0,0,0-0.1,0h-1C106.6,214,106.6,214,106.6,213.9"/>
	<path class="st1" d="M112.2,208.8C112.2,208.8,112.1,208.8,112.2,208.8l-1.9,0c0,0,0,0,0,0l-0.2,1.4c0,0,0,0,0,0h1.1
		c0,0,0.1,0,0.1,0c0,0,0,0,0,0.1l-0.1,0.9c0,0,0,0.1,0,0.1s0,0-0.1,0h-1c0,0-0.1,0-0.1,0l-0.2,1.4c0,0,0,0,0,0h1.8c0,0,0.1,0,0.1,0
		c0,0,0,0,0,0.1l-0.1,0.9c0,0,0,0.1,0,0.1c0,0,0,0-0.1,0h-3c0,0-0.1,0-0.1,0c0,0,0,0,0-0.1l0.7-6.1c0,0,0-0.1,0-0.1c0,0,0,0,0.1,0h3
		c0,0,0.1,0,0.1,0c0,0,0,0,0,0.1L112.2,208.8C112.2,208.7,112.2,208.7,112.2,208.8"/>
	<path class="st1" d="M112.7,213.7c-0.3-0.3-0.4-0.6-0.4-1.1c0-0.1,0-0.2,0-0.3l0.4-2.9c0.1-0.5,0.3-1,0.6-1.3s0.8-0.5,1.3-0.5
		c0.5,0,0.9,0.1,1.1,0.4c0.3,0.3,0.4,0.6,0.4,1.1c0,0.1,0,0.2,0,0.3l0,0.1c0,0,0,0.1,0,0.1s0,0-0.1,0l-1,0c-0.1,0-0.1,0-0.1-0.1
		l0-0.2c0,0,0-0.1,0-0.1c0-0.1,0-0.3-0.1-0.3c-0.1-0.1-0.2-0.1-0.3-0.1c-0.1,0-0.3,0.1-0.4,0.2c-0.1,0.1-0.2,0.2-0.2,0.4l-0.4,3.1
		c0,0,0,0.1,0,0.1c0,0.1,0,0.3,0.1,0.3c0.1,0.1,0.2,0.1,0.3,0.1c0.2,0,0.3-0.1,0.4-0.2c0.1-0.1,0.2-0.2,0.2-0.4l0-0.2
		c0,0,0-0.1,0-0.1s0,0,0.1,0l1,0c0.1,0,0.1,0,0.1,0.1l0,0.1c-0.1,0.5-0.3,1-0.6,1.3c-0.4,0.3-0.8,0.5-1.3,0.5
		C113.4,214.1,113,214,112.7,213.7"/>
	<path class="st1" d="M120.5,207.7C120.5,207.8,120.5,207.8,120.5,207.7l-0.1,1c0,0,0,0.1,0,0.1c0,0,0,0-0.1,0h-1.1c0,0,0,0,0,0
		c0,0,0,0,0,0l-0.6,5.1c0,0,0,0.1,0,0.1c0,0,0,0-0.1,0h-1c0,0-0.1,0-0.1,0c0,0,0,0,0-0.1l0.6-5.1c0,0,0,0,0,0h-1
		c-0.1,0-0.1,0-0.1-0.1l0.1-0.9c0,0,0-0.1,0-0.1c0,0,0,0,0.1,0L120.5,207.7C120.4,207.7,120.5,207.7,120.5,207.7"/>
	<path class="st1" d="M122.4,212.8c0.1-0.1,0.2-0.3,0.2-0.5l0.4-3c0,0,0-0.1,0-0.1c0-0.2,0-0.3-0.1-0.4c-0.1-0.1-0.2-0.1-0.3-0.1
		c-0.2,0-0.3,0.1-0.4,0.2c-0.1,0.1-0.2,0.3-0.2,0.5l-0.4,3c0,0,0,0.1,0,0.1c0,0.2,0,0.3,0.1,0.4c0.1,0.1,0.2,0.1,0.3,0.1
		C122.1,213,122.3,212.9,122.4,212.8 M120.7,213.7c-0.3-0.3-0.4-0.6-0.4-1.1c0-0.1,0-0.2,0-0.3l0.3-2.9c0.1-0.5,0.3-1,0.6-1.3
		c0.4-0.3,0.8-0.5,1.3-0.5c0.5,0,0.9,0.1,1.2,0.4c0.3,0.3,0.4,0.6,0.4,1.1c0,0.1,0,0.2,0,0.3l-0.4,2.9c-0.1,0.5-0.3,1-0.6,1.3
		c-0.4,0.3-0.8,0.5-1.3,0.5C121.4,214.1,121,214,120.7,213.7"/>
	<path class="st1" d="M126.2,208.8l-0.2,1.5c0,0,0,0,0,0h0.4c0.2,0,0.4-0.1,0.5-0.3c0.1-0.2,0.2-0.4,0.2-0.7c0-0.2,0-0.4-0.1-0.5
		c-0.1-0.1-0.2-0.2-0.4-0.2L126.2,208.8C126.2,208.8,126.2,208.8,126.2,208.8 M126.6,213.9l-0.4-2.5c0,0,0,0,0,0h-0.3
		c0,0-0.1,0-0.1,0l-0.3,2.5c0,0,0,0.1,0,0.1c0,0,0,0-0.1,0h-1c0,0-0.1,0-0.1,0c0,0,0,0,0-0.1l0.7-6.1c0,0,0-0.1,0-0.1c0,0,0,0,0.1,0
		h1.8c0.4,0,0.8,0.1,1,0.4s0.4,0.7,0.4,1.1c0,0.1,0,0.3,0,0.3c0,0.3-0.1,0.7-0.3,0.9c-0.2,0.3-0.4,0.5-0.6,0.6c0,0,0,0,0,0
		c0,0,0,0,0,0l0.5,2.7v0c0,0,0,0.1,0,0.1c0,0,0,0-0.1,0h-1C126.6,214,126.6,214,126.6,213.9"/>
	<path class="st1" d="M27.9,230.8c-0.2,0.1-0.3,0.3-0.3,0.6c0,0.2,0.1,0.4,0.3,0.6c0.2,0.1,0.4,0.2,0.7,0.2c0.3,0,0.5-0.1,0.7-0.2
		c0.2-0.1,0.3-0.3,0.3-0.6c0-0.2-0.1-0.4-0.3-0.6c-0.2-0.1-0.4-0.2-0.7-0.2C28.3,230.6,28.1,230.7,27.9,230.8 M29.4,234.5
		c0.2-0.2,0.3-0.4,0.3-0.7c0-0.3-0.1-0.5-0.3-0.7c-0.2-0.2-0.5-0.2-0.8-0.2c-0.4,0-0.6,0.1-0.8,0.2c-0.2,0.2-0.3,0.4-0.3,0.7
		c0,0.3,0.1,0.5,0.3,0.7c0.2,0.2,0.5,0.2,0.9,0.2C29,234.7,29.2,234.7,29.4,234.5 M29.9,230.3c0.3,0.3,0.5,0.6,0.5,1.1
		c0,0.3-0.1,0.5-0.2,0.7c-0.1,0.2-0.3,0.4-0.6,0.5v0c0.3,0.1,0.6,0.3,0.8,0.5c0.2,0.2,0.3,0.5,0.3,0.9c0,0.5-0.2,0.8-0.6,1.1
		c-0.4,0.3-0.9,0.4-1.5,0.4c-0.6,0-1.1-0.1-1.5-0.4c-0.4-0.3-0.6-0.7-0.6-1.1c0-0.3,0.1-0.6,0.3-0.9c0.2-0.2,0.4-0.4,0.8-0.5v0
		c-0.3-0.1-0.5-0.3-0.6-0.5c-0.1-0.2-0.2-0.5-0.2-0.7c0-0.5,0.2-0.8,0.5-1.1c0.3-0.3,0.8-0.4,1.3-0.4
		C29.2,229.9,29.6,230,29.9,230.3"/>
	<path class="st1" d="M34,230v5.4h-0.9v-4c0-0.2,0-0.3,0-0.4c-0.2,0.2-0.4,0.3-0.6,0.5c-0.2,0.1-0.5,0.2-0.7,0.3l-0.2-0.8
		c0.1,0,0.3-0.1,0.6-0.2c0.2-0.1,0.4-0.2,0.6-0.4c0.2-0.1,0.4-0.3,0.4-0.4H34z"/>
	<path class="st1" d="M36.9,230.8c-0.2,0.1-0.3,0.3-0.3,0.6c0,0.2,0.1,0.4,0.3,0.6c0.2,0.1,0.4,0.2,0.7,0.2c0.3,0,0.5-0.1,0.7-0.2
		c0.2-0.1,0.3-0.3,0.3-0.6c0-0.2-0.1-0.4-0.3-0.6c-0.2-0.1-0.4-0.2-0.7-0.2C37.3,230.6,37,230.7,36.9,230.8 M38.4,234.5
		c0.2-0.2,0.3-0.4,0.3-0.7c0-0.3-0.1-0.5-0.3-0.7c-0.2-0.2-0.5-0.2-0.8-0.2c-0.4,0-0.6,0.1-0.8,0.2c-0.2,0.2-0.3,0.4-0.3,0.7
		c0,0.3,0.1,0.5,0.3,0.7c0.2,0.2,0.5,0.2,0.9,0.2C37.9,234.7,38.2,234.7,38.4,234.5 M38.9,230.3c0.3,0.3,0.5,0.6,0.5,1.1
		c0,0.3-0.1,0.5-0.2,0.7c-0.1,0.2-0.3,0.4-0.6,0.5v0c0.3,0.1,0.6,0.3,0.8,0.5c0.2,0.2,0.3,0.5,0.3,0.9c0,0.5-0.2,0.8-0.6,1.1
		c-0.4,0.3-0.9,0.4-1.5,0.4c-0.6,0-1.1-0.1-1.5-0.4c-0.4-0.3-0.6-0.7-0.6-1.1c0-0.3,0.1-0.6,0.3-0.9c0.2-0.2,0.4-0.4,0.8-0.5v0
		c-0.3-0.1-0.5-0.3-0.6-0.5c-0.1-0.2-0.2-0.5-0.2-0.7c0-0.5,0.2-0.8,0.5-1.1c0.3-0.3,0.8-0.4,1.3-0.4
		C38.1,229.9,38.6,230,38.9,230.3"/>
	<path class="st1" d="M41.9,234.5c0.1,0.1,0.2,0.3,0.2,0.4c0,0.2-0.1,0.3-0.2,0.4c-0.1,0.1-0.3,0.2-0.5,0.2s-0.3-0.1-0.5-0.2
		c-0.1-0.1-0.2-0.3-0.2-0.4c0-0.2,0.1-0.3,0.2-0.4c0.1-0.1,0.3-0.2,0.5-0.2C41.6,234.3,41.8,234.3,41.9,234.5"/>
	<path class="st1" d="M44.6,233c-0.2,0.2-0.3,0.4-0.3,0.7c0,0.3,0.1,0.6,0.3,0.7c0.2,0.2,0.5,0.3,0.8,0.3c0.3,0,0.6-0.1,0.8-0.3
		c0.2-0.2,0.3-0.4,0.3-0.8c0-0.3-0.1-0.6-0.3-0.7c-0.2-0.2-0.4-0.3-0.8-0.3C45,232.7,44.8,232.8,44.6,233 M46.5,230.2
		c0.3,0.2,0.5,0.5,0.7,0.9l-0.8,0.4c-0.2-0.5-0.5-0.8-1.1-0.8c-0.3,0-0.5,0.1-0.7,0.3c-0.2,0.2-0.4,0.4-0.5,0.8
		c-0.1,0.3-0.2,0.7-0.2,1.1v0.1h0c0.1-0.3,0.3-0.5,0.5-0.7c0.3-0.2,0.6-0.2,0.9-0.2c0.4,0,0.7,0.1,0.9,0.2c0.3,0.1,0.5,0.3,0.6,0.6
		c0.2,0.3,0.2,0.6,0.2,0.9c0,0.5-0.2,1-0.5,1.3c-0.3,0.3-0.8,0.5-1.4,0.5c-0.7,0-1.2-0.3-1.6-0.8c-0.4-0.5-0.6-1.2-0.6-2.1
		c0-0.6,0.1-1.1,0.3-1.5c0.2-0.4,0.4-0.7,0.8-1c0.3-0.2,0.7-0.3,1.1-0.3C45.9,229.9,46.2,230,46.5,230.2"/>
	<path class="st1" d="M51.4,230.1c0.3,0.1,0.5,0.3,0.6,0.5c0.1,0.2,0.2,0.5,0.2,0.7c0,0.3-0.1,0.5-0.2,0.7c-0.1,0.2-0.2,0.4-0.4,0.5
		c-0.2,0.1-0.3,0.2-0.5,0.2v0c0.2,0,0.4,0.1,0.6,0.2c0.2,0.1,0.3,0.3,0.4,0.4c0.1,0.2,0.2,0.4,0.2,0.7c0,0.3-0.1,0.6-0.2,0.8
		c-0.2,0.2-0.4,0.4-0.7,0.6c-0.3,0.1-0.6,0.2-1,0.2c-1,0-1.6-0.4-2-1.3l0.8-0.4c0.1,0.3,0.2,0.6,0.4,0.7c0.2,0.2,0.4,0.2,0.8,0.2
		c0.3,0,0.6-0.1,0.8-0.2c0.2-0.2,0.3-0.4,0.3-0.6c0-0.3-0.1-0.5-0.3-0.6c-0.2-0.1-0.5-0.2-0.9-0.2H50v-0.7h0.2c0.7,0,1-0.3,1-0.8
		c0-0.3-0.1-0.5-0.2-0.6c-0.2-0.1-0.4-0.2-0.7-0.2c-0.3,0-0.5,0.1-0.7,0.2c-0.2,0.1-0.3,0.3-0.3,0.6l-0.8-0.3
		c0.1-0.4,0.3-0.7,0.7-0.9c0.3-0.2,0.7-0.3,1.2-0.3C50.8,229.9,51.1,229.9,51.4,230.1"/>
	<path class="st1" d="M54.9,233c-0.2,0.2-0.3,0.4-0.3,0.7c0,0.3,0.1,0.6,0.3,0.7c0.2,0.2,0.5,0.3,0.8,0.3c0.3,0,0.6-0.1,0.8-0.3
		c0.2-0.2,0.3-0.4,0.3-0.8c0-0.3-0.1-0.6-0.3-0.7c-0.2-0.2-0.4-0.3-0.8-0.3C55.4,232.7,55.1,232.8,54.9,233 M56.9,230.2
		c0.3,0.2,0.5,0.5,0.7,0.9l-0.8,0.4c-0.2-0.5-0.5-0.8-1.1-0.8c-0.3,0-0.5,0.1-0.7,0.3c-0.2,0.2-0.4,0.4-0.5,0.8
		c-0.1,0.3-0.2,0.7-0.2,1.1v0.1h0c0.1-0.3,0.3-0.5,0.5-0.7c0.3-0.2,0.6-0.2,0.9-0.2c0.4,0,0.7,0.1,0.9,0.2c0.3,0.1,0.5,0.3,0.6,0.6
		c0.2,0.3,0.2,0.6,0.2,0.9c0,0.5-0.2,1-0.5,1.3c-0.3,0.3-0.8,0.5-1.4,0.5c-0.7,0-1.2-0.3-1.6-0.8c-0.4-0.5-0.6-1.2-0.6-2.1
		c0-0.6,0.1-1.1,0.3-1.5c0.2-0.4,0.4-0.7,0.8-1c0.3-0.2,0.7-0.3,1.1-0.3C56.2,229.9,56.6,230,56.9,230.2"/>
	<path class="st1" d="M59.9,234.5c0.1,0.1,0.2,0.3,0.2,0.4c0,0.2-0.1,0.3-0.2,0.4c-0.1,0.1-0.3,0.2-0.5,0.2s-0.3-0.1-0.5-0.2
		c-0.1-0.1-0.2-0.3-0.2-0.4c0-0.2,0.1-0.3,0.2-0.4c0.1-0.1,0.3-0.2,0.5-0.2C59.6,234.3,59.8,234.3,59.9,234.5"/>
	<path class="st1" d="M64.3,232.1c0.3,0.1,0.5,0.3,0.6,0.6c0.1,0.3,0.2,0.6,0.2,0.9c0,0.6-0.2,1-0.5,1.4c-0.4,0.3-0.8,0.5-1.4,0.5
		c-0.5,0-0.9-0.1-1.2-0.3c-0.3-0.2-0.6-0.5-0.8-0.9l0.8-0.5c0.1,0.3,0.2,0.5,0.4,0.7c0.2,0.2,0.4,0.2,0.8,0.2c0.3,0,0.6-0.1,0.8-0.3
		c0.2-0.2,0.3-0.4,0.3-0.8c0-0.3-0.1-0.6-0.3-0.8c-0.2-0.2-0.4-0.3-0.8-0.3c-0.5,0-0.9,0.2-1.1,0.5l-0.7-0.1l0.3-3.1h3.2v0.8h-2.5
		l-0.2,1.5l0,0.1h0c0.3-0.3,0.7-0.4,1.2-0.4C63.7,231.9,64.1,232,64.3,232.1"/>
	<path class="st1" d="M69.3,234.2c0.2-0.3,0.3-0.9,0.3-1.5c0-0.7-0.1-1.2-0.3-1.5c-0.2-0.3-0.5-0.5-0.9-0.5c-0.8,0-1.2,0.7-1.2,2.1
		s0.4,2.1,1.2,2.1C68.8,234.7,69.1,234.6,69.3,234.2 M66.8,234.8c-0.4-0.5-0.5-1.2-0.5-2.1c0-0.9,0.2-1.6,0.5-2.1
		c0.4-0.5,0.9-0.7,1.6-0.7c0.7,0,1.2,0.2,1.6,0.7c0.4,0.5,0.5,1.2,0.5,2.1c0,0.9-0.2,1.6-0.5,2.1c-0.4,0.5-0.9,0.7-1.6,0.7
		C67.7,235.5,67.2,235.2,66.8,234.8"/>
	<path class="st1" d="M74.7,234.2c0.2-0.3,0.3-0.9,0.3-1.5c0-0.7-0.1-1.2-0.3-1.5c-0.2-0.3-0.5-0.5-0.9-0.5c-0.8,0-1.2,0.7-1.2,2.1
		s0.4,2.1,1.2,2.1C74.2,234.7,74.5,234.6,74.7,234.2 M72.2,234.8c-0.4-0.5-0.5-1.2-0.5-2.1c0-0.9,0.2-1.6,0.5-2.1
		c0.4-0.5,0.9-0.7,1.6-0.7c0.7,0,1.2,0.2,1.6,0.7c0.4,0.5,0.5,1.2,0.5,2.1c0,0.9-0.2,1.6-0.5,2.1c-0.4,0.5-0.9,0.7-1.6,0.7
		C73.1,235.5,72.5,235.2,72.2,234.8"/>
	<path class="st1" d="M77.1,234.8c0.7-0.5,1.3-0.9,1.7-1.3c0.4-0.4,0.7-0.7,0.9-1c0.2-0.3,0.3-0.6,0.3-0.9c0-0.3-0.1-0.5-0.3-0.7
		c-0.2-0.2-0.4-0.3-0.8-0.3c-0.3,0-0.6,0.1-0.8,0.3s-0.3,0.5-0.3,0.9l-0.8-0.4c0.1-0.5,0.3-0.9,0.6-1.2c0.3-0.3,0.8-0.5,1.4-0.5
		c0.4,0,0.7,0.1,1,0.2c0.3,0.2,0.5,0.4,0.7,0.6c0.1,0.3,0.2,0.6,0.2,0.9c0,0.5-0.2,1-0.6,1.5c-0.4,0.5-1,1-1.9,1.6v0
		c0.3,0,0.6,0,0.9,0h1.7v0.8h-3.8V234.8z"/>
	<path class="st1" d="M29.3,241.3l-0.1,0.8c-0.1-0.1-0.3-0.1-0.5-0.1c-0.2,0-0.3,0-0.5,0.1c-0.2,0.1-0.3,0.2-0.4,0.4
		c-0.1,0.2-0.2,0.4-0.2,0.7v2.2h-0.9v-4.1h0.8l0.1,0.7c0.2-0.6,0.7-0.8,1.3-0.8C29,241.2,29.2,241.2,29.3,241.3"/>
	<path class="st1" d="M32.3,244.6c0.2-0.1,0.3-0.3,0.3-0.6v-0.5l-0.9,0.2c-0.3,0.1-0.5,0.1-0.6,0.2c-0.1,0.1-0.2,0.2-0.2,0.4
		c0,0.2,0.1,0.3,0.2,0.4c0.1,0.1,0.3,0.1,0.5,0.1C31.8,244.8,32.1,244.7,32.3,244.6 M34.1,244.8l-0.1,0.6c-0.1,0.1-0.3,0.1-0.5,0.1
		c-0.2,0-0.4,0-0.6-0.1c-0.1-0.1-0.2-0.3-0.3-0.5c-0.1,0.2-0.3,0.3-0.6,0.4c-0.2,0.1-0.5,0.2-0.8,0.2c-0.4,0-0.7-0.1-1-0.3
		c-0.2-0.2-0.4-0.5-0.4-0.8c0-0.3,0.1-0.6,0.4-0.8c0.3-0.2,0.7-0.4,1.2-0.5l1-0.2v-0.2c0-0.3-0.1-0.5-0.2-0.6
		c-0.1-0.1-0.4-0.2-0.6-0.2c-0.5,0-0.9,0.2-1.1,0.7l-0.7-0.4c0.1-0.3,0.3-0.6,0.6-0.8c0.3-0.2,0.7-0.3,1.1-0.3c0.5,0,1,0.1,1.3,0.4
		c0.3,0.2,0.5,0.6,0.5,1.1v1.9c0,0.1,0,0.2,0.1,0.2c0,0.1,0.1,0.1,0.2,0.1C33.9,244.8,34,244.8,34.1,244.8"/>
	<path class="st1" d="M38.8,242.4l-0.8,0.3c-0.1-0.5-0.5-0.8-1-0.8c-0.4,0-0.7,0.1-0.9,0.4c-0.2,0.3-0.3,0.6-0.3,1.1
		c0,0.5,0.1,0.8,0.3,1.1c0.2,0.2,0.5,0.4,0.9,0.4c0.3,0,0.5-0.1,0.7-0.2c0.2-0.1,0.3-0.3,0.3-0.6l0.8,0.3c-0.1,0.4-0.3,0.7-0.6,0.9
		c-0.3,0.2-0.7,0.3-1.2,0.3c-0.6,0-1.2-0.2-1.5-0.6c-0.4-0.4-0.5-0.9-0.5-1.6s0.2-1.2,0.5-1.6c0.4-0.4,0.9-0.6,1.5-0.6
		C37.9,241.2,38.5,241.6,38.8,242.4"/>
	<path class="st1" d="M43.4,241.6c0.3,0.3,0.4,0.6,0.4,1.1v2.7h-0.9V243c0-0.7-0.3-1.1-0.9-1.1c-0.3,0-0.6,0.1-0.8,0.3
		c-0.2,0.2-0.3,0.5-0.3,1v2.2H40v-6h0.9v2.5c0.1-0.3,0.3-0.4,0.5-0.6c0.2-0.1,0.5-0.2,0.8-0.2C42.7,241.2,43.1,241.3,43.4,241.6"/>
	<path class="st1" d="M46.3,242.2c-0.2,0.2-0.3,0.5-0.4,0.8h2.2c0-0.3-0.2-0.6-0.4-0.8c-0.2-0.2-0.4-0.3-0.7-0.3
		C46.8,241.9,46.5,242,46.3,242.2 M49,243.7h-3c0,0.4,0.2,0.6,0.4,0.8c0.2,0.2,0.5,0.3,0.8,0.3c0.3,0,0.5,0,0.7-0.1
		c0.2-0.1,0.3-0.2,0.4-0.4l0.7,0.3c-0.3,0.6-0.9,1-1.8,1c-0.6,0-1.2-0.2-1.5-0.6c-0.4-0.4-0.5-0.9-0.5-1.6c0-0.7,0.2-1.2,0.5-1.6
		c0.4-0.4,0.8-0.6,1.5-0.6c0.6,0,1.1,0.2,1.4,0.6c0.3,0.4,0.5,0.9,0.5,1.5C49,243.4,49,243.5,49,243.7"/>
	<path class="st1" d="M51.2,244.2c0,0.2,0,0.3,0.1,0.4c0.1,0.1,0.2,0.1,0.3,0.1c0.1,0,0.2,0,0.3,0c0.1,0,0.2,0,0.3-0.1l-0.1,0.7
		c-0.2,0.1-0.4,0.1-0.7,0.1c-0.4,0-0.6-0.1-0.8-0.3c-0.2-0.2-0.3-0.5-0.3-0.9v-4.9h0.9V244.2z"/>
	<path class="st1" d="M55.7,242.6c-0.2,0.3-0.3,0.6-0.3,1.1c0,0.3,0.1,0.6,0.2,0.8c0.2,0.2,0.4,0.3,0.7,0.3c0.3,0,0.5-0.1,0.7-0.3
		c0.2-0.2,0.3-0.4,0.4-0.8l0.1-0.5c0-0.1,0-0.2,0-0.2c0-0.3-0.1-0.5-0.2-0.6c-0.1-0.2-0.4-0.2-0.7-0.2
		C56.2,242.2,55.9,242.3,55.7,242.6 M58.4,240.4c0.5,0.3,0.9,0.7,1.1,1.2c0.3,0.5,0.4,1.1,0.4,1.7c0,0.5-0.1,0.8-0.2,1.2
		c-0.1,0.3-0.3,0.6-0.6,0.7c-0.2,0.2-0.5,0.3-0.8,0.3c-0.3,0-0.5-0.1-0.7-0.2c-0.2-0.1-0.3-0.3-0.3-0.5c-0.1,0.2-0.3,0.4-0.6,0.5
		c-0.2,0.1-0.5,0.2-0.8,0.2c-0.3,0-0.5-0.1-0.7-0.2c-0.2-0.1-0.4-0.3-0.5-0.6c-0.1-0.2-0.2-0.5-0.2-0.9c0-0.5,0.1-0.9,0.3-1.2
		c0.2-0.3,0.4-0.6,0.7-0.8c0.3-0.2,0.6-0.3,0.9-0.3c0.6,0,1,0.2,1.1,0.7l0.2-0.6h0.6l-0.3,2.5c0,0.1,0,0.2,0,0.2
		c0,0.4,0.2,0.6,0.5,0.6c0.3,0,0.5-0.1,0.6-0.4c0.2-0.3,0.2-0.7,0.2-1.2c0-0.6-0.1-1-0.3-1.5c-0.2-0.4-0.5-0.7-0.9-1
		c-0.4-0.2-0.9-0.3-1.5-0.3c-0.6,0-1.2,0.1-1.6,0.4c-0.5,0.2-0.8,0.6-1.1,1.1c-0.2,0.5-0.4,1-0.4,1.6c0,0.6,0.1,1.1,0.4,1.5
		s0.6,0.8,1,1c0.4,0.2,0.9,0.3,1.4,0.3c0.4,0,0.8,0,1-0.1c0.3-0.1,0.5-0.2,0.7-0.4l0.3,0.4c-0.3,0.2-0.6,0.4-0.9,0.5
		c-0.3,0.1-0.7,0.2-1.2,0.2c-0.7,0-1.3-0.1-1.8-0.4c-0.5-0.3-0.9-0.7-1.2-1.2c-0.3-0.5-0.4-1.1-0.4-1.8c0-0.7,0.2-1.3,0.5-1.9
		c0.3-0.5,0.7-1,1.3-1.3c0.6-0.3,1.2-0.5,1.9-0.5C57.3,240,57.9,240.1,58.4,240.4"/>
	<path class="st1" d="M61.7,245.3c-0.3-0.1-0.6-0.4-0.7-0.7l0.6-0.5c0.1,0.2,0.3,0.4,0.5,0.5c0.2,0.1,0.5,0.2,0.8,0.2
		c0.3,0,0.5,0,0.7-0.1c0.2-0.1,0.2-0.2,0.2-0.4c0-0.1-0.1-0.2-0.2-0.3c-0.1-0.1-0.4-0.2-0.7-0.2c-0.6-0.1-1-0.3-1.3-0.5
		c-0.2-0.2-0.4-0.5-0.4-0.8c0-0.2,0.1-0.4,0.2-0.6c0.1-0.2,0.3-0.4,0.6-0.5c0.3-0.1,0.6-0.2,0.9-0.2c0.5,0,0.8,0.1,1.1,0.2
		c0.3,0.2,0.5,0.4,0.6,0.7l-0.6,0.5c-0.1-0.2-0.2-0.4-0.4-0.5c-0.2-0.1-0.4-0.2-0.7-0.2c-0.2,0-0.5,0.1-0.6,0.2
		c-0.2,0.1-0.2,0.2-0.2,0.4c0,0.1,0.1,0.3,0.2,0.4c0.1,0.1,0.4,0.2,0.8,0.2c0.6,0.1,1,0.3,1.2,0.4c0.2,0.2,0.4,0.5,0.4,0.8
		c0,0.4-0.2,0.7-0.5,0.9c-0.3,0.2-0.8,0.3-1.3,0.3C62.4,245.5,62.1,245.4,61.7,245.3"/>
</g>
<polygon class="st1" points="72,241.3 70.6,245.4 69.6,245.4 68.6,242.3 67.6,245.4 66.7,245.4 65.3,241.3 66.2,241.3 67.2,244.6 
	68.2,241.3 69.1,241.3 70.1,244.6 71,241.3 "/>
<g>
	<path class="st1" d="M74,245.4h-0.9v-4.1H74V245.4z M73.1,240.4c-0.1-0.1-0.2-0.2-0.2-0.4c0-0.2,0.1-0.3,0.2-0.4
		c0.1-0.1,0.2-0.1,0.4-0.1c0.2,0,0.3,0,0.4,0.1c0.1,0.1,0.2,0.2,0.2,0.4c0,0.2,0,0.3-0.2,0.4c-0.1,0.1-0.2,0.1-0.4,0.1
		C73.4,240.6,73.2,240.5,73.1,240.4"/>
	<path class="st1" d="M78.4,244.4c0.2-0.2,0.3-0.6,0.3-1.1c0-0.5-0.1-0.8-0.3-1.1c-0.2-0.3-0.5-0.4-0.8-0.4c-0.3,0-0.6,0.1-0.8,0.3
		c-0.2,0.2-0.3,0.5-0.3,0.9v0.3c0,0.4,0.1,0.7,0.3,0.9c0.2,0.2,0.5,0.3,0.8,0.3C78,244.8,78.2,244.6,78.4,244.4 M79.1,241.8
		c0.3,0.4,0.5,0.9,0.5,1.6s-0.2,1.2-0.5,1.6c-0.3,0.4-0.8,0.6-1.3,0.6c-0.3,0-0.6-0.1-0.8-0.2c-0.2-0.1-0.4-0.3-0.5-0.5v2.4h-0.9
		v-5.9h0.8l0,0.8c0.1-0.3,0.3-0.5,0.5-0.6c0.2-0.2,0.5-0.2,0.9-0.2C78.4,241.2,78.8,241.4,79.1,241.8"/>
	<path class="st1" d="M82,242.2c-0.2,0.2-0.3,0.5-0.4,0.8h2.2c0-0.3-0.2-0.6-0.4-0.8c-0.2-0.2-0.4-0.3-0.7-0.3
		C82.4,241.9,82.2,242,82,242.2 M84.6,243.7h-3c0,0.4,0.2,0.6,0.4,0.8s0.5,0.3,0.8,0.3c0.3,0,0.5,0,0.7-0.1c0.2-0.1,0.3-0.2,0.4-0.4
		l0.7,0.3c-0.3,0.6-0.9,1-1.8,1c-0.6,0-1.2-0.2-1.5-0.6c-0.4-0.4-0.5-0.9-0.5-1.6c0-0.7,0.2-1.2,0.5-1.6c0.4-0.4,0.8-0.6,1.5-0.6
		c0.6,0,1.1,0.2,1.4,0.6c0.3,0.4,0.5,0.9,0.5,1.5C84.7,243.4,84.7,243.5,84.6,243.7"/>
	<path class="st1" d="M89.3,241.6c0.3,0.3,0.4,0.6,0.4,1.1v2.7h-0.9V243c0-0.7-0.3-1.1-0.9-1.1c-0.3,0-0.6,0.1-0.8,0.3
		c-0.2,0.2-0.3,0.5-0.3,1v2.2H86v-6h0.9v2.5c0.1-0.3,0.3-0.4,0.5-0.6c0.2-0.1,0.5-0.2,0.8-0.2C88.6,241.2,89,241.3,89.3,241.6"/>
	<path class="st1" d="M95,241.3v4.1h-0.8l0-0.7c-0.3,0.5-0.8,0.8-1.5,0.8c-0.4,0-0.8-0.1-1.1-0.4c-0.3-0.2-0.4-0.6-0.4-1.1v-2.7h0.9
		v2.5c0,0.4,0.1,0.6,0.2,0.8c0.1,0.2,0.4,0.2,0.6,0.2c0.3,0,0.6-0.1,0.8-0.3c0.2-0.2,0.3-0.5,0.3-0.9v-2.2H95z"/>
	<path class="st1" d="M99.9,241.6c0.3,0.3,0.4,0.6,0.4,1.1v2.7h-0.9V243c0-0.7-0.3-1.1-0.9-1.1c-0.3,0-0.6,0.1-0.8,0.3
		c-0.2,0.2-0.3,0.5-0.3,1v2.2h-0.9v-4.1h0.8l0,0.7c0.1-0.3,0.3-0.5,0.6-0.6c0.2-0.1,0.5-0.2,0.8-0.2
		C99.3,241.2,99.6,241.3,99.9,241.6"/>
	<path class="st1" d="M102.9,242c-0.2,0.1-0.3,0.3-0.3,0.6c0,0.2,0.1,0.4,0.3,0.6c0.2,0.1,0.4,0.2,0.6,0.2c0.3,0,0.5-0.1,0.6-0.2
		c0.2-0.1,0.3-0.3,0.3-0.6c0-0.2-0.1-0.4-0.3-0.6c-0.2-0.1-0.4-0.2-0.6-0.2C103.3,241.8,103,241.9,102.9,242 M104.5,246.3
		c0.2-0.1,0.3-0.3,0.3-0.4c0-0.1-0.1-0.2-0.2-0.3c-0.1-0.1-0.3-0.1-0.6-0.1H103c-0.2,0-0.4,0-0.6,0.1c-0.1,0.1-0.2,0.2-0.2,0.3
		c0,0.2,0.1,0.3,0.3,0.4c0.2,0.1,0.5,0.2,1,0.2C104,246.5,104.3,246.5,104.5,246.3 M105.3,245c0.2,0.2,0.3,0.4,0.3,0.8
		c0,0.3-0.1,0.5-0.3,0.7c-0.2,0.2-0.4,0.4-0.8,0.5c-0.3,0.1-0.7,0.2-1.1,0.2c-0.7,0-1.1-0.1-1.5-0.3c-0.3-0.2-0.5-0.4-0.5-0.8
		c0-0.2,0.1-0.4,0.2-0.5c0.1-0.1,0.3-0.2,0.5-0.3c-0.2-0.1-0.3-0.2-0.4-0.3c-0.1-0.1-0.2-0.3-0.2-0.5c0-0.4,0.2-0.7,0.6-0.8
		c-0.2-0.1-0.4-0.3-0.5-0.5c-0.1-0.2-0.2-0.4-0.2-0.7c0-0.3,0.1-0.5,0.2-0.7c0.1-0.2,0.4-0.4,0.6-0.5c0.3-0.1,0.6-0.2,0.9-0.2
		c0.3,0,0.6,0,0.8,0.1c0.1-0.3,0.2-0.5,0.4-0.7c0.2-0.2,0.5-0.2,0.8-0.2l0.1,0.7c-0.3,0-0.5,0-0.6,0.1c-0.2,0.1-0.3,0.2-0.3,0.3
		c0.2,0.1,0.3,0.3,0.4,0.5c0.1,0.2,0.1,0.4,0.1,0.6c0,0.4-0.2,0.8-0.5,1c-0.3,0.3-0.8,0.4-1.3,0.4c-0.3,0-0.5,0-0.7-0.1
		c-0.1,0-0.2,0.1-0.3,0.2c-0.1,0.1-0.1,0.2-0.1,0.3c0,0.1,0,0.2,0.1,0.3c0.1,0.1,0.2,0.1,0.4,0.1h1.4
		C104.7,244.8,105.1,244.9,105.3,245"/>
	<path class="st1" d="M107.7,242.2c-0.2,0.2-0.3,0.5-0.4,0.8h2.2c0-0.3-0.2-0.6-0.4-0.8c-0.2-0.2-0.4-0.3-0.7-0.3
		C108.1,241.9,107.9,242,107.7,242.2 M110.3,243.7h-3c0,0.4,0.2,0.6,0.4,0.8s0.5,0.3,0.8,0.3c0.3,0,0.5,0,0.7-0.1
		c0.2-0.1,0.3-0.2,0.4-0.4l0.7,0.3c-0.3,0.6-0.9,1-1.8,1c-0.6,0-1.2-0.2-1.5-0.6c-0.4-0.4-0.5-0.9-0.5-1.6c0-0.7,0.2-1.2,0.5-1.6
		c0.4-0.4,0.8-0.6,1.5-0.6c0.6,0,1.1,0.2,1.4,0.6c0.3,0.4,0.5,0.9,0.5,1.5C110.4,243.4,110.4,243.5,110.3,243.7"/>
	<path class="st1" d="M114.3,241.3l-0.1,0.8c-0.1-0.1-0.3-0.1-0.5-0.1c-0.2,0-0.3,0-0.5,0.1c-0.2,0.1-0.3,0.2-0.4,0.4
		c-0.1,0.2-0.2,0.4-0.2,0.7v2.2h-0.9v-4.1h0.8l0.1,0.7c0.2-0.6,0.7-0.8,1.3-0.8C114,241.2,114.2,241.2,114.3,241.3"/>
	<path class="st1" d="M115.5,244.5c0.1,0.1,0.2,0.3,0.2,0.4c0,0.2-0.1,0.3-0.2,0.4c-0.1,0.1-0.3,0.2-0.5,0.2s-0.3-0.1-0.5-0.2
		c-0.1-0.1-0.2-0.3-0.2-0.4c0-0.2,0.1-0.3,0.2-0.4c0.1-0.1,0.3-0.2,0.5-0.2C115.2,244.3,115.4,244.3,115.5,244.5"/>
	<path class="st1" d="M117.9,242.3c-0.2,0.3-0.3,0.6-0.3,1.1c0,0.5,0.1,0.8,0.3,1.1c0.2,0.3,0.5,0.4,0.9,0.4c0.4,0,0.7-0.1,0.9-0.4
		c0.2-0.3,0.3-0.6,0.3-1.1c0-0.5-0.1-0.8-0.3-1.1c-0.2-0.3-0.5-0.4-0.9-0.4C118.4,241.9,118.1,242,117.9,242.3 M120.2,241.8
		c0.4,0.4,0.5,0.9,0.5,1.6c0,0.7-0.2,1.2-0.5,1.6c-0.4,0.4-0.9,0.6-1.5,0.6c-0.6,0-1.1-0.2-1.5-0.6c-0.4-0.4-0.5-0.9-0.5-1.6
		c0-0.7,0.2-1.2,0.5-1.6c0.4-0.4,0.9-0.6,1.5-0.6C119.4,241.2,119.9,241.4,120.2,241.8"/>
	<path class="st1" d="M124.7,241.3l-0.1,0.8c-0.1-0.1-0.3-0.1-0.5-0.1c-0.2,0-0.3,0-0.5,0.1c-0.2,0.1-0.3,0.2-0.4,0.4
		c-0.1,0.2-0.2,0.4-0.2,0.7v2.2h-0.9v-4.1h0.8l0.1,0.7c0.2-0.6,0.7-0.8,1.3-0.8C124.4,241.2,124.6,241.2,124.7,241.3"/>
	<path class="st1" d="M126.5,242c-0.2,0.1-0.3,0.3-0.3,0.6c0,0.2,0.1,0.4,0.3,0.6c0.2,0.1,0.4,0.2,0.6,0.2c0.3,0,0.5-0.1,0.6-0.2
		c0.2-0.1,0.3-0.3,0.3-0.6c0-0.2-0.1-0.4-0.3-0.6c-0.2-0.1-0.4-0.2-0.6-0.2C126.9,241.8,126.7,241.9,126.5,242 M128.2,246.3
		c0.2-0.1,0.3-0.3,0.3-0.4c0-0.1-0.1-0.2-0.2-0.3c-0.1-0.1-0.3-0.1-0.6-0.1h-1.1c-0.2,0-0.4,0-0.6,0.1c-0.1,0.1-0.2,0.2-0.2,0.3
		c0,0.2,0.1,0.3,0.3,0.4c0.2,0.1,0.5,0.2,1,0.2C127.6,246.5,128,246.5,128.2,246.3 M128.9,245c0.2,0.2,0.3,0.4,0.3,0.8
		c0,0.3-0.1,0.5-0.3,0.7c-0.2,0.2-0.4,0.4-0.8,0.5c-0.3,0.1-0.7,0.2-1.1,0.2c-0.7,0-1.1-0.1-1.5-0.3c-0.3-0.2-0.5-0.4-0.5-0.8
		c0-0.2,0.1-0.4,0.2-0.5c0.1-0.1,0.3-0.2,0.5-0.3c-0.2-0.1-0.3-0.2-0.4-0.3c-0.1-0.1-0.2-0.3-0.2-0.5c0-0.4,0.2-0.7,0.6-0.8
		c-0.2-0.1-0.4-0.3-0.5-0.5c-0.1-0.2-0.2-0.4-0.2-0.7c0-0.3,0.1-0.5,0.2-0.7c0.1-0.2,0.4-0.4,0.6-0.5c0.3-0.1,0.6-0.2,0.9-0.2
		c0.3,0,0.6,0,0.8,0.1c0.1-0.3,0.2-0.5,0.4-0.7c0.2-0.2,0.5-0.2,0.8-0.2l0.1,0.7c-0.3,0-0.5,0-0.6,0.1c-0.2,0.1-0.3,0.2-0.3,0.3
		c0.2,0.1,0.3,0.3,0.4,0.5c0.1,0.2,0.1,0.4,0.1,0.6c0,0.4-0.2,0.8-0.5,1c-0.3,0.3-0.8,0.4-1.3,0.4c-0.3,0-0.5,0-0.7-0.1
		c-0.1,0-0.2,0.1-0.3,0.2c-0.1,0.1-0.1,0.2-0.1,0.3c0,0.1,0,0.2,0.1,0.3c0.1,0.1,0.2,0.1,0.4,0.1h1.4
		C128.4,244.8,128.7,244.9,128.9,245"/>
	<path class="st1" d="M29.3,274.6c-0.2,0.3-0.3,0.6-0.3,1.1c0,0.3,0.1,0.6,0.2,0.8c0.2,0.2,0.4,0.3,0.7,0.3c0.3,0,0.5-0.1,0.7-0.3
		c0.2-0.2,0.3-0.4,0.4-0.8l0.1-0.5c0-0.1,0-0.2,0-0.2c0-0.3-0.1-0.5-0.2-0.6c-0.1-0.2-0.4-0.2-0.7-0.2
		C29.8,274.2,29.5,274.3,29.3,274.6 M32,272.4c0.5,0.3,0.9,0.7,1.1,1.2c0.3,0.5,0.4,1.1,0.4,1.7c0,0.5-0.1,0.8-0.2,1.2
		c-0.1,0.3-0.3,0.6-0.6,0.7c-0.2,0.2-0.5,0.3-0.8,0.3c-0.3,0-0.5-0.1-0.7-0.2c-0.2-0.1-0.3-0.3-0.3-0.5c-0.1,0.2-0.3,0.4-0.6,0.5
		c-0.2,0.1-0.5,0.2-0.8,0.2c-0.3,0-0.5-0.1-0.7-0.2c-0.2-0.1-0.4-0.3-0.5-0.6c-0.1-0.2-0.2-0.5-0.2-0.9c0-0.5,0.1-0.9,0.3-1.2
		c0.2-0.3,0.4-0.6,0.7-0.8c0.3-0.2,0.6-0.3,0.9-0.3c0.6,0,1,0.2,1.1,0.7l0.2-0.6H32l-0.3,2.5c0,0.1,0,0.2,0,0.2
		c0,0.4,0.2,0.6,0.5,0.6c0.3,0,0.5-0.1,0.6-0.4c0.2-0.3,0.2-0.7,0.2-1.2c0-0.6-0.1-1-0.3-1.5c-0.2-0.4-0.5-0.7-0.9-1
		c-0.4-0.2-0.9-0.3-1.5-0.3c-0.6,0-1.2,0.1-1.6,0.4c-0.5,0.2-0.8,0.6-1.1,1.1c-0.2,0.5-0.4,1-0.4,1.6c0,0.6,0.1,1.1,0.4,1.5
		c0.2,0.4,0.6,0.8,1,1c0.4,0.2,0.9,0.3,1.4,0.3c0.4,0,0.8,0,1-0.1c0.3-0.1,0.5-0.2,0.7-0.4l0.3,0.4c-0.3,0.2-0.6,0.4-0.9,0.5
		c-0.3,0.1-0.7,0.2-1.2,0.2c-0.7,0-1.3-0.1-1.8-0.4c-0.5-0.3-0.9-0.7-1.2-1.2c-0.3-0.5-0.4-1.1-0.4-1.8c0-0.7,0.2-1.3,0.5-1.9
		c0.3-0.5,0.7-1,1.3-1.3c0.6-0.3,1.2-0.5,1.9-0.5C30.9,272,31.5,272.1,32,272.4"/>
	<path class="st1" d="M35.3,277.3c-0.3-0.1-0.6-0.4-0.7-0.7l0.6-0.5c0.1,0.2,0.3,0.4,0.5,0.5c0.2,0.1,0.5,0.2,0.8,0.2
		c0.3,0,0.5,0,0.7-0.1c0.2-0.1,0.2-0.2,0.2-0.4c0-0.1-0.1-0.2-0.2-0.3c-0.1-0.1-0.4-0.2-0.7-0.2c-0.6-0.1-1-0.3-1.3-0.5
		c-0.2-0.2-0.4-0.5-0.4-0.8c0-0.2,0.1-0.4,0.2-0.6c0.1-0.2,0.3-0.4,0.6-0.5c0.3-0.1,0.6-0.2,0.9-0.2c0.5,0,0.8,0.1,1.1,0.2
		c0.3,0.2,0.5,0.4,0.6,0.7l-0.6,0.5c-0.1-0.2-0.2-0.4-0.4-0.5c-0.2-0.1-0.4-0.2-0.7-0.2c-0.2,0-0.5,0.1-0.6,0.2
		c-0.2,0.1-0.2,0.2-0.2,0.4c0,0.1,0.1,0.3,0.2,0.4c0.1,0.1,0.4,0.2,0.8,0.2c0.6,0.1,1,0.3,1.2,0.4c0.2,0.2,0.4,0.5,0.4,0.8
		c0,0.4-0.2,0.7-0.5,0.9c-0.3,0.2-0.8,0.3-1.3,0.3C36,277.5,35.7,277.4,35.3,277.3"/>
</g>
<polygon class="st1" points="45.6,273.3 44.2,277.4 43.2,277.4 42.2,274.3 41.2,277.4 40.3,277.4 38.9,273.3 39.8,273.3 40.8,276.6 
	41.8,273.3 42.7,273.3 43.7,276.6 44.6,273.3 "/>
<g>
	<path class="st1" d="M47.6,277.4h-0.9v-4.1h0.9V277.4z M46.7,272.4c-0.1-0.1-0.2-0.2-0.2-0.4c0-0.2,0.1-0.3,0.2-0.4
		c0.1-0.1,0.2-0.1,0.4-0.1c0.2,0,0.3,0,0.4,0.1c0.1,0.1,0.2,0.2,0.2,0.4c0,0.2,0,0.3-0.2,0.4c-0.1,0.1-0.2,0.1-0.4,0.1
		C47,272.6,46.8,272.5,46.7,272.4"/>
	<path class="st1" d="M52,276.4c0.2-0.2,0.3-0.6,0.3-1.1s-0.1-0.8-0.3-1.1c-0.2-0.3-0.5-0.4-0.8-0.4c-0.3,0-0.6,0.1-0.8,0.3
		c-0.2,0.2-0.3,0.5-0.3,0.9v0.3c0,0.4,0.1,0.7,0.3,0.9c0.2,0.2,0.5,0.3,0.8,0.3C51.6,276.8,51.8,276.6,52,276.4 M52.7,273.8
		c0.3,0.4,0.5,0.9,0.5,1.6c0,0.7-0.2,1.2-0.5,1.6c-0.3,0.4-0.8,0.6-1.3,0.6c-0.3,0-0.6-0.1-0.8-0.2c-0.2-0.1-0.4-0.3-0.5-0.5v2.4
		h-0.9v-5.9H50l0,0.8c0.1-0.3,0.3-0.5,0.5-0.6c0.2-0.2,0.5-0.2,0.9-0.2C52,273.2,52.4,273.4,52.7,273.8"/>
	<path class="st1" d="M55.6,274.2c-0.2,0.2-0.3,0.5-0.4,0.8h2.2c0-0.3-0.2-0.6-0.4-0.8c-0.2-0.2-0.4-0.3-0.7-0.3
		C56,273.9,55.8,274,55.6,274.2 M58.2,275.7h-3c0,0.4,0.2,0.6,0.4,0.8c0.2,0.2,0.5,0.3,0.8,0.3c0.3,0,0.5,0,0.7-0.1
		c0.2-0.1,0.3-0.2,0.4-0.4l0.7,0.3c-0.3,0.6-0.9,1-1.8,1c-0.6,0-1.2-0.2-1.5-0.6c-0.4-0.4-0.5-0.9-0.5-1.6c0-0.7,0.2-1.2,0.5-1.6
		c0.4-0.4,0.8-0.6,1.5-0.6c0.6,0,1.1,0.2,1.4,0.6c0.3,0.4,0.5,0.9,0.5,1.5C58.3,275.4,58.3,275.5,58.2,275.7"/>
	<path class="st1" d="M62.9,273.6c0.3,0.3,0.4,0.6,0.4,1.1v2.7h-0.9V275c0-0.7-0.3-1.1-0.9-1.1c-0.3,0-0.6,0.1-0.8,0.3
		c-0.2,0.2-0.3,0.5-0.3,1v2.2h-0.9v-6h0.9v2.5c0.1-0.3,0.3-0.4,0.5-0.6c0.2-0.1,0.5-0.2,0.8-0.2C62.3,273.2,62.6,273.3,62.9,273.6"
		/>
	<path class="st1" d="M68.6,273.3v4.1h-0.8l0-0.7c-0.3,0.5-0.8,0.8-1.5,0.8c-0.4,0-0.8-0.1-1.1-0.4c-0.3-0.2-0.4-0.6-0.4-1.1v-2.7
		h0.9v2.5c0,0.4,0.1,0.6,0.2,0.8c0.1,0.2,0.4,0.2,0.6,0.2c0.3,0,0.6-0.1,0.8-0.3c0.2-0.2,0.3-0.5,0.3-0.9v-2.2H68.6z"/>
	<path class="st1" d="M73.5,273.6c0.3,0.3,0.4,0.6,0.4,1.1v2.7h-0.9V275c0-0.7-0.3-1.1-0.9-1.1c-0.3,0-0.6,0.1-0.8,0.3
		c-0.2,0.2-0.3,0.5-0.3,1v2.2h-0.9v-4.1H71l0,0.7c0.1-0.3,0.3-0.5,0.6-0.6c0.2-0.1,0.5-0.2,0.8-0.2
		C72.9,273.2,73.2,273.3,73.5,273.6"/>
	<path class="st1" d="M76.5,274c-0.2,0.1-0.3,0.3-0.3,0.6c0,0.2,0.1,0.4,0.3,0.6c0.2,0.1,0.4,0.2,0.6,0.2c0.3,0,0.5-0.1,0.6-0.2
		c0.2-0.1,0.3-0.3,0.3-0.6c0-0.2-0.1-0.4-0.3-0.6c-0.2-0.1-0.4-0.2-0.6-0.2C76.9,273.8,76.6,273.9,76.5,274 M78.1,278.3
		c0.2-0.1,0.3-0.3,0.3-0.4c0-0.1-0.1-0.2-0.2-0.3c-0.1-0.1-0.3-0.1-0.6-0.1h-1.1c-0.2,0-0.4,0-0.6,0.1c-0.1,0.1-0.2,0.2-0.2,0.3
		c0,0.2,0.1,0.3,0.3,0.4c0.2,0.1,0.5,0.2,1,0.2C77.6,278.5,77.9,278.5,78.1,278.3 M78.9,277c0.2,0.2,0.3,0.4,0.3,0.8
		c0,0.3-0.1,0.5-0.3,0.7c-0.2,0.2-0.4,0.4-0.8,0.5c-0.3,0.1-0.7,0.2-1.1,0.2c-0.7,0-1.1-0.1-1.5-0.3c-0.3-0.2-0.5-0.4-0.5-0.8
		c0-0.2,0.1-0.4,0.2-0.5c0.1-0.1,0.3-0.2,0.5-0.3c-0.2-0.1-0.3-0.2-0.4-0.3c-0.1-0.1-0.2-0.3-0.2-0.5c0-0.4,0.2-0.7,0.6-0.8
		c-0.2-0.1-0.4-0.3-0.5-0.5c-0.1-0.2-0.2-0.4-0.2-0.7c0-0.3,0.1-0.5,0.2-0.7c0.1-0.2,0.4-0.4,0.6-0.5c0.3-0.1,0.6-0.2,0.9-0.2
		c0.3,0,0.6,0,0.8,0.1c0.1-0.3,0.2-0.5,0.4-0.7c0.2-0.2,0.5-0.2,0.8-0.2l0.1,0.7c-0.3,0-0.5,0-0.6,0.1c-0.2,0.1-0.3,0.2-0.3,0.3
		c0.2,0.1,0.3,0.3,0.4,0.5c0.1,0.2,0.1,0.4,0.1,0.6c0,0.4-0.2,0.8-0.5,1c-0.3,0.3-0.8,0.4-1.3,0.4c-0.3,0-0.5,0-0.7-0.1
		c-0.1,0-0.2,0.1-0.3,0.2c-0.1,0.1-0.1,0.2-0.1,0.3c0,0.1,0,0.2,0.1,0.3c0.1,0.1,0.2,0.1,0.4,0.1h1.4
		C78.3,276.8,78.7,276.9,78.9,277"/>
	<path class="st1" d="M81.3,274.2c-0.2,0.2-0.3,0.5-0.4,0.8h2.2c0-0.3-0.2-0.6-0.4-0.8c-0.2-0.2-0.4-0.3-0.7-0.3
		C81.7,273.9,81.5,274,81.3,274.2 M83.9,275.7h-3c0,0.4,0.2,0.6,0.4,0.8s0.5,0.3,0.8,0.3c0.3,0,0.5,0,0.7-0.1
		c0.2-0.1,0.3-0.2,0.4-0.4l0.7,0.3c-0.3,0.6-0.9,1-1.8,1c-0.6,0-1.2-0.2-1.5-0.6c-0.4-0.4-0.5-0.9-0.5-1.6c0-0.7,0.2-1.2,0.5-1.6
		c0.4-0.4,0.8-0.6,1.5-0.6c0.6,0,1.1,0.2,1.4,0.6c0.3,0.4,0.5,0.9,0.5,1.5C84,275.4,84,275.5,83.9,275.7"/>
	<path class="st1" d="M87.9,273.3l-0.1,0.8c-0.1-0.1-0.3-0.1-0.5-0.1c-0.2,0-0.3,0-0.5,0.1c-0.2,0.1-0.3,0.2-0.4,0.4
		c-0.1,0.2-0.2,0.4-0.2,0.7v2.2h-0.9v-4.1H86l0.1,0.7c0.2-0.6,0.7-0.8,1.3-0.8C87.6,273.2,87.8,273.2,87.9,273.3"/>
	<path class="st0" d="M223.7,280.6h-61.3c-1.1,0-1.9-1-1.8-2l1.5-12.5c0.1-0.9,0.9-1.6,1.8-1.6h61.3c1.1,0,1.9,1,1.8,2l-1.5,12.5
		C225.3,280,224.6,280.6,223.7,280.6"/>
	<path class="st2" d="M161.1,303.9c-0.7,0-1.4-0.3-1.9-0.9s-0.7-1.3-0.6-2l1.9-15.5c0.2-1.3,1.3-2.3,2.5-2.3l58.3,0
		c0.7,0,1.4,0.3,1.9,0.9c0.5,0.6,0.7,1.3,0.6,2l-1.9,15.5c-0.2,1.3-1.3,2.3-2.5,2.3L161.1,303.9z"/>
	<path class="st1" d="M221.3,282.4L221.3,282.4l-58.3,0c-1.7,0-3.1,1.3-3.3,2.9l-1.9,15.5c-0.1,0.9,0.2,1.9,0.8,2.6
		c0.6,0.7,1.5,1.1,2.5,1.1l58.3,0c1.7,0,3.1-1.3,3.3-2.9l1.9-15.5c0.1-0.9-0.2-1.9-0.8-2.6C223.2,282.8,222.3,282.4,221.3,282.4
		 M221.3,284c1.1,0,1.9,1,1.8,2l-1.9,15.5c-0.1,0.9-0.9,1.6-1.8,1.6l-58.3,0c-1.1,0-1.9-1-1.8-2l1.9-15.5c0.1-0.9,0.9-1.6,1.8-1.6
		L221.3,284z"/>
	<path class="st1" d="M166,277.4c-0.5-0.4-0.7-1-0.7-1.7c0-0.1,0-0.2,0-0.4l0.1-0.5c0-0.1,0-0.1,0.1-0.1c0,0,0.1-0.1,0.1-0.1h1.7
		c0.1,0,0.1,0,0.1,0.1c0,0,0,0.1,0,0.1l0,0.4c0,0,0,0.1,0,0.2c0,0.3,0.1,0.5,0.2,0.6c0.1,0.2,0.3,0.2,0.5,0.2c0.3,0,0.5-0.1,0.7-0.3
		c0.2-0.2,0.3-0.5,0.3-0.8c0-0.3-0.1-0.5-0.3-0.7c-0.2-0.2-0.5-0.5-1-0.9c-0.4-0.3-0.8-0.6-1-0.9c-0.2-0.2-0.5-0.6-0.6-0.9
		c-0.2-0.4-0.3-0.8-0.3-1.2c0-0.1,0-0.3,0-0.5c0.1-0.9,0.4-1.6,1-2.1c0.6-0.5,1.3-0.8,2.2-0.8c0.8,0,1.4,0.2,1.9,0.7
		c0.5,0.4,0.7,1,0.7,1.8c0,0.1,0,0.2,0,0.5l0,0.4c0,0.1,0,0.1-0.1,0.1c0,0-0.1,0.1-0.1,0.1h-1.7c-0.1,0-0.1,0-0.1-0.1
		c0,0,0-0.1,0-0.1l0-0.4c0,0,0-0.1,0-0.2c0-0.3-0.1-0.5-0.2-0.6c-0.1-0.2-0.3-0.2-0.5-0.2c-0.2,0-0.4,0.1-0.6,0.3
		c-0.2,0.2-0.3,0.4-0.3,0.7l0,0.2c0,0.3,0.1,0.5,0.3,0.7c0.2,0.2,0.5,0.5,0.9,0.9c0.5,0.4,0.9,0.7,1.2,1c0.3,0.3,0.5,0.6,0.6,0.9
		c0.1,0.3,0.2,0.7,0.2,1.1c0,0.1,0,0.2,0,0.4c-0.1,0.9-0.5,1.6-1.1,2.1c-0.6,0.5-1.3,0.8-2.2,0.8C167.1,278.1,166.5,277.9,166,277.4
		"/>
	<path class="st1" d="M173.3,277.8l-0.7-10.4v0c0-0.1,0.1-0.2,0.2-0.2h1.8c0.1,0,0.2,0.1,0.2,0.2l0.2,5.5c0,0,0,0.1,0,0.1
		c0,0,0,0,0-0.1l1.5-5.5c0-0.1,0.1-0.2,0.2-0.2h1.5c0.1,0,0.2,0.1,0.2,0.2l0.2,5.5c0,0,0,0.1,0,0.1c0,0,0,0,0.1-0.1l1.4-5.5
		c0-0.1,0.1-0.2,0.2-0.2h1.8c0.1,0,0.2,0.1,0.1,0.2l-3.2,10.4c0,0.1-0.1,0.2-0.2,0.2h-1.6c-0.1,0-0.2-0.1-0.2-0.2l-0.2-5.7
		c0,0,0-0.1,0-0.1s0,0-0.1,0.1l-1.5,5.7c0,0.1-0.1,0.2-0.2,0.2h-1.6C173.4,278,173.3,277.9,173.3,277.8"/>
	<path class="st1" d="M181.9,277.9c0,0,0-0.1,0-0.1l1.3-10.4c0-0.1,0-0.1,0.1-0.1c0,0,0.1-0.1,0.1-0.1h1.7c0.1,0,0.2,0.1,0.2,0.2
		l-1.3,10.4c0,0.1,0,0.1-0.1,0.1s-0.1,0.1-0.1,0.1H182C182,278,182,277.9,181.9,277.9"/>
	<path class="st1" d="M189.7,271.5c0.2-0.3,0.4-0.7,0.4-1.3c0-0.4-0.1-0.6-0.2-0.8c-0.2-0.2-0.4-0.3-0.7-0.3h-0.7
		c-0.1,0-0.1,0-0.1,0.1l-0.3,2.7c0,0.1,0,0.1,0.1,0.1h0.7C189.2,271.9,189.5,271.8,189.7,271.5 M191.5,268c0.4,0.5,0.7,1.1,0.7,1.9
		c0,0.3,0,0.4,0,0.6c-0.1,0.9-0.5,1.7-1,2.3c-0.6,0.6-1.3,0.9-2.1,0.9H188c0,0-0.1,0-0.1,0.1l-0.5,4.1c0,0.1,0,0.1-0.1,0.1
		c0,0-0.1,0.1-0.1,0.1h-1.7c-0.1,0-0.1,0-0.1-0.1c0,0,0-0.1,0-0.1l1.3-10.4c0-0.1,0-0.1,0.1-0.1c0,0,0.1-0.1,0.1-0.1h3
		C190.5,267.2,191.1,267.5,191.5,268"/>
	<path class="st1" d="M198.7,269c0,0-0.1,0.1-0.1,0.1h-3.1c-0.1,0-0.1,0-0.1,0.1l-0.3,2.4c0,0.1,0,0.1,0.1,0.1h1.8
		c0.1,0,0.1,0,0.1,0.1c0,0,0,0.1,0,0.1l-0.2,1.5c0,0.1,0,0.1-0.1,0.1c0,0-0.1,0.1-0.1,0.1h-1.8c-0.1,0-0.1,0-0.1,0.1l-0.3,2.4
		c0,0.1,0,0.1,0.1,0.1h3.1c0.1,0,0.1,0,0.1,0.1s0,0.1,0,0.1l-0.2,1.5c0,0.1,0,0.1-0.1,0.1c0,0-0.1,0.1-0.1,0.1h-5.1
		c-0.1,0-0.1,0-0.1-0.1c0,0,0-0.1,0-0.1l1.3-10.4c0-0.1,0-0.1,0.1-0.1c0,0,0.1-0.1,0.1-0.1h5.1c0.1,0,0.1,0,0.1,0.1c0,0,0,0.1,0,0.1
		l-0.2,1.5C198.7,269,198.7,269,198.7,269"/>
	<path class="st4" d="M218.6,296h-55.1c-0.2,0-0.4-0.2-0.4-0.4l0.5-4.2c0-0.2,0.2-0.3,0.4-0.3h55.1c0.2,0,0.4,0.2,0.4,0.4l-0.5,4.2
		C218.9,295.9,218.8,296,218.6,296"/>
	<path class="st1" d="M206.9,275.9c0.2-0.2,0.3-0.5,0.3-0.8l0.6-5.1c0,0,0-0.1,0-0.2c0-0.3-0.1-0.5-0.2-0.7
		c-0.1-0.2-0.3-0.2-0.6-0.2c-0.3,0-0.5,0.1-0.7,0.3c-0.2,0.2-0.3,0.5-0.3,0.8l-0.6,5.1c0,0,0,0.1,0,0.2c0,0.3,0.1,0.5,0.2,0.7
		c0.1,0.2,0.3,0.2,0.6,0.2C206.4,276.2,206.7,276.1,206.9,275.9 M204,277.4c-0.5-0.5-0.7-1.1-0.7-1.9c0-0.1,0-0.3,0-0.5l0.6-4.9
		c0.1-0.9,0.5-1.7,1.1-2.2c0.6-0.6,1.4-0.8,2.3-0.8c0.8,0,1.5,0.2,2,0.7c0.5,0.5,0.7,1.1,0.7,1.9c0,0.1,0,0.3,0,0.5l-0.6,4.9
		c-0.1,0.9-0.5,1.7-1.1,2.2c-0.6,0.6-1.4,0.8-2.3,0.8C205.1,278.1,204.4,277.8,204,277.4"/>
	<path class="st1" d="M211.1,277.4c-0.5-0.5-0.7-1.1-0.7-1.9c0-0.2,0-0.4,0-0.6l0.9-7.5c0-0.1,0-0.1,0.1-0.1c0,0,0.1-0.1,0.1-0.1
		h1.7c0.1,0,0.2,0.1,0.2,0.2l-1,7.7c0,0.1,0,0.1,0,0.2c0,0.3,0.1,0.5,0.2,0.6c0.1,0.2,0.3,0.2,0.5,0.2c0.3,0,0.5-0.1,0.7-0.3
		c0.2-0.2,0.3-0.5,0.3-0.8l1-7.7c0-0.1,0-0.1,0.1-0.1c0,0,0.1-0.1,0.1-0.1h1.7c0.1,0,0.1,0,0.1,0.1c0,0,0,0.1,0,0.1l-0.9,7.5
		c-0.1,1-0.5,1.7-1.1,2.3c-0.6,0.6-1.4,0.9-2.3,0.9C212.2,278.1,211.6,277.8,211.1,277.4"/>
	<path class="st1" d="M224.4,267.3c0,0,0,0.1,0,0.1l-0.2,1.5c0,0.1,0,0.1-0.1,0.1c0,0-0.1,0.1-0.1,0.1h-1.9c0,0,0,0-0.1,0
		c0,0,0,0,0,0.1l-1.1,8.6c0,0.1,0,0.1-0.1,0.1s-0.1,0.1-0.1,0.1h-1.7c-0.1,0-0.1,0-0.1-0.1c0,0,0-0.1,0-0.1l1.1-8.6
		c0-0.1,0-0.1-0.1-0.1h-1.8c-0.1,0-0.2-0.1-0.2-0.2l0.2-1.5c0-0.1,0-0.1,0.1-0.1c0,0,0.1-0.1,0.1-0.1h5.9
		C224.4,267.2,224.4,267.3,224.4,267.3"/>
	<path class="st1" d="M172,287.2c0,0,0.1-0.1,0.2-0.1h2.1c0.1,0,0.1,0,0.1,0.1c0,0,0,0.1,0,0.2l-1.5,12.4c0,0.1,0,0.1-0.1,0.2
		c0,0-0.1,0.1-0.2,0.1h-2.1c-0.1,0-0.1,0-0.1-0.1c0,0,0-0.1,0-0.2l0.6-5c0-0.1,0-0.1-0.1-0.1h-1.8c-0.1,0-0.1,0-0.1,0.1l-0.6,5
		c0,0.1,0,0.1-0.1,0.2c0,0-0.1,0.1-0.2,0.1h-2.1c-0.1,0-0.1,0-0.1-0.1c0,0,0-0.1,0-0.2l1.5-12.4c0-0.1,0-0.1,0.1-0.2
		c0,0,0.1-0.1,0.2-0.1h2.1c0.1,0,0.2,0.1,0.2,0.2l-0.6,5c0,0.1,0,0.1,0.1,0.1h1.8c0,0,0.1,0,0.1-0.1l0.6-5
		C171.9,287.3,172,287.2,172,287.2"/>
	<path class="st1" d="M175.7,299.3c-0.6-0.6-0.8-1.3-0.8-2.3c0-0.3,0-0.5,0-0.7l1.1-9c0-0.1,0-0.1,0.1-0.2c0,0,0.1-0.1,0.2-0.1h2.1
		c0.1,0,0.2,0.1,0.2,0.2l-1.1,9.3c0,0.1,0,0.1,0,0.3c0,0.3,0.1,0.6,0.2,0.8c0.2,0.2,0.4,0.3,0.6,0.3c0.3,0,0.6-0.1,0.8-0.4
		c0.2-0.2,0.3-0.6,0.4-1l1.1-9.3c0-0.1,0-0.1,0.1-0.2c0,0,0.1-0.1,0.2-0.1h2.1c0.1,0,0.1,0,0.1,0.1s0,0.1,0,0.2l-1.1,9
		c-0.1,1.2-0.6,2.1-1.3,2.8c-0.7,0.7-1.6,1-2.7,1C177,300.1,176.2,299.8,175.7,299.3"/>
	<path class="st1" d="M183,299.9c0,0,0-0.1,0-0.2l1.5-12.4c0-0.1,0-0.1,0.1-0.2c0,0,0.1-0.1,0.2-0.1h2.2c0.1,0,0.2,0.1,0.2,0.2
		l1.5,6.9c0,0,0,0.1,0,0c0,0,0.1,0,0.1-0.1l0.8-6.8c0-0.1,0-0.1,0.1-0.2c0,0,0.1-0.1,0.2-0.1h2.1c0.1,0,0.1,0,0.1,0.1
		c0,0,0,0.1,0,0.2l-1.5,12.4c0,0.1,0,0.1-0.1,0.2c0,0-0.1,0.1-0.2,0.1H188c-0.1,0-0.2-0.1-0.2-0.2l-1.5-6.9c0,0,0-0.1,0-0.1
		s-0.1,0-0.1,0.1l-0.8,6.9c0,0.1,0,0.1-0.1,0.2s-0.1,0.1-0.2,0.1h-2C183.1,300,183,300,183,299.9"/>
	<path class="st1" d="M193.1,299.3c-0.6-0.5-0.8-1.2-0.8-2.2c0-0.1,0-0.3,0-0.5l0.8-6.2c0.1-1.1,0.5-1.9,1.3-2.5
		c0.7-0.6,1.6-0.9,2.7-0.9c1,0,1.7,0.3,2.3,0.8c0.6,0.5,0.9,1.3,0.9,2.2c0,0.1,0,0.3,0,0.5l-0.1,0.7c0,0.1,0,0.1-0.1,0.2
		c0,0-0.1,0.1-0.2,0.1h-2.1c-0.1,0-0.1,0-0.1-0.1c0,0,0-0.1,0-0.2l0.1-0.7c0,0,0-0.1,0-0.2c0-0.3-0.1-0.6-0.2-0.7
		c-0.2-0.2-0.4-0.3-0.7-0.3c-0.3,0-0.6,0.1-0.8,0.3c-0.2,0.2-0.4,0.5-0.4,0.9l-0.8,6.3c0,0.4,0,0.7,0.2,0.9c0.2,0.2,0.4,0.3,0.7,0.3
		c0.3,0,0.6-0.1,0.8-0.3c0.2-0.2,0.4-0.5,0.4-0.9l0.2-1.5c0-0.1,0-0.1-0.1-0.1h-0.8c-0.1,0-0.1,0-0.1-0.1c0,0,0-0.1,0-0.2l0.2-1.6
		c0-0.1,0-0.1,0.1-0.2c0,0,0.1-0.1,0.2-0.1h3.2c0.1,0,0.2,0.1,0.2,0.2l-0.4,3.4c-0.1,1.1-0.6,1.9-1.3,2.5c-0.7,0.6-1.6,0.9-2.7,0.9
		C194.5,300.1,193.7,299.9,193.1,299.3"/>
	<path class="st1" d="M208.2,289.3c0,0-0.1,0.1-0.2,0.1h-3.7c-0.1,0-0.1,0-0.1,0.1l-0.4,2.9c0,0.1,0,0.1,0.1,0.1h2.2
		c0.1,0,0.1,0,0.1,0.1s0,0.1,0,0.2l-0.2,1.8c0,0.1,0,0.1-0.1,0.2c0,0-0.1,0.1-0.2,0.1h-2.1c-0.1,0-0.1,0-0.1,0.1l-0.3,2.9
		c0,0.1,0,0.1,0.1,0.1h3.7c0.1,0,0.1,0,0.2,0.1c0,0,0.1,0.1,0,0.2l-0.2,1.8c0,0.1,0,0.1-0.1,0.2c0,0-0.1,0.1-0.2,0.1h-6.1
		c-0.1,0-0.1,0-0.1-0.1c0,0,0-0.1,0-0.2l1.5-12.4c0-0.1,0-0.1,0.1-0.2c0,0,0.1-0.1,0.2-0.1h6.1c0.1,0,0.1,0,0.1,0.1s0,0.1,0,0.2
		l-0.2,1.8C208.2,289.2,208.2,289.2,208.2,289.3"/>
	<path class="st1" d="M212,289.4l-0.4,3.1c0,0.1,0,0.1,0.1,0.1h0.8c0.4,0,0.7-0.2,1-0.5c0.3-0.4,0.4-0.8,0.4-1.4
		c0-0.4-0.1-0.7-0.3-1s-0.4-0.4-0.8-0.4L212,289.4C212,289.3,212,289.4,212,289.4 M212.9,299.8l-0.8-5.1c0,0-0.1-0.1-0.1-0.1h-0.6
		c-0.1,0-0.1,0-0.1,0.1l-0.6,5c0,0.1,0,0.1-0.1,0.2c0,0-0.1,0.1-0.2,0.1h-2.1c-0.1,0-0.1,0-0.1-0.1c0,0,0-0.1,0-0.2l1.5-12.5
		c0-0.1,0-0.1,0.1-0.2c0,0,0.1-0.1,0.2-0.1h3.6c0.9,0,1.6,0.3,2.1,0.9c0.5,0.6,0.8,1.4,0.8,2.3c0,0.3,0,0.5,0,0.7
		c-0.1,0.7-0.3,1.3-0.6,1.9c-0.3,0.6-0.8,1-1.3,1.3c0,0,0,0-0.1,0c0,0,0,0,0,0.1l1,5.4v0c0,0.1,0,0.1-0.1,0.2c0,0-0.1,0.1-0.2,0.1
		h-2.1C213,300,212.9,299.9,212.9,299.8"/>
</g>
</svg>
