<svg id="Layer_1" data-name="Layer 1" xmlns="http://www.w3.org/2000/svg" viewBox="0 0 319.8 187.4"><defs><style>.cls-1{fill:#42ebb5;}.cls-2{fill:#1a0a29;}.cls-3{fill:#ff2e66;}</style></defs><title>soh-logo</title><path class="cls-1" d="M304.4,75.2H21.5a8.5,8.5,0,0,1-8.3-9.5L20.3,7.4A8.4,8.4,0,0,1,28.6,0H311.4a8.4,8.4,0,0,1,8.3,9.5l-7.1,58.3a8.3,8.3,0,0,1-8.2,7.4"/><path class="cls-2" d="M293.6,83.6h-.1l-269.3.2A15.4,15.4,0,0,0,8.9,97.4L.1,169.9a15.5,15.5,0,0,0,3.8,12.2,15.1,15.1,0,0,0,11.5,5.3l269.4-.2A15.4,15.4,0,0,0,300,173.5l8.8-72.5a15.8,15.8,0,0,0-3.7-12.2,15.5,15.5,0,0,0-11.5-5.2m0,7.1a8.3,8.3,0,0,1,8.2,9.4L293,172.6a8.2,8.2,0,0,1-8.2,7.4l-269.4.3a8.5,8.5,0,0,1-8.3-9.5l8.8-72.5a8.4,8.4,0,0,1,8.3-7.4Z"/><path class="cls-2" d="M38.3,60.1A10.7,10.7,0,0,1,35.1,52a15.8,15.8,0,0,1,.1-1.9l.3-2.3.3-.6a.7.7,0,0,1,.6-.2h8c.2,0,.4,0,.5.2a.7.7,0,0,1,.2.6l-.2,1.8a2.2,2.2,0,0,0-.1.9,4.5,4.5,0,0,0,.9,3,2.8,2.8,0,0,0,2.3,1A4.1,4.1,0,0,0,51.2,53a5.5,5.5,0,0,0,1.3-3.8,5,5,0,0,0-1.2-3.3,53.9,53.9,0,0,0-4.5-4.2c-2-1.6-3.5-3-4.7-4.1a17.1,17.1,0,0,1-2.9-4.3,12.4,12.4,0,0,1-1.3-5.8c0-.5.1-1.2.2-2.2a14.5,14.5,0,0,1,4.7-9.7,14.6,14.6,0,0,1,10-3.6c3.7,0,6.6,1,8.7,3.1a11.4,11.4,0,0,1,3.2,8.4,21.3,21.3,0,0,1-.1,2.2l-.2,1.7a.6.6,0,0,1-.3.6.9.9,0,0,1-.7.3H55.6A.9.9,0,0,1,55,28a.6.6,0,0,1-.1-.6l.2-1.9a2.2,2.2,0,0,0,.1-.9,4.4,4.4,0,0,0-.9-2.9,3.4,3.4,0,0,0-2.5-1.1A3.5,3.5,0,0,0,49,21.9a5.9,5.9,0,0,0-1.5,3.4v.9a5.7,5.7,0,0,0,1.1,3.3,34.7,34.7,0,0,0,4.3,4.2q3.5,2.8,5.4,4.8a15.7,15.7,0,0,1,2.9,4,13.1,13.1,0,0,1,1,5c0,.3-.1,1-.2,2a15.2,15.2,0,0,1-4.9,10A14.7,14.7,0,0,1,47,63.2c-3.7,0-6.5-1-8.7-3.1"/><path class="cls-2" d="M71.9,61.9,68.5,13.5v-.2a.7.7,0,0,1,.8-.8h8.4c.5,0,.7.3.7.8l.8,25.8c.1.2.1.3.2.3s.2-.1.2-.3l6.9-25.8a1,1,0,0,1,1-.8h6.9a.7.7,0,0,1,.8.8l.9,25.8c0,.2.1.3.2.3s.2-.1.2-.3l6.6-25.8a1.1,1.1,0,0,1,1-.8h8.1c.6,0,.8.3.7,1L98.3,61.9a.9.9,0,0,1-1,.7H89.9c-.5,0-.8-.2-.8-.7l-.8-26.5c0-.2-.1-.3-.2-.3l-.3.3L81,61.9a1,1,0,0,1-1,.7H72.7c-.6,0-.8-.2-.8-.7"/><path class="cls-2" d="M111.6,62.4a.7.7,0,0,1-.1-.6l5.8-48.4.3-.6a.9.9,0,0,1,.6-.3h8c.6,0,.8.3.8.9l-5.9,48.4a.9.9,0,0,1-.3.6.7.7,0,0,1-.6.2h-8c-.3,0-.5,0-.6-.2"/><path class="cls-2" d="M147.6,32.4a9.6,9.6,0,0,0,1.6-5.9,5.7,5.7,0,0,0-1.1-3.9,3.6,3.6,0,0,0-3-1.4h-3c-.3,0-.4.1-.4.4l-1.5,12.6a.3.3,0,0,0,.3.3h3a5.1,5.1,0,0,0,4.1-2.1M156,15.9a13.3,13.3,0,0,1,3,9.1,16.5,16.5,0,0,1-.2,2.7c-.5,4.4-2,8-4.7,10.7a13.1,13.1,0,0,1-9.5,4h-5.1c-.2,0-.3.1-.4.3l-2.3,19.1a.9.9,0,0,1-.3.6.7.7,0,0,1-.6.2h-8c-.3,0-.5,0-.6-.2a.7.7,0,0,1-.1-.6L133,13.3l.3-.6a.7.7,0,0,1,.6-.2h13.9a10.4,10.4,0,0,1,8.2,3.4"/><path class="cls-2" d="M189,20.9a.9.9,0,0,1-.6.3H174c-.2,0-.3.1-.3.4l-1.4,11.3a.3.3,0,0,0,.3.3h8.2a.6.6,0,0,1,.6.3.6.6,0,0,1,.1.6l-.8,6.9a1.6,1.6,0,0,1-.3.6l-.6.3h-8.2c-.3,0-.5.1-.5.3l-1.3,11.4c-.1.3,0,.4.3.4h14.3l.6.2a.7.7,0,0,1,.1.6l-.8,7-.3.6a.7.7,0,0,1-.6.2H159.8c-.2,0-.4,0-.5-.2a.7.7,0,0,1-.2-.6L165,13.4a1.1,1.1,0,0,1,.9-.9h23.6a.5.5,0,0,1,.5.3.7.7,0,0,1,.2.6l-.9,6.9a.6.6,0,0,1-.3.6"/><path class="cls-3" d="M280.8,147.2H26.2a1.9,1.9,0,0,1-1.8-2l2.5-19.9a1.7,1.7,0,0,1,1.7-1.6H283.2a1.9,1.9,0,0,1,1.8,2.1l-2.4,19.8a1.8,1.8,0,0,1-1.8,1.6"/><path class="cls-2" d="M226.7,53.2a6.6,6.6,0,0,0,1.6-3.7l2.9-23.8a2.2,2.2,0,0,0,.1-.9,4.2,4.2,0,0,0-1-3,3.4,3.4,0,0,0-2.7-1.2,4.3,4.3,0,0,0-3.2,1.4,6.3,6.3,0,0,0-1.6,3.7l-2.9,23.8c0,.2-.1.4-.1.8a5,5,0,0,0,1,3.1,3.1,3.1,0,0,0,2.6,1.1,4.3,4.3,0,0,0,3.3-1.3M213.4,60q-3.3-3.2-3.3-8.7c0-.4.1-1.2.2-2.3L213,26.1a16.2,16.2,0,0,1,5.1-10.3A14.8,14.8,0,0,1,228.6,12c3.8,0,6.8,1,9,3.1a11.5,11.5,0,0,1,3.4,8.7c0,.5-.1,1.3-.2,2.3L238.1,49A15.5,15.5,0,0,1,233,59.3a15.1,15.1,0,0,1-10.6,3.9,12.5,12.5,0,0,1-9-3.2"/><path class="cls-2" d="M246.4,59.9c-2.2-2.2-3.2-5.2-3.2-8.9a17.8,17.8,0,0,1,.1-2.6l4.2-35a2.1,2.1,0,0,1,.4-.6.6.6,0,0,1,.6-.3h8c.5,0,.7.3.7.9l-4.4,36v1a4.9,4.9,0,0,0,.9,3,2.8,2.8,0,0,0,2.5,1.1,3.6,3.6,0,0,0,3-1.4,6.9,6.9,0,0,0,1.5-3.7l4.4-36a.9.9,0,0,1,.3-.6l.6-.3h8.1a.5.5,0,0,1,.5.3.7.7,0,0,1,.2.6l-4.3,35a17.1,17.1,0,0,1-5,10.8,14.4,14.4,0,0,1-10.4,4q-5.5,0-8.7-3.3"/><path class="cls-2" d="M307.9,12.8a.7.7,0,0,1,.2.6l-.9,6.9a.6.6,0,0,1-.3.6.9.9,0,0,1-.6.3h-8.9c0,.1-.1.2-.1.3l-4.9,40.2a.9.9,0,0,1-.3.6c-.1.2-.3.2-.6.2h-8c-.3,0-.5,0-.6-.2a.7.7,0,0,1-.1-.6l4.8-40.2c.1-.3,0-.4-.2-.4h-8.2c-.6,0-.8-.3-.8-.9l.8-6.9.3-.6a.9.9,0,0,1,.6-.3h27.3a.5.5,0,0,1,.5.3"/><path class="cls-2" d="M65.8,105.7a.9.9,0,0,1,.7-.3h9.7a.9.9,0,0,1,.7.3.8.8,0,0,1,.1.7l-7,58.1a2,2,0,0,1-.4.8.9.9,0,0,1-.7.3H59.2a.9.9,0,0,1-.7-.3,1.1,1.1,0,0,1-.2-.8l2.9-23.4c0-.3-.1-.5-.3-.5H52.6a.5.5,0,0,0-.5.5l-2.8,23.4a1.2,1.2,0,0,1-.4.8,1.1,1.1,0,0,1-.8.3H38.5a.7.7,0,0,1-.6-.3.8.8,0,0,1-.2-.8l7-58.1a1.6,1.6,0,0,1,.4-.7,1.1,1.1,0,0,1,.7-.3h9.7c.6,0,.9.3.9,1l-2.9,23.4c0,.3.1.4.3.4h8.3a.5.5,0,0,0,.5-.4l2.8-23.4a1,1,0,0,1,.4-.7"/><path class="cls-2" d="M82.7,162.3q-3.9-4.1-3.9-10.8a22.8,22.8,0,0,1,.2-3.1l5.1-42a1,1,0,0,1,.4-.7.9.9,0,0,1,.7-.3h9.6c.6,0,.9.3.9,1l-5.2,43.3a3.5,3.5,0,0,0-.1,1.2,5.3,5.3,0,0,0,1.1,3.6,3.5,3.5,0,0,0,2.9,1.3,4.5,4.5,0,0,0,3.7-1.7,8.4,8.4,0,0,0,1.8-4.4l5.3-43.3a.9.9,0,0,1,.3-.7,1.1,1.1,0,0,1,.8-.3h9.6a.8.8,0,0,1,.7.3.8.8,0,0,1,.2.7l-5.1,42c-.6,5.4-2.6,9.8-6,13a17.7,17.7,0,0,1-12.5,4.9,14.2,14.2,0,0,1-10.5-4"/><path class="cls-2" d="M116.6,165.3a.8.8,0,0,1-.2-.8l7-58.1a1.6,1.6,0,0,1,.4-.7,1.1,1.1,0,0,1,.7-.3h10.4a.9.9,0,0,1,.9.8l6.8,32.2c0,.2.1.2.2.2a.3.3,0,0,0,.3-.3l3.9-31.9a.9.9,0,0,1,.3-.7,1.1,1.1,0,0,1,.8-.3h9.5a.9.9,0,0,1,.7.3.8.8,0,0,1,.1.7l-7,58.1a2,2,0,0,1-.4.8.9.9,0,0,1-.7.3H139.8a1,1,0,0,1-1-.9l-6.7-32.2c0-.2-.1-.3-.2-.3a.3.3,0,0,0-.3.3l-3.7,32a1.4,1.4,0,0,1-.5.8,1.1,1.1,0,0,1-.7.3h-9.5a.7.7,0,0,1-.6-.3"/><path class="cls-2" d="M163.3,162.6c-2.6-2.5-3.9-5.9-3.9-10.1,0-.5.1-1.4.2-2.5l3.5-29.1a17.9,17.9,0,0,1,5.9-11.8,18.5,18.5,0,0,1,12.5-4.4c4.5,0,8.1,1.2,10.7,3.7s3.9,5.9,3.9,10.1c0,.5,0,1.4-.1,2.5l-.4,3.3a1,1,0,0,1-.4.7,1.1,1.1,0,0,1-.8.3h-9.6a.7.7,0,0,1-.6-.3.6.6,0,0,1-.2-.7l.4-3.5a2.5,2.5,0,0,0,.1-1,5.1,5.1,0,0,0-1.1-3.4,3.9,3.9,0,0,0-3.1-1.3,4.7,4.7,0,0,0-3.7,1.6,7.5,7.5,0,0,0-1.9,4.1l-3.5,29.3a6.3,6.3,0,0,0,.8,4.2,3.8,3.8,0,0,0,3.2,1.5,5.2,5.2,0,0,0,3.8-1.5,8.2,8.2,0,0,0,1.9-4.2l.8-6.9c0-.3-.1-.4-.3-.4h-3.7a.9.9,0,0,1-.7-.3,1.1,1.1,0,0,1-.1-.8l.9-7.6a.9.9,0,0,1,.3-.7,1.3,1.3,0,0,1,.8-.3h14.6c.6,0,.9.3.9,1L192.5,150a17.8,17.8,0,0,1-6,11.8,18,18,0,0,1-12.4,4.5c-4.6,0-8.1-1.3-10.8-3.7"/><path class="cls-2" d="M232.8,115.5a.9.9,0,0,1-.7.3H214.8a.4.4,0,0,0-.4.4l-1.7,13.6c0,.3.1.4.4.4H223a.9.9,0,0,1,.7.3.9.9,0,0,1,.1.7l-1,8.4a1,1,0,0,1-.4.7.9.9,0,0,1-.7.3h-9.8c-.4,0-.5.2-.5.5l-1.7,13.6c-.1.3,0,.5.4.5h17.1a1.1,1.1,0,0,1,.8.3.8.8,0,0,1,.2.7l-1,8.3a2,2,0,0,1-.4.8,1.1,1.1,0,0,1-.7.3H197.8a.8.8,0,0,1-.7-.3,1.1,1.1,0,0,1-.2-.8l7.1-58.1a.9.9,0,0,1,.3-.7,1.1,1.1,0,0,1,.8-.3h28.3a.7.7,0,0,1,.6.3.6.6,0,0,1,.2.7l-1,8.3a2,2,0,0,1-.4.8"/><path class="cls-2" d="M250.5,116.2l-1.8,14.6c-.1.3,0,.4.4.4h3.7a5.8,5.8,0,0,0,4.8-2.5,10.7,10.7,0,0,0,1.9-6.7,7,7,0,0,0-1.3-4.6,4.2,4.2,0,0,0-3.5-1.6h-3.8a.4.4,0,0,0-.4.4m4.1,48.5L251.1,141c-.1-.3-.2-.4-.4-.4H248c-.4,0-.5.2-.5.5l-2.8,23.4a1.4,1.4,0,0,1-.5.8,1.1,1.1,0,0,1-.7.3h-9.6a.9.9,0,0,1-.7-.3,1.1,1.1,0,0,1-.2-.8l7.1-58.2a1,1,0,0,1,.4-.7.8.8,0,0,1,.7-.3h16.6c4.2,0,7.4,1.3,9.8,4.1s3.6,6.3,3.6,10.8a27.3,27.3,0,0,1-.1,3.2,23.4,23.4,0,0,1-2.9,8.9,17,17,0,0,1-6,6.2l-.2.2a.2.2,0,0,0,0,.3l4.5,25.4h0a1.1,1.1,0,0,1-.3.8.9.9,0,0,1-.7.3h-9.9a.9.9,0,0,1-1-.9"/></svg>