<?xml version="1.0" encoding="utf-8"?>
<!-- Generator: Adobe Illustrator 22.1.0, SVG Export Plug-In . SVG Version: 6.00 Build 0)  -->
<svg version="1.1" id="Layer_1" xmlns="http://www.w3.org/2000/svg" xmlns:xlink="http://www.w3.org/1999/xlink" x="0px" y="0px"
	 viewBox="0 0 390 140" style="enable-background:new 0 0 390 140;" xml:space="preserve">
<style type="text/css">
	.st0{fill:#42EBB5;}
	.st1{fill:#1A0A29;}
	.st2{fill:#FF2E66;}
</style>
<g>
	<path class="st0" d="M177,60.4H27.8c-2.6,0-4.7-2.3-4.4-4.9l3.7-30.4c0.3-2.2,2.2-3.9,4.4-3.9h149.3c2.6,0,4.7,2.3,4.4,4.9
		l-3.8,30.4C181.1,58.7,179.2,60.4,177,60.4"/>
	<path class="st1" d="M171.2,64.8L171.2,64.8L29.2,64.9c-4.1,0-7.5,3.1-8,7.1l-4.7,37.8c-0.3,2.3,0.4,4.6,2,6.4
		c1.5,1.7,3.8,2.7,6.1,2.7l142.2-0.1c4.1,0,7.6-3.1,8-7.1l4.6-37.8c0.3-2.3-0.4-4.6-2-6.4C175.9,65.8,173.7,64.8,171.2,64.8
		 M171.2,68.4c2.6,0,4.7,2.3,4.4,4.9l-4.6,37.8c-0.3,2.2-2.1,3.9-4.4,3.9l-142.2,0.1c-2.6,0-4.7-2.3-4.4-4.9l4.6-37.8
		c0.3-2.2,2.1-3.9,4.4-3.9L171.2,68.4z"/>
	<path class="st1" d="M36.6,52.6c-1.1-1.1-1.7-2.5-1.7-4.2c0-0.2,0-0.6,0.1-1l0.1-1.2c0-0.1,0.1-0.2,0.2-0.3
		c0.1-0.1,0.2-0.1,0.3-0.1h4.2c0.1,0,0.2,0,0.3,0.1c0.1,0.1,0.1,0.2,0.1,0.3l-0.1,0.9c0,0.1,0,0.3,0,0.5c0,0.6,0.2,1.2,0.5,1.5
		c0.3,0.4,0.7,0.6,1.2,0.6c0.6,0,1.2-0.3,1.7-0.8s0.7-1.2,0.7-2c0-0.6-0.2-1.2-0.6-1.7c-0.4-0.5-1.2-1.2-2.4-2.2
		c-1-0.8-1.8-1.5-2.4-2.1c-0.6-0.6-1.1-1.4-1.6-2.2c-0.4-0.9-0.7-1.9-0.7-3c0-0.2,0-0.6,0.1-1.1c0.2-2.1,1.1-3.8,2.5-5.1
		c1.4-1.3,3.2-1.9,5.3-1.9c1.9,0,3.4,0.5,4.6,1.6c1.1,1.1,1.7,2.5,1.7,4.4c0,0.2,0,0.6-0.1,1.2l-0.2,0.7c0,0.1-0.1,0.2-0.2,0.3
		c-0.1,0.1-0.2,0.1-0.3,0.1h-4.1c-0.1,0-0.2,0-0.3-0.1c-0.1-0.1-0.1-0.2-0.1-0.3l0.1-1c0-0.1,0-0.3,0-0.5c0-0.6-0.2-1.1-0.5-1.5
		c-0.3-0.4-0.8-0.6-1.3-0.6c-0.6,0-1.1,0.2-1.5,0.7c-0.4,0.4-0.7,1-0.8,1.8v0.4c0,0.6,0.2,1.2,0.6,1.7s1.2,1.3,2.3,2.2
		c1.2,1,2.2,1.8,2.8,2.5c0.7,0.7,1.2,1.4,1.5,2.1c0.4,0.7,0.5,1.6,0.5,2.6c0,0.2,0,0.5-0.1,1c-0.3,2.2-1.1,3.9-2.6,5.2
		c-1.5,1.3-3.2,1.9-5.3,1.9C39.3,54.2,37.8,53.6,36.6,52.6"/>
	<path class="st1" d="M54.3,53.5l-1.8-25.3v-0.1c0-0.3,0.1-0.4,0.4-0.4h4.5c0.3,0,0.4,0.1,0.4,0.4l0.4,13.4c0,0.1,0.1,0.1,0.1,0.1
		c0.1,0,0.1,0,0.1-0.1L62,28.1c0.1-0.3,0.2-0.4,0.5-0.4h3.7c0.3,0,0.4,0.1,0.4,0.4l0.5,13.4c0,0.1,0,0.1,0.1,0.1
		c0.1,0,0.1,0,0.1-0.1l3.5-13.4c0.1-0.3,0.2-0.4,0.5-0.4h4.3c0.3,0,0.4,0.2,0.3,0.5l-7.7,25.2c-0.1,0.3-0.2,0.4-0.5,0.4h-3.9
		c-0.3,0-0.4-0.1-0.4-0.4l-0.4-13.8c0-0.1,0-0.1-0.1-0.1s-0.1,0-0.1,0.1l-3.6,13.8c-0.1,0.3-0.2,0.4-0.5,0.4h-3.8
		C54.5,53.9,54.3,53.7,54.3,53.5"/>
	<path class="st1" d="M75.3,53.7c-0.1-0.1-0.1-0.2-0.1-0.3l3.1-25.2c0-0.1,0.1-0.2,0.2-0.3c0.1-0.1,0.2-0.1,0.3-0.1H83
		c0.3-0.1,0.4,0.1,0.4,0.4l-3.1,25.2c0,0.1-0.1,0.2-0.2,0.3c-0.1,0.1-0.2,0.1-0.3,0.1h-4.2C75.5,53.9,75.4,53.8,75.3,53.7"/>
	<path class="st1" d="M94.3,38.1c0.6-0.7,0.9-1.8,0.9-3.1c0-0.9-0.2-1.5-0.6-2s-0.9-0.7-1.6-0.7h-1.6c-0.1,0-0.2,0.1-0.2,0.2
		L90.4,39c0,0.1,0,0.2,0.1,0.2h1.6C93,39.2,93.7,38.8,94.3,38.1 M98.7,29.5c1.1,1.2,1.6,2.8,1.6,4.7c0,0.6,0,1.1-0.1,1.4
		c-0.3,2.3-1.1,4.2-2.5,5.6s-3.1,2.1-5,2.1H90c-0.1,0-0.2,0.1-0.2,0.2l-1.2,9.9c0,0.1-0.1,0.2-0.2,0.3s-0.2,0.1-0.3,0.1h-4.2
		c-0.1,0-0.2,0-0.3-0.1c-0.1-0.1-0.1-0.2-0.1-0.3l3.1-25.3c0-0.1,0.1-0.2,0.2-0.3c0.1-0.1,0.2-0.1,0.3-0.1h7.3
		C96.2,27.7,97.7,28.3,98.7,29.5"/>
	<path class="st1" d="M116.2,32.1c-0.1,0.1-0.2,0.1-0.3,0.1h-7.6c-0.1,0-0.2,0.1-0.2,0.2l-0.7,5.9c0,0.1,0.1,0.2,0.2,0.2h4.4
		c0.1,0,0.2,0,0.3,0.1c0.1,0.1,0.1,0.2,0.1,0.3l-0.4,3.6c0,0.1-0.1,0.2-0.2,0.3c-0.1,0.1-0.2,0.1-0.3,0.1h-4.3
		c-0.1,0-0.2,0.1-0.2,0.2l-1,6.1c0,0.1,0,0.2,0.1,0.2h7.5c0.1,0,0.2,0,0.3,0.1c0.1,0.1,0.1,0.2,0.1,0.3l-0.4,3.6
		c0,0.1-0.1,0.2-0.2,0.3s-0.2,0.1-0.3,0.1h-12.3c-0.1,0-0.2,0-0.3-0.1c-0.1-0.1-0.1-0.2-0.1-0.3l3.1-25.2c0-0.1,0.1-0.2,0.2-0.3
		c0.1-0.1,0.2-0.1,0.3-0.1h12.4c0.1,0,0.2,0,0.3,0.1c0.1,0.1,0.1,0.2,0.1,0.3l-0.4,3.6C116.3,31.9,116.2,32,116.2,32.1"/>
	<path class="st2" d="M164.6,98H30.2c-0.6,0-1-0.5-0.9-1.1l1.3-10.3c0.1-0.5,0.5-0.8,0.9-0.8h134.4c0.6,0,1,0.5,0.9,1.1l-1.3,10.3
		C165.5,97.6,165.1,98,164.6,98"/>
	<path class="st1" d="M136.1,48.9c0.5-0.5,0.7-1.1,0.8-1.9l1.5-12.4c0-0.1,0-0.2,0-0.4c0-0.7-0.2-1.2-0.5-1.6s-0.8-0.6-1.4-0.6
		c-0.7,0-1.2,0.2-1.7,0.7s-0.7,1.1-0.8,1.9L132.5,47c0,0.1,0,0.2,0,0.4c0,0.7,0.2,1.2,0.5,1.6c0.3,0.4,0.8,0.6,1.4,0.6
		S135.6,49.4,136.1,48.9 M129.1,52.5c-1.2-1.1-1.7-2.6-1.7-4.5c0-0.2,0-0.6,0.1-1.2l1.5-11.9c0.3-2.2,1.2-4,2.6-5.4
		c1.5-1.3,3.3-2,5.6-2c2,0,3.6,0.6,4.8,1.7c1.2,1.1,1.8,2.6,1.8,4.5c0,0.2,0,0.6-0.1,1.2l-1.5,11.9c-0.3,2.2-1.2,4-2.7,5.4
		c-1.5,1.3-3.4,2-5.6,2C131.8,54.2,130.2,53.6,129.1,52.5"/>
	<path class="st1" d="M146.4,52.4c-1.1-1.2-1.7-2.7-1.7-4.6c0-0.6,0-1,0.1-1.3l2.3-18.3c0-0.1,0.1-0.2,0.2-0.3
		c0.1-0.1,0.2-0.1,0.3-0.1h4.2c0.3,0,0.4,0.1,0.4,0.4L149.8,47c0,0.1,0,0.3,0,0.5c0,0.6,0.2,1.2,0.5,1.6c0.3,0.4,0.8,0.6,1.3,0.6
		c0.6,0,1.2-0.2,1.6-0.7c0.4-0.5,0.7-1.1,0.8-1.9l2.2-18.9c0-0.1,0.1-0.2,0.2-0.3c0.1-0.1,0.2-0.1,0.3-0.1h4.3c0.1,0,0.2,0,0.3,0.1
		c0.1,0.1,0.1,0.2,0.1,0.3l-2.2,18.3c-0.3,2.3-1.2,4.2-2.6,5.6c-1.5,1.4-3.3,2.1-5.5,2.1C149.1,54.2,147.6,53.6,146.4,52.4"/>
	<path class="st1" d="M178.9,27.9c0.1,0.1,0.1,0.2,0.1,0.3l-0.4,3.6c0,0.1-0.1,0.2-0.2,0.3c-0.1,0.1-0.2,0.1-0.3,0.1h-4.6
		c0,0-0.1,0-0.1,0.1l-0.1,0.1l-2.6,21c0,0.1-0.1,0.2-0.2,0.3c-0.1,0.1-0.2,0.1-0.3,0.1h-4.3c-0.1,0-0.2,0-0.3-0.1s-0.1-0.2-0.1-0.3
		l2.6-21c0-0.1,0-0.2-0.1-0.2h-4.3c-0.3,0-0.4-0.1-0.4-0.4l0.4-3.6c0-0.1,0.1-0.2,0.2-0.3c0.1-0.1,0.2-0.1,0.3-0.1h14.4
		C178.8,27.7,178.9,27.8,178.9,27.9"/>
	<path class="st1" d="M51.1,76.2c0.1-0.1,0.2-0.2,0.4-0.2h5.1c0.1,0,0.3,0.1,0.4,0.2c0.1,0.1,0.1,0.2,0.1,0.4L53.4,107
		c0,0.1-0.1,0.3-0.2,0.4c-0.1,0.1-0.2,0.2-0.4,0.2h-5.1c-0.1,0-0.3-0.1-0.4-0.2s-0.1-0.2-0.1-0.4l1.5-12.2c0-0.1-0.1-0.2-0.2-0.2
		h-4.4c-0.2,0-0.3,0.1-0.3,0.2L42.4,107c0,0.1-0.1,0.3-0.2,0.4s-0.3,0.2-0.4,0.2h-5.1c-0.1,0-0.3-0.1-0.4-0.2
		c-0.1-0.1-0.1-0.2-0.1-0.4l3.7-30.3c0-0.1,0.1-0.3,0.2-0.4c0.1-0.1,0.2-0.2,0.4-0.2h5.1c0.3,0,0.5,0.2,0.5,0.5l-1.5,12.2
		c0,0.1,0.1,0.2,0.2,0.2h4.4c0.1,0,0.2-0.1,0.3-0.2L51,76.6C50.9,76.4,51,76.4,51.1,76.2"/>
	<path class="st1" d="M60,105.8c-1.4-1.4-2-3.3-2-5.6c0-0.7,0-1.3,0.1-1.6l2.7-21.9c0-0.1,0.1-0.3,0.2-0.4c0.1-0.1,0.2-0.2,0.4-0.2
		h5c0.3,0,0.5,0.2,0.5,0.5l-2.8,22.6c0,0.1,0,0.4,0,0.6c0,0.8,0.2,1.4,0.6,1.9c0.4,0.5,0.9,0.7,1.6,0.7c0.7,0,1.4-0.3,1.9-0.9
		s0.8-1.4,1-2.3L72,76.5c0-0.1,0.1-0.3,0.2-0.4c0.1-0.1,0.2-0.2,0.4-0.2h5.1c0.1,0,0.3,0.1,0.4,0.2c0.1,0.1,0.1,0.2,0.1,0.4l-2.8,22
		c-0.3,2.8-1.4,5.1-3.2,6.8c-1.8,1.7-4,2.5-6.6,2.5C63.2,107.8,61.4,107.2,60,105.8"/>
	<path class="st1" d="M77.9,107.3c-0.1-0.1-0.1-0.2-0.1-0.4l3.7-30.3c0-0.1,0.1-0.3,0.2-0.4c0.1-0.1,0.2-0.2,0.4-0.2h5.5
		c0.3,0,0.4,0.1,0.5,0.4l3.6,16.8c0,0.1,0,0.1,0.1,0.1s0.1-0.1,0.2-0.2l2-16.6c0-0.1,0.1-0.3,0.2-0.4c0.1-0.1,0.2-0.2,0.4-0.2h5
		c0.1,0,0.3,0.1,0.4,0.2c0.1,0.1,0.1,0.2,0.1,0.4l-3.7,30.3c0,0.1-0.1,0.3-0.2,0.4s-0.2,0.2-0.4,0.2h-5.5c-0.3,0-0.5-0.1-0.5-0.4
		l-3.5-16.8c0-0.1,0-0.1-0.1-0.1s-0.1,0-0.2,0.1l-2,16.7c0,0.1-0.1,0.3-0.2,0.4s-0.3,0.2-0.4,0.2h-5C78.1,107.5,78,107.5,77.9,107.3
		"/>
	<path class="st1" d="M102.6,106c-1.4-1.3-2.1-3-2.1-5.2c0-0.3,0-0.7,0.1-1.3l1.8-15.2c0.3-2.6,1.3-4.6,3.1-6.2
		c1.8-1.5,4-2.3,6.6-2.3c2.4,0,4.2,0.7,5.6,2c1.4,1.3,2.1,3.1,2.1,5.3c0,0.3,0,0.7-0.1,1.3l-0.2,1.7c0,0.1-0.1,0.3-0.2,0.4
		s-0.3,0.2-0.4,0.2h-5.1c-0.1,0-0.3-0.1-0.4-0.2s-0.1-0.2-0.1-0.4l0.2-1.8c0-0.1,0-0.3,0-0.5c0-0.7-0.2-1.3-0.6-1.8
		c-0.4-0.4-0.9-0.7-1.6-0.7s-1.4,0.3-1.9,0.8c-0.5,0.6-0.9,1.3-1,2.2l-1.9,15.2c-0.1,0.9,0.1,1.6,0.4,2.2c0.4,0.6,1,0.8,1.7,0.8
		c0.8,0,1.4-0.3,2-0.8c0.5-0.6,0.9-1.3,1-2.2l0.4-3.6c0-0.1-0.1-0.2-0.2-0.2h-1.9c-0.1,0-0.3-0.1-0.4-0.2s-0.1-0.2-0.1-0.4l0.5-4
		c0-0.1,0.1-0.3,0.2-0.4s0.3-0.2,0.4-0.2h7.7c0.3,0,0.5,0.2,0.5,0.5l-1,8.3c-0.3,2.6-1.3,4.6-3.1,6.2s-4,2.3-6.6,2.3
		C105.9,107.8,104,107.2,102.6,106"/>
	<path class="st1" d="M139.2,81.4c-0.1,0.1-0.2,0.2-0.4,0.2h-9.1c-0.1,0-0.2,0.1-0.2,0.2l-0.9,7.1c0,0.2,0.1,0.2,0.2,0.2h5.2
		c0.1,0,0.3,0.1,0.4,0.2c0.1,0.1,0.1,0.2,0.1,0.4l-0.5,4.4c0,0.1-0.1,0.3-0.2,0.4s-0.2,0.2-0.4,0.2h-5.2c-0.2,0-0.3,0.1-0.3,0.2
		l-0.9,7.1c-0.1,0.1,0,0.2,0.2,0.2h9.1c0.1,0,0.3,0.1,0.4,0.2s0.1,0.2,0.1,0.4l-0.5,4.4c0,0.1-0.1,0.3-0.2,0.4
		c-0.1,0.1-0.2,0.2-0.4,0.2h-14.9c-0.1,0-0.3-0.1-0.4-0.2s-0.1-0.2-0.1-0.4l3.7-30.3c0-0.1,0.1-0.3,0.2-0.4c0.1-0.1,0.2-0.2,0.4-0.2
		h14.9c0.1,0,0.3,0.1,0.4,0.2c0.1,0.1,0.1,0.2,0.1,0.4l-0.5,4.4C139.5,81.2,139.4,81.2,139.2,81.4"/>
	<path class="st1" d="M148.6,81.8l-0.9,7.6c-0.1,0.1,0,0.2,0.2,0.2h2c1,0,1.8-0.4,2.5-1.3s1-2.1,1-3.5c0-1-0.2-1.8-0.7-2.4
		c-0.5-0.6-1.1-0.9-1.9-0.9h-2C148.7,81.6,148.6,81.6,148.6,81.8 M150.8,107.1l-1.8-12.4c-0.1-0.1-0.1-0.2-0.2-0.2h-1.4
		c-0.2,0-0.3,0.1-0.3,0.2l-1.5,12.2c0,0.2-0.1,0.3-0.2,0.4c-0.1,0.1-0.3,0.2-0.4,0.2h-5.1c-0.1,0-0.3-0.1-0.4-0.2s-0.1-0.2-0.1-0.4
		l3.7-30.4c0-0.2,0.1-0.3,0.2-0.4c0.1-0.1,0.2-0.2,0.4-0.2h8.8c2.2,0,3.9,0.7,5.2,2.1c1.3,1.4,1.9,3.3,1.9,5.7c0,0.7,0,1.3-0.1,1.7
		c-0.2,1.7-0.7,3.3-1.5,4.6c-0.8,1.4-1.9,2.4-3.1,3.2c-0.1,0-0.1,0.1-0.1,0.1s0,0.1,0,0.2l2.4,13.2v0.1c0,0.2-0.1,0.3-0.2,0.4
		c-0.1,0.1-0.2,0.2-0.4,0.2h-5.2C151,107.5,150.8,107.3,150.8,107.1"/>
	<path class="st0" d="M357.9,92.1H181.2l2.9-23.3c0.3-2.2,2.1-3.8,4.3-3.8h171.7c2.6,0,4.6,2.3,4.3,4.9l-2.7,22.5
		C361.4,94.6,360,92.1,357.9,92.1"/>
	<path class="st0" d="M369.2,91.8h-188l-2.7,22.2c-0.3,2.6,1.7,4.9,4.3,4.9h184.3c2,0,3.7-1.3,4.2-3.2l2.3-19
		C374,94,372,91.8,369.2,91.8z"/>
</g>
<g>
	<path class="st1" d="M199.9,86.6c-1,0.8-2.2,1.2-3.6,1.2h-4.5c-0.1,0-0.1,0-0.2-0.1s-0.1-0.1,0-0.2l2-16.5c0-0.1,0.1-0.2,0.1-0.2
		c0.1-0.1,0.1-0.1,0.2-0.1h4c1.4,0,2.5,0.3,3.3,1c0.8,0.6,1.2,1.6,1.2,2.9c0,0.2,0,0.4,0,0.8c-0.2,1.6-0.9,2.8-2.1,3.5
		c-0.1,0-0.1,0.1,0,0.1c0.9,0.8,1.4,1.8,1.4,3.2c0,0.1,0,0.4,0,0.8C201.4,84.6,200.9,85.8,199.9,86.6z M197.7,84.2
		c0.3-0.4,0.6-0.9,0.7-1.7c0-0.1,0-0.3,0-0.5c0-0.6-0.1-1-0.4-1.3c-0.2-0.3-0.6-0.5-1-0.5h-1.1c-0.1,0-0.1,0-0.1,0.1l-0.5,4.4
		c0,0.1,0,0.1,0.1,0.1h1.1C196.9,84.9,197.2,84.7,197.7,84.2z M196.6,73.8l-0.5,3.8c0,0.1,0,0.1,0.1,0.1h0.9c0.6,0,1.1-0.2,1.5-0.7
		c0.4-0.4,0.5-1.1,0.5-1.8c0-0.5-0.1-0.9-0.4-1.2s-0.6-0.4-1.1-0.4h-0.9C196.6,73.7,196.6,73.7,196.6,73.8z"/>
	<path class="st1" d="M208.9,87.6l-1-6.8c0-0.1-0.1-0.1-0.1-0.1h-0.8c-0.1,0-0.1,0-0.1,0.1l-0.8,6.7c0,0.1-0.1,0.2-0.1,0.2
		c-0.1,0.1-0.1,0.1-0.2,0.1h-2.8c-0.1,0-0.1,0-0.2-0.1s-0.1-0.1,0-0.2l2-16.6c0-0.1,0.1-0.2,0.1-0.2c0.1-0.1,0.1-0.1,0.2-0.1h4.8
		c1.2,0,2.1,0.4,2.8,1.2s1,1.8,1,3.1c0,0.4,0,0.7,0,0.9c-0.1,0.9-0.4,1.8-0.8,2.5c-0.4,0.7-1,1.3-1.7,1.7c0,0-0.1,0-0.1,0.1v0.1
		l1.3,7.2l0,0c0,0.1,0,0.2-0.1,0.2c-0.1,0.1-0.1,0.1-0.2,0.1h-2.8C209,87.8,208.9,87.8,208.9,87.6z M207.7,73.8l-0.5,4.2
		c0,0.1,0,0.1,0.1,0.1h1.1c0.5,0,1-0.2,1.4-0.7s0.6-1.1,0.6-1.9c0-0.6-0.1-1-0.4-1.3c-0.3-0.3-0.6-0.5-1-0.5h-1.1
		C207.8,73.7,207.7,73.7,207.7,73.8z"/>
	<path class="st1" d="M220.7,87.6l-0.1-2.3v-0.1h-0.1h-3c-0.1,0-0.2,0-0.2,0.1l-0.7,2.4c0,0.2-0.2,0.3-0.3,0.3h-2.8
		c-0.2,0-0.3-0.1-0.2-0.3l5.5-16.5c0-0.2,0.2-0.3,0.3-0.3h3.2c0.2,0,0.3,0.1,0.3,0.3l1.4,16.5l0,0c0,0.2-0.1,0.3-0.3,0.3h-2.9
		C220.8,87.8,220.7,87.7,220.7,87.6z M218.2,82.4h2.1c0.1,0,0.1,0,0.1-0.1l-0.2-6.3v-0.1c0,0-0.1,0-0.1,0.1l-1.9,6.3
		C218.2,82.4,218.2,82.4,218.2,82.4z"/>
	<path class="st1" d="M225.8,87.7c0-0.1-0.1-0.1,0-0.2l2-16.5c0-0.1,0.1-0.2,0.1-0.2c0.1-0.1,0.1-0.1,0.2-0.1h3
		c0.1,0,0.2,0.1,0.3,0.2l2,9.1c0,0,0,0.1,0.1,0.1s0.1,0,0.1-0.1l1.1-9.1c0-0.1,0.1-0.2,0.1-0.2c0.1-0.1,0.1-0.1,0.2-0.1h2.7
		c0.1,0,0.1,0,0.2,0.1c0,0.1,0.1,0.1,0,0.2l-2,16.5c0,0.1-0.1,0.2-0.1,0.2c-0.1,0.1-0.1,0.1-0.2,0.1h-3c-0.2,0-0.3-0.1-0.3-0.2
		l-1.9-9.2c0,0,0-0.1-0.1-0.1c0,0-0.1,0-0.1,0.1l-1.1,9.1c0,0.1-0.1,0.2-0.1,0.2c-0.1,0.1-0.1,0.1-0.2,0.1h-2.7
		C225.9,87.8,225.8,87.8,225.8,87.7z"/>
	<path class="st1" d="M238,87.7c0-0.1-0.1-0.1,0-0.2l2-16.5c0-0.1,0.1-0.2,0.1-0.2c0.1-0.1,0.1-0.1,0.2-0.1h4.3
		c1.3,0,2.4,0.4,3.1,1.1s1.1,1.7,1.1,2.9c0,0.2,0,0.4,0,0.7l-1,7.6c-0.2,1.4-0.8,2.6-1.7,3.4c-1,0.9-2.2,1.3-3.6,1.3h-4.3
		C238.1,87.8,238,87.8,238,87.7z M241.7,84.9h1.1c0.4,0,0.8-0.2,1.1-0.6c0.3-0.4,0.5-0.8,0.6-1.4l0.9-7.2c0-0.1,0-0.2,0-0.4
		c0-0.5-0.1-0.9-0.3-1.2c-0.2-0.3-0.5-0.4-0.9-0.4h-1.1c-0.1,0-0.1,0-0.1,0.1l-1.3,11C241.6,84.8,241.6,84.9,241.7,84.9z"/>
	<path class="st1" d="M255.2,87c-0.7-0.7-1.1-1.6-1.1-2.8c0-0.1,0-0.4,0-0.7l0.1-0.8c0-0.1,0.1-0.2,0.1-0.2c0.1-0.1,0.1-0.1,0.2-0.1
		h2.7c0.1,0,0.1,0,0.2,0.1c0,0.1,0.1,0.1,0,0.2l-0.1,0.6c0,0.1,0,0.2,0,0.3c0,0.4,0.1,0.8,0.3,1s0.5,0.4,0.8,0.4
		c0.4,0,0.8-0.2,1.1-0.5c0.3-0.4,0.5-0.8,0.5-1.3c0-0.4-0.1-0.8-0.4-1.1c-0.3-0.3-0.8-0.8-1.6-1.5c-0.7-0.5-1.2-1-1.6-1.4
		c-0.4-0.4-0.7-0.9-1-1.5c-0.3-0.6-0.4-1.2-0.4-2c0-0.2,0-0.4,0-0.7c0.2-1.4,0.7-2.5,1.7-3.3c0.9-0.8,2.1-1.2,3.5-1.2
		c1.3,0,2.3,0.4,3,1.1s1.1,1.7,1.1,2.9c0,0.1,0,0.4,0,0.8l-0.1,0.6c0,0.1,0,0.2-0.1,0.2s-0.1,0.1-0.2,0.1h-2.7c-0.1,0-0.1,0-0.2-0.1
		c-0.1-0.1-0.1-0.1,0-0.2l0.1-0.7c0-0.1,0-0.2,0-0.3c0-0.4-0.1-0.7-0.3-1c-0.2-0.3-0.5-0.4-0.9-0.4s-0.7,0.1-1,0.4
		c-0.3,0.3-0.4,0.7-0.5,1.2v0.3c0,0.4,0.1,0.8,0.4,1.1c0.3,0.3,0.8,0.8,1.5,1.4c0.8,0.7,1.4,1.2,1.8,1.6c0.4,0.4,0.8,0.9,1,1.4
		c0.2,0.5,0.4,1.1,0.4,1.7c0,0.1,0,0.4,0,0.7c-0.2,1.4-0.8,2.6-1.7,3.4c-1,0.8-2.1,1.3-3.5,1.3S256,87.7,255.2,87z"/>
	<path class="st1" d="M276.1,70.8c0,0.1,0.1,0.1,0,0.2l-0.3,2.4c0,0.1-0.1,0.2-0.1,0.2c-0.1,0.1-0.1,0.1-0.2,0.1h-3h-0.1v0.1
		l-1.7,13.7c0,0.1-0.1,0.2-0.1,0.2c-0.1,0.1-0.1,0.1-0.2,0.1h-2.8c-0.1,0-0.1,0-0.2-0.1s-0.1-0.1,0-0.2l1.7-13.7
		c0-0.1,0-0.1-0.1-0.1h-2.8c-0.2,0-0.3-0.1-0.3-0.3l0.3-2.4c0-0.1,0.1-0.2,0.1-0.2c0.1-0.1,0.1-0.1,0.2-0.1h9.4
		C276,70.7,276,70.7,276.1,70.8z"/>
	<path class="st1" d="M282.6,87.6l-0.1-2.3v-0.1h-0.1h-3c-0.1,0-0.2,0-0.2,0.1l-0.7,2.4c0,0.2-0.2,0.3-0.3,0.3h-2.8
		c-0.2,0-0.3-0.1-0.2-0.3l5.5-16.5c0-0.2,0.2-0.3,0.3-0.3h3.2c0.2,0,0.3,0.1,0.3,0.3l1.4,16.5l0,0c0,0.2-0.1,0.3-0.3,0.3h-2.9
		C282.6,87.8,282.6,87.7,282.6,87.6z M280.1,82.4h2.1c0.1,0,0.1,0,0.1-0.1l-0.2-6.3v-0.1c0,0-0.1,0-0.1,0.1l-1.9,6.3
		C280.1,82.4,280.1,82.4,280.1,82.4z"/>
	<path class="st1" d="M287.6,87.7c0-0.1-0.1-0.1,0-0.2l2-16.5c0-0.1,0.1-0.2,0.1-0.2c0.1-0.1,0.1-0.1,0.2-0.1h3
		c0.1,0,0.2,0.1,0.3,0.2l2,9.1c0,0,0,0.1,0.1,0.1s0.1,0,0.1-0.1l1.1-9.1c0-0.1,0.1-0.2,0.1-0.2c0.1-0.1,0.1-0.1,0.2-0.1h2.7
		c0.1,0,0.1,0,0.2,0.1c0,0.1,0.1,0.1,0,0.2l-2,16.5c0,0.1-0.1,0.2-0.1,0.2c-0.1,0.1-0.1,0.1-0.2,0.1h-3c-0.2,0-0.3-0.1-0.3-0.2
		l-1.9-9.2c0,0,0-0.1-0.1-0.1c0,0-0.1,0-0.1,0.1l-1.1,9.1c0,0.1-0.1,0.2-0.1,0.2c-0.1,0.1-0.1,0.1-0.2,0.1h-2.7
		C287.6,87.8,287.6,87.8,287.6,87.7z"/>
	<path class="st1" d="M299.8,87.7c0-0.1-0.1-0.1,0-0.2l2-16.5c0-0.1,0.1-0.2,0.1-0.2c0.1-0.1,0.1-0.1,0.2-0.1h4.3
		c1.3,0,2.4,0.4,3.1,1.1s1.1,1.7,1.1,2.9c0,0.2,0,0.4,0,0.7l-1,7.6c-0.2,1.4-0.8,2.6-1.7,3.4c-1,0.9-2.2,1.3-3.6,1.3H300
		C299.9,87.8,299.9,87.8,299.8,87.7z M303.6,84.9h1.1c0.4,0,0.8-0.2,1.1-0.6c0.3-0.4,0.5-0.8,0.6-1.4l0.9-7.2c0-0.1,0-0.2,0-0.4
		c0-0.5-0.1-0.9-0.3-1.2c-0.2-0.3-0.5-0.4-0.9-0.4H305c-0.1,0-0.1,0-0.1,0.1l-1.3,11C303.4,84.8,303.5,84.9,303.6,84.9z"/>
	<path class="st1" d="M317.9,87.6l-0.1-2.3v-0.1h-0.1h-3c-0.1,0-0.2,0-0.2,0.1l-0.7,2.4c0,0.2-0.2,0.3-0.3,0.3h-2.8
		c-0.2,0-0.3-0.1-0.2-0.3l5.5-16.5c0-0.2,0.2-0.3,0.3-0.3h3.2c0.2,0,0.3,0.1,0.3,0.3l1.4,16.5l0,0c0,0.2-0.1,0.3-0.3,0.3h-2.9
		C318,87.8,317.9,87.7,317.9,87.6z M315.6,82.4h2.1c0.1,0,0.1,0,0.1-0.1l-0.2-6.3v-0.1c0,0-0.1,0-0.1,0.1l-1.9,6.3
		C315.4,82.4,315.5,82.4,315.6,82.4z"/>
	<path class="st1" d="M329.1,87.6l-1-6.8c0-0.1-0.1-0.1-0.1-0.1h-0.8c-0.1,0-0.1,0-0.1,0.1l-0.8,6.7c0,0.1-0.1,0.2-0.1,0.2
		c-0.1,0.1-0.1,0.1-0.2,0.1h-2.8c-0.1,0-0.1,0-0.2-0.1s-0.1-0.1,0-0.2l2-16.6c0-0.1,0.1-0.2,0.1-0.2c0.1-0.1,0.1-0.1,0.2-0.1h4.8
		c1.2,0,2.1,0.4,2.8,1.2c0.7,0.8,1,1.8,1,3.1c0,0.4,0,0.7,0,0.9c-0.1,0.9-0.4,1.8-0.8,2.5s-1,1.3-1.7,1.7c0,0-0.1,0-0.1,0.1v0.1
		l1.3,7.2l0,0c0,0.1,0,0.2-0.1,0.2c-0.1,0.1-0.1,0.1-0.2,0.1h-2.9C329.2,87.8,329.1,87.8,329.1,87.6z M328,73.8l-0.5,4.2
		c0,0.1,0,0.1,0.1,0.1h1.1c0.5,0,1-0.2,1.4-0.7s0.6-1.1,0.6-1.9c0-0.6-0.1-1-0.4-1.3c-0.3-0.3-0.6-0.5-1-0.5h-1.1
		C328,73.7,328,73.7,328,73.8z"/>
	<path class="st1" d="M334.1,87.7c0-0.1-0.1-0.1,0-0.2l2-16.5c0-0.1,0.1-0.2,0.1-0.2c0.1-0.1,0.1-0.1,0.2-0.1h4.3
		c1.3,0,2.4,0.4,3.1,1.1s1.1,1.7,1.1,2.9c0,0.2,0,0.4,0,0.7l-1,7.6c-0.2,1.4-0.8,2.6-1.7,3.4c-1,0.9-2.2,1.3-3.6,1.3h-4.3
		C334.2,87.8,334.1,87.8,334.1,87.7z M337.9,84.9h1.1c0.4,0,0.8-0.2,1.1-0.6c0.3-0.4,0.5-0.8,0.6-1.4l0.9-7.2c0-0.1,0-0.2,0-0.4
		c0-0.5-0.1-0.9-0.3-1.2c-0.2-0.3-0.5-0.4-0.9-0.4h-1.1c-0.1,0-0.1,0-0.1,0.1l-1.3,11C337.8,84.8,337.8,84.9,337.9,84.9z"/>
	<path class="st1" d="M346.6,87c-0.7-0.7-1.1-1.6-1.1-2.8c0-0.1,0-0.4,0-0.7l0.1-0.8c0-0.1,0.1-0.2,0.1-0.2c0.1-0.1,0.1-0.1,0.2-0.1
		h2.7c0.1,0,0.1,0,0.2,0.1c0,0.1,0.1,0.1,0,0.2l-0.1,0.6c0,0.1,0,0.2,0,0.3c0,0.4,0.1,0.8,0.3,1s0.5,0.4,0.8,0.4
		c0.4,0,0.8-0.2,1.1-0.5c0.3-0.4,0.5-0.8,0.5-1.3c0-0.4-0.1-0.8-0.4-1.1c-0.3-0.3-0.8-0.8-1.6-1.5c-0.7-0.5-1.2-1-1.6-1.4
		c-0.4-0.4-0.7-0.9-1-1.5c-0.3-0.6-0.4-1.2-0.4-2c0-0.2,0-0.4,0-0.7c0.2-1.4,0.7-2.5,1.7-3.3c0.9-0.8,2.1-1.2,3.5-1.2
		c1.3,0,2.3,0.4,3,1.1s1.1,1.7,1.1,2.9c0,0.1,0,0.4,0,0.8l-0.1,0.6c0,0.1,0,0.2-0.1,0.2s-0.1,0.1-0.2,0.1h-2.7c-0.1,0-0.1,0-0.2-0.1
		s-0.1-0.1,0-0.2l0.1-0.7c0-0.1,0-0.2,0-0.3c0-0.4-0.1-0.7-0.3-1c-0.2-0.3-0.5-0.4-0.9-0.4s-0.7,0.1-1,0.4c-0.3,0.3-0.4,0.7-0.5,1.2
		v0.3c0,0.4,0.1,0.8,0.4,1.1c0.3,0.3,0.8,0.8,1.5,1.4c0.8,0.7,1.4,1.2,1.8,1.6c0.4,0.4,0.8,0.9,1,1.4s0.4,1.1,0.4,1.7
		c0,0.1,0,0.4,0,0.7c-0.2,1.4-0.8,2.6-1.7,3.4c-1,0.8-2.1,1.3-3.5,1.3C348.4,88,347.4,87.7,346.6,87z"/>
</g>
<g>
	<path class="st1" d="M187.2,113.3c0-0.1-0.1-0.1,0-0.2l2-16.5c0-0.1,0.1-0.2,0.1-0.2c0.1-0.1,0.1-0.1,0.2-0.1h4.3
		c1.3,0,2.4,0.4,3.1,1.1s1.1,1.7,1.1,2.9c0,0.2,0,0.4,0,0.7l-1,7.6c-0.2,1.4-0.8,2.6-1.7,3.4c-1,0.9-2.2,1.3-3.6,1.3h-4.3
		C187.2,113.3,187.2,113.3,187.2,113.3z M191,110.5h1.1c0.4,0,0.8-0.2,1.1-0.6s0.5-0.8,0.6-1.4l0.9-7.2c0-0.1,0-0.2,0-0.4
		c0-0.5-0.1-0.9-0.3-1.2c-0.2-0.3-0.5-0.4-0.9-0.4h-1.1c-0.1,0-0.1,0-0.1,0.1L191,110.5C190.8,110.3,190.9,110.5,191,110.5z"/>
	<path class="st1" d="M198.5,113.3c0-0.1-0.1-0.1,0-0.2l2-16.5c0-0.1,0.1-0.2,0.1-0.2c0.1-0.1,0.1-0.1,0.2-0.1h2.8
		c0.2,0,0.3,0.1,0.3,0.3l-2,16.5c0,0.1-0.1,0.2-0.1,0.2c-0.1,0.1-0.1,0.1-0.2,0.1h-2.8C198.6,113.3,198.6,113.3,198.5,113.3z"/>
	<path class="st1" d="M205.2,112.6c-0.8-0.7-1.1-1.7-1.1-2.9c0-0.1,0-0.4,0-0.7l1-8.3c0.2-1.4,0.7-2.5,1.7-3.4
		c1-0.8,2.2-1.3,3.6-1.3c1.3,0,2.3,0.4,3.1,1.1s1.1,1.7,1.1,2.9c0,0.1,0,0.4,0,0.7l-0.1,0.9c0,0.1-0.1,0.2-0.1,0.2
		c-0.1,0.1-0.1,0.1-0.2,0.1h-2.8c-0.1,0-0.1,0-0.2-0.1s-0.1-0.1,0-0.2l0.1-1c0-0.1,0-0.2,0-0.3c0-0.4-0.1-0.7-0.3-1
		c-0.2-0.2-0.5-0.4-0.9-0.4s-0.8,0.2-1.1,0.5s-0.5,0.7-0.5,1.2l-1,8.3c0,0.5,0,0.9,0.2,1.2s0.5,0.5,0.9,0.5s0.8-0.2,1.1-0.5
		s0.5-0.7,0.5-1.2l0.2-2c0-0.1,0-0.1-0.1-0.1h-1c-0.1,0-0.1,0-0.2-0.1c0-0.1-0.1-0.1,0-0.2l0.3-2.2c0-0.1,0-0.2,0.1-0.2
		c0.1-0.1,0.1-0.1,0.2-0.1h4.2c0.2,0,0.3,0.1,0.3,0.3l-0.6,4.5c-0.2,1.4-0.7,2.5-1.7,3.4c-1,0.8-2.2,1.3-3.6,1.3
		C207,113.6,206,113.2,205.2,112.6z"/>
	<path class="st1" d="M215,113.3c0-0.1-0.1-0.1,0-0.2l2-16.5c0-0.1,0.1-0.2,0.1-0.2c0.1-0.1,0.1-0.1,0.2-0.1h2.8
		c0.2,0,0.3,0.1,0.3,0.3l-2,16.5c0,0.1-0.1,0.2-0.1,0.2c-0.1,0.1-0.1,0.1-0.2,0.1h-2.8C215.1,113.3,215,113.3,215,113.3z"/>
	<path class="st1" d="M231.8,96.3c0,0.1,0.1,0.1,0,0.2l-0.3,2.4c0,0.1-0.1,0.2-0.1,0.2c-0.1,0.1-0.1,0.1-0.2,0.1h-3H228v0.1
		l-1.7,13.7c0,0.1-0.1,0.2-0.1,0.2c-0.1,0.1-0.1,0.1-0.2,0.1h-2.7c-0.1,0-0.1,0-0.2-0.1s-0.1-0.1,0-0.2l1.7-13.7
		c0-0.1,0-0.1-0.1-0.1h-2.8c-0.2,0-0.3-0.1-0.3-0.3l0.3-2.4c0-0.1,0.1-0.2,0.1-0.2c0.1-0.1,0.1-0.1,0.2-0.1h9.4
		C231.7,96.2,231.8,96.3,231.8,96.3z"/>
	<path class="st1" d="M238.4,113.2l-0.1-2.3v-0.1h-0.1h-3c-0.1,0-0.2,0-0.2,0.1l-0.7,2.4c0,0.2-0.2,0.3-0.3,0.3h-2.8
		c-0.2,0-0.3-0.1-0.2-0.3l5.5-16.5c0-0.2,0.2-0.3,0.3-0.3h3.2c0.2,0,0.3,0.1,0.3,0.3l1.4,16.5l0,0c0,0.2-0.1,0.3-0.3,0.3h-2.9
		C238.4,113.3,238.4,113.3,238.4,113.2z M236,108h2.1c0.1,0,0.1,0,0.1-0.1l-0.2-6.3v-0.1c0,0-0.1,0-0.1,0.1L236,108
		C235.9,108,235.9,108,236,108z"/>
	<path class="st1" d="M243.4,113.3c0-0.1-0.1-0.1,0-0.2l2-16.5c0-0.1,0.1-0.2,0.1-0.2c0.1-0.1,0.1-0.1,0.2-0.1h2.8
		c0.2,0,0.3,0.1,0.3,0.3l-1.7,13.7c0,0.1,0,0.1,0.1,0.1h5c0.2,0,0.3,0.1,0.3,0.3l-0.3,2.4c0,0.1-0.1,0.2-0.1,0.2
		c-0.1,0.1-0.1,0.1-0.2,0.1h-8.2C243.5,113.3,243.4,113.3,243.4,113.3z"/>
	<path class="st1" d="M259.5,112.6c-0.7-0.7-1.1-1.6-1.1-2.8c0-0.1,0-0.4,0-0.7l0.1-0.8c0-0.1,0.1-0.2,0.1-0.2
		c0.1-0.1,0.1-0.1,0.2-0.1h2.7c0.1,0,0.1,0,0.2,0.1c0,0.1,0.1,0.1,0,0.2l-0.1,0.6c0,0.1,0,0.2,0,0.3c0,0.4,0.1,0.8,0.3,1
		s0.5,0.4,0.8,0.4c0.4,0,0.8-0.2,1.1-0.5c0.3-0.4,0.5-0.8,0.5-1.3c0-0.4-0.1-0.8-0.4-1.1c-0.3-0.3-0.8-0.8-1.6-1.5
		c-0.7-0.5-1.2-1-1.6-1.4c-0.4-0.4-0.7-0.9-1-1.5c-0.3-0.6-0.4-1.2-0.4-2c0-0.2,0-0.4,0-0.7c0.2-1.4,0.7-2.5,1.7-3.3
		c0.9-0.8,2.1-1.2,3.5-1.2c1.3,0,2.3,0.4,3,1.1s1.1,1.7,1.1,2.9c0,0.1,0,0.4,0,0.8l-0.1,0.6c0,0.1,0,0.2-0.1,0.2s-0.1,0.1-0.2,0.1
		h-2.7c-0.1,0-0.1,0-0.2-0.1c-0.1-0.1-0.1-0.1,0-0.2l0.1-0.7c0-0.1,0-0.2,0-0.3c0-0.4-0.1-0.7-0.3-1s-0.5-0.4-0.9-0.4
		s-0.7,0.1-1,0.4s-0.4,0.7-0.5,1.2v0.3c0,0.4,0.1,0.8,0.4,1.1c0.3,0.3,0.8,0.8,1.5,1.4c0.8,0.7,1.4,1.2,1.8,1.6
		c0.4,0.4,0.8,0.9,1,1.4c0.2,0.5,0.4,1.1,0.4,1.7c0,0.1,0,0.4,0,0.7c-0.2,1.4-0.8,2.6-1.7,3.4c-1,0.8-2.1,1.3-3.5,1.3
		S260.2,113.2,259.5,112.6z"/>
	<path class="st1" d="M280.2,96.3c0,0.1,0.1,0.1,0,0.2l-0.3,2.4c0,0.1-0.1,0.2-0.1,0.2c-0.1,0.1-0.1,0.1-0.2,0.1h-3h-0.1v0.1
		l-1.7,13.7c0,0.1-0.1,0.2-0.1,0.2c-0.1,0.1-0.1,0.1-0.2,0.1h-2.8c-0.1,0-0.1,0-0.2-0.1s-0.1-0.1,0-0.2l1.7-13.7
		c0-0.1,0-0.1-0.1-0.1h-2.8c-0.2,0-0.3-0.1-0.3-0.3l0.3-2.4c0-0.1,0.1-0.2,0.1-0.2c0.1-0.1,0.1-0.1,0.2-0.1h9.4
		C280.1,96.2,280.1,96.3,280.2,96.3z"/>
	<path class="st1" d="M282.9,113.2c0-0.1-0.1-0.1,0-0.2l0.8-6.4c0,0,0,0,0-0.1s0-0.1,0-0.1l-2.1-10v-0.1c0-0.1,0-0.1,0.1-0.2
		s0.1-0.1,0.2-0.1h2.9c0.2,0,0.3,0.1,0.3,0.2l0.8,5.8c0,0,0,0.1,0.1,0.1s0.1,0,0.1-0.1l2.2-5.8c0.1-0.2,0.2-0.2,0.4-0.2h2.9
		c0.1,0,0.2,0,0.2,0.1s0,0.1,0,0.3l-4.5,10v0.1l-0.8,6.4c0,0.1-0.1,0.2-0.1,0.2c-0.1,0.1-0.1,0.1-0.2,0.1h-2.8
		C283,113.3,282.9,113.3,282.9,113.2z"/>
	<path class="st1" d="M291.1,113.3c0-0.1-0.1-0.1,0-0.2l2-16.5c0-0.1,0.1-0.2,0.1-0.2c0.1-0.1,0.1-0.1,0.2-0.1h2.8
		c0.2,0,0.3,0.1,0.3,0.3l-1.7,13.7c0,0.1,0,0.1,0.1,0.1h5c0.2,0,0.3,0.1,0.3,0.3l-0.3,2.4c0,0.1-0.1,0.2-0.1,0.2
		c-0.1,0.1-0.1,0.1-0.2,0.1h-8.3C291.2,113.3,291.2,113.3,291.1,113.3z"/>
	<path class="st1" d="M311.6,99.2c-0.1,0.1-0.1,0.1-0.2,0.1h-5c-0.1,0-0.1,0-0.1,0.1l-0.5,3.9c0,0.1,0,0.1,0.1,0.1h2.9
		c0.1,0,0.1,0,0.2,0.1s0.1,0.1,0,0.2l-0.3,2.4c0,0.1-0.1,0.2-0.1,0.2c-0.1,0.1-0.1,0.1-0.2,0.1h-2.8c-0.1,0-0.1,0-0.1,0.1l-0.5,3.9
		c0,0.1,0,0.1,0.1,0.1h4.9c0.1,0,0.2,0,0.2,0.1c0.1,0.1,0.1,0.1,0.1,0.2l-0.3,2.4c0,0.1-0.1,0.2-0.1,0.2c-0.1,0.1-0.1,0.1-0.2,0.1
		h-8.1c-0.1,0-0.1,0-0.2-0.1s-0.1-0.1,0-0.2l2-16.5c0-0.1,0.1-0.2,0.1-0.2c0.1-0.1,0.1-0.1,0.2-0.1h8.1c0.1,0,0.1,0,0.2,0.1
		c0,0.1,0.1,0.1,0,0.2l-0.3,2.4C311.6,99.1,311.6,99.1,311.6,99.2z"/>
	<path class="st1" d="M317.8,112.6c-0.8-0.7-1.1-1.7-1.1-2.9c0-0.1,0-0.4,0-0.7l1-8.3c0.2-1.4,0.7-2.5,1.7-3.4
		c1-0.8,2.2-1.3,3.6-1.3c1.3,0,2.3,0.4,3.1,1.1c0.8,0.7,1.1,1.7,1.1,2.9c0,0.1,0,0.4,0,0.7l-0.1,0.9c0,0.1-0.1,0.2-0.1,0.2
		c-0.1,0.1-0.1,0.1-0.2,0.1H324c-0.1,0-0.1,0-0.2-0.1s-0.1-0.1,0-0.2l0.1-1c0-0.1,0-0.2,0-0.3c0-0.4-0.1-0.7-0.3-1
		c-0.2-0.2-0.5-0.4-0.9-0.4s-0.8,0.2-1.1,0.5c-0.3,0.3-0.5,0.7-0.5,1.2l-1,8.3c0,0.5,0,0.9,0.2,1.2s0.5,0.5,0.9,0.5s0.8-0.2,1.1-0.5
		c0.3-0.3,0.5-0.7,0.5-1.2l0.2-2c0-0.1,0-0.1-0.1-0.1h-1.1c-0.1,0-0.1,0-0.2-0.1c0-0.1-0.1-0.1,0-0.2l0.3-2.2c0-0.1,0-0.2,0.1-0.2
		c0.1-0.1,0.1-0.1,0.2-0.1h4.2c0.2,0,0.3,0.1,0.3,0.3l-0.6,4.5c-0.2,1.4-0.7,2.5-1.7,3.4c-1,0.8-2.2,1.3-3.6,1.3
		C319.5,113.6,318.5,113.2,317.8,112.6z"/>
	<path class="st1" d="M329,112.5c-0.7-0.8-1.1-1.8-1.1-3c0-0.4,0-0.7,0-0.9l1.5-12c0-0.1,0.1-0.2,0.1-0.2c0.1-0.1,0.1-0.1,0.2-0.1
		h2.8c0.2,0,0.3,0.1,0.3,0.3l-1.5,12.3c0,0.1,0,0.2,0,0.3c0,0.4,0.1,0.8,0.3,1s0.5,0.4,0.9,0.4s0.8-0.2,1-0.5
		c0.3-0.3,0.5-0.7,0.5-1.3l1.5-12.3c0-0.1,0.1-0.2,0.1-0.2c0.1-0.1,0.1-0.1,0.2-0.1h2.8c0.1,0,0.1,0,0.2,0.1c0,0.1,0.1,0.1,0,0.2
		l-1.5,12c-0.2,1.5-0.8,2.8-1.7,3.7c-1,0.9-2.2,1.4-3.6,1.4C330.6,113.6,329.6,113.2,329,112.5z"/>
	<path class="st1" d="M338.8,113.3c0-0.1-0.1-0.1,0-0.2l2-16.5c0-0.1,0.1-0.2,0.1-0.2c0.1-0.1,0.1-0.1,0.2-0.1h2.8
		c0.2,0,0.3,0.1,0.3,0.3l-2,16.5c0,0.1-0.1,0.2-0.1,0.2c-0.1,0.1-0.1,0.1-0.2,0.1H339C339,113.3,338.9,113.3,338.8,113.3z"/>
	<path class="st1" d="M344.2,113.3c0-0.1-0.1-0.1,0-0.2l2-16.5c0-0.1,0.1-0.2,0.1-0.2c0.1-0.1,0.1-0.1,0.2-0.1h4.3
		c1.3,0,2.4,0.4,3.1,1.1s1.1,1.7,1.1,2.9c0,0.2,0,0.4,0,0.7l-1,7.6c-0.2,1.4-0.8,2.6-1.7,3.4c-1,0.9-2.2,1.3-3.6,1.3h-4.3
		C344.4,113.3,344.2,113.3,344.2,113.3z M348,110.5h1.1c0.4,0,0.8-0.2,1.1-0.6c0.3-0.4,0.5-0.8,0.6-1.4l0.9-7.2c0-0.1,0-0.2,0-0.4
		c0-0.5-0.1-0.9-0.3-1.2c-0.2-0.3-0.5-0.4-0.9-0.4h-1.1c-0.1,0-0.1,0-0.1,0.1L348,110.5C347.9,110.3,347.9,110.5,348,110.5z"/>
	<path class="st1" d="M365.9,99.2c-0.1,0.1-0.1,0.1-0.2,0.1h-5c-0.1,0-0.1,0-0.1,0.1l-0.5,3.9c0,0.1,0,0.1,0.1,0.1h2.9
		c0.1,0,0.1,0,0.2,0.1s0.1,0.1,0,0.2L363,106c0,0.1-0.1,0.2-0.1,0.2c-0.1,0.1-0.1,0.1-0.2,0.1h-2.8c-0.1,0-0.1,0-0.1,0.1l-0.5,3.9
		c0,0.1,0,0.1,0.1,0.1h4.9c0.1,0,0.2,0,0.2,0.1c0.1,0.1,0.1,0.1,0.1,0.2l-0.3,2.4c0,0.1-0.1,0.2-0.1,0.2c-0.1,0.1-0.1,0.1-0.2,0.1
		h-8.1c-0.1,0-0.1,0-0.2-0.1s-0.1-0.1,0-0.2l2-16.5c0-0.1,0.1-0.2,0.1-0.2c0.1-0.1,0.1-0.1,0.2-0.1h8.1c0.1,0,0.1,0,0.2,0.1
		c0,0.1,0.1,0.1,0,0.2L366,99C366,99.1,365.9,99.1,365.9,99.2z"/>
</g>
</svg>
