<?xml version="1.0" encoding="utf-8"?>
<!-- Generator: Adobe Illustrator 22.1.0, SVG Export Plug-In . SVG Version: 6.00 Build 0)  -->
<svg version="1.1" id="Layer_1" xmlns="http://www.w3.org/2000/svg" xmlns:xlink="http://www.w3.org/1999/xlink" x="0px" y="0px"
	 viewBox="0 0 328.5 70.8" style="enable-background:new 0 0 328.5 70.8;" xml:space="preserve">
<style type="text/css">
	.st0{fill:#42EBB5;}
	.st1{fill:#FFFFFF;}
	.st2{fill:#1A0A29;}
	.st3{fill:#FF2E66;}
</style>
<g>
	<path class="st0" d="M180.2,46H5.2c-3.1,0-5.5-2.7-5.1-5.8L4.4,4.5C4.7,1.9,6.9,0,9.5,0h175c3.1,0,5.5,2.7,5.1,5.8l-4.4,35.6
		C185,44,182.8,46,180.2,46"/>
	<path class="st1" d="M197,44.4c-1.5,0-3-0.7-4-1.8c-1-1.1-1.5-2.7-1.3-4.2l3.9-32.1c0.3-2.7,2.6-4.7,5.3-4.7l120.7-0.1
		c1.5,0,3,0.7,4,1.8c1,1.1,1.5,2.7,1.3,4.2l-3.9,32.1c-0.3,2.7-2.6,4.7-5.3,4.7L197,44.4L197,44.4z"/>
	<path class="st2" d="M321.6,0L321.6,0L200.9,0.1c-3.5,0-6.4,2.6-6.8,6l-3.9,32.1c-0.2,2,0.4,3.9,1.7,5.4c1.3,1.5,3.2,2.3,5.2,2.3
		l120.7-0.1c3.5,0,6.4-2.6,6.8-6l3.9-32.1c0.2-2-0.4-3.9-1.7-5.4C325.5,0.8,323.6,0,321.6,0 M321.6,3.1c2.2,0,4,2,3.7,4.2l-3.9,32.1
		c-0.2,1.9-1.8,3.3-3.7,3.3L197,42.8c-2.2,0-4-2-3.7-4.2l3.9-32.1c0.2-1.9,1.8-3.3,3.7-3.3L321.6,3.1z"/>
	<path class="st2" d="M15.6,36.8c-1.3-1.3-2-2.9-2-4.9c0-0.3,0-0.7,0.1-1.2l0.2-1.4c0-0.1,0.1-0.3,0.2-0.4c0.1-0.1,0.2-0.2,0.4-0.2
		h4.9c0.1,0,0.3,0.1,0.4,0.2c0.1,0.1,0.1,0.2,0.1,0.4l-0.1,1.1c0,0.1,0,0.3,0,0.6c0,0.8,0.2,1.4,0.5,1.8c0.4,0.4,0.9,0.7,1.5,0.7
		c0.8,0,1.4-0.3,1.9-0.9c0.5-0.6,0.8-1.4,0.8-2.3c0-0.8-0.2-1.4-0.7-2c-0.5-0.6-1.4-1.4-2.8-2.6c-1.2-1-2.2-1.8-2.9-2.5
		c-0.7-0.7-1.3-1.6-1.8-2.6c-0.5-1-0.8-2.2-0.8-3.5c0-0.3,0-0.7,0.1-1.3c0.3-2.5,1.3-4.5,3-6c1.7-1.5,3.7-2.2,6.2-2.2
		c2.2,0,4,0.6,5.4,1.9c1.3,1.3,2,3,2,5.1c0,0.3,0,0.7-0.1,1.4l-0.1,1.1c0,0.1-0.1,0.3-0.2,0.4c-0.1,0.1-0.2,0.2-0.4,0.2h-4.9
		c-0.1,0-0.3-0.1-0.4-0.2c-0.1-0.1-0.1-0.2-0.1-0.4l0.1-1.2c0-0.1,0-0.3,0-0.6c0-0.7-0.2-1.3-0.6-1.8c-0.4-0.4-0.9-0.7-1.5-0.7
		c-0.7,0-1.2,0.3-1.7,0.8c-0.5,0.5-0.8,1.2-0.9,2.1l0,0.5c0,0.7,0.2,1.4,0.7,2c0.5,0.6,1.4,1.5,2.6,2.6c1.4,1.2,2.5,2.1,3.3,2.9
		c0.8,0.8,1.4,1.6,1.8,2.5c0.4,0.9,0.6,1.9,0.6,3c0,0.2,0,0.6-0.1,1.2c-0.3,2.6-1.3,4.6-3.1,6.1c-1.7,1.5-3.8,2.3-6.3,2.3
		C18.7,38.6,16.9,38,15.6,36.8"/>
	<path class="st2" d="M36.3,37.8L34.2,8.2V8.1c0-0.3,0.2-0.5,0.5-0.5h5.2c0.3,0,0.5,0.2,0.5,0.5l0.5,15.8c0,0.1,0.1,0.2,0.1,0.2
		c0.1,0,0.1-0.1,0.1-0.2l4.2-15.8c0.1-0.3,0.3-0.5,0.6-0.5h4.3c0.3,0,0.5,0.2,0.5,0.5l0.6,15.8c0,0.1,0,0.2,0.1,0.2
		c0.1,0,0.1-0.1,0.2-0.2l4.1-15.8c0.1-0.3,0.3-0.5,0.6-0.5h5c0.4,0,0.5,0.2,0.4,0.6l-9,29.6c-0.1,0.3-0.3,0.5-0.6,0.5h-4.6
		c-0.3,0-0.5-0.2-0.5-0.5l-0.5-16.2c0-0.1,0-0.2-0.1-0.2c-0.1,0-0.1,0.1-0.2,0.2L42,37.8c-0.1,0.3-0.3,0.5-0.6,0.5h-4.5
		C36.5,38.3,36.3,38.1,36.3,37.8"/>
	<path class="st2" d="M60.9,38.1c-0.1-0.1-0.1-0.2-0.1-0.4l3.6-29.6c0-0.1,0.1-0.3,0.2-0.4c0.1-0.1,0.2-0.2,0.4-0.2H70
		c0.3,0,0.5,0.2,0.5,0.5l-3.6,29.6c0,0.1-0.1,0.3-0.2,0.4c-0.1,0.1-0.2,0.2-0.4,0.2h-4.9C61.1,38.3,61,38.2,60.9,38.1"/>
	<path class="st2" d="M83.2,19.8c0.7-0.9,1-2.1,1-3.6c0-1-0.2-1.8-0.7-2.4c-0.5-0.6-1.1-0.9-1.9-0.9h-1.9c-0.1,0-0.2,0.1-0.2,0.2
		l-1,7.7c0,0.1,0.1,0.2,0.2,0.2h1.9C81.7,21.1,82.5,20.7,83.2,19.8 M88.4,9.7c1.2,1.4,1.9,3.3,1.9,5.6c0,0.7,0,1.3-0.1,1.7
		c-0.3,2.7-1.3,4.9-2.9,6.5c-1.6,1.6-3.6,2.5-5.9,2.5h-3.1c-0.1,0-0.2,0.1-0.3,0.2l-1.4,11.6c0,0.1-0.1,0.3-0.2,0.4
		c-0.1,0.1-0.2,0.2-0.4,0.2H71c-0.1,0-0.3-0.1-0.3-0.2c-0.1-0.1-0.1-0.2-0.1-0.4l3.6-29.6c0-0.1,0.1-0.3,0.2-0.4
		c0.1-0.1,0.2-0.2,0.4-0.2h8.6C85.5,7.6,87.1,8.3,88.4,9.7"/>
	<path class="st2" d="M108.8,12.8c-0.1,0.1-0.2,0.2-0.4,0.2h-8.9c-0.1,0-0.2,0.1-0.2,0.2l-0.9,6.9c0,0.1,0.1,0.2,0.2,0.2h5.1
		c0.1,0,0.3,0.1,0.4,0.2c0.1,0.1,0.1,0.2,0.1,0.4l-0.5,4.2c0,0.1-0.1,0.3-0.2,0.4c-0.1,0.1-0.2,0.2-0.4,0.2H98
		c-0.2,0-0.3,0.1-0.3,0.2l-0.8,7c-0.1,0.1,0,0.2,0.2,0.2h8.8c0.1,0,0.3,0.1,0.4,0.2c0.1,0.1,0.1,0.2,0.1,0.4l-0.5,4.2
		c0,0.1-0.1,0.3-0.2,0.4c-0.1,0.1-0.2,0.2-0.4,0.2H90.8c-0.1,0-0.3-0.1-0.4-0.2c-0.1-0.1-0.1-0.2-0.1-0.4L94,8.2
		c0-0.1,0.1-0.3,0.2-0.4c0.1-0.1,0.2-0.2,0.4-0.2h14.6c0.1,0,0.3,0.1,0.3,0.2c0.1,0.1,0.1,0.2,0.1,0.4l-0.5,4.2
		C109,12.6,108.9,12.7,108.8,12.8"/>
	<path class="st3" d="M315.9,28.2H201.8c-0.5,0-0.9-0.4-0.8-0.9l1.1-8.8c0.1-0.4,0.4-0.7,0.8-0.7H317c0.5,0,0.9,0.4,0.8,0.9
		l-1.1,8.8C316.7,27.9,316.3,28.2,315.9,28.2"/>
	<path class="st2" d="M132.2,32.5c0.5-0.6,0.9-1.3,1-2.3l1.8-14.5c0-0.1,0-0.3,0-0.5c0-0.8-0.2-1.4-0.6-1.9c-0.4-0.5-1-0.7-1.7-0.7
		c-0.8,0-1.5,0.3-2,0.9s-0.9,1.3-1,2.3l-1.8,14.5c0,0.1,0,0.3,0,0.5c0,0.8,0.2,1.4,0.6,1.9c0.4,0.5,0.9,0.7,1.6,0.7
		C130.9,33.4,131.6,33.1,132.2,32.5 M123.9,36.7c-1.4-1.3-2-3.1-2-5.3c0-0.3,0-0.8,0.1-1.4l1.7-14c0.3-2.6,1.4-4.7,3.1-6.3
		c1.8-1.6,3.9-2.4,6.5-2.4c2.4,0,4.2,0.6,5.6,1.9c1.4,1.3,2.1,3.1,2.1,5.3c0,0.3,0,0.8-0.1,1.4l-1.7,14c-0.3,2.6-1.4,4.7-3.1,6.3
		c-1.8,1.6-3.9,2.4-6.5,2.4C127.2,38.6,125.3,38,123.9,36.7"/>
	<path class="st2" d="M144.3,36.6c-1.3-1.4-2-3.2-2-5.4c0-0.7,0-1.2,0.1-1.6l2.6-21.4c0-0.1,0.1-0.3,0.2-0.4
		c0.1-0.1,0.2-0.2,0.4-0.2h4.9c0.3,0,0.5,0.2,0.5,0.5l-2.7,22c0,0.1,0,0.4,0,0.6c0,0.8,0.2,1.4,0.6,1.8c0.4,0.5,0.9,0.7,1.5,0.7
		c0.7,0,1.3-0.3,1.9-0.9c0.5-0.6,0.8-1.3,0.9-2.3l2.7-22c0-0.1,0.1-0.3,0.2-0.4c0.1-0.1,0.2-0.2,0.4-0.2h5c0.1,0,0.3,0.1,0.3,0.2
		c0.1,0.1,0.1,0.2,0.1,0.4l-2.6,21.4c-0.3,2.7-1.4,4.9-3.1,6.6c-1.8,1.6-3.9,2.5-6.4,2.5C147.5,38.6,145.7,38,144.3,36.6"/>
	<path class="st2" d="M182.4,7.8c0.1,0.1,0.1,0.2,0.1,0.4l-0.5,4.2c0,0.1-0.1,0.3-0.2,0.4c-0.1,0.1-0.2,0.2-0.4,0.2h-5.3
		c-0.1,0-0.1,0-0.2,0.1c0,0-0.1,0.1-0.1,0.2l-3,24.6c0,0.1-0.1,0.3-0.2,0.4c-0.1,0.1-0.2,0.2-0.4,0.2h-5c-0.1,0-0.3-0.1-0.3-0.2
		c-0.1-0.1-0.1-0.2-0.1-0.4l3-24.6c0.1-0.1,0-0.2-0.2-0.2h-5.1c-0.3,0-0.5-0.2-0.5-0.5l0.5-4.2c0-0.1,0.1-0.3,0.2-0.4
		c0.1-0.1,0.2-0.2,0.4-0.2h16.8C182.2,7.7,182.3,7.7,182.4,7.8"/>
	<path class="st2" d="M219.5,9.8c0.1-0.1,0.2-0.1,0.3-0.1h4.3c0.1,0,0.2,0,0.3,0.1c0.1,0.1,0.1,0.2,0.1,0.3l-3.2,25.7
		c0,0.1-0.1,0.2-0.2,0.3c-0.1,0.1-0.2,0.1-0.3,0.1h-4.3c-0.1,0-0.2,0-0.3-0.1c-0.1-0.1-0.1-0.2-0.1-0.3l1.3-10.4
		c0-0.1-0.1-0.2-0.2-0.2h-3.7c-0.2,0-0.2,0.1-0.2,0.2l-1.3,10.4c0,0.1-0.1,0.2-0.2,0.3c-0.1,0.1-0.2,0.1-0.3,0.1h-4.3
		c-0.1,0-0.2,0-0.3-0.1c-0.1-0.1-0.1-0.2-0.1-0.3l3.2-25.7c0-0.1,0.1-0.2,0.2-0.3c0.1-0.1,0.2-0.1,0.3-0.1h4.3
		c0.3,0,0.4,0.2,0.4,0.5L214,20.5c0,0.1,0,0.2,0.2,0.2h3.7c0.1,0,0.2-0.1,0.2-0.2l1.3-10.4C219.4,10,219.5,9.9,219.5,9.8"/>
	<path class="st2" d="M227.1,34.8c-1.2-1.2-1.7-2.8-1.7-4.7c0-0.6,0-1.1,0.1-1.4l2.3-18.6c0-0.1,0.1-0.2,0.2-0.3
		c0.1-0.1,0.2-0.1,0.3-0.1h4.3c0.3,0,0.4,0.2,0.4,0.5l-2.4,19.2c0,0.1,0,0.3,0,0.5c0,0.7,0.2,1.2,0.5,1.6c0.3,0.4,0.8,0.6,1.3,0.6
		c0.6,0,1.2-0.3,1.6-0.8c0.4-0.5,0.7-1.2,0.8-2l2.4-19.2c0-0.1,0.1-0.2,0.2-0.3s0.2-0.1,0.3-0.1h4.3c0.1,0,0.2,0,0.3,0.1
		s0.1,0.2,0.1,0.3l-2.3,18.6c-0.3,2.4-1.2,4.3-2.7,5.7c-1.5,1.4-3.4,2.2-5.6,2.2C229.8,36.6,228.3,36,227.1,34.8"/>
	<path class="st2" d="M242.3,36.2c-0.1-0.1-0.1-0.2-0.1-0.3l3.2-25.7c0-0.1,0.1-0.2,0.2-0.3c0.1-0.1,0.2-0.1,0.3-0.1h4.6
		c0.2,0,0.4,0.1,0.4,0.4l3,14.2c0,0.1,0,0.1,0.1,0.1c0.1,0,0.1-0.1,0.1-0.1l1.7-14.1c0-0.1,0.1-0.2,0.2-0.3c0.1-0.1,0.2-0.1,0.3-0.1
		h4.3c0.1,0,0.2,0,0.3,0.1c0.1,0.1,0.1,0.2,0.1,0.3l-3.2,25.7c0,0.1-0.1,0.2-0.2,0.3c-0.1,0.1-0.2,0.1-0.3,0.1h-4.7
		c-0.3,0-0.4-0.1-0.5-0.4l-3-14.3c0-0.1,0-0.1-0.1-0.1c-0.1,0-0.1,0-0.1,0.1l-1.7,14.2c0,0.1-0.1,0.2-0.2,0.3
		c-0.1,0.1-0.2,0.1-0.3,0.1h-4.2C242.5,36.3,242.4,36.3,242.3,36.2"/>
	<path class="st2" d="M263.3,35c-1.2-1.1-1.8-2.6-1.8-4.5c0-0.2,0-0.6,0.1-1.1l1.6-12.9c0.3-2.2,1.1-3.9,2.6-5.2
		c1.5-1.3,3.4-2,5.6-2c2,0,3.6,0.6,4.8,1.7c1.2,1.1,1.8,2.6,1.8,4.5c0,0.2,0,0.6-0.1,1.1l-0.2,1.4c0,0.1-0.1,0.2-0.2,0.3
		c-0.1,0.1-0.2,0.1-0.3,0.1h-4.3c-0.1,0-0.2,0-0.3-0.1c-0.1-0.1-0.1-0.2-0.1-0.3l0.2-1.5c0-0.1,0-0.3,0-0.5c0-0.6-0.2-1.1-0.5-1.5
		c-0.3-0.4-0.8-0.6-1.4-0.6c-0.6,0-1.2,0.2-1.6,0.7c-0.5,0.5-0.7,1.1-0.8,1.8l-1.6,12.9c-0.1,0.8,0,1.4,0.4,1.8
		c0.3,0.5,0.8,0.7,1.4,0.7c0.7,0,1.2-0.2,1.7-0.7c0.5-0.5,0.7-1.1,0.8-1.8l0.4-3c0-0.1-0.1-0.2-0.2-0.2h-1.6c-0.1,0-0.2,0-0.3-0.1
		c-0.1-0.1-0.1-0.2-0.1-0.3l0.4-3.4c0-0.1,0.1-0.2,0.2-0.3c0.1-0.1,0.2-0.1,0.3-0.1h6.5c0.3,0,0.4,0.2,0.4,0.5l-0.9,7
		c-0.3,2.2-1.1,3.9-2.7,5.2c-1.5,1.3-3.4,2-5.6,2C266,36.6,264.4,36.1,263.3,35"/>
	<path class="st2" d="M294.4,14.1c-0.1,0.1-0.2,0.1-0.3,0.1h-7.7c-0.1,0-0.2,0.1-0.2,0.2l-0.8,6c0,0.1,0,0.2,0.2,0.2h4.5
		c0.1,0,0.2,0,0.3,0.1c0.1,0.1,0.1,0.2,0.1,0.3l-0.5,3.7c0,0.1-0.1,0.2-0.2,0.3s-0.2,0.1-0.3,0.1H285c-0.2,0-0.2,0.1-0.2,0.2
		l-0.7,6.1c-0.1,0.1,0,0.2,0.2,0.2h7.7c0.1,0,0.2,0,0.3,0.1c0.1,0.1,0.1,0.2,0.1,0.3l-0.5,3.7c0,0.1-0.1,0.2-0.2,0.3
		c-0.1,0.1-0.2,0.1-0.3,0.1h-12.7c-0.1,0-0.2,0-0.3-0.1c-0.1-0.1-0.1-0.2-0.1-0.3l3.2-25.7c0-0.1,0.1-0.2,0.2-0.3
		c0.1-0.1,0.2-0.1,0.3-0.1h12.7c0.1,0,0.2,0,0.3,0.1c0.1,0.1,0.1,0.2,0.1,0.3l-0.5,3.7C294.5,13.9,294.5,14,294.4,14.1"/>
	<path class="st2" d="M302.3,14.5l-0.8,6.5c-0.1,0.1,0,0.2,0.2,0.2h1.7c0.8,0,1.5-0.4,2.1-1.1c0.6-0.7,0.9-1.7,0.9-3
		c0-0.9-0.2-1.5-0.6-2c-0.4-0.5-0.9-0.7-1.6-0.7h-1.7C302.4,14.3,302.3,14.3,302.3,14.5 M304.2,35.9l-1.6-10.5
		c-0.1-0.1-0.1-0.2-0.2-0.2h-1.2c-0.2,0-0.2,0.1-0.2,0.2l-1.3,10.4c0,0.1-0.1,0.2-0.2,0.3c-0.1,0.1-0.2,0.1-0.3,0.1h-4.3
		c-0.1,0-0.2,0-0.3-0.1c-0.1-0.1-0.1-0.2-0.1-0.3l3.2-25.8c0-0.1,0.1-0.2,0.2-0.3c0.1-0.1,0.2-0.1,0.3-0.1h7.5
		c1.9,0,3.3,0.6,4.4,1.8c1.1,1.2,1.6,2.8,1.6,4.8c0,0.6,0,1.1-0.1,1.4c-0.2,1.5-0.6,2.8-1.3,3.9c-0.7,1.2-1.6,2.1-2.7,2.7
		c-0.1,0-0.1,0.1-0.1,0.1c0,0,0,0.1,0,0.1l2,11.2v0.1c0,0.1,0,0.2-0.1,0.3c-0.1,0.1-0.2,0.1-0.3,0.1h-4.4
		C304.4,36.3,304.2,36.2,304.2,35.9"/>
</g>
<g>
	<path class="st2" d="M8.8,70c-0.6-0.5-0.8-1.2-0.8-2.1c0-0.1,0-0.3,0-0.5l0.1-0.6c0-0.1,0-0.1,0.1-0.2s0.1-0.1,0.2-0.1h2.1
		c0.1,0,0.1,0,0.1,0.1s0,0.1,0,0.2l-0.1,0.5c0,0,0,0.1,0,0.2c0,0.3,0.1,0.6,0.2,0.8c0.2,0.2,0.4,0.3,0.6,0.3c0.3,0,0.6-0.1,0.8-0.4
		s0.3-0.6,0.3-1c0-0.3-0.1-0.6-0.3-0.8c-0.2-0.2-0.6-0.6-1.2-1.1c-0.5-0.4-0.9-0.8-1.2-1.1c-0.3-0.3-0.6-0.7-0.8-1.1
		c-0.2-0.4-0.3-0.9-0.3-1.5c0-0.1,0-0.3,0-0.6c0.1-1,0.5-1.9,1.2-2.5c0.7-0.6,1.6-0.9,2.6-0.9c0.9,0,1.7,0.3,2.3,0.8
		s0.8,1.3,0.8,2.2c0,0.1,0,0.3,0,0.6l-0.1,0.4c0,0.1,0,0.1-0.1,0.2c0,0-0.1,0.1-0.2,0.1h-2c-0.1,0-0.1,0-0.1-0.1s0-0.1,0-0.2
		l0.1-0.5c0,0,0-0.1,0-0.2c0-0.3-0.1-0.6-0.2-0.7c-0.2-0.2-0.4-0.3-0.6-0.3c-0.3,0-0.5,0.1-0.7,0.3c-0.2,0.2-0.3,0.5-0.4,0.9l0,0.2
		c0,0.3,0.1,0.6,0.3,0.8c0.2,0.3,0.6,0.6,1.1,1.1c0.6,0.5,1.1,0.9,1.4,1.2c0.3,0.3,0.6,0.7,0.8,1c0.2,0.4,0.3,0.8,0.3,1.3
		c0,0.1,0,0.3,0,0.5c-0.1,1.1-0.6,1.9-1.3,2.6c-0.7,0.6-1.6,1-2.6,1C10.1,70.8,9.3,70.5,8.8,70z"/>
	<path class="st2" d="M24.4,57.8c0,0,0,0.1,0,0.2l-0.2,1.8c0,0.1,0,0.1-0.1,0.2c0,0-0.1,0.1-0.2,0.1h-2.2c0,0,0,0-0.1,0
		c0,0,0,0,0,0.1l-1.3,10.3c0,0.1,0,0.1-0.1,0.2s-0.1,0.1-0.2,0.1h-2.1c-0.1,0-0.1,0-0.1-0.1s0-0.1,0-0.2l1.3-10.3
		c0-0.1,0-0.1-0.1-0.1h-2.1c-0.1,0-0.2-0.1-0.2-0.2L17,58c0-0.1,0-0.1,0.1-0.2s0.1-0.1,0.2-0.1h7.1C24.3,57.8,24.4,57.8,24.4,57.8z"
		/>
	<path class="st2" d="M25.3,69.9c-0.6-0.6-0.8-1.3-0.8-2.3c0-0.3,0-0.5,0-0.7l1.1-9c0-0.1,0-0.1,0.1-0.2s0.1-0.1,0.2-0.1h2.1
		c0.1,0,0.2,0.1,0.2,0.2L27,67.2c0,0.1,0,0.1,0,0.3c0,0.3,0.1,0.6,0.2,0.8s0.4,0.3,0.6,0.3c0.3,0,0.6-0.1,0.8-0.4
		c0.2-0.2,0.3-0.6,0.4-1l1.1-9.2c0-0.1,0-0.1,0.1-0.2c0,0,0.1-0.1,0.2-0.1h2.1c0.1,0,0.1,0,0.1,0.1s0,0.1,0,0.2l-1.1,9
		c-0.1,1.2-0.6,2.1-1.3,2.8c-0.7,0.7-1.6,1-2.7,1C26.6,70.8,25.9,70.5,25.3,69.9z"/>
	<path class="st2" d="M32.7,70.6c0,0,0-0.1,0-0.2L34.2,58c0-0.1,0-0.1,0.1-0.2s0.1-0.1,0.2-0.1h3.2c1,0,1.8,0.3,2.3,0.8
		c0.6,0.5,0.9,1.3,0.9,2.2c0,0.1,0,0.3,0,0.6l-0.7,5.7c-0.1,1.1-0.6,1.9-1.3,2.6s-1.6,1-2.7,1h-3.2C32.8,70.6,32.8,70.6,32.7,70.6z
		 M35.5,68.4l0.8,0c0.3,0,0.6-0.2,0.8-0.4c0.2-0.3,0.4-0.6,0.5-1.1l0.7-5.4c0-0.1,0-0.2,0-0.3c0-0.4-0.1-0.7-0.2-0.9
		S37.7,60,37.4,60h-0.8c-0.1,0-0.1,0-0.1,0.1L35.5,68.4C35.5,68.4,35.5,68.4,35.5,68.4z"/>
	<path class="st2" d="M49,59.9c0,0-0.1,0.1-0.2,0.1h-3.7C45,60,45,60,45,60.1L44.6,63c0,0.1,0,0.1,0.1,0.1h2.2c0.1,0,0.1,0,0.1,0.1
		c0,0,0,0.1,0,0.2l-0.2,1.8c0,0.1,0,0.1-0.1,0.2c0,0-0.1,0.1-0.2,0.1h-2.1c-0.1,0-0.1,0-0.1,0.1L44,68.3c0,0.1,0,0.1,0.1,0.1h3.7
		c0.1,0,0.1,0,0.2,0.1c0,0,0.1,0.1,0,0.2l-0.2,1.8c0,0.1,0,0.1-0.1,0.2s-0.1,0.1-0.2,0.1h-6.1c-0.1,0-0.1,0-0.1-0.1s0-0.1,0-0.2
		L42.7,58c0-0.1,0-0.1,0.1-0.2s0.1-0.1,0.2-0.1h6.1c0.1,0,0.1,0,0.1,0.1c0,0,0,0.1,0,0.2L49,59.8C49,59.8,49,59.9,49,59.9z"/>
	<path class="st2" d="M49.1,70.6c0,0,0-0.1,0-0.2L50.6,58c0-0.1,0-0.1,0.1-0.2s0.1-0.1,0.2-0.1H53c0.1,0,0.2,0.1,0.2,0.2l1.5,6.9
		c0,0,0,0.1,0,0c0,0,0.1,0,0.1-0.1l0.8-6.8c0-0.1,0-0.1,0.1-0.2c0,0,0.1-0.1,0.2-0.1h2.1c0.1,0,0.1,0,0.1,0.1c0,0,0,0.1,0,0.2
		l-1.5,12.4c0,0.1,0,0.1-0.1,0.2s-0.1,0.1-0.2,0.1h-2.3c-0.1,0-0.2-0.1-0.2-0.2l-1.5-6.9c0,0,0-0.1,0-0.1c0,0-0.1,0-0.1,0.1
		l-0.8,6.9c0,0.1,0,0.1-0.1,0.2c0,0-0.1,0.1-0.2,0.1h-2C49.2,70.6,49.1,70.6,49.1,70.6z"/>
	<path class="st2" d="M66.8,57.8c0,0,0,0.1,0,0.2l-0.2,1.8c0,0.1,0,0.1-0.1,0.2c0,0-0.1,0.1-0.2,0.1h-2.2c0,0,0,0-0.1,0
		c0,0,0,0,0,0.1l-1.3,10.3c0,0.1,0,0.1-0.1,0.2s-0.1,0.1-0.2,0.1h-2.1c-0.1,0-0.1,0-0.1-0.1s0-0.1,0-0.2l1.3-10.3
		c0-0.1,0-0.1-0.1-0.1h-2.1c-0.1,0-0.2-0.1-0.2-0.2l0.2-1.8c0-0.1,0-0.1,0.1-0.2s0.1-0.1,0.2-0.1h7.1C66.7,57.8,66.8,57.8,66.8,57.8
		z"/>
	<path class="st2" d="M76.2,57.8c0,0,0.1-0.1,0.2-0.1h2.1c0.1,0,0.1,0,0.1,0.1c0,0,0,0.1,0,0.2l-1.5,12.4c0,0.1,0,0.1-0.1,0.2
		s-0.1,0.1-0.2,0.1h-2.1c-0.1,0-0.1,0-0.1-0.1c0,0,0-0.1,0-0.2l0.6-5c0-0.1,0-0.1-0.1-0.1h-1.8c-0.1,0-0.1,0-0.1,0.1l-0.6,5
		c0,0.1,0,0.1-0.1,0.2s-0.1,0.1-0.2,0.1h-2.1c-0.1,0-0.1,0-0.1-0.1s0-0.1,0-0.2L71.6,58c0-0.1,0-0.1,0.1-0.2s0.1-0.1,0.2-0.1h2.1
		c0.1,0,0.2,0.1,0.2,0.2l-0.6,5c0,0.1,0,0.1,0.1,0.1h1.8c0,0,0.1,0,0.1-0.1l0.6-5C76.1,57.9,76.1,57.9,76.2,57.8z"/>
	<path class="st2" d="M79.8,69.9c-0.6-0.6-0.8-1.3-0.8-2.3c0-0.3,0-0.5,0-0.7l1.1-9c0-0.1,0-0.1,0.1-0.2s0.1-0.1,0.2-0.1h2.1
		c0.1,0,0.2,0.1,0.2,0.2l-1.1,9.2c0,0.1,0,0.1,0,0.3c0,0.3,0.1,0.6,0.2,0.8s0.4,0.3,0.6,0.3c0.3,0,0.6-0.1,0.8-0.4
		c0.2-0.2,0.3-0.6,0.4-1l1.1-9.2c0-0.1,0-0.1,0.1-0.2s0.1-0.1,0.2-0.1H87c0.1,0,0.1,0,0.1,0.1s0,0.1,0,0.2l-1.1,9
		c-0.1,1.2-0.6,2.1-1.3,2.8c-0.7,0.7-1.6,1-2.7,1C81.2,70.8,80.4,70.5,79.8,69.9z"/>
	<path class="st2" d="M87.3,70.6c0,0,0-0.1,0-0.2L88.8,58c0-0.1,0-0.1,0.1-0.2s0.1-0.1,0.2-0.1h2.2c0.1,0,0.2,0.1,0.2,0.2l1.5,6.9
		c0,0,0,0.1,0,0c0,0,0.1,0,0.1-0.1l0.8-6.8c0-0.1,0-0.1,0.1-0.2s0.1-0.1,0.2-0.1h2.1c0.1,0,0.1,0,0.1,0.1c0,0,0,0.1,0,0.2l-1.5,12.4
		c0,0.1,0,0.1-0.1,0.2c0,0-0.1,0.1-0.2,0.1h-2.3c-0.1,0-0.2-0.1-0.2-0.2l-1.5-6.9c0,0,0-0.1,0-0.1c0,0-0.1,0-0.1,0.1l-0.8,6.9
		c0,0.1,0,0.1-0.1,0.2c0,0-0.1,0.1-0.2,0.1h-2C87.4,70.6,87.3,70.6,87.3,70.6z"/>
	<path class="st2" d="M97.4,70c-0.6-0.5-0.8-1.2-0.8-2.2c0-0.1,0-0.3,0-0.5l0.8-6.2c0.1-1.1,0.5-1.9,1.3-2.5s1.6-0.9,2.7-0.9
		c1,0,1.7,0.3,2.3,0.8s0.9,1.3,0.9,2.2c0,0.1,0,0.3,0,0.5l-0.1,0.7c0,0.1,0,0.1-0.1,0.2c0,0-0.1,0.1-0.2,0.1h-2.1
		c-0.1,0-0.1,0-0.1-0.1c0,0,0-0.1,0-0.2l0.1-0.7c0,0,0-0.1,0-0.2c0-0.3-0.1-0.6-0.2-0.7c-0.2-0.2-0.4-0.3-0.7-0.3
		c-0.3,0-0.6,0.1-0.8,0.3c-0.2,0.2-0.4,0.5-0.4,0.9l-0.8,6.3c0,0.4,0,0.7,0.2,0.9c0.2,0.2,0.4,0.3,0.7,0.3c0.3,0,0.6-0.1,0.8-0.3
		c0.2-0.2,0.4-0.5,0.4-0.9l0.2-1.5c0-0.1,0-0.1-0.1-0.1h-0.8c-0.1,0-0.1,0-0.1-0.1c0,0,0-0.1,0-0.2l0.2-1.6c0-0.1,0-0.1,0.1-0.2
		c0,0,0.1-0.1,0.2-0.1h3.2c0.1,0,0.2,0.1,0.2,0.2l-0.4,3.4c-0.1,1.1-0.6,1.9-1.3,2.5c-0.7,0.6-1.6,0.9-2.7,0.9
		C98.8,70.8,98,70.5,97.4,70z"/>
	<path class="st2" d="M112.4,59.9c0,0-0.1,0.1-0.2,0.1h-3.7c-0.1,0-0.1,0-0.1,0.1l-0.4,2.9c0,0.1,0,0.1,0.1,0.1h2.2
		c0.1,0,0.1,0,0.1,0.1c0,0,0,0.1,0,0.2l-0.2,1.8c0,0.1,0,0.1-0.1,0.2s-0.1,0.1-0.2,0.1h-2.1c-0.1,0-0.1,0-0.1,0.1l-0.3,2.9
		c0,0.1,0,0.1,0.1,0.1h3.7c0.1,0,0.1,0,0.2,0.1s0.1,0.1,0,0.2l-0.2,1.8c0,0.1,0,0.1-0.1,0.2s-0.1,0.1-0.2,0.1h-6.1
		c-0.1,0-0.1,0-0.1-0.1c0,0,0-0.1,0-0.2l1.5-12.4c0-0.1,0-0.1,0.1-0.2c0,0,0.1-0.1,0.2-0.1h6.1c0.1,0,0.1,0,0.1,0.1c0,0,0,0.1,0,0.2
		l-0.2,1.8C112.5,59.8,112.5,59.9,112.4,59.9z"/>
	<path class="st2" d="M117.2,70.5l-0.8-5.1c0,0-0.1-0.1-0.1-0.1h-0.6c-0.1,0-0.1,0-0.1,0.1l-0.6,5c0,0.1,0,0.1-0.1,0.2
		c0,0-0.1,0.1-0.2,0.1h-2.1c-0.1,0-0.1,0-0.1-0.1c0,0,0-0.1,0-0.2L114,58c0-0.1,0-0.1,0.1-0.2c0,0,0.1-0.1,0.2-0.1h3.6
		c0.9,0,1.6,0.3,2.1,0.9c0.5,0.6,0.8,1.4,0.8,2.3c0,0.3,0,0.5,0,0.7c-0.1,0.7-0.3,1.3-0.6,1.9c-0.3,0.6-0.8,1-1.3,1.3c0,0,0,0-0.1,0
		c0,0,0,0,0,0.1l1,5.4v0c0,0.1,0,0.1-0.1,0.2c0,0-0.1,0.1-0.2,0.1h-2.1C117.3,70.6,117.2,70.6,117.2,70.5z M116.3,60.1l-0.4,3.1
		c0,0.1,0,0.1,0.1,0.1h0.8c0.4,0,0.7-0.2,1-0.5c0.3-0.4,0.4-0.8,0.4-1.4c0-0.4-0.1-0.7-0.3-1c-0.2-0.2-0.4-0.3-0.8-0.3L116.3,60.1
		C116.3,60,116.3,60,116.3,60.1z"/>
	<path class="st2" d="M124.5,70.6c0,0,0-0.1,0-0.2L126,58c0-0.1,0-0.1,0.1-0.2c0,0,0.1-0.1,0.2-0.1h2.1c0.1,0,0.2,0.1,0.2,0.2
		L127,70.4c0,0.1,0,0.1-0.1,0.2c0,0-0.1,0.1-0.2,0.1h-2.1C124.6,70.6,124.5,70.6,124.5,70.6z"/>
	<path class="st2" d="M129.6,70c-0.6-0.5-0.8-1.2-0.8-2.1c0-0.1,0-0.3,0-0.5l0.1-0.6c0-0.1,0-0.1,0.1-0.2s0.1-0.1,0.2-0.1h2.1
		c0.1,0,0.1,0,0.1,0.1s0,0.1,0,0.2l-0.1,0.5c0,0,0,0.1,0,0.2c0,0.3,0.1,0.6,0.2,0.8c0.2,0.2,0.4,0.3,0.6,0.3c0.3,0,0.6-0.1,0.8-0.4
		c0.2-0.3,0.3-0.6,0.3-1c0-0.3-0.1-0.6-0.3-0.8c-0.2-0.2-0.6-0.6-1.2-1.1c-0.5-0.4-0.9-0.8-1.2-1.1c-0.3-0.3-0.6-0.7-0.8-1.1
		c-0.2-0.4-0.3-0.9-0.3-1.5c0-0.1,0-0.3,0-0.6c0.1-1,0.5-1.9,1.2-2.5c0.7-0.6,1.6-0.9,2.6-0.9c0.9,0,1.7,0.3,2.3,0.8
		s0.8,1.3,0.8,2.2c0,0.1,0,0.3,0,0.6l-0.1,0.4c0,0.1,0,0.1-0.1,0.2c0,0-0.1,0.1-0.2,0.1h-2c-0.1,0-0.1,0-0.1-0.1s0-0.1,0-0.2
		l0.1-0.5c0,0,0-0.1,0-0.2c0-0.3-0.1-0.6-0.2-0.7s-0.4-0.3-0.6-0.3c-0.3,0-0.5,0.1-0.7,0.3c-0.2,0.2-0.3,0.5-0.4,0.9l0,0.2
		c0,0.3,0.1,0.6,0.3,0.8c0.2,0.3,0.6,0.6,1.1,1.1c0.6,0.5,1.1,0.9,1.4,1.2c0.3,0.3,0.6,0.7,0.8,1c0.2,0.4,0.3,0.8,0.3,1.3
		c0,0.1,0,0.3,0,0.5c-0.1,1.1-0.6,1.9-1.3,2.6c-0.7,0.6-1.6,1-2.6,1C130.9,70.8,130.1,70.5,129.6,70z"/>
	<path class="st2" d="M144.8,70.5l-0.8-5.1c0,0-0.1-0.1-0.1-0.1h-0.6c-0.1,0-0.1,0-0.1,0.1l-0.6,5c0,0.1,0,0.1-0.1,0.2
		c0,0-0.1,0.1-0.2,0.1h-2.1c-0.1,0-0.1,0-0.1-0.1c0,0,0-0.1,0-0.2l1.5-12.5c0-0.1,0-0.1,0.1-0.2c0,0,0.1-0.1,0.2-0.1h3.6
		c0.9,0,1.6,0.3,2.1,0.9c0.5,0.6,0.8,1.4,0.8,2.3c0,0.3,0,0.5,0,0.7c-0.1,0.7-0.3,1.3-0.6,1.9c-0.3,0.6-0.8,1-1.3,1.3c0,0,0,0-0.1,0
		c0,0,0,0,0,0.1l1,5.4v0c0,0.1,0,0.1-0.1,0.2c0,0-0.1,0.1-0.2,0.1H145C144.9,70.6,144.8,70.6,144.8,70.5z M143.9,60.1l-0.4,3.1
		c0,0.1,0,0.1,0.1,0.1h0.8c0.4,0,0.7-0.2,1-0.5c0.3-0.4,0.4-0.8,0.4-1.4c0-0.4-0.1-0.7-0.3-1c-0.2-0.2-0.4-0.3-0.8-0.3L143.9,60.1
		C144,60,143.9,60,143.9,60.1z"/>
</g>
<g>
	<path class="st2" d="M155.9,59.9c0,0-0.1,0.1-0.2,0.1H152c-0.1,0-0.1,0-0.1,0.1l-0.4,2.9c0,0.1,0,0.1,0.1,0.1h2.2
		c0.1,0,0.1,0,0.1,0.1c0,0,0,0.1,0,0.2l-0.2,1.8c0,0.1,0,0.1-0.1,0.2s-0.1,0.1-0.2,0.1h-2.1c-0.1,0-0.1,0-0.1,0.1l-0.3,2.9
		c0,0.1,0,0.1,0.1,0.1h3.7c0.1,0,0.1,0,0.2,0.1s0.1,0.1,0,0.2l-0.2,1.8c0,0.1,0,0.1-0.1,0.2s-0.1,0.1-0.2,0.1h-6.1
		c-0.1,0-0.1,0-0.1-0.1c0,0,0-0.1,0-0.2l1.5-12.4c0-0.1,0-0.1,0.1-0.2c0,0,0.1-0.1,0.2-0.1h6.1c0.1,0,0.1,0,0.1,0.1c0,0,0,0.1,0,0.2
		l-0.2,1.8C156,59.8,156,59.9,155.9,59.9z"/>
	<path class="st2" d="M161.1,70.4l-0.1-1.8c0,0,0,0,0-0.1s0,0-0.1,0h-2.2c-0.1,0-0.1,0-0.1,0.1l-0.5,1.8c0,0.1-0.1,0.2-0.3,0.2h-2.1
		c-0.2,0-0.2-0.1-0.1-0.2l4.1-12.4c0-0.1,0.1-0.2,0.3-0.2h2.4c0.1,0,0.2,0.1,0.2,0.2l1.1,12.4v0c0,0.1-0.1,0.2-0.2,0.2h-2.2
		C161.2,70.6,161.1,70.6,161.1,70.4z M159.4,66.6h1.5c0,0,0.1,0,0.1-0.1l-0.2-4.7c0,0,0-0.1,0-0.1s0,0-0.1,0.1L159.4,66.6
		C159.3,66.5,159.3,66.6,159.4,66.6z"/>
</g>
<g>
	<path class="st2" d="M165.2,70.6c0,0,0-0.1,0-0.2l1.5-12.4c0-0.1,0-0.1,0.1-0.2c0,0,0.1-0.1,0.2-0.1h2.1c0.1,0,0.2,0.1,0.2,0.2
		L168,68.3c0,0.1,0,0.1,0.1,0.1h3.7c0.1,0,0.2,0.1,0.2,0.2l-0.2,1.8c0,0.1,0,0.1-0.1,0.2s-0.1,0.1-0.2,0.1h-6.1
		C165.3,70.6,165.3,70.6,165.2,70.6z"/>
	<path class="st2" d="M173.3,70.3c-0.2-0.3-0.4-0.6-0.4-1c0-0.3,0.1-0.6,0.3-0.9c0.2-0.3,0.4-0.5,0.7-0.7c0.3-0.2,0.5-0.2,0.8-0.2
		c0.4,0,0.7,0.1,0.9,0.4s0.4,0.6,0.4,1c0,0.5-0.2,0.9-0.5,1.2c-0.3,0.4-0.7,0.5-1.2,0.5C173.9,70.7,173.5,70.6,173.3,70.3z"/>
	<path class="st2" d="M183.1,70.4L182.2,58v0c0-0.1,0.1-0.2,0.2-0.2h2.2c0.1,0,0.2,0.1,0.2,0.2l0.2,6.6c0,0,0,0.1,0.1,0.1
		c0,0,0,0,0.1-0.1l1.8-6.6c0-0.1,0.1-0.2,0.3-0.2h1.8c0.1,0,0.2,0.1,0.2,0.2l0.2,6.6c0,0,0,0.1,0,0.1s0.1,0,0.1-0.1l1.7-6.6
		c0-0.1,0.1-0.2,0.3-0.2h2.1c0.1,0,0.2,0.1,0.2,0.2L190,70.4c0,0.1-0.1,0.2-0.3,0.2h-1.9c-0.1,0-0.2-0.1-0.2-0.2l-0.2-6.8
		c0,0,0-0.1,0-0.1s0,0-0.1,0.1l-1.8,6.8c0,0.1-0.1,0.2-0.3,0.2h-1.9C183.2,70.6,183.1,70.6,183.1,70.4z"/>
	<path class="st2" d="M201.2,59.9c0,0-0.1,0.1-0.2,0.1h-3.7c-0.1,0-0.1,0-0.1,0.1l-0.4,2.9c0,0.1,0,0.1,0.1,0.1h2.2
		c0.1,0,0.1,0,0.1,0.1c0,0,0,0.1,0,0.2l-0.2,1.8c0,0.1,0,0.1-0.1,0.2s-0.1,0.1-0.2,0.1h-2.1c-0.1,0-0.1,0-0.1,0.1l-0.3,2.9
		c0,0.1,0,0.1,0.1,0.1h3.7c0.1,0,0.1,0,0.2,0.1s0.1,0.1,0,0.2l-0.2,1.8c0,0.1,0,0.1-0.1,0.2s-0.1,0.1-0.2,0.1h-6.1
		c-0.1,0-0.1,0-0.1-0.1c0,0,0-0.1,0-0.2l1.5-12.4c0-0.1,0-0.1,0.1-0.2c0,0,0.1-0.1,0.2-0.1h6.1c0.1,0,0.1,0,0.1,0.1c0,0,0,0.1,0,0.2
		l-0.2,1.8C201.3,59.8,201.2,59.9,201.2,59.9z"/>
	<path class="st2" d="M205.8,70c-0.6-0.5-0.8-1.3-0.8-2.2c0-0.1,0-0.3,0-0.6l0.7-6c0.1-1.1,0.5-2,1.3-2.6c0.7-0.6,1.6-1,2.7-1
		c1,0,1.8,0.3,2.3,0.8c0.6,0.5,0.8,1.3,0.8,2.2c0,0.1,0,0.3,0,0.6l0,0.2c0,0.1,0,0.1-0.1,0.2c0,0-0.1,0.1-0.2,0.1l-2.1,0.1
		c-0.1,0-0.2-0.1-0.2-0.2l0.1-0.5c0,0,0-0.1,0-0.2c0-0.3-0.1-0.5-0.2-0.7c-0.2-0.2-0.4-0.3-0.7-0.3c-0.3,0-0.6,0.1-0.8,0.3
		s-0.4,0.5-0.4,0.9l-0.8,6.3c0,0,0,0.1,0,0.2c0,0.3,0.1,0.5,0.2,0.7c0.2,0.2,0.4,0.3,0.7,0.3c0.3,0,0.6-0.1,0.8-0.3
		c0.2-0.2,0.4-0.5,0.4-0.9l0.1-0.5c0-0.1,0-0.1,0.1-0.2s0.1-0.1,0.2-0.1l2.1,0.1c0.1,0,0.2,0.1,0.2,0.2l0,0.2
		c-0.1,1.1-0.6,2-1.3,2.6c-0.7,0.7-1.6,1-2.7,1C207.2,70.8,206.4,70.5,205.8,70z"/>
	<path class="st2" d="M218.2,70.4l-0.1-1.8c0,0,0,0,0-0.1s0,0-0.1,0h-2.2c-0.1,0-0.1,0-0.1,0.1l-0.5,1.8c0,0.1-0.1,0.2-0.3,0.2h-2.1
		c-0.2,0-0.2-0.1-0.1-0.2l4.1-12.4c0-0.1,0.1-0.2,0.3-0.2h2.4c0.1,0,0.2,0.1,0.2,0.2l1.1,12.4v0c0,0.1-0.1,0.2-0.2,0.2h-2.2
		C218.3,70.6,218.2,70.6,218.2,70.4z M216.5,66.6h1.5c0,0,0.1,0,0.1-0.1l-0.2-4.7c0,0,0-0.1,0-0.1s0,0-0.1,0.1L216.5,66.6
		C216.4,66.5,216.4,66.6,216.5,66.6z"/>
	<path class="st2" d="M222,70.6c0,0,0-0.1,0-0.2l1.5-12.4c0-0.1,0-0.1,0.1-0.2s0.1-0.1,0.2-0.1h2.2c0.1,0,0.2,0.1,0.2,0.2l1.5,6.9
		c0,0,0,0.1,0,0c0,0,0.1,0,0.1-0.1l0.8-6.8c0-0.1,0-0.1,0.1-0.2s0.1-0.1,0.2-0.1h2.1c0.1,0,0.1,0,0.1,0.1c0,0,0,0.1,0,0.2l-1.5,12.4
		c0,0.1,0,0.1-0.1,0.2c0,0-0.1,0.1-0.2,0.1h-2.3c-0.1,0-0.2-0.1-0.2-0.2l-1.5-6.9c0,0,0-0.1,0-0.1c0,0-0.1,0-0.1,0.1l-0.8,6.9
		c0,0.1,0,0.1-0.1,0.2c0,0-0.1,0.1-0.2,0.1h-2C222.1,70.6,222.1,70.6,222,70.6z"/>
	<path class="st2" d="M240.8,57.8c0,0,0.1-0.1,0.2-0.1h2.1c0.1,0,0.1,0,0.1,0.1c0,0,0,0.1,0,0.2l-1.5,12.4c0,0.1,0,0.1-0.1,0.2
		s-0.1,0.1-0.2,0.1h-2.1c-0.1,0-0.1,0-0.1-0.1c0,0,0-0.1,0-0.2l0.6-5c0-0.1,0-0.1-0.1-0.1H238c-0.1,0-0.1,0-0.1,0.1l-0.6,5
		c0,0.1,0,0.1-0.1,0.2c0,0-0.1,0.1-0.2,0.1h-2.1c-0.1,0-0.1,0-0.1-0.1c0,0,0-0.1,0-0.2l1.5-12.4c0-0.1,0-0.1,0.1-0.2
		c0,0,0.1-0.1,0.2-0.1h2.1c0.1,0,0.2,0.1,0.2,0.2l-0.6,5c0,0.1,0,0.1,0.1,0.1h1.8c0,0,0.1,0,0.1-0.1l0.6-5
		C240.7,57.9,240.8,57.9,240.8,57.8z"/>
	<path class="st2" d="M251.1,59.9c0,0-0.1,0.1-0.2,0.1h-3.7c-0.1,0-0.1,0-0.1,0.1l-0.4,2.9c0,0.1,0,0.1,0.1,0.1h2.2
		c0.1,0,0.1,0,0.1,0.1c0,0,0,0.1,0,0.2l-0.2,1.8c0,0.1,0,0.1-0.1,0.2s-0.1,0.1-0.2,0.1h-2.1c-0.1,0-0.1,0-0.1,0.1l-0.3,2.9
		c0,0.1,0,0.1,0.1,0.1h3.7c0.1,0,0.1,0,0.2,0.1s0.1,0.1,0,0.2l-0.2,1.8c0,0.1,0,0.1-0.1,0.2s-0.1,0.1-0.2,0.1h-6.1
		c-0.1,0-0.1,0-0.1-0.1c0,0,0-0.1,0-0.2l1.5-12.4c0-0.1,0-0.1,0.1-0.2c0,0,0.1-0.1,0.2-0.1h6.1c0.1,0,0.1,0,0.1,0.1c0,0,0,0.1,0,0.2
		l-0.2,1.8C251.1,59.8,251.1,59.9,251.1,59.9z"/>
	<path class="st2" d="M251.2,70.6c0,0,0-0.1,0-0.2l1.5-12.4c0-0.1,0-0.1,0.1-0.2c0,0,0.1-0.1,0.2-0.1h2.1c0.1,0,0.2,0.1,0.2,0.2
		l-1.3,10.3c0,0.1,0,0.1,0.1,0.1h3.7c0.1,0,0.2,0.1,0.2,0.2l-0.2,1.8c0,0.1,0,0.1-0.1,0.2s-0.1,0.1-0.2,0.1h-6.1
		C251.2,70.6,251.2,70.6,251.2,70.6z"/>
	<path class="st2" d="M266.2,58.6c0.5,0.6,0.8,1.4,0.8,2.3c0,0.3,0,0.5,0,0.7c-0.1,1.1-0.5,2.1-1.2,2.7c-0.7,0.7-1.5,1-2.5,1h-1.3
		c0,0-0.1,0-0.1,0.1l-0.6,4.9c0,0.1,0,0.1-0.1,0.2c0,0-0.1,0.1-0.2,0.1h-2.1c-0.1,0-0.1,0-0.1-0.1c0,0,0-0.1,0-0.2l1.5-12.5
		c0-0.1,0-0.1,0.1-0.2s0.1-0.1,0.2-0.1h3.6C265,57.8,265.7,58,266.2,58.6z M264,62.9c0.3-0.4,0.4-0.9,0.4-1.5c0-0.4-0.1-0.8-0.3-1
		c-0.2-0.2-0.5-0.4-0.8-0.4h-0.8c-0.1,0-0.1,0-0.1,0.1l-0.4,3.2c0,0.1,0,0.1,0.1,0.1h0.8C263.4,63.4,263.7,63.2,264,62.9z"/>
	<path class="st2" d="M278.3,59.9c0,0-0.1,0.1-0.2,0.1h-3.7c-0.1,0-0.1,0-0.1,0.1L274,63c0,0.1,0,0.1,0.1,0.1h2.2
		c0.1,0,0.1,0,0.1,0.1c0,0,0,0.1,0,0.2l-0.2,1.8c0,0.1,0,0.1-0.1,0.2s-0.1,0.1-0.2,0.1h-2.1c-0.1,0-0.1,0-0.1,0.1l-0.3,2.9
		c0,0.1,0,0.1,0.1,0.1h3.7c0.1,0,0.1,0,0.2,0.1s0.1,0.1,0,0.2l-0.2,1.8c0,0.1,0,0.1-0.1,0.2s-0.1,0.1-0.2,0.1h-6.1
		c-0.1,0-0.1,0-0.1-0.1c0,0,0-0.1,0-0.2l1.5-12.4c0-0.1,0-0.1,0.1-0.2c0,0,0.1-0.1,0.2-0.1h6.1c0.1,0,0.1,0,0.1,0.1c0,0,0,0.1,0,0.2
		l-0.2,1.8C278.4,59.8,278.4,59.9,278.3,59.9z"/>
	<path class="st2" d="M278.4,70.6c0,0,0-0.1,0-0.2l1.5-12.4c0-0.1,0-0.1,0.1-0.2s0.1-0.1,0.2-0.1h2.2c0.1,0,0.2,0.1,0.2,0.2l1.5,6.9
		c0,0,0,0.1,0,0c0,0,0.1,0,0.1-0.1L285,58c0-0.1,0-0.1,0.1-0.2s0.1-0.1,0.2-0.1h2.1c0.1,0,0.1,0,0.1,0.1c0,0,0,0.1,0,0.2L286,70.4
		c0,0.1,0,0.1-0.1,0.2c0,0-0.1,0.1-0.2,0.1h-2.3c-0.1,0-0.2-0.1-0.2-0.2l-1.5-6.9c0,0,0-0.1,0-0.1c0,0-0.1,0-0.1,0.1l-0.8,6.9
		c0,0.1,0,0.1-0.1,0.2c0,0-0.1,0.1-0.2,0.1h-2C278.5,70.6,278.5,70.6,278.4,70.6z"/>
	<path class="st2" d="M287.6,70.6c0,0,0-0.1,0-0.2l1.5-12.4c0-0.1,0-0.1,0.1-0.2c0,0,0.1-0.1,0.2-0.1h3.2c1,0,1.8,0.3,2.3,0.8
		c0.6,0.5,0.9,1.3,0.9,2.2c0,0.1,0,0.3,0,0.6l-0.7,5.7c-0.1,1.1-0.6,1.9-1.3,2.6s-1.6,1-2.7,1h-3.2
		C287.7,70.6,287.6,70.6,287.6,70.6z M290.4,68.4l0.8,0c0.3,0,0.6-0.2,0.8-0.4c0.2-0.3,0.4-0.6,0.5-1.1l0.7-5.4c0-0.1,0-0.2,0-0.3
		c0-0.4-0.1-0.7-0.2-0.9c-0.2-0.2-0.4-0.3-0.7-0.3h-0.8c-0.1,0-0.1,0-0.1,0.1L290.4,68.4C290.3,68.4,290.3,68.4,290.4,68.4z"/>
	<path class="st2" d="M299.7,70.6c0,0,0-0.1,0-0.2l1.5-12.4c0-0.1,0-0.1,0.1-0.2c0,0,0.1-0.1,0.2-0.1h2.1c0.1,0,0.2,0.1,0.2,0.2
		l-1.5,12.4c0,0.1,0,0.1-0.1,0.2c0,0-0.1,0.1-0.2,0.1h-2.1C299.8,70.6,299.7,70.6,299.7,70.6z"/>
</g>
<g>
	<path class="st2" d="M312.2,57.8c0,0,0,0.1,0,0.2l-0.2,1.8c0,0.1,0,0.1-0.1,0.2c0,0-0.1,0.1-0.2,0.1h-2.2c0,0,0,0-0.1,0
		c0,0,0,0,0,0.1l-1.3,10.3c0,0.1,0,0.1-0.1,0.2s-0.1,0.1-0.2,0.1h-2.1c-0.1,0-0.1,0-0.1-0.1c0,0,0-0.1,0-0.2l1.3-10.3
		c0-0.1,0-0.1-0.1-0.1h-2.1c-0.1,0-0.2-0.1-0.2-0.2l0.2-1.8c0-0.1,0-0.1,0.1-0.2s0.1-0.1,0.2-0.1h7.1
		C312.2,57.8,312.2,57.8,312.2,57.8z"/>
	<path class="st2" d="M312.5,70.3c-0.2-0.3-0.4-0.6-0.4-1c0-0.3,0.1-0.6,0.3-0.9c0.2-0.3,0.4-0.5,0.7-0.7c0.3-0.2,0.5-0.2,0.8-0.2
		c0.4,0,0.7,0.1,0.9,0.4s0.4,0.6,0.4,1c0,0.5-0.2,0.9-0.5,1.2c-0.3,0.4-0.7,0.5-1.2,0.5C313,70.7,312.7,70.6,312.5,70.3z"/>
</g>
</svg>
