<svg id="Layer_1" data-name="Layer 1" xmlns="http://www.w3.org/2000/svg" viewBox="0 0 402 185.1"><defs><style>.cls-1{fill:#1a0a29;}.cls-2{fill:#42ebb5;}.cls-3{fill:#fff;}</style></defs><title>soh-logo_alt-dark-bg</title><rect class="cls-1" width="402" height="185.11"/><path class="cls-2" d="M273.1,84.3H135.7a4,4,0,0,1-4.1-4.5l3.5-28a4.1,4.1,0,0,1,4-3.6H276.6a4.1,4.1,0,0,1,4,4.6l-3.5,28a3.9,3.9,0,0,1-4,3.5"/><path class="cls-3" d="M266,136.8H129.6a4.3,4.3,0,0,1-4.2-4.8l4.5-36.2a4.1,4.1,0,0,1,4.1-3.7H270.5a4.2,4.2,0,0,1,4.2,4.7l-4.5,36.3a4.3,4.3,0,0,1-4.2,3.7"/><path class="cls-1" d="M143.8,77.1a5.3,5.3,0,0,1-1.5-3.9v-.9l.2-1.1a.4.4,0,0,1,.1-.3h4.2c.1,0,.2,0,.2.1a.4.4,0,0,1,.1.3v1.3a2,2,0,0,0,.4,1.4,1.7,1.7,0,0,0,1.2.5,1.9,1.9,0,0,0,1.5-.7,2.9,2.9,0,0,0,.6-1.9,2,2,0,0,0-.6-1.5,11.3,11.3,0,0,0-2.2-2.1l-2.2-1.9a8,8,0,0,1-1.5-2.1,6.1,6.1,0,0,1-.6-2.8c0-.2.1-.5.1-1a7.1,7.1,0,0,1,2.3-4.7,7.5,7.5,0,0,1,4.9-1.7,5.7,5.7,0,0,1,4.2,1.5,5.4,5.4,0,0,1,1.6,4c0,.2-.1.6-.1,1.1v.8c0,.1-.1.2-.1.3H152a.4.4,0,0,1-.1-.3V60a2.1,2.1,0,0,0-.4-1.4,1.7,1.7,0,0,0-1.2-.5,1.8,1.8,0,0,0-1.4.6,2.9,2.9,0,0,0-.7,1.7v.4a3,3,0,0,0,.5,1.6,21.8,21.8,0,0,0,2.1,2l2.6,2.3a7.7,7.7,0,0,1,1.4,1.9,4.7,4.7,0,0,1,.5,2.4v1a7.5,7.5,0,0,1-2.5,4.8,6.9,6.9,0,0,1-4.9,1.8,6,6,0,0,1-4.2-1.5"/><path class="cls-1" d="M160.1,77.9l-1.6-23.2h0a.4.4,0,0,1,.4-.4h4a.4.4,0,0,1,.4.4l.4,12.4h.2l3.3-12.4a.7.7,0,0,1,.5-.4h3.4a.4.4,0,0,1,.4.4l.4,12.4h.2l3.2-12.4c.1-.2.2-.4.5-.4h4c.2,0,.3.2.3.5L173,77.9c-.1.3-.2.4-.5.4h-3.6c-.3,0-.4-.1-.4-.4l-.4-12.7c0-.1,0-.1-.1-.1a.1.1,0,0,0-.1.1l-3.3,12.7a.5.5,0,0,1-.5.4h-3.6a.4.4,0,0,1-.4-.4"/><path class="cls-1" d="M179.4,78.2v-.3l2.8-23.2c.1-.2.1-.3.2-.3l.3-.2h3.9c.2,0,.3.2.3.5l-2.8,23.2-.2.3h-4.5"/><path class="cls-1" d="M196.9,63.8a4.3,4.3,0,0,0,.8-2.9,3,3,0,0,0-.5-1.8,1.7,1.7,0,0,0-1.5-.7h-1.4c-.2,0-.2.1-.2.2l-.8,6a.2.2,0,0,0,.2.2h1.4a2.6,2.6,0,0,0,2-1m4.1-7.9a6.1,6.1,0,0,1,1.5,4.3c0,.6-.1,1-.1,1.3a8.1,8.1,0,0,1-2.3,5.1,6.3,6.3,0,0,1-4.6,2h-2.7l-1.1,9.2-.2.3h-4.4a.4.4,0,0,1-.1-.3l2.9-23.3a.4.4,0,0,1,.1-.3h7a5.1,5.1,0,0,1,4,1.7"/><path class="cls-1" d="M217.1,58.3h-7.3a.2.2,0,0,0-.2.2l-.7,5.4a.2.2,0,0,0,.2.2h4.3c0,.1.1.2,0,.3l-.4,3.3c0,.1-.1.2-.1.3h-4.3c-.2,0-.2.1-.2.2l-.7,5.5h7.1l.3.2c.1,0,.1.1.1.3l-.4,3.3-.2.3h-12a.4.4,0,0,1-.1-.3l2.9-23.2a.4.4,0,0,1,.1-.3l.3-.2h11.5l.3.2v.3l-.4,3.3c0,.1-.1.2-.1.3"/><path class="cls-2" d="M264,120.3H135.1a.8.8,0,0,1-.9-1l1.2-9.9a.9.9,0,0,1,.9-.8H265.2a.9.9,0,0,1,.9,1l-1.2,9.9a.8.8,0,0,1-.9.8"/><path class="cls-1" d="M235.4,73.7a3,3,0,0,0,.8-1.7l1.4-11.4v-.4a2.1,2.1,0,0,0-.5-1.5,1.5,1.5,0,0,0-1.3-.6,1.8,1.8,0,0,0-1.5.7,2.5,2.5,0,0,0-.8,1.8L232.1,72c0,.1-.1.2-.1.4a2.5,2.5,0,0,0,.5,1.5,1.9,1.9,0,0,0,1.3.5,2,2,0,0,0,1.6-.7M228.9,77a5.7,5.7,0,0,1-1.6-4.1c0-.3.1-.6.1-1.1l1.3-11a8,8,0,0,1,2.5-5,7.6,7.6,0,0,1,5.1-1.8,6.2,6.2,0,0,1,4.4,1.5,6.3,6.3,0,0,1,1.5,5.3l-1.3,11a7.7,7.7,0,0,1-2.4,4.9,7.3,7.3,0,0,1-5.2,1.9,6,6,0,0,1-4.4-1.6"/><path class="cls-1" d="M244.9,77a6.1,6.1,0,0,1-1.5-4.3V71.5l2.1-16.8c0-.2.1-.3.2-.3s.1-.2.3-.2h3.8c.3,0,.4.2.4.5l-2.1,17.2v.5a2.4,2.4,0,0,0,.4,1.5,1.7,1.7,0,0,0,1.2.5,1.8,1.8,0,0,0,1.5-.7,3,3,0,0,0,.7-1.8L254,54.7c.1-.2.1-.3.2-.3l.3-.2h3.9l.3.2s.1.1,0,.3l-2,16.8a8.3,8.3,0,0,1-2.5,5.1,6.9,6.9,0,0,1-5,2,6.1,6.1,0,0,1-4.3-1.6"/><path class="cls-1" d="M274.9,54.4s.1.1,0,.3l-.4,3.3c0,.1-.1.2-.1.3h-4.5c-.1,0-.1,0-.1.1s-.1,0-.1.1l-2.4,19.3a.4.4,0,0,1-.1.3h-4.5a.4.4,0,0,1-.1-.3L265,58.6c0-.1,0-.2-.1-.2h-4c-.3,0-.4-.1-.4-.4l.4-3.3c0-.2.1-.3.2-.3s.1-.2.3-.2h13.2l.3.2"/><path class="cls-1" d="M155.1,99.6l.4-.2h4.9l.3.2a.4.4,0,0,1,.1.3L157.2,129c0,.2,0,.3-.1.4h-5.7c-.1-.1-.1-.2-.1-.4l1.5-11.7c0-.2,0-.2-.2-.2h-4.1c-.2,0-.3,0-.3.2L146.8,129a.5.5,0,0,1-.2.4H141c-.1-.1-.1-.2-.1-.4l3.6-29.1c0-.1.1-.2.2-.3l.3-.2h4.9a.5.5,0,0,1,.5.5l-1.5,11.7c0,.2.1.3.2.3h4.1c.2,0,.2-.1.3-.3l1.4-11.7c0-.1.1-.2.2-.3"/><path class="cls-1" d="M163.7,127.9a7.5,7.5,0,0,1-2-5.4,5.8,5.8,0,0,1,.1-1.5l2.6-21.1c0-.1.1-.2.2-.3l.3-.2h4.9a.5.5,0,0,1,.5.5l-2.7,21.7v.6a3.5,3.5,0,0,0,.5,1.8,2.1,2.1,0,0,0,1.5.7,2.3,2.3,0,0,0,1.9-.9,4,4,0,0,0,.9-2.2l2.7-21.7c0-.1,0-.2.2-.3l.3-.2h4.9l.4.2a.4.4,0,0,1,.1.3L178.4,121a10,10,0,0,1-3.1,6.4,8.5,8.5,0,0,1-6.3,2.5,7.2,7.2,0,0,1-5.3-2"/><path class="cls-1" d="M180.8,129.4c-.1-.1-.1-.2-.1-.4l3.6-29.1c0-.1.1-.2.2-.3l.4-.2h5.2c.3,0,.4.2.5.4l3.4,16.1h.3l1.9-16,.2-.3.4-.2h4.8l.3.2c.1.1.2.2.1.3L198.5,129c-.1.2-.1.3-.2.4h-5.7c-.3,0-.4-.1-.5-.4L188.7,113c0-.1,0-.2-.1-.2s-.1.1-.2.2l-1.9,16a.5.5,0,0,1-.2.4h-5.5"/><path class="cls-1" d="M204.5,128a6.5,6.5,0,0,1-1.9-5v-1.3l1.8-14.5a8.9,8.9,0,0,1,3-5.9,9.1,9.1,0,0,1,6.3-2.2,7.7,7.7,0,0,1,5.4,1.8,6.6,6.6,0,0,1,2,5.1v1.2l-.2,1.7-.2.3-.4.2h-4.9c-.1,0-.2,0-.3-.2a.4.4,0,0,1-.1-.3l.2-1.7v-.6a3.1,3.1,0,0,0-.5-1.7,2.1,2.1,0,0,0-1.6-.6,2.5,2.5,0,0,0-1.9.8,3.4,3.4,0,0,0-.9,2.1l-1.8,14.6a2.9,2.9,0,0,0,.4,2.1,2,2,0,0,0,1.7.8,2.5,2.5,0,0,0,1.8-.8,3.2,3.2,0,0,0,1-2.1l.4-3.5c0-.1,0-.2-.1-.2h-2.2c-.1-.1-.2-.2-.1-.4l.4-3.8a.5.5,0,0,1,.2-.4h7.8c.3,0,.5.1.5.5l-1,7.9a9.1,9.1,0,0,1-3,6,9.8,9.8,0,0,1-6.3,2.2,7.5,7.5,0,0,1-5.5-1.9"/><path class="cls-1" d="M239.7,104.5h-9.1l-.2.2-.9,6.8c0,.2.1.3.2.3h5.4c.1.1.1.2.1.4l-.6,4.1c0,.2,0,.3-.1.4l-.4.2h-5c-.2,0-.3,0-.3.2l-.8,6.8c0,.2,0,.2.2.2h8.7l.4.2a.4.4,0,0,1,.1.3l-.6,4.2a.5.5,0,0,1-.2.4h-15c-.1-.1-.1-.2-.1-.4l3.6-29.1c0-.1.1-.2.2-.3l.4-.2H240l.3.2a.4.4,0,0,1,.1.3l-.5,4.2a.5.5,0,0,1-.2.4"/><path class="cls-1" d="M248.7,104.8l-.9,7.4c-.1.1,0,.2.1.2h1.9a2.9,2.9,0,0,0,2.4-1.3,5.1,5.1,0,0,0,1-3.4,3.9,3.9,0,0,0-.6-2.3,2.5,2.5,0,0,0-1.8-.8h-1.9c-.2,0-.2.1-.2.2m2,24.3L249,117.2h-1.6c-.2,0-.3,0-.3.2L245.7,129a.5.5,0,0,1-.2.4h-5.6c-.1-.1-.1-.2-.1-.4l3.6-29.1a.5.5,0,0,1,.2-.4h8.8a6.3,6.3,0,0,1,4.9,2,7.7,7.7,0,0,1,1.9,5.5c0,.6-.1,1.2-.1,1.6a11,11,0,0,1-1.5,4.4,9.9,9.9,0,0,1-3,3.1h-.1l2.3,12.7h0a.5.5,0,0,1-.2.4h-5.3a.5.5,0,0,1-.6-.4"/></svg>