<?xml version="1.0" encoding="utf-8"?>
<!-- Generator: Adobe Illustrator 22.1.0, SVG Export Plug-In . SVG Version: 6.00 Build 0)  -->
<svg version="1.1" id="Layer_1" xmlns="http://www.w3.org/2000/svg" xmlns:xlink="http://www.w3.org/1999/xlink" x="0px" y="0px"
	 viewBox="0 0 148.6 58.7" style="enable-background:new 0 0 148.6 58.7;" xml:space="preserve">
<style type="text/css">
	.st0{fill:#0017A8;}
	.st1{fill:#FA4000;}
	.st2{fill:#1A0A29;}
	.st3{fill:#529ED6;}
	.st4{fill:#FFFFFF;}
</style>
<g>
	<path class="st0" d="M46.6,43.4H3.6c-2,0-3.6-1.8-3.3-3.8L4.8,3C5,1.3,6.4,0,8.1,0h42.9c2,0,3.6,1.8,3.3,3.8l-4.5,36.7
		C49.7,42.1,48.3,43.4,46.6,43.4"/>
</g>
<g>
	<path class="st1" d="M11.3,35.2c-1.3-1.3-2-3.1-2-5.4c0-0.7,0-1.2,0.1-1.6L12,7.1c0-0.1,0.1-0.3,0.2-0.4c0.1-0.1,0.2-0.2,0.4-0.2
		h4.9c0.3,0,0.5,0.2,0.5,0.5l-2.7,21.7c0,0.1,0,0.3,0,0.6c0,0.7,0.2,1.4,0.6,1.8c0.4,0.5,0.9,0.7,1.5,0.7c0.7,0,1.3-0.3,1.8-0.9
		c0.5-0.6,0.8-1.3,0.9-2.2l2.7-21.7c0-0.1,0.1-0.3,0.2-0.4c0.1-0.1,0.2-0.2,0.4-0.2h4.9c0.1,0,0.3,0.1,0.3,0.2
		c0.1,0.1,0.1,0.2,0.1,0.4L26,28.2c-0.3,2.7-1.3,4.9-3.1,6.5c-1.7,1.6-3.8,2.4-6.3,2.4C14.3,37.2,12.6,36.5,11.3,35.2z"/>
	<path class="st1" d="M46.8,11.7c-0.1,0.1-0.2,0.2-0.4,0.2h-8.7c-0.1,0-0.2,0.1-0.2,0.2l-0.9,6.8c0,0.1,0.1,0.2,0.2,0.2h5
		c0.1,0,0.3,0.1,0.3,0.2c0.1,0.1,0.1,0.2,0.1,0.4l-0.5,4.2c0,0.1-0.1,0.3-0.2,0.4c-0.1,0.1-0.2,0.2-0.4,0.2h-5
		c-0.2,0-0.3,0.1-0.3,0.2l-1.4,11.8c0,0.1-0.1,0.3-0.2,0.4c-0.1,0.1-0.2,0.2-0.4,0.2H29c-0.1,0-0.3,0-0.3-0.2
		c-0.1-0.1-0.1-0.2-0.1-0.4l3.6-29.2c0-0.1,0.1-0.3,0.2-0.4c0.1-0.1,0.2-0.2,0.4-0.2h14.3c0.1,0,0.3,0.1,0.3,0.2
		c0.1,0.1,0.1,0.2,0.1,0.4L47,11.3C47,11.4,46.9,11.6,46.8,11.7z"/>
</g>
<g>
	<path class="st2" d="M6.1,56.2H2C2,56.6,2.2,56.9,2.4,57s0.5,0.3,0.8,0.3c0.3,0,0.5-0.1,0.7-0.2c0.2-0.1,0.3-0.3,0.4-0.5L6,57.2
		c-0.2,0.5-0.5,0.9-1,1.2c-0.5,0.3-1.1,0.4-1.8,0.4c-1,0-1.8-0.3-2.4-0.8C0.3,57.4,0,56.6,0,55.6s0.3-1.8,0.8-2.3s1.3-0.8,2.3-0.8
		c1,0,1.7,0.3,2.2,0.8c0.5,0.5,0.8,1.3,0.8,2.2C6.1,55.8,6.1,56,6.1,56.2z M2,55.1h2.3c-0.1-0.8-0.5-1.2-1.1-1.2
		C2.5,53.9,2.1,54.3,2,55.1z"/>
	<path class="st2" d="M11.2,58.6l-1.2-2.1l-1.2,2.1H6.6l2.2-3l-2.1-3H9l1.1,2l1.1-2h2.3l-2.1,3l2.1,3H11.2z"/>
</g>
<g>
	<path class="st2" d="M16,56.8c0.2,0.2,0.3,0.5,0.3,0.8c0,0.3-0.1,0.6-0.3,0.8c-0.2,0.2-0.5,0.3-0.9,0.3s-0.7-0.1-0.9-0.3
		c-0.2-0.2-0.3-0.5-0.3-0.8c0-0.3,0.1-0.6,0.3-0.8c0.2-0.2,0.5-0.3,0.9-0.3S15.8,56.6,16,56.8z"/>
</g>
<g>
	<path class="st3" d="M140.4,44.7H74.8c-2.1,0-3.7-1.8-3.4-3.9L76,3c0.2-1.7,1.7-3,3.4-3h65.6c2.1,0,3.7,1.8,3.4,3.9l-4.6,37.8
		C143.7,43.4,142.2,44.7,140.4,44.7"/>
</g>
<g>
	<path class="st4" d="M82.7,36.2c-1.4-1.4-2-3.2-2-5.5c0-0.7,0-1.2,0.1-1.6l2.7-21.8c0-0.1,0.1-0.3,0.2-0.4c0.1-0.1,0.2-0.2,0.4-0.2
		h5c0.3,0,0.5,0.2,0.5,0.5l-2.8,22.4c0,0.1,0,0.4,0,0.6c0,0.8,0.2,1.4,0.6,1.9s0.9,0.7,1.6,0.7c0.7,0,1.4-0.3,1.9-0.9
		c0.5-0.6,0.8-1.4,1-2.3l2.8-22.4c0-0.1,0.1-0.3,0.2-0.4c0.1-0.1,0.2-0.2,0.4-0.2h5.1c0.1,0,0.3,0.1,0.4,0.2
		c0.1,0.1,0.1,0.2,0.1,0.4l-2.7,21.8c-0.3,2.8-1.4,5-3.2,6.7c-1.8,1.7-4,2.5-6.5,2.5C85.9,38.3,84.1,37.6,82.7,36.2z"/>
	<path class="st4" d="M100.7,37.8c-0.1-0.1-0.1-0.2-0.1-0.4l3.7-30.1c0-0.1,0.1-0.3,0.2-0.4c0.1-0.1,0.2-0.2,0.4-0.2h5.4
		c0.3,0,0.4,0.1,0.5,0.4l3.6,16.6c0,0.1,0,0.1,0.1,0.1c0.1,0,0.1-0.1,0.2-0.2l2-16.5c0-0.1,0.1-0.3,0.2-0.4c0.1-0.1,0.2-0.2,0.4-0.2
		h5c0.1,0,0.3,0.1,0.4,0.2c0.1,0.1,0.1,0.2,0.1,0.4L119,37.4c0,0.1-0.1,0.3-0.2,0.4c-0.1,0.1-0.2,0.2-0.4,0.2h-5.5
		c-0.3,0-0.5-0.1-0.5-0.4l-3.5-16.7c0-0.1,0-0.1-0.1-0.1c-0.1,0-0.1,0-0.2,0.1l-2,16.6c0,0.1-0.1,0.3-0.2,0.4
		c-0.1,0.1-0.3,0.2-0.4,0.2h-4.9C100.9,38,100.8,37.9,100.7,37.8z"/>
</g>
<g>
	<path class="st4" d="M125.3,36.3c-1.4-1.3-2-3.1-2-5.4c0-0.3,0-0.8,0.1-1.4l1.8-14.4c0.3-2.6,1.3-4.7,3.1-6.3
		c1.8-1.6,4-2.4,6.6-2.4c2.4,0,4.2,0.7,5.6,2c1.4,1.3,2,3.1,2,5.4c0,0.3,0,0.7-0.1,1.3l-0.1,0.5c0,0.1-0.1,0.3-0.2,0.4
		c-0.1,0.1-0.2,0.2-0.4,0.2l-5.1,0.2c-0.3,0-0.5-0.2-0.4-0.5l0.1-1.2c0-0.1,0-0.3,0-0.5c0-0.7-0.2-1.3-0.6-1.7
		c-0.4-0.4-0.9-0.6-1.6-0.6c-0.7,0-1.4,0.3-1.9,0.8s-0.9,1.2-1,2.1l-1.9,15.4c0,0.1,0,0.3,0,0.5c0,0.7,0.2,1.3,0.6,1.7
		c0.4,0.4,0.9,0.6,1.6,0.6c0.8,0,1.4-0.3,2-0.8s0.9-1.2,1-2.1l0.1-1.2c0-0.1,0.1-0.3,0.2-0.4c0.1-0.1,0.2-0.2,0.4-0.2l5,0.2
		c0.4,0,0.5,0.2,0.4,0.5l0,0.5c-0.3,2.7-1.4,4.8-3.2,6.4c-1.8,1.6-4,2.4-6.5,2.4C128.5,38.3,126.6,37.7,125.3,36.3z"/>
</g>
</svg>
