<svg id="Layer_1" data-name="Layer 1" xmlns="http://www.w3.org/2000/svg" viewBox="0 0 301.5 207"><defs><style>.cls-1{fill:#1a0a29;}.cls-2{fill:#42ebb5;}.cls-3{fill:#fff;}.cls-4{fill:#ff2e66;}</style></defs><title>soh-logo_dark-bg</title><rect class="cls-1" width="301.5" height="206.98"/><path class="cls-2" d="M220.9,95.2H83.4a4,4,0,0,1-4-4.5l3.4-28a4.1,4.1,0,0,1,4.1-3.5H224.3a4,4,0,0,1,4,4.5l-3.4,28a4.1,4.1,0,0,1-4,3.5"/><path class="cls-3" d="M213.8,147.7H77.3a4.2,4.2,0,0,1-4.2-4.7l4.5-36.3a4.3,4.3,0,0,1,4.2-3.7H218.2a4.2,4.2,0,0,1,4.2,4.7L218,144a4.3,4.3,0,0,1-4.2,3.7"/><path class="cls-1" d="M91.6,88A5,5,0,0,1,90,84.1a3.4,3.4,0,0,1,.1-.9V82.1l.2-.3h4.4a.4.4,0,0,1,.1.3V83c-.1.1-.1.2-.1.4a2,2,0,0,0,.5,1.4c.2.4.6.5,1.1.5a1.8,1.8,0,0,0,1.5-.7,2.4,2.4,0,0,0,.7-1.8,2.5,2.5,0,0,0-.6-1.6,27.9,27.9,0,0,0-2.2-2l-2.3-2A11,11,0,0,1,92,75.1a6,6,0,0,1-.6-2.7,4.9,4.9,0,0,1,.1-1.1,7,7,0,0,1,7.1-6.4,6.1,6.1,0,0,1,4.3,1.5,6.1,6.1,0,0,1,1.4,5.1v.8a.4.4,0,0,1-.1.3H99.7a.4.4,0,0,1-.1-.3v-.9c.1-.1.1-.2.1-.5a1.9,1.9,0,0,0-.5-1.3,1.3,1.3,0,0,0-1.2-.5,1.6,1.6,0,0,0-1.3.6,2.6,2.6,0,0,0-.7,1.6v.4a2.5,2.5,0,0,0,.6,1.6,13.9,13.9,0,0,0,2.1,2l2.6,2.3a9,9,0,0,1,1.4,2,5.9,5.9,0,0,1,.5,2.3,4.1,4.1,0,0,1-.1,1,7,7,0,0,1-2.4,4.8,7.1,7.1,0,0,1-4.9,1.8A5.7,5.7,0,0,1,91.6,88"/><path class="cls-1" d="M107.9,88.9l-1.7-23.3h0a.4.4,0,0,1,.4-.4h4.1c.3,0,.4.1.4.4l.4,12.3c0,.1,0,.2.1.2v-.2L115,65.6c.1-.3.2-.4.5-.4h3.3c.3,0,.4.1.4.4l.5,12.3c0,.1,0,.2.1.2v-.2l3.2-12.3c0-.3.2-.4.5-.4h3.9c.3,0,.4.1.3.4l-7.1,23.3c0,.2-.2.3-.4.3h-3.7a.3.3,0,0,1-.3-.3l-.4-12.8h-.2l-3.4,12.8a.5.5,0,0,1-.5.3h-3.5c-.3,0-.4-.1-.4-.3"/><path class="cls-1" d="M127.2,89.1a.4.4,0,0,1-.1-.3L130,65.6c0-.1.1-.2.1-.3h4.2c.3,0,.4.1.4.4l-2.9,23.2a.4.4,0,0,1-.1.3h-4.5"/><path class="cls-1" d="M144.7,74.7a4.7,4.7,0,0,0,.8-2.8,2.9,2.9,0,0,0-.6-1.9,1.7,1.7,0,0,0-1.4-.7H142a.2.2,0,0,0-.2.2l-.7,6.1c0,.1,0,.1.1.1h1.5a2.3,2.3,0,0,0,2-1m4.1-7.9a6.6,6.6,0,0,1,1.4,4.4v1.3a9.3,9.3,0,0,1-2.3,5.1,6.3,6.3,0,0,1-4.7,1.9h-2.4a.2.2,0,0,0-.2.2l-1.1,9.1-.2.3h-4.5c0-.1-.1-.2,0-.3l2.8-23.2c0-.2.1-.3.2-.3s.1-.2.3-.2h6.7a5.1,5.1,0,0,1,4,1.7"/><path class="cls-1" d="M164.8,69.2h-7.3c-.1,0-.1.1-.1.2l-.7,5.4c0,.2,0,.2.1.2h4.3a.4.4,0,0,1,.1.3l-.4,3.4-.2.2-.3.2h-4c-.1,0-.2,0-.2.1l-.6,5.5c-.1.1,0,.2.1.2h7c.1,0,.2,0,.2.1s.2.2.1.3l-.4,3.3c0,.1-.1.2-.1.3H150.6c-.1,0-.2,0-.2-.1a.4.4,0,0,1-.1-.3l2.8-23.2.2-.3h12a.4.4,0,0,1,.1.3l-.4,3.3-.2.3"/><path class="cls-4" d="M211.8,131.3H82.8a1,1,0,0,1-.9-1l1.3-10a.9.9,0,0,1,.9-.8H213a1,1,0,0,1,.9,1.1l-1.2,9.9a1.1,1.1,0,0,1-.9.8"/><path class="cls-1" d="M183.1,84.7a3,3,0,0,0,.8-1.8l1.4-11.4c0-.1.1-.2.1-.4a2.5,2.5,0,0,0-.5-1.5,1.5,1.5,0,0,0-1.3-.5,2.3,2.3,0,0,0-1.6.6,3.7,3.7,0,0,0-.8,1.8l-1.4,11.4v.4a2.5,2.5,0,0,0,.5,1.5,1.3,1.3,0,0,0,1.2.5,2.1,2.1,0,0,0,1.6-.6M176.7,88a6.3,6.3,0,0,1-1.5-5.3l1.3-11a7.4,7.4,0,0,1,2.4-4.9,7.3,7.3,0,0,1,5.2-1.9,6.3,6.3,0,0,1,4.4,1.5,5.7,5.7,0,0,1,1.6,4.2c0,.2-.1.6-.1,1.1l-1.3,11a8,8,0,0,1-2.5,5,7.6,7.6,0,0,1-5.1,1.8,6,6,0,0,1-4.4-1.5"/><path class="cls-1" d="M192.7,87.9a6.1,6.1,0,0,1-1.6-4.3c0-.5.1-.9.1-1.2l2.1-16.8a.4.4,0,0,1,.1-.3h4.2a.4.4,0,0,1,.4.4l-2.2,17.3v.5a2.2,2.2,0,0,0,.5,1.4,1.3,1.3,0,0,0,1.2.5,2,2,0,0,0,1.4-.6,3.7,3.7,0,0,0,.8-1.8l2.1-17.3c0-.1.1-.2.1-.3h4.5a.4.4,0,0,1,.1.3l-2.1,16.8a7.9,7.9,0,0,1-2.4,5.2,7.2,7.2,0,0,1-5.1,1.9,5.5,5.5,0,0,1-4.2-1.6"/><path class="cls-1" d="M222.6,65.3a.4.4,0,0,1,.1.3l-.4,3.3-.2.3h-4.6l-2.4,19.3c0,.1-.1.2-.2.3s-.1.1-.3.1h-4.2v-.3l2.3-19.3c.1-.1,0-.2-.1-.2h-4a.4.4,0,0,1-.4-.4l.5-3.3a.4.4,0,0,1,.1-.3h13.8"/><path class="cls-1" d="M102.9,110.5h5.6c.1.1.1.2.1.4L105,140l-.2.3-.4.2H99.5l-.3-.2a.4.4,0,0,1-.1-.3l1.5-11.8-.2-.2H96.2c-.2,0-.2.1-.2.2L94.5,140l-.2.3-.4.2H89.1l-.4-.2a.4.4,0,0,1-.1-.3l3.6-29.1a.5.5,0,0,1,.2-.4h5.2c.4,0,.5.1.5.5l-1.4,11.7c0,.1,0,.2.1.2H101l.3-.2,1.4-11.7a.5.5,0,0,1,.2-.4"/><path class="cls-1" d="M111.4,138.8a9,9,0,0,1-1.8-6.9l2.5-21,.2-.4h5.3c.3,0,.4.1.4.5l-2.6,21.6a1.3,1.3,0,0,0-.1.6,2.4,2.4,0,0,0,.6,1.8,1.8,1.8,0,0,0,1.5.7,2.3,2.3,0,0,0,1.8-.9,3.7,3.7,0,0,0,.9-2.2l2.7-21.6a.5.5,0,0,1,.2-.4h5.6c.1.1.1.2.1.4l-2.6,21a10.2,10.2,0,0,1-3,6.5,9.3,9.3,0,0,1-6.4,2.4,7.2,7.2,0,0,1-5.3-2"/><path class="cls-1" d="M128.6,140.3a.4.4,0,0,1-.1-.3l3.6-29.1a.5.5,0,0,1,.2-.4h5.6a.4.4,0,0,1,.4.4l3.5,16.1h.1c.1,0,.1-.1.1-.2l2-15.9a.5.5,0,0,1,.2-.4h5.5c.1.1.1.2.1.4L146.2,140l-.2.3-.3.2h-5.3a.6.6,0,0,1-.6-.5l-3.4-16.1c0-.1,0-.1-.1-.1a.1.1,0,0,0-.1.1L134.3,140l-.2.3-.4.2h-4.8l-.3-.2"/><path class="cls-1" d="M152.3,139a7.5,7.5,0,0,1-1.9-6.3l1.8-14.6a8.6,8.6,0,0,1,2.9-5.9,9.6,9.6,0,0,1,6.4-2.2,7.3,7.3,0,0,1,5.4,1.9,6.5,6.5,0,0,1,2,5,7.2,7.2,0,0,1-.1,1.3l-.2,1.6a.5.5,0,0,1-.2.4h-5.6c-.1-.1-.1-.2-.1-.4l.3-1.7v-.5a2.4,2.4,0,0,0-.6-1.7,1.9,1.9,0,0,0-1.6-.7,2.5,2.5,0,0,0-1.8.8,4.1,4.1,0,0,0-1,2.1l-1.8,14.6a3.3,3.3,0,0,0,.5,2.1,1.8,1.8,0,0,0,1.6.8,2.6,2.6,0,0,0,1.9-.8,3.4,3.4,0,0,0,.9-2.1l.5-3.4c0-.2-.1-.2-.2-.2h-1.8l-.4-.2a.4.4,0,0,1-.1-.3l.5-3.9c0-.1.1-.2.2-.3a.5.5,0,0,1,.4-.2h7.4c.3,0,.4.2.4.5l-1,8a8.5,8.5,0,0,1-3,5.9,9.1,9.1,0,0,1-6.3,2.2,7.7,7.7,0,0,1-5.4-1.8"/><path class="cls-1" d="M187.5,115.4l-.4.2h-8.7c-.2,0-.3,0-.3.2l-.8,6.8c0,.1,0,.2.2.2h5.3a.6.6,0,0,1,.1.4l-.5,4.2-.2.3-.4.2h-4.9c-.2,0-.3.1-.3.2l-.8,6.8c-.1.2,0,.3.1.3H185c.1.1.1.2.1.4l-.5,4.2-.2.3-.4.2H169.7l-.3-.2c-.1-.1-.2-.2-.1-.3l3.5-29.1c.1-.2.1-.3.2-.4h15.1c.1.1.1.2.1.4l-.6,4.1c0,.2,0,.3-.1.4"/><path class="cls-1" d="M196.4,115.8l-.9,7.3c0,.1,0,.2.2.2h1.9A3,3,0,0,0,200,122a4.8,4.8,0,0,0,1-3.3,3.2,3.2,0,0,0-.7-2.3,1.9,1.9,0,0,0-1.8-.8h-1.9c-.1,0-.2,0-.2.2m2.1,24.2-1.8-11.8-.2-.2h-1.4l-.2.2L193.5,140l-.3.3-.3.2H188l-.4-.2c0-.1-.1-.2,0-.3l3.5-29.2.2-.3.4-.2h8.4a6.3,6.3,0,0,1,5,2.1,7.7,7.7,0,0,1,1.8,5.4,7.1,7.1,0,0,1-.1,1.6,10.4,10.4,0,0,1-1.4,4.4,8.9,8.9,0,0,1-3,3.1h-.2v.2l2.3,12.7h0a.4.4,0,0,1-.1.3l-.4.2h-5a.5.5,0,0,1-.5-.5"/></svg>