<?xml version="1.0" encoding="utf-8"?>
<!-- Generator: Adobe Illustrator 22.1.0, SVG Export Plug-In . SVG Version: 6.00 Build 0)  -->
<svg version="1.1" id="Layer_1" xmlns="http://www.w3.org/2000/svg" xmlns:xlink="http://www.w3.org/1999/xlink" x="0px" y="0px"
	 viewBox="0 0 353.5 140.8" style="enable-background:new 0 0 353.5 140.8;" xml:space="preserve">
<style type="text/css">
	.st0{fill:#1A0A29;}
	.st1{fill:#42EBB5;}
	.st2{fill:#FFFFFF;}
	.st3{fill:#FF2E66;}
</style>
<g>
	<path class="st0" d="M137.3,60.4h-33.6c-1.5,0-2.7-1.3-2.5-2.9l3.4-27.7c0.2-1.3,1.2-2.2,2.5-2.2h33.6c1.5,0,2.7,1.3,2.5,2.9
		l-3.4,27.7C139.7,59.4,138.6,60.4,137.3,60.4"/>
	<path class="st1" d="M101.2,24.6H7.1c-1.8,0-3.2-1.6-3-3.4L6.4,2.6C6.6,1.1,7.8,0,9.3,0h94.3c1.8,0,3.2,1.6,3,3.4l-2.3,18.5
		C104.1,23.4,102.8,24.6,101.2,24.6"/>
	<path class="st2" d="M3.3,59.6c-0.6,0-1.2-0.3-1.6-0.7c-0.4-0.5-0.6-1.1-0.5-1.7L4.5,30c0.1-1.1,1.1-1.9,2.1-1.9h91.8
		c0.6,0,1.2,0.3,1.6,0.7c0.4,0.5,0.6,1.1,0.5,1.7l-3.3,27.1c-0.1,1.1-1.1,2-2.3,2H3.3z"/>
	<path class="st0" d="M98.5,26.9H6.7c-1.7,0-3.1,1.3-3.3,2.9L0,57c-0.1,0.9,0.2,1.9,0.8,2.6c0.6,0.7,1.5,1.1,2.5,1.1H95
		c1.7,0,3.2-1.3,3.4-3l3.3-27.1c0.1-0.9-0.2-1.9-0.8-2.6C100.3,27.3,99.4,26.9,98.5,26.9 M98.5,29.2c0.6,0,1.1,0.5,1,1.1l-3.3,27.1
		c-0.1,0.6-0.5,1-1.1,1H3.3c-0.6,0-1.1-0.5-1-1.1l3.3-27.2c0.1-0.5,0.5-0.9,1-0.9H98.5z"/>
	<path class="st0" d="M11.4,19.7c-0.7-0.7-1.1-1.6-1.1-2.7c0-0.1,0-0.4,0-0.6l0.1-0.8c0-0.1,0-0.1,0.1-0.2c0.1-0.1,0.1-0.1,0.2-0.1
		h2.6c0.1,0,0.1,0,0.2,0.1c0,0.1,0.1,0.1,0,0.2l-0.1,0.6c0,0.1,0,0.2,0,0.3c0,0.4,0.1,0.7,0.3,1c0.2,0.2,0.5,0.4,0.8,0.4
		c0.4,0,0.8-0.2,1.1-0.5c0.3-0.3,0.4-0.8,0.4-1.3c0-0.4-0.1-0.8-0.4-1.1c-0.3-0.3-0.8-0.8-1.5-1.4c-0.6-0.5-1.2-1-1.5-1.4
		c-0.4-0.4-0.7-0.9-1-1.4c-0.3-0.6-0.4-1.2-0.4-1.9c0-0.2,0-0.4,0-0.7C11.5,6.9,12,5.8,12.9,5c0.9-0.8,2-1.2,3.3-1.2
		c1.2,0,2.2,0.3,2.9,1c0.7,0.7,1.1,1.6,1.1,2.8c0,0.1,0,0.4,0,0.7l-0.1,0.6c0,0.1,0,0.1-0.1,0.2c-0.1,0.1-0.1,0.1-0.2,0.1h-2.6
		c-0.1,0-0.1,0-0.2-0.1c0-0.1-0.1-0.1,0-0.2L17,8.3c0-0.1,0-0.2,0-0.3c0-0.4-0.1-0.7-0.3-0.9c-0.2-0.2-0.5-0.4-0.8-0.4
		c-0.4,0-0.7,0.1-0.9,0.4c-0.3,0.3-0.4,0.7-0.5,1.1l0,0.3c0,0.4,0.1,0.8,0.4,1.1s0.7,0.8,1.4,1.4c0.8,0.6,1.4,1.2,1.8,1.6
		c0.4,0.4,0.7,0.9,1,1.3c0.2,0.5,0.3,1,0.3,1.6c0,0.1,0,0.3,0,0.7c-0.2,1.4-0.7,2.5-1.7,3.3c-0.9,0.8-2.1,1.2-3.4,1.2
		C13.1,20.7,12.1,20.4,11.4,19.7"/>
	<path class="st0" d="M22.6,20.3l-1.1-16v0c0-0.2,0.1-0.3,0.3-0.3h2.8c0.2,0,0.3,0.1,0.3,0.3l0.3,8.5c0,0.1,0,0.1,0.1,0.1
		c0,0,0.1,0,0.1-0.1l2.3-8.5c0-0.2,0.2-0.3,0.3-0.3h2.3c0.2,0,0.3,0.1,0.3,0.3l0.3,8.5c0,0.1,0,0.1,0.1,0.1s0.1,0,0.1-0.1l2.2-8.5
		c0-0.2,0.2-0.3,0.3-0.3h2.7c0.2,0,0.3,0.1,0.2,0.3l-4.9,16c0,0.2-0.2,0.3-0.3,0.3h-2.5c-0.2,0-0.3-0.1-0.3-0.3l-0.3-8.7
		c0-0.1,0-0.1,0-0.1c0,0-0.1,0-0.1,0.1l-2.3,8.7c0,0.2-0.2,0.3-0.3,0.3h-2.4C22.7,20.6,22.6,20.5,22.6,20.3"/>
	<path class="st0" d="M35.9,20.5c0-0.1-0.1-0.1,0-0.2l2-16c0-0.1,0.1-0.1,0.1-0.2C38,4,38.1,4,38.1,4h2.7c0.2,0,0.3,0.1,0.3,0.3
		l-2,16c0,0.1-0.1,0.1-0.1,0.2c-0.1,0.1-0.1,0.1-0.2,0.1h-2.7C36,20.6,36,20.5,35.9,20.5"/>
	<path class="st0" d="M47.9,10.6c0.4-0.5,0.5-1.1,0.5-1.9c0-0.6-0.1-1-0.4-1.3c-0.2-0.3-0.6-0.5-1-0.5h-1C46,6.9,46,6.9,46,7
		l-0.5,4.2c0,0.1,0,0.1,0.1,0.1h1C47.1,11.3,47.6,11,47.9,10.6 M50.7,5.1c0.7,0.8,1,1.8,1,3c0,0.4,0,0.7,0,0.9
		c-0.2,1.5-0.7,2.6-1.6,3.5c-0.9,0.9-1.9,1.3-3.2,1.3h-1.7c-0.1,0-0.1,0-0.1,0.1l-0.8,6.3c0,0.1-0.1,0.1-0.1,0.2
		c-0.1,0.1-0.1,0.1-0.2,0.1h-2.7c-0.1,0-0.1,0-0.2-0.1c0-0.1-0.1-0.1,0-0.2l2-16c0-0.1,0.1-0.1,0.1-0.2C43.2,4,43.3,4,43.4,4H48
		C49.2,4,50.1,4.4,50.7,5.1"/>
	<path class="st0" d="M61.8,6.8c-0.1,0.1-0.1,0.1-0.2,0.1h-4.8c-0.1,0-0.1,0-0.1,0.1l-0.5,3.7c0,0.1,0,0.1,0.1,0.1H59
		c0.1,0,0.1,0,0.2,0.1c0,0.1,0.1,0.1,0,0.2L59,13.4c0,0.1-0.1,0.1-0.1,0.2c-0.1,0.1-0.1,0.1-0.2,0.1h-2.7c-0.1,0-0.1,0-0.1,0.1
		l-0.4,3.8c0,0.1,0,0.1,0.1,0.1h4.8c0.1,0,0.1,0,0.2,0.1c0.1,0.1,0.1,0.1,0.1,0.2l-0.3,2.3c0,0.1-0.1,0.1-0.1,0.2
		c-0.1,0.1-0.1,0.1-0.2,0.1H52c-0.1,0-0.1,0-0.2-0.1c0-0.1-0.1-0.1,0-0.2l2-16c0-0.1,0.1-0.1,0.1-0.2C53.9,4,54,4,54.1,4h7.9
		c0.1,0,0.1,0,0.2,0.1c0,0.1,0.1,0.1,0,0.2l-0.3,2.3C61.9,6.7,61.8,6.7,61.8,6.8"/>
	<path class="st3" d="M92.6,47.5H8.4c-0.4,0-0.6-0.3-0.6-0.7l0.8-6.5c0-0.3,0.3-0.5,0.6-0.5h84.2c0.4,0,0.6,0.3,0.6,0.7l-0.8,6.5
		C93.1,47.2,92.9,47.5,92.6,47.5"/>
	<path class="st0" d="M74.4,17.4c0.3-0.3,0.5-0.7,0.5-1.2l1-7.8c0-0.1,0-0.2,0-0.3c0-0.4-0.1-0.8-0.3-1c-0.2-0.3-0.5-0.4-0.9-0.4
		c-0.4,0-0.8,0.2-1.1,0.5c-0.3,0.3-0.5,0.7-0.5,1.2l-1,7.8c0,0.1,0,0.2,0,0.3c0,0.4,0.1,0.8,0.3,1c0.2,0.3,0.5,0.4,0.9,0.4
		C73.7,17.9,74.1,17.7,74.4,17.4 M69.9,19.7c-0.7-0.7-1.1-1.7-1.1-2.9c0-0.2,0-0.4,0-0.8l0.9-7.6c0.2-1.4,0.7-2.6,1.7-3.4
		c0.9-0.9,2.1-1.3,3.5-1.3c1.3,0,2.3,0.4,3,1.1c0.7,0.7,1.1,1.7,1.1,2.9c0,0.2,0,0.4,0,0.8L78.2,16c-0.2,1.4-0.7,2.6-1.7,3.4
		c-1,0.9-2.1,1.3-3.5,1.3C71.7,20.7,70.7,20.4,69.9,19.7"/>
	<path class="st0" d="M81,19.6c-0.7-0.7-1.1-1.7-1.1-2.9c0-0.4,0-0.7,0-0.9l1.4-11.6c0-0.1,0.1-0.1,0.1-0.2C81.5,4,81.6,4,81.7,4
		h2.7c0.2,0,0.3,0.1,0.3,0.3l-1.5,11.9c0,0.1,0,0.2,0,0.3c0,0.4,0.1,0.7,0.3,1c0.2,0.3,0.5,0.4,0.8,0.4c0.4,0,0.7-0.2,1-0.5
		c0.3-0.3,0.4-0.7,0.5-1.2l1.5-11.9c0-0.1,0.1-0.1,0.1-0.2C87.4,4,87.4,4,87.5,4h2.7c0.1,0,0.1,0,0.2,0.1s0.1,0.1,0,0.2L89,15.8
		c-0.2,1.5-0.7,2.7-1.7,3.6c-0.9,0.9-2.1,1.3-3.5,1.3C82.6,20.7,81.7,20.4,81,19.6"/>
	<path class="st0" d="M101.5,4.1c0,0.1,0.1,0.1,0,0.2l-0.3,2.3c0,0.1-0.1,0.1-0.1,0.2c-0.1,0.1-0.1,0.1-0.2,0.1h-2.9
		c0,0-0.1,0-0.1,0c0,0,0,0.1,0,0.1l-1.6,13.3c0,0.1-0.1,0.1-0.1,0.2c-0.1,0.1-0.1,0.1-0.2,0.1h-2.7c-0.1,0-0.1,0-0.2-0.1
		c0-0.1-0.1-0.1,0-0.2L94.7,7c0-0.1,0-0.1-0.1-0.1h-2.7c-0.2,0-0.3-0.1-0.3-0.3l0.3-2.3c0-0.1,0.1-0.1,0.1-0.2C92.1,4,92.2,4,92.2,4
		h9.1C101.4,4,101.5,4,101.5,4.1"/>
	<path class="st0" d="M21.3,33.8c0.1-0.1,0.1-0.1,0.2-0.1h3.2c0.1,0,0.2,0,0.2,0.1c0.1,0.1,0.1,0.1,0.1,0.2l-2.3,19
		c0,0.1-0.1,0.2-0.1,0.2c-0.1,0.1-0.1,0.1-0.2,0.1h-3.2c-0.1,0-0.2,0-0.2-0.1c-0.1-0.1-0.1-0.1-0.1-0.2l1-7.7c0-0.1,0-0.1-0.1-0.1
		H17c-0.1,0-0.2,0-0.2,0.1L15.9,53c0,0.1-0.1,0.2-0.1,0.2c-0.1,0.1-0.2,0.1-0.3,0.1h-3.2c-0.1,0-0.2,0-0.2-0.1
		c-0.1-0.1-0.1-0.1-0.1-0.2l2.3-19c0-0.1,0.1-0.2,0.1-0.2c0.1-0.1,0.1-0.1,0.2-0.1h3.2c0.2,0,0.3,0.1,0.3,0.3l-1,7.6
		c0,0.1,0,0.1,0.1,0.1h2.7c0.1,0,0.1,0,0.2-0.1l0.9-7.6C21.2,33.9,21.3,33.9,21.3,33.8"/>
	<path class="st0" d="M26.9,52.3c-0.9-0.9-1.3-2-1.3-3.5c0-0.5,0-0.8,0.1-1L27.4,34c0-0.1,0.1-0.2,0.1-0.2c0.1-0.1,0.1-0.1,0.2-0.1
		h3.2c0.2,0,0.3,0.1,0.3,0.3l-1.7,14.1c0,0.1,0,0.2,0,0.4c0,0.5,0.1,0.9,0.4,1.2c0.2,0.3,0.6,0.4,1,0.4c0.5,0,0.9-0.2,1.2-0.6
		c0.3-0.4,0.5-0.9,0.6-1.5L34.4,34c0-0.1,0.1-0.2,0.1-0.2c0.1-0.1,0.1-0.1,0.2-0.1h3.2c0.1,0,0.2,0,0.2,0.1c0.1,0.1,0.1,0.1,0.1,0.2
		l-1.7,13.7c-0.2,1.8-0.9,3.2-2,4.2c-1.1,1.1-2.5,1.6-4.1,1.6C28.9,53.6,27.8,53.1,26.9,52.3"/>
	<path class="st0" d="M38.1,53.3c-0.1-0.1-0.1-0.1-0.1-0.2l2.3-19c0-0.1,0.1-0.2,0.1-0.2c0.1-0.1,0.1-0.1,0.2-0.1h3.4
		c0.2,0,0.3,0.1,0.3,0.3l2.2,10.5c0,0.1,0,0.1,0.1,0.1c0,0,0.1,0,0.1-0.1L48.2,34c0-0.1,0.1-0.2,0.1-0.2c0.1-0.1,0.1-0.1,0.2-0.1
		h3.1c0.1,0,0.2,0,0.2,0.1C52,33.9,52,33.9,52,34l-2.3,19c0,0.1-0.1,0.2-0.1,0.2c-0.1,0.1-0.1,0.1-0.2,0.1h-3.5
		c-0.2,0-0.3-0.1-0.3-0.3l-2.2-10.5c0-0.1,0-0.1-0.1-0.1s-0.1,0-0.1,0.1L41.9,53c0,0.1-0.1,0.2-0.1,0.2c-0.1,0.1-0.2,0.1-0.3,0.1
		h-3.1C38.3,53.4,38.2,53.3,38.1,53.3"/>
	<path class="st0" d="M53.6,52.4c-0.9-0.8-1.3-1.9-1.3-3.3c0-0.2,0-0.4,0.1-0.8l1.2-9.5c0.2-1.6,0.8-2.9,2-3.9
		c1.1-1,2.5-1.4,4.1-1.4c1.5,0,2.7,0.4,3.5,1.2s1.3,1.9,1.3,3.3c0,0.2,0,0.4-0.1,0.8l-0.1,1.1c0,0.1-0.1,0.2-0.1,0.2
		c-0.1,0.1-0.2,0.1-0.3,0.1h-3.2c-0.1,0-0.2,0-0.2-0.1c-0.1-0.1-0.1-0.1-0.1-0.2l0.1-1.1c0-0.1,0-0.2,0-0.3c0-0.5-0.1-0.8-0.4-1.1
		c-0.3-0.3-0.6-0.4-1-0.4c-0.5,0-0.9,0.2-1.2,0.5c-0.3,0.3-0.5,0.8-0.6,1.4l-1.2,9.6c-0.1,0.6,0,1,0.3,1.4c0.2,0.3,0.6,0.5,1.1,0.5
		c0.5,0,0.9-0.2,1.2-0.5c0.3-0.3,0.5-0.8,0.6-1.4l0.3-2.2c0-0.1,0-0.1-0.1-0.1h-1.2c-0.1,0-0.2,0-0.2-0.1c-0.1-0.1-0.1-0.1-0.1-0.2
		l0.3-2.5c0-0.1,0-0.2,0.1-0.2c0.1-0.1,0.2-0.1,0.3-0.1h4.8c0.2,0,0.3,0.1,0.3,0.3l-0.6,5.2c-0.2,1.6-0.8,2.9-2,3.9
		c-1.1,1-2.5,1.4-4.1,1.4C55.7,53.6,54.5,53.2,53.6,52.4"/>
	<path class="st0" d="M76.6,37c-0.1,0.1-0.1,0.1-0.2,0.1h-5.7c-0.1,0-0.1,0-0.1,0.1l-0.6,4.4c0,0.1,0,0.1,0.1,0.1h3.3
		c0.1,0,0.2,0,0.2,0.1c0.1,0.1,0.1,0.1,0.1,0.2l-0.3,2.7c0,0.1-0.1,0.2-0.1,0.2c-0.1,0.1-0.1,0.1-0.2,0.1h-3.3c-0.1,0-0.2,0-0.2,0.1
		L69,49.8c0,0.1,0,0.1,0.1,0.1h5.7c0.1,0,0.2,0,0.2,0.1c0.1,0.1,0.1,0.1,0.1,0.2L74.7,53c0,0.1-0.1,0.2-0.1,0.2
		c-0.1,0.1-0.1,0.1-0.2,0.1H65c-0.1,0-0.2,0-0.2-0.1s-0.1-0.1-0.1-0.2l2.3-19c0-0.1,0.1-0.2,0.1-0.2c0.1-0.1,0.1-0.1,0.2-0.1h9.4
		c0.1,0,0.2,0,0.2,0.1c0.1,0.1,0.1,0.1,0.1,0.2l-0.3,2.7C76.7,36.8,76.7,36.9,76.6,37"/>
	<path class="st0" d="M82.4,37.2L81.9,42c0,0.1,0,0.1,0.1,0.1h1.2c0.6,0,1.1-0.3,1.6-0.8c0.4-0.6,0.6-1.3,0.6-2.2
		c0-0.6-0.1-1.1-0.4-1.5c-0.3-0.4-0.7-0.5-1.2-0.5h-1.2C82.5,37.1,82.4,37.1,82.4,37.2 M83.8,53.1l-1.2-7.8c0-0.1-0.1-0.1-0.1-0.1
		h-0.9c-0.1,0-0.2,0-0.2,0.1L80.5,53c0,0.1-0.1,0.2-0.1,0.2c-0.1,0.1-0.2,0.1-0.3,0.1h-3.2c-0.1,0-0.2,0-0.2-0.1s-0.1-0.1-0.1-0.2
		L79,34c0-0.1,0.1-0.2,0.1-0.2c0.1-0.1,0.1-0.1,0.2-0.1h5.5c1.4,0,2.4,0.4,3.2,1.3c0.8,0.9,1.2,2.1,1.2,3.6c0,0.5,0,0.8-0.1,1
		c-0.1,1.1-0.4,2.1-1,2.9c-0.5,0.9-1.2,1.5-2,2c0,0-0.1,0-0.1,0.1c0,0,0,0.1,0,0.1l1.5,8.3V53c0,0.1,0,0.2-0.1,0.2
		c-0.1,0.1-0.1,0.1-0.2,0.1h-3.3C83.9,53.4,83.8,53.3,83.8,53.1"/>
</g>
<g>
	<path class="st2" d="M106.8,55.2c0-0.1,0-0.2,0-0.3l5.6-10.9c0-0.1,0.1-0.1,0-0.2l-3-10.9l0-0.1c0-0.2,0.1-0.3,0.4-0.3h3.8
		c0.2,0,0.3,0.1,0.4,0.3l1.4,6.3c0,0.1,0,0.1,0.1,0.1s0.1,0,0.1-0.1l2.9-6.3c0.1-0.2,0.3-0.3,0.5-0.3h3.7c0.2,0,0.2,0,0.3,0.1
		c0,0.1,0,0.2,0,0.3l-5.6,10.9c0,0.1-0.1,0.1,0,0.2l3,10.9l0,0.1c0,0.1,0,0.2-0.1,0.2c-0.1,0.1-0.2,0.1-0.3,0.1h-3.7
		c-0.2,0-0.3-0.1-0.4-0.3l-1.4-6.2c0-0.1,0-0.1-0.1-0.1c0,0-0.1,0-0.1,0.1l-2.9,6.2c-0.1,0.2-0.3,0.3-0.5,0.3h-3.7
		C106.9,55.4,106.9,55.3,106.8,55.2z"/>
	<path class="st2" d="M121.9,55.2c0-0.1,0-0.2,0-0.3l5.6-10.9c0-0.1,0.1-0.1,0-0.2l-3-10.9l0-0.1c0-0.2,0.1-0.3,0.4-0.3h3.8
		c0.2,0,0.3,0.1,0.4,0.3l1.4,6.3c0,0.1,0,0.1,0.1,0.1s0.1,0,0.1-0.1l2.9-6.3c0.1-0.2,0.3-0.3,0.5-0.3h3.7c0.2,0,0.2,0,0.3,0.1
		c0,0.1,0,0.2,0,0.3l-5.6,10.9c0,0.1-0.1,0.1,0,0.2l3,10.9l0,0.1c0,0.1,0,0.2-0.1,0.2c-0.1,0.1-0.2,0.1-0.3,0.1h-3.7
		c-0.2,0-0.3-0.1-0.4-0.3l-1.4-6.2c0-0.1,0-0.1-0.1-0.1c0,0-0.1,0-0.1,0.1l-2.9,6.2c-0.1,0.2-0.3,0.3-0.5,0.3h-3.7
		C122,55.4,121.9,55.3,121.9,55.2z"/>
</g>
<g>
	<path class="st0" d="M347.6,60.4h-48.1c-1.5,0-2.7-1.3-2.5-2.9l3.4-27.7c0.2-1.3,1.2-2.2,2.5-2.2H351c1.5,0,2.7,1.3,2.5,2.9
		l-3.4,27.7C349.9,59.4,348.9,60.4,347.6,60.4"/>
	<path class="st1" d="M297,24.6h-94.2c-1.8,0-3.2-1.6-3-3.4l2.3-18.6c0.2-1.5,1.5-2.6,3-2.6h94.3c1.8,0,3.2,1.6,3,3.4l-2.3,18.5
		C299.9,23.4,298.6,24.6,297,24.6"/>
	<path class="st2" d="M199.1,59.6c-0.6,0-1.2-0.3-1.6-0.7c-0.4-0.5-0.6-1.1-0.5-1.7l3.3-27.2c0.1-1.1,1.1-1.9,2.1-1.9h91.8
		c0.6,0,1.2,0.3,1.6,0.7c0.4,0.5,0.6,1.1,0.5,1.7l-3.3,27.1c-0.1,1.1-1.1,2-2.3,2H199.1z"/>
	<path class="st0" d="M294.3,26.9h-91.8c-1.7,0-3.1,1.3-3.3,2.9L195.8,57c-0.1,0.9,0.2,1.9,0.8,2.6c0.6,0.7,1.5,1.1,2.5,1.1h91.7
		c1.7,0,3.2-1.3,3.4-3l3.3-27.1c0.1-0.9-0.2-1.9-0.8-2.6C296.1,27.3,295.2,26.9,294.3,26.9 M294.3,29.2c0.6,0,1.1,0.5,1,1.1
		l-3.3,27.1c-0.1,0.6-0.5,1-1.1,1h-91.7c-0.6,0-1.1-0.5-1-1.1l3.3-27.2c0.1-0.5,0.5-0.9,1-0.9H294.3z"/>
	<path class="st0" d="M207.2,19.7c-0.7-0.7-1.1-1.6-1.1-2.7c0-0.1,0-0.4,0-0.6l0.1-0.8c0-0.1,0-0.1,0.1-0.2c0.1-0.1,0.1-0.1,0.2-0.1
		h2.6c0.1,0,0.1,0,0.2,0.1c0,0.1,0.1,0.1,0,0.2l-0.1,0.6c0,0.1,0,0.2,0,0.3c0,0.4,0.1,0.7,0.3,1c0.2,0.2,0.5,0.4,0.8,0.4
		c0.4,0,0.8-0.2,1.1-0.5c0.3-0.3,0.4-0.8,0.4-1.3c0-0.4-0.1-0.8-0.4-1.1s-0.8-0.8-1.5-1.4c-0.6-0.5-1.2-1-1.5-1.4
		c-0.4-0.4-0.7-0.9-1-1.4c-0.3-0.6-0.4-1.2-0.4-1.9c0-0.2,0-0.4,0-0.7c0.2-1.3,0.7-2.4,1.6-3.2c0.9-0.8,2-1.2,3.3-1.2
		c1.2,0,2.2,0.3,2.9,1c0.7,0.7,1.1,1.6,1.1,2.8c0,0.1,0,0.4,0,0.7l-0.1,0.6c0,0.1,0,0.1-0.1,0.2c-0.1,0.1-0.1,0.1-0.2,0.1H213
		c-0.1,0-0.1,0-0.2-0.1c0-0.1-0.1-0.1,0-0.2l0.1-0.6c0-0.1,0-0.2,0-0.3c0-0.4-0.1-0.7-0.3-0.9c-0.2-0.2-0.5-0.4-0.8-0.4
		c-0.4,0-0.7,0.1-0.9,0.4c-0.3,0.3-0.4,0.7-0.5,1.1l0,0.3c0,0.4,0.1,0.8,0.4,1.1s0.7,0.8,1.4,1.4c0.8,0.6,1.4,1.2,1.8,1.6
		c0.4,0.4,0.7,0.9,1,1.3c0.2,0.5,0.3,1,0.3,1.6c0,0.1,0,0.3,0,0.7c-0.2,1.4-0.7,2.5-1.7,3.3c-0.9,0.8-2.1,1.2-3.4,1.2
		C208.9,20.7,207.9,20.4,207.2,19.7"/>
	<path class="st0" d="M218.4,20.3l-1.1-16v0c0-0.2,0.1-0.3,0.3-0.3h2.8c0.2,0,0.3,0.1,0.3,0.3l0.3,8.5c0,0.1,0,0.1,0.1,0.1
		c0,0,0.1,0,0.1-0.1l2.3-8.5c0-0.2,0.2-0.3,0.3-0.3h2.3c0.2,0,0.3,0.1,0.3,0.3l0.3,8.5c0,0.1,0,0.1,0.1,0.1c0,0,0.1,0,0.1-0.1
		l2.2-8.5c0-0.2,0.2-0.3,0.3-0.3h2.7c0.2,0,0.3,0.1,0.2,0.3l-4.9,16c0,0.2-0.2,0.3-0.3,0.3h-2.5c-0.2,0-0.3-0.1-0.3-0.3l-0.3-8.7
		c0-0.1,0-0.1,0-0.1c0,0-0.1,0-0.1,0.1l-2.3,8.7c0,0.2-0.2,0.3-0.3,0.3h-2.4C218.5,20.6,218.4,20.5,218.4,20.3"/>
	<path class="st0" d="M231.7,20.5c0-0.1-0.1-0.1,0-0.2l2-16c0-0.1,0.1-0.1,0.1-0.2c0.1-0.1,0.1-0.1,0.2-0.1h2.7
		c0.2,0,0.3,0.1,0.3,0.3l-2,16c0,0.1-0.1,0.1-0.1,0.2c-0.1,0.1-0.1,0.1-0.2,0.1h-2.7C231.8,20.6,231.7,20.5,231.7,20.5"/>
	<path class="st0" d="M243.7,10.6c0.4-0.5,0.5-1.1,0.5-1.9c0-0.6-0.1-1-0.4-1.3c-0.2-0.3-0.6-0.5-1-0.5h-1c-0.1,0-0.1,0-0.1,0.1
		l-0.5,4.2c0,0.1,0,0.1,0.1,0.1h1C242.9,11.3,243.4,11,243.7,10.6 M246.5,5.1c0.7,0.8,1,1.8,1,3c0,0.4,0,0.7,0,0.9
		c-0.2,1.5-0.7,2.6-1.6,3.5c-0.9,0.9-1.9,1.3-3.2,1.3H241c-0.1,0-0.1,0-0.1,0.1l-0.8,6.3c0,0.1-0.1,0.1-0.1,0.2
		c-0.1,0.1-0.1,0.1-0.2,0.1h-2.7c-0.1,0-0.1,0-0.2-0.1c0-0.1-0.1-0.1,0-0.2l2-16c0-0.1,0.1-0.1,0.1-0.2C239,4,239.1,4,239.2,4h4.6
		C244.9,4,245.9,4.4,246.5,5.1"/>
	<path class="st0" d="M257.6,6.8c-0.1,0.1-0.1,0.1-0.2,0.1h-4.8c-0.1,0-0.1,0-0.1,0.1l-0.5,3.7c0,0.1,0,0.1,0.1,0.1h2.8
		c0.1,0,0.1,0,0.2,0.1c0,0.1,0.1,0.1,0,0.2l-0.3,2.3c0,0.1-0.1,0.1-0.1,0.2c-0.1,0.1-0.1,0.1-0.2,0.1h-2.7c-0.1,0-0.1,0-0.1,0.1
		l-0.4,3.8c0,0.1,0,0.1,0.1,0.1h4.8c0.1,0,0.1,0,0.2,0.1s0.1,0.1,0.1,0.2l-0.3,2.3c0,0.1-0.1,0.1-0.1,0.2c-0.1,0.1-0.1,0.1-0.2,0.1
		h-7.9c-0.1,0-0.1,0-0.2-0.1c0-0.1-0.1-0.1,0-0.2l2-16c0-0.1,0.1-0.1,0.1-0.2c0.1-0.1,0.1-0.1,0.2-0.1h7.9c0.1,0,0.1,0,0.2,0.1
		c0,0.1,0.1,0.1,0,0.2l-0.3,2.3C257.6,6.7,257.6,6.7,257.6,6.8"/>
	<path class="st3" d="M288.3,47.5h-84.2c-0.4,0-0.6-0.3-0.6-0.7l0.8-6.5c0-0.3,0.3-0.5,0.6-0.5h84.2c0.4,0,0.6,0.3,0.6,0.7l-0.8,6.5
		C288.9,47.2,288.6,47.5,288.3,47.5"/>
	<path class="st0" d="M270.2,17.4c0.3-0.3,0.5-0.7,0.5-1.2l1-7.8c0-0.1,0-0.2,0-0.3c0-0.4-0.1-0.8-0.3-1c-0.2-0.3-0.5-0.4-0.9-0.4
		c-0.4,0-0.8,0.2-1.1,0.5c-0.3,0.3-0.5,0.7-0.5,1.2l-1,7.8c0,0.1,0,0.2,0,0.3c0,0.4,0.1,0.8,0.3,1c0.2,0.3,0.5,0.4,0.9,0.4
		C269.5,17.9,269.9,17.7,270.2,17.4 M265.7,19.7c-0.7-0.7-1.1-1.7-1.1-2.9c0-0.2,0-0.4,0-0.8l0.9-7.6c0.2-1.4,0.7-2.6,1.7-3.4
		s2.1-1.3,3.5-1.3c1.3,0,2.3,0.4,3,1.1c0.7,0.7,1.1,1.7,1.1,2.9c0,0.2,0,0.4,0,0.8l-0.9,7.6c-0.2,1.4-0.7,2.6-1.7,3.4
		c-1,0.9-2.1,1.3-3.5,1.3C267.5,20.7,266.5,20.4,265.7,19.7"/>
	<path class="st0" d="M276.7,19.6c-0.7-0.7-1.1-1.7-1.1-2.9c0-0.4,0-0.7,0-0.9l1.4-11.6c0-0.1,0.1-0.1,0.1-0.2s0.1-0.1,0.2-0.1h2.7
		c0.2,0,0.3,0.1,0.3,0.3l-1.5,11.9c0,0.1,0,0.2,0,0.3c0,0.4,0.1,0.7,0.3,1c0.2,0.3,0.5,0.4,0.8,0.4c0.4,0,0.7-0.2,1-0.5
		c0.3-0.3,0.4-0.7,0.5-1.2L283,4.3c0-0.1,0.1-0.1,0.1-0.2c0.1-0.1,0.1-0.1,0.2-0.1h2.7c0.1,0,0.1,0,0.2,0.1s0.1,0.1,0,0.2l-1.4,11.6
		c-0.2,1.5-0.7,2.7-1.7,3.6c-0.9,0.9-2.1,1.3-3.5,1.3C278.4,20.7,277.5,20.4,276.7,19.6"/>
	<path class="st0" d="M297.3,4.1c0,0.1,0.1,0.1,0,0.2l-0.3,2.3c0,0.1-0.1,0.1-0.1,0.2c-0.1,0.1-0.1,0.1-0.2,0.1h-2.9
		c0,0-0.1,0-0.1,0c0,0,0,0.1,0,0.1l-1.6,13.3c0,0.1-0.1,0.1-0.1,0.2c-0.1,0.1-0.1,0.1-0.2,0.1h-2.7c-0.1,0-0.1,0-0.2-0.1
		c0-0.1-0.1-0.1,0-0.2L290.5,7c0-0.1,0-0.1-0.1-0.1h-2.7c-0.2,0-0.3-0.1-0.3-0.3l0.3-2.3c0-0.1,0.1-0.1,0.1-0.2
		C287.9,4,287.9,4,288,4h9.1C297.2,4,297.3,4,297.3,4.1"/>
	<path class="st0" d="M217.1,33.8c0.1-0.1,0.1-0.1,0.2-0.1h3.2c0.1,0,0.2,0,0.2,0.1c0.1,0.1,0.1,0.1,0.1,0.2l-2.3,19
		c0,0.1-0.1,0.2-0.1,0.2c-0.1,0.1-0.1,0.1-0.2,0.1H215c-0.1,0-0.2,0-0.2-0.1c-0.1-0.1-0.1-0.1-0.1-0.2l1-7.7c0-0.1,0-0.1-0.1-0.1
		h-2.7c-0.1,0-0.2,0-0.2,0.1l-0.9,7.7c0,0.1-0.1,0.2-0.1,0.2c-0.1,0.1-0.2,0.1-0.3,0.1h-3.2c-0.1,0-0.2,0-0.2-0.1
		c-0.1-0.1-0.1-0.1-0.1-0.2l2.3-19c0-0.1,0.1-0.2,0.1-0.2c0.1-0.1,0.1-0.1,0.2-0.1h3.2c0.2,0,0.3,0.1,0.3,0.3l-1,7.6
		c0,0.1,0,0.1,0.1,0.1h2.7c0.1,0,0.1,0,0.2-0.1L217,34C217,33.9,217.1,33.9,217.1,33.8"/>
	<path class="st0" d="M222.7,52.3c-0.9-0.9-1.3-2-1.3-3.5c0-0.5,0-0.8,0.1-1l1.7-13.7c0-0.1,0.1-0.2,0.1-0.2
		c0.1-0.1,0.1-0.1,0.2-0.1h3.2c0.2,0,0.3,0.1,0.3,0.3l-1.7,14.1c0,0.1,0,0.2,0,0.4c0,0.5,0.1,0.9,0.4,1.2c0.2,0.3,0.6,0.4,1,0.4
		c0.5,0,0.9-0.2,1.2-0.6c0.3-0.4,0.5-0.9,0.6-1.5l1.7-14.1c0-0.1,0.1-0.2,0.1-0.2c0.1-0.1,0.1-0.1,0.2-0.1h3.2c0.1,0,0.2,0,0.2,0.1
		c0.1,0.1,0.1,0.1,0.1,0.2l-1.7,13.7c-0.2,1.8-0.9,3.2-2,4.2c-1.1,1.1-2.5,1.6-4.1,1.6C224.7,53.6,223.6,53.1,222.7,52.3"/>
	<path class="st0" d="M233.9,53.3c-0.1-0.1-0.1-0.1-0.1-0.2l2.3-19c0-0.1,0.1-0.2,0.1-0.2c0.1-0.1,0.1-0.1,0.2-0.1h3.4
		c0.2,0,0.3,0.1,0.3,0.3l2.2,10.5c0,0.1,0,0.1,0.1,0.1c0,0,0.1,0,0.1-0.1L244,34c0-0.1,0.1-0.2,0.1-0.2c0.1-0.1,0.1-0.1,0.2-0.1h3.1
		c0.1,0,0.2,0,0.2,0.1c0.1,0.1,0.1,0.1,0.1,0.2l-2.3,19c0,0.1-0.1,0.2-0.1,0.2c-0.1,0.1-0.1,0.1-0.2,0.1h-3.5
		c-0.2,0-0.3-0.1-0.3-0.3l-2.2-10.5c0-0.1,0-0.1-0.1-0.1s-0.1,0-0.1,0.1L237.7,53c0,0.1-0.1,0.2-0.1,0.2c-0.1,0.1-0.2,0.1-0.3,0.1
		h-3.1C234.1,53.4,234,53.3,233.9,53.3"/>
	<path class="st0" d="M249.4,52.4c-0.9-0.8-1.3-1.9-1.3-3.3c0-0.2,0-0.4,0.1-0.8l1.2-9.5c0.2-1.6,0.8-2.9,2-3.9
		c1.1-1,2.5-1.4,4.1-1.4c1.5,0,2.7,0.4,3.5,1.2c0.9,0.8,1.3,1.9,1.3,3.3c0,0.2,0,0.4-0.1,0.8l-0.1,1.1c0,0.1-0.1,0.2-0.1,0.2
		c-0.1,0.1-0.2,0.1-0.3,0.1h-3.2c-0.1,0-0.2,0-0.2-0.1c-0.1-0.1-0.1-0.1-0.1-0.2l0.1-1.1c0-0.1,0-0.2,0-0.3c0-0.5-0.1-0.8-0.4-1.1
		c-0.3-0.3-0.6-0.4-1-0.4c-0.5,0-0.9,0.2-1.2,0.5c-0.3,0.3-0.5,0.8-0.6,1.4l-1.2,9.6c-0.1,0.6,0,1,0.3,1.4c0.2,0.3,0.6,0.5,1.1,0.5
		c0.5,0,0.9-0.2,1.2-0.5c0.3-0.3,0.5-0.8,0.6-1.4l0.3-2.2c0-0.1,0-0.1-0.1-0.1h-1.2c-0.1,0-0.2,0-0.2-0.1c-0.1-0.1-0.1-0.1-0.1-0.2
		l0.3-2.5c0-0.1,0-0.2,0.1-0.2c0.1-0.1,0.2-0.1,0.3-0.1h4.8c0.2,0,0.3,0.1,0.3,0.3l-0.6,5.2c-0.2,1.6-0.8,2.9-2,3.9
		c-1.1,1-2.5,1.4-4.1,1.4C251.4,53.6,250.3,53.2,249.4,52.4"/>
	<path class="st0" d="M272.4,37c-0.1,0.1-0.1,0.1-0.2,0.1h-5.7c-0.1,0-0.1,0-0.1,0.1l-0.6,4.4c0,0.1,0,0.1,0.1,0.1h3.3
		c0.1,0,0.2,0,0.2,0.1c0.1,0.1,0.1,0.1,0.1,0.2l-0.3,2.7c0,0.1-0.1,0.2-0.1,0.2c-0.1,0.1-0.1,0.1-0.2,0.1h-3.3c-0.1,0-0.2,0-0.2,0.1
		l-0.5,4.5c0,0.1,0,0.1,0.1,0.1h5.7c0.1,0,0.2,0,0.2,0.1c0.1,0.1,0.1,0.1,0.1,0.2l-0.3,2.7c0,0.1-0.1,0.2-0.1,0.2
		c-0.1,0.1-0.1,0.1-0.2,0.1h-9.4c-0.1,0-0.2,0-0.2-0.1c-0.1-0.1-0.1-0.1-0.1-0.2l2.3-19c0-0.1,0.1-0.2,0.1-0.2
		c0.1-0.1,0.1-0.1,0.2-0.1h9.4c0.1,0,0.2,0,0.2,0.1c0.1,0.1,0.1,0.1,0.1,0.2l-0.3,2.7C272.5,36.8,272.4,36.9,272.4,37"/>
	<path class="st0" d="M278.2,37.2l-0.6,4.8c0,0.1,0,0.1,0.1,0.1h1.2c0.6,0,1.1-0.3,1.6-0.8c0.4-0.6,0.6-1.3,0.6-2.2
		c0-0.6-0.1-1.1-0.4-1.5s-0.7-0.5-1.2-0.5h-1.2C278.3,37.1,278.2,37.1,278.2,37.2 M279.6,53.1l-1.2-7.8c0-0.1-0.1-0.1-0.1-0.1h-0.9
		c-0.1,0-0.2,0-0.2,0.1l-0.9,7.7c0,0.1-0.1,0.2-0.1,0.2s-0.2,0.1-0.3,0.1h-3.2c-0.1,0-0.2,0-0.2-0.1c-0.1-0.1-0.1-0.1-0.1-0.2
		l2.3-19c0-0.1,0.1-0.2,0.1-0.2c0.1-0.1,0.1-0.1,0.2-0.1h5.5c1.4,0,2.4,0.4,3.2,1.3c0.8,0.9,1.2,2.1,1.2,3.6c0,0.5,0,0.8-0.1,1
		c-0.1,1.1-0.4,2.1-1,2.9c-0.5,0.9-1.2,1.5-2,2c0,0-0.1,0-0.1,0.1c0,0,0,0.1,0,0.1l1.5,8.3V53c0,0.1,0,0.2-0.1,0.2
		c-0.1,0.1-0.1,0.1-0.2,0.1h-3.3C279.7,53.4,279.6,53.3,279.6,53.1"/>
</g>
<g>
	<path class="st2" d="M302.6,55.2c0-0.1,0-0.2,0-0.3l5.6-10.9c0-0.1,0.1-0.1,0-0.2l-3-10.9l0-0.1c0-0.2,0.1-0.3,0.4-0.3h3.8
		c0.2,0,0.3,0.1,0.4,0.3l1.4,6.3c0,0.1,0,0.1,0.1,0.1s0.1,0,0.1-0.1l2.9-6.3c0.1-0.2,0.3-0.3,0.5-0.3h3.7c0.2,0,0.2,0,0.3,0.1
		c0,0.1,0,0.2,0,0.3l-5.6,10.9c0,0.1-0.1,0.1,0,0.2l3,10.9l0,0.1c0,0.1,0,0.2-0.1,0.2c-0.1,0.1-0.2,0.1-0.3,0.1h-3.7
		c-0.2,0-0.3-0.1-0.4-0.3l-1.4-6.2c0-0.1,0-0.1-0.1-0.1c0,0-0.1,0-0.1,0.1l-2.9,6.2c-0.1,0.2-0.3,0.3-0.5,0.3h-3.7
		C302.7,55.4,302.6,55.3,302.6,55.2z"/>
	<path class="st2" d="M317.6,55.2c0-0.1,0-0.2,0-0.3l5.6-10.9c0-0.1,0.1-0.1,0-0.2l-3-10.9l0-0.1c0-0.2,0.1-0.3,0.4-0.3h3.8
		c0.2,0,0.3,0.1,0.4,0.3l1.4,6.3c0,0.1,0,0.1,0.1,0.1s0.1,0,0.1-0.1l2.9-6.3c0.1-0.2,0.3-0.3,0.5-0.3h3.7c0.2,0,0.2,0,0.3,0.1
		c0,0.1,0,0.2,0,0.3l-5.6,10.9c0,0.1-0.1,0.1,0,0.2l3,10.9l0,0.1c0,0.1,0,0.2-0.1,0.2c-0.1,0.1-0.2,0.1-0.3,0.1h-3.7
		c-0.2,0-0.3-0.1-0.4-0.3l-1.4-6.2c0-0.1,0-0.1-0.1-0.1c0,0-0.1,0-0.1,0.1l-2.9,6.2c-0.1,0.2-0.3,0.3-0.5,0.3h-3.7
		C317.8,55.4,317.7,55.3,317.6,55.2z"/>
	<path class="st2" d="M332.7,55.2c0-0.1,0-0.2,0-0.3l5.6-10.9c0-0.1,0.1-0.1,0-0.2l-3-10.9l0-0.1c0-0.2,0.1-0.3,0.4-0.3h3.8
		c0.2,0,0.3,0.1,0.4,0.3l1.4,6.3c0,0.1,0,0.1,0.1,0.1s0.1,0,0.1-0.1l2.9-6.3c0.1-0.2,0.3-0.3,0.5-0.3h3.7c0.2,0,0.2,0,0.3,0.1
		c0,0.1,0,0.2,0,0.3l-5.6,10.9c0,0.1-0.1,0.1,0,0.2l3,10.9l0,0.1c0,0.1,0,0.2-0.1,0.2c-0.1,0.1-0.2,0.1-0.3,0.1H342
		c-0.2,0-0.3-0.1-0.4-0.3l-1.4-6.2c0-0.1,0-0.1-0.1-0.1c0,0-0.1,0-0.1,0.1l-2.9,6.2c-0.1,0.2-0.3,0.3-0.5,0.3h-3.7
		C332.8,55.4,332.7,55.3,332.7,55.2z"/>
</g>
<g>
	<path class="st0" d="M262.6,140.4h-62.5c-1.5,0-2.7-1.3-2.5-2.9l3.4-27.7c0.2-1.3,1.2-2.2,2.5-2.2H266c1.5,0,2.7,1.3,2.5,2.9
		l-3.4,27.7C265,139.4,263.9,140.4,262.6,140.4"/>
	<path class="st1" d="M197.7,104.6h-94.2c-1.8,0-3.2-1.6-3-3.4l2.3-18.6c0.2-1.5,1.5-2.6,3-2.6H200c1.8,0,3.2,1.6,3,3.4l-2.3,18.5
		C200.6,103.4,199.2,104.6,197.7,104.6"/>
	<path class="st2" d="M99.8,139.6c-0.6,0-1.2-0.3-1.6-0.7c-0.4-0.5-0.6-1.1-0.5-1.7l3.3-27.2c0.1-1.1,1.1-1.9,2.1-1.9h91.8
		c0.6,0,1.2,0.3,1.6,0.7c0.4,0.5,0.6,1.1,0.5,1.7l-3.3,27.1c-0.1,1.1-1.1,2-2.3,2H99.8z"/>
	<path class="st0" d="M194.9,106.9h-91.8c-1.7,0-3.1,1.3-3.3,2.9L96.4,137c-0.1,0.9,0.2,1.9,0.8,2.6c0.6,0.7,1.5,1.1,2.5,1.1h91.7
		c1.7,0,3.2-1.3,3.4-3l3.3-27.1c0.1-0.9-0.2-1.9-0.8-2.6C196.8,107.3,195.9,106.9,194.9,106.9 M194.9,109.2c0.6,0,1.1,0.5,1,1.1
		l-3.3,27.1c-0.1,0.6-0.5,1-1.1,1H99.8c-0.6,0-1.1-0.5-1-1.1l3.3-27.2c0.1-0.5,0.5-0.9,1-0.9H194.9z"/>
	<path class="st0" d="M107.8,99.7c-0.7-0.7-1.1-1.6-1.1-2.7c0-0.1,0-0.4,0-0.6l0.1-0.8c0-0.1,0-0.1,0.1-0.2c0.1-0.1,0.1-0.1,0.2-0.1
		h2.6c0.1,0,0.1,0,0.2,0.1c0,0.1,0.1,0.1,0,0.2l-0.1,0.6c0,0.1,0,0.2,0,0.3c0,0.4,0.1,0.7,0.3,1c0.2,0.2,0.5,0.4,0.8,0.4
		c0.4,0,0.8-0.2,1.1-0.5c0.3-0.3,0.4-0.8,0.4-1.3c0-0.4-0.1-0.8-0.4-1.1c-0.3-0.3-0.8-0.8-1.5-1.4c-0.6-0.5-1.2-1-1.5-1.4
		c-0.4-0.4-0.7-0.9-1-1.4c-0.3-0.6-0.4-1.2-0.4-1.9c0-0.2,0-0.4,0-0.7c0.2-1.3,0.7-2.4,1.6-3.2c0.9-0.8,2-1.2,3.3-1.2
		c1.2,0,2.2,0.3,2.9,1c0.7,0.7,1.1,1.6,1.1,2.8c0,0.1,0,0.4,0,0.7l-0.1,0.6c0,0.1,0,0.1-0.1,0.2c-0.1,0.1-0.1,0.1-0.2,0.1h-2.6
		c-0.1,0-0.1,0-0.2-0.1c0-0.1-0.1-0.1,0-0.2l0.1-0.6c0-0.1,0-0.2,0-0.3c0-0.4-0.1-0.7-0.3-0.9c-0.2-0.2-0.5-0.4-0.8-0.4
		c-0.4,0-0.7,0.1-0.9,0.4c-0.3,0.3-0.4,0.7-0.5,1.1l0,0.3c0,0.4,0.1,0.8,0.4,1.1s0.7,0.8,1.4,1.4c0.8,0.6,1.4,1.2,1.8,1.6
		c0.4,0.4,0.7,0.9,1,1.3c0.2,0.5,0.3,1,0.3,1.6c0,0.1,0,0.3,0,0.7c-0.2,1.4-0.7,2.5-1.7,3.3c-0.9,0.8-2.1,1.2-3.4,1.2
		C109.5,100.7,108.6,100.4,107.8,99.7"/>
	<path class="st0" d="M119.1,100.3l-1.1-16v0c0-0.2,0.1-0.3,0.3-0.3h2.8c0.2,0,0.3,0.1,0.3,0.3l0.3,8.5c0,0.1,0,0.1,0.1,0.1
		c0,0,0.1,0,0.1-0.1l2.3-8.5c0-0.2,0.2-0.3,0.3-0.3h2.3c0.2,0,0.3,0.1,0.3,0.3l0.3,8.5c0,0.1,0,0.1,0.1,0.1s0.1,0,0.1-0.1l2.2-8.5
		c0-0.2,0.2-0.3,0.3-0.3h2.7c0.2,0,0.3,0.1,0.2,0.3l-4.9,16c0,0.2-0.2,0.3-0.3,0.3h-2.5c-0.2,0-0.3-0.1-0.3-0.3l-0.3-8.7
		c0-0.1,0-0.1,0-0.1c0,0-0.1,0-0.1,0.1l-2.3,8.7c0,0.2-0.2,0.3-0.3,0.3h-2.4C119.1,100.6,119.1,100.5,119.1,100.3"/>
	<path class="st0" d="M132.3,100.5c0-0.1-0.1-0.1,0-0.2l2-16c0-0.1,0.1-0.1,0.1-0.2c0.1-0.1,0.1-0.1,0.2-0.1h2.7
		c0.2,0,0.3,0.1,0.3,0.3l-2,16c0,0.1-0.1,0.1-0.1,0.2c-0.1,0.1-0.1,0.1-0.2,0.1h-2.7C132.4,100.6,132.4,100.5,132.3,100.5"/>
	<path class="st0" d="M144.4,90.6c0.4-0.5,0.5-1.1,0.5-1.9c0-0.6-0.1-1-0.4-1.3c-0.2-0.3-0.6-0.5-1-0.5h-1c-0.1,0-0.1,0-0.1,0.1
		l-0.5,4.2c0,0.1,0,0.1,0.1,0.1h1C143.5,91.3,144,91,144.4,90.6 M147.2,85.1c0.7,0.8,1,1.8,1,3c0,0.4,0,0.7,0,0.9
		c-0.2,1.5-0.7,2.6-1.6,3.5c-0.9,0.9-1.9,1.3-3.2,1.3h-1.7c-0.1,0-0.1,0-0.1,0.1l-0.8,6.3c0,0.1-0.1,0.1-0.1,0.2
		c-0.1,0.1-0.1,0.1-0.2,0.1h-2.7c-0.1,0-0.1,0-0.2-0.1c0-0.1-0.1-0.1,0-0.2l2-16c0-0.1,0.1-0.1,0.1-0.2c0.1-0.1,0.1-0.1,0.2-0.1h4.6
		C145.6,84,146.5,84.4,147.2,85.1"/>
	<path class="st0" d="M158.2,86.8c-0.1,0.1-0.1,0.1-0.2,0.1h-4.8c-0.1,0-0.1,0-0.1,0.1l-0.5,3.7c0,0.1,0,0.1,0.1,0.1h2.8
		c0.1,0,0.1,0,0.2,0.1c0,0.1,0.1,0.1,0,0.2l-0.3,2.3c0,0.1-0.1,0.1-0.1,0.2c-0.1,0.1-0.1,0.1-0.2,0.1h-2.7c-0.1,0-0.1,0-0.1,0.1
		l-0.4,3.8c0,0.1,0,0.1,0.1,0.1h4.8c0.1,0,0.1,0,0.2,0.1c0.1,0.1,0.1,0.1,0.1,0.2l-0.3,2.3c0,0.1-0.1,0.1-0.1,0.2
		c-0.1,0.1-0.1,0.1-0.2,0.1h-7.9c-0.1,0-0.1,0-0.2-0.1c0-0.1-0.1-0.1,0-0.2l2-16c0-0.1,0.1-0.1,0.1-0.2c0.1-0.1,0.1-0.1,0.2-0.1h7.9
		c0.1,0,0.1,0,0.2,0.1c0,0.1,0.1,0.1,0,0.2l-0.3,2.3C158.3,86.7,158.3,86.7,158.2,86.8"/>
	<path class="st3" d="M189,127.5h-84.2c-0.4,0-0.6-0.3-0.6-0.7l0.8-6.5c0-0.3,0.3-0.5,0.6-0.5h84.2c0.4,0,0.6,0.3,0.6,0.7l-0.8,6.5
		C189.5,127.2,189.3,127.5,189,127.5"/>
	<path class="st0" d="M170.8,97.4c0.3-0.3,0.5-0.7,0.5-1.2l1-7.8c0-0.1,0-0.2,0-0.3c0-0.4-0.1-0.8-0.3-1c-0.2-0.3-0.5-0.4-0.9-0.4
		c-0.4,0-0.8,0.2-1.1,0.5c-0.3,0.3-0.5,0.7-0.5,1.2l-1,7.8c0,0.1,0,0.2,0,0.3c0,0.4,0.1,0.8,0.3,1c0.2,0.3,0.5,0.4,0.9,0.4
		C170.2,97.9,170.5,97.7,170.8,97.4 M166.4,99.7c-0.7-0.7-1.1-1.7-1.1-2.9c0-0.2,0-0.4,0-0.8l0.9-7.6c0.2-1.4,0.7-2.6,1.7-3.4
		c0.9-0.9,2.1-1.3,3.5-1.3c1.3,0,2.3,0.4,3,1.1c0.7,0.7,1.1,1.7,1.1,2.9c0,0.2,0,0.4,0,0.8l-0.9,7.6c-0.2,1.4-0.7,2.6-1.7,3.4
		c-1,0.9-2.1,1.3-3.5,1.3C168.1,100.7,167.1,100.4,166.4,99.7"/>
	<path class="st0" d="M177.4,99.6c-0.7-0.7-1.1-1.7-1.1-2.9c0-0.4,0-0.7,0-0.9l1.4-11.6c0-0.1,0.1-0.1,0.1-0.2
		c0.1-0.1,0.1-0.1,0.2-0.1h2.7c0.2,0,0.3,0.1,0.3,0.3l-1.5,11.9c0,0.1,0,0.2,0,0.3c0,0.4,0.1,0.7,0.3,1c0.2,0.3,0.5,0.4,0.8,0.4
		c0.4,0,0.7-0.2,1-0.5c0.3-0.3,0.4-0.7,0.5-1.2l1.5-11.9c0-0.1,0.1-0.1,0.1-0.2s0.1-0.1,0.2-0.1h2.7c0.1,0,0.1,0,0.2,0.1
		s0.1,0.1,0,0.2l-1.4,11.6c-0.2,1.5-0.7,2.7-1.7,3.6c-0.9,0.9-2.1,1.3-3.5,1.3C179.1,100.7,178.1,100.4,177.4,99.6"/>
	<path class="st0" d="M198,84.1c0,0.1,0.1,0.1,0,0.2l-0.3,2.3c0,0.1-0.1,0.1-0.1,0.2c-0.1,0.1-0.1,0.1-0.2,0.1h-2.9c0,0-0.1,0-0.1,0
		c0,0,0,0.1,0,0.1l-1.6,13.3c0,0.1-0.1,0.1-0.1,0.2c-0.1,0.1-0.1,0.1-0.2,0.1h-2.7c-0.1,0-0.1,0-0.2-0.1c0-0.1-0.1-0.1,0-0.2
		l1.6-13.3c0-0.1,0-0.1-0.1-0.1h-2.7c-0.2,0-0.3-0.1-0.3-0.3l0.3-2.3c0-0.1,0.1-0.1,0.1-0.2c0.1-0.1,0.1-0.1,0.2-0.1h9.1
		C197.8,84,197.9,84,198,84.1"/>
	<path class="st0" d="M117.8,113.8c0.1-0.1,0.1-0.1,0.2-0.1h3.2c0.1,0,0.2,0,0.2,0.1c0.1,0.1,0.1,0.1,0.1,0.2l-2.3,19
		c0,0.1-0.1,0.2-0.1,0.2c-0.1,0.1-0.1,0.1-0.2,0.1h-3.2c-0.1,0-0.2,0-0.2-0.1c-0.1-0.1-0.1-0.1-0.1-0.2l1-7.7c0-0.1,0-0.1-0.1-0.1
		h-2.7c-0.1,0-0.2,0-0.2,0.1l-0.9,7.7c0,0.1-0.1,0.2-0.1,0.2c-0.1,0.1-0.2,0.1-0.3,0.1h-3.2c-0.1,0-0.2,0-0.2-0.1
		c-0.1-0.1-0.1-0.1-0.1-0.2l2.3-19c0-0.1,0.1-0.2,0.1-0.2c0.1-0.1,0.1-0.1,0.2-0.1h3.2c0.2,0,0.3,0.1,0.3,0.3l-1,7.6
		c0,0.1,0,0.1,0.1,0.1h2.7c0.1,0,0.1,0,0.2-0.1l0.9-7.6C117.7,113.9,117.7,113.9,117.8,113.8"/>
	<path class="st0" d="M123.4,132.3c-0.9-0.9-1.3-2-1.3-3.5c0-0.5,0-0.8,0.1-1l1.7-13.7c0-0.1,0.1-0.2,0.1-0.2
		c0.1-0.1,0.1-0.1,0.2-0.1h3.2c0.2,0,0.3,0.1,0.3,0.3l-1.7,14.1c0,0.1,0,0.2,0,0.4c0,0.5,0.1,0.9,0.4,1.2c0.2,0.3,0.6,0.4,1,0.4
		c0.5,0,0.9-0.2,1.2-0.6c0.3-0.4,0.5-0.9,0.6-1.5l1.7-14.1c0-0.1,0.1-0.2,0.1-0.2c0.1-0.1,0.1-0.1,0.2-0.1h3.2c0.1,0,0.2,0,0.2,0.1
		c0.1,0.1,0.1,0.1,0.1,0.2l-1.7,13.7c-0.2,1.8-0.9,3.2-2,4.2c-1.1,1.1-2.5,1.6-4.1,1.6C125.4,133.6,124.2,133.1,123.4,132.3"/>
	<path class="st0" d="M134.6,133.3c-0.1-0.1-0.1-0.1-0.1-0.2l2.3-19c0-0.1,0.1-0.2,0.1-0.2c0.1-0.1,0.1-0.1,0.2-0.1h3.4
		c0.2,0,0.3,0.1,0.3,0.3l2.2,10.5c0,0.1,0,0.1,0.1,0.1c0,0,0.1,0,0.1-0.1l1.3-10.4c0-0.1,0.1-0.2,0.1-0.2c0.1-0.1,0.1-0.1,0.2-0.1
		h3.1c0.1,0,0.2,0,0.2,0.1c0.1,0.1,0.1,0.1,0.1,0.2l-2.3,19c0,0.1-0.1,0.2-0.1,0.2c-0.1,0.1-0.1,0.1-0.2,0.1h-3.5
		c-0.2,0-0.3-0.1-0.3-0.3l-2.2-10.5c0-0.1,0-0.1-0.1-0.1s-0.1,0-0.1,0.1l-1.2,10.5c0,0.1-0.1,0.2-0.1,0.2c-0.1,0.1-0.2,0.1-0.3,0.1
		h-3.1C134.7,133.4,134.6,133.3,134.6,133.3"/>
	<path class="st0" d="M150,132.4c-0.9-0.8-1.3-1.9-1.3-3.3c0-0.2,0-0.4,0.1-0.8l1.2-9.5c0.2-1.6,0.8-2.9,2-3.9
		c1.1-1,2.5-1.4,4.1-1.4c1.5,0,2.7,0.4,3.5,1.2s1.3,1.9,1.3,3.3c0,0.2,0,0.4-0.1,0.8l-0.1,1.1c0,0.1-0.1,0.2-0.1,0.2
		c-0.1,0.1-0.2,0.1-0.3,0.1h-3.2c-0.1,0-0.2,0-0.2-0.1c-0.1-0.1-0.1-0.1-0.1-0.2l0.1-1.1c0-0.1,0-0.2,0-0.3c0-0.5-0.1-0.8-0.4-1.1
		c-0.3-0.3-0.6-0.4-1-0.4c-0.5,0-0.9,0.2-1.2,0.5c-0.3,0.3-0.5,0.8-0.6,1.4l-1.2,9.6c-0.1,0.6,0,1,0.3,1.4c0.2,0.3,0.6,0.5,1.1,0.5
		c0.5,0,0.9-0.2,1.2-0.5c0.3-0.3,0.5-0.8,0.6-1.4l0.3-2.2c0-0.1,0-0.1-0.1-0.1h-1.2c-0.1,0-0.2,0-0.2-0.1c-0.1-0.1-0.1-0.1-0.1-0.2
		l0.3-2.5c0-0.1,0-0.2,0.1-0.2c0.1-0.1,0.2-0.1,0.3-0.1h4.8c0.2,0,0.3,0.1,0.3,0.3l-0.6,5.2c-0.2,1.6-0.8,2.9-2,3.9
		c-1.1,1-2.5,1.4-4.1,1.4C152.1,133.6,150.9,133.2,150,132.4"/>
	<path class="st0" d="M173,117c-0.1,0.1-0.1,0.1-0.2,0.1h-5.7c-0.1,0-0.1,0-0.1,0.1l-0.6,4.4c0,0.1,0,0.1,0.1,0.1h3.3
		c0.1,0,0.2,0,0.2,0.1c0.1,0.1,0.1,0.1,0.1,0.2l-0.3,2.7c0,0.1-0.1,0.2-0.1,0.2c-0.1,0.1-0.1,0.1-0.2,0.1h-3.3c-0.1,0-0.2,0-0.2,0.1
		l-0.5,4.5c0,0.1,0,0.1,0.1,0.1h5.7c0.1,0,0.2,0,0.2,0.1c0.1,0.1,0.1,0.1,0.1,0.2l-0.3,2.7c0,0.1-0.1,0.2-0.1,0.2
		c-0.1,0.1-0.1,0.1-0.2,0.1h-9.4c-0.1,0-0.2,0-0.2-0.1c-0.1-0.1-0.1-0.1-0.1-0.2l2.3-19c0-0.1,0.1-0.2,0.1-0.2
		c0.1-0.1,0.1-0.1,0.2-0.1h9.4c0.1,0,0.2,0,0.2,0.1c0.1,0.1,0.1,0.1,0.1,0.2l-0.3,2.7C173.1,116.8,173.1,116.9,173,117"/>
	<path class="st0" d="M178.9,117.2l-0.6,4.8c0,0.1,0,0.1,0.1,0.1h1.2c0.6,0,1.1-0.3,1.6-0.8c0.4-0.6,0.6-1.3,0.6-2.2
		c0-0.6-0.1-1.1-0.4-1.5c-0.3-0.4-0.7-0.5-1.2-0.5H179C178.9,117.1,178.9,117.1,178.9,117.2 M180.2,133.1l-1.2-7.8
		c0-0.1-0.1-0.1-0.1-0.1H178c-0.1,0-0.2,0-0.2,0.1l-0.9,7.7c0,0.1-0.1,0.2-0.1,0.2c-0.1,0.1-0.2,0.1-0.3,0.1h-3.2
		c-0.1,0-0.2,0-0.2-0.1s-0.1-0.1-0.1-0.2l2.3-19c0-0.1,0.1-0.2,0.1-0.2c0.1-0.1,0.1-0.1,0.2-0.1h5.5c1.4,0,2.4,0.4,3.2,1.3
		c0.8,0.9,1.2,2.1,1.2,3.6c0,0.5,0,0.8-0.1,1c-0.1,1.1-0.4,2.1-1,2.9c-0.5,0.9-1.2,1.5-2,2c0,0-0.1,0-0.1,0.1c0,0,0,0.1,0,0.1
		l1.5,8.3v0.1c0,0.1,0,0.2-0.1,0.2c-0.1,0.1-0.1,0.1-0.2,0.1h-3.3C180.4,133.4,180.3,133.3,180.2,133.1"/>
</g>
<g>
	<path class="st2" d="M203.2,135.2c0-0.1,0-0.2,0-0.3l5.6-10.9c0-0.1,0.1-0.1,0-0.2l-3-10.9l0-0.1c0-0.2,0.1-0.3,0.4-0.3h3.8
		c0.2,0,0.3,0.1,0.4,0.3l1.4,6.3c0,0.1,0,0.1,0.1,0.1s0.1,0,0.1-0.1l2.9-6.3c0.1-0.2,0.3-0.3,0.5-0.3h3.7c0.2,0,0.2,0,0.3,0.1
		c0,0.1,0,0.2,0,0.3l-5.6,10.9c0,0.1-0.1,0.1,0,0.2l3,10.9l0,0.1c0,0.1,0,0.2-0.1,0.2c-0.1,0.1-0.2,0.1-0.3,0.1h-3.7
		c-0.2,0-0.3-0.1-0.4-0.3l-1.4-6.2c0-0.1,0-0.1-0.1-0.1c0,0-0.1,0-0.1,0.1l-2.9,6.2c-0.1,0.2-0.3,0.3-0.5,0.3h-3.7
		C203.4,135.4,203.3,135.3,203.2,135.2z"/>
	<path class="st2" d="M218.3,135.2c0-0.1,0-0.2,0-0.3l5.6-10.9c0-0.1,0.1-0.1,0-0.2l-3-10.9l0-0.1c0-0.2,0.1-0.3,0.4-0.3h3.8
		c0.2,0,0.3,0.1,0.4,0.3l1.4,6.3c0,0.1,0,0.1,0.1,0.1s0.1,0,0.1-0.1l2.9-6.3c0.1-0.2,0.3-0.3,0.5-0.3h3.7c0.2,0,0.2,0,0.3,0.1
		c0,0.1,0,0.2,0,0.3l-5.6,10.9c0,0.1-0.1,0.1,0,0.2l3,10.9l0,0.1c0,0.1,0,0.2-0.1,0.2c-0.1,0.1-0.2,0.1-0.3,0.1h-3.7
		c-0.2,0-0.3-0.1-0.4-0.3l-1.4-6.2c0-0.1,0-0.1-0.1-0.1c0,0-0.1,0-0.1,0.1l-2.9,6.2c-0.1,0.2-0.3,0.3-0.5,0.3h-3.7
		C218.4,135.4,218.3,135.3,218.3,135.2z"/>
	<path class="st2" d="M233.3,135.2c0-0.1,0-0.2,0-0.3l5.6-10.9c0-0.1,0.1-0.1,0-0.2l-3-10.9l0-0.1c0-0.2,0.1-0.3,0.4-0.3h3.8
		c0.2,0,0.3,0.1,0.4,0.3l1.4,6.3c0,0.1,0,0.1,0.1,0.1s0.1,0,0.1-0.1l2.9-6.3c0.1-0.2,0.3-0.3,0.5-0.3h3.7c0.2,0,0.2,0,0.3,0.1
		c0,0.1,0,0.2,0,0.3l-5.6,10.9c0,0.1-0.1,0.1,0,0.2l3,10.9l0,0.1c0,0.1,0,0.2-0.1,0.2c-0.1,0.1-0.2,0.1-0.3,0.1h-3.7
		c-0.2,0-0.3-0.1-0.4-0.3l-1.4-6.2c0-0.1,0-0.1-0.1-0.1c0,0-0.1,0-0.1,0.1l-2.9,6.2c-0.1,0.2-0.3,0.3-0.5,0.3h-3.7
		C233.4,135.4,233.3,135.3,233.3,135.2z"/>
	<path class="st2" d="M248.3,135.2c0-0.1,0-0.2,0-0.3l5.6-10.9c0-0.1,0.1-0.1,0-0.2l-3-10.9l0-0.1c0-0.2,0.1-0.3,0.4-0.3h3.8
		c0.2,0,0.3,0.1,0.4,0.3l1.4,6.3c0,0.1,0,0.1,0.1,0.1s0.1,0,0.1-0.1l2.9-6.3c0.1-0.2,0.3-0.3,0.5-0.3h3.7c0.2,0,0.2,0,0.3,0.1
		c0,0.1,0,0.2,0,0.3l-5.6,10.9c0,0.1-0.1,0.1,0,0.2l3,10.9l0,0.1c0,0.1,0,0.2-0.1,0.2c-0.1,0.1-0.2,0.1-0.3,0.1h-3.7
		c-0.2,0-0.3-0.1-0.4-0.3l-1.4-6.2c0-0.1,0-0.1-0.1-0.1c0,0-0.1,0-0.1,0.1l-2.9,6.2c-0.1,0.2-0.3,0.3-0.5,0.3h-3.7
		C248.5,135.4,248.4,135.3,248.3,135.2z"/>
</g>
</svg>
