<svg id="Layer_1" data-name="Layer 1" xmlns="http://www.w3.org/2000/svg" viewBox="0 0 406.1 97.7"><defs><style>.cls-1{fill:#42ebb5;}.cls-2{fill:#fff;}.cls-3{fill:#1a0a29;}.cls-4{fill:#ff2e66;}</style></defs><title>soh-logo_lockup-01</title><path class="cls-1" d="M160.6,39.2H11.4A4.4,4.4,0,0,1,7,34.3L10.7,3.9A4.5,4.5,0,0,1,15.1,0H164.4a4.3,4.3,0,0,1,4.3,4.9L165,35.3a4.4,4.4,0,0,1-4.4,3.9"/><path class="cls-2" d="M8.1,95.8a6.1,6.1,0,0,1-4.7-2.1,6.2,6.2,0,0,1-1.5-4.9L6.5,51a6.4,6.4,0,0,1,6.3-5.5H154.9a6.4,6.4,0,0,1,6.3,7l-4.7,37.8a6.2,6.2,0,0,1-6.2,5.5Z"/><path class="cls-3" d="M154.9,43.6H12.8a8.1,8.1,0,0,0-8.1,7.1L.1,88.6A8.3,8.3,0,0,0,2,95a8.4,8.4,0,0,0,6.1,2.7H150.3a8.2,8.2,0,0,0,8.1-7.1L163,52.7a7.9,7.9,0,0,0-2-6.4,8.1,8.1,0,0,0-6.1-2.7m0,3.7a4.4,4.4,0,0,1,4.4,4.9L154.7,90a4.5,4.5,0,0,1-4.4,3.9H8.1a4.4,4.4,0,0,1-4.4-4.9L8.4,51.3a4.4,4.4,0,0,1,4.4-3.9Z"/><path class="cls-3" d="M20.2,31.4a5.8,5.8,0,0,1-1.7-4.3,4.6,4.6,0,0,1,.1-1V24.9l.2-.3h4.8a.4.4,0,0,1,.1.3v1c-.1.1-.1.2-.1.5a2.5,2.5,0,0,0,.5,1.5,1.4,1.4,0,0,0,1.3.5,1.8,1.8,0,0,0,1.6-.8,3,3,0,0,0,.1-3.7l-2.4-2.2-2.5-2.1a7.6,7.6,0,0,1-1.5-2.3,5.6,5.6,0,0,1-.7-3,5.4,5.4,0,0,1,.1-1.1,7.8,7.8,0,0,1,2.5-5.1,8,8,0,0,1,5.3-1.9,6.5,6.5,0,0,1,4.6,1.7,5.6,5.6,0,0,1,1.7,4.3c0,.3-.1.7-.1,1.2v.9l-.2.3H29c0-.1-.1-.2,0-.3V12.8a2,2,0,0,0-.5-1.5,1.4,1.4,0,0,0-1.3-.5,2,2,0,0,0-1.4.6,2.5,2.5,0,0,0-.8,1.8v.5a2.7,2.7,0,0,0,.6,1.7l2.2,2.2a26.3,26.3,0,0,1,2.8,2.5,6.5,6.5,0,0,1,1.6,2.1,6.6,6.6,0,0,1,.5,2.5,5.4,5.4,0,0,1-.1,1.1A7.5,7.5,0,0,1,30.1,31a7.6,7.6,0,0,1-5.3,2,6.9,6.9,0,0,1-4.6-1.6"/><path class="cls-3" d="M37.9,32.3,36.1,7h0a.5.5,0,0,1,.5-.4H41a.4.4,0,0,1,.4.4l.4,13.5a.1.1,0,0,0,.1.1c.1,0,.1,0,.1-.1L45.7,6.9a.5.5,0,0,1,.5-.4h3.6a.4.4,0,0,1,.4.4l.5,13.5a.1.1,0,0,0,.1.1H51L54.4,6.9a.7.7,0,0,1,.6-.4h4.2c.3,0,.5.2.4.5L51.9,32.3a.7.7,0,0,1-.5.4h-4a.4.4,0,0,1-.4-.4l-.4-13.9h-.2L42.7,32.3a.5.5,0,0,1-.5.4H38.4a.5.5,0,0,1-.5-.4"/><path class="cls-3" d="M58.9,32.5a.4.4,0,0,1-.1-.3L61.9,7l.2-.3.3-.2h4.2c.3,0,.4.2.4.5L63.9,32.2a.4.4,0,0,1-.1.3l-.4.2H59.2l-.3-.2"/><path class="cls-3" d="M77.9,16.9a5,5,0,0,0,.9-3.1,3,3,0,0,0-.6-2,1.9,1.9,0,0,0-1.6-.7H74.8L74,17.8c0,.1,0,.2.1.2h1.6a2.8,2.8,0,0,0,2.2-1.1m4.4-8.6A6.7,6.7,0,0,1,83.9,13a4.9,4.9,0,0,1-.1,1.4A9,9,0,0,1,81.4,20a6.9,6.9,0,0,1-5.1,2.1H73.6c-.1,0-.1.1-.2.2l-1.2,9.9-.2.3-.3.2H67.5l-.3-.2a.4.4,0,0,1-.1-.3L70.2,6.9c0-.1.1-.2.2-.3H78a5.4,5.4,0,0,1,4.3,1.8"/><path class="cls-3" d="M99.8,10.9l-.4.2H91.7l-.8,5.9c0,.2.1.2.2.2h4.3c.2,0,.3.1.3.2s.1.1.1.3l-.4,3.6-.2.3H90.6c-.2,0-.3.1-.3.2l-.7,6c0,.1,0,.1.2.1h7.5l.3.2a.4.4,0,0,1,.1.3l-.4,3.6-.2.3-.3.2H84.4c-.2,0-.3-.1-.3-.2a.4.4,0,0,1-.1-.3L87.1,7l.2-.3c0-.1.1-.2.3-.2H100l.3.2a.4.4,0,0,1,.1.3l-.5,3.6v.3"/><path class="cls-4" d="M148.2,76.8H13.8a1,1,0,0,1-.9-1.1l1.3-10.3a.9.9,0,0,1,.9-.9H149.5a.9.9,0,0,1,.9,1.1l-1.2,10.3a1.1,1.1,0,0,1-1,.9"/><path class="cls-3" d="M119.7,27.7a3.7,3.7,0,0,0,.8-1.9L122,13.4c.1-.1.1-.2.1-.4a2.3,2.3,0,0,0-.5-1.6,2,2,0,0,0-1.5-.6,2.3,2.3,0,0,0-1.7.7,3.7,3.7,0,0,0-.8,1.9l-1.5,12.4c-.1.1-.1.2-.1.4a2.1,2.1,0,0,0,.6,1.6,1.6,1.6,0,0,0,1.3.6,2.4,2.4,0,0,0,1.8-.7m-7,3.6a5.8,5.8,0,0,1-1.8-4.5,5.7,5.7,0,0,1,.1-1.2l1.4-12a8.2,8.2,0,0,1,2.7-5.3,7.8,7.8,0,0,1,5.6-2.1,6.4,6.4,0,0,1,4.7,1.7,5.8,5.8,0,0,1,1.8,4.5,5.7,5.7,0,0,1-.1,1.2l-1.4,12a8.2,8.2,0,0,1-2.7,5.3,7.9,7.9,0,0,1-5.6,2.1,6.4,6.4,0,0,1-4.7-1.7"/><path class="cls-3" d="M130,31.2a6.4,6.4,0,0,1-1.7-4.6c0-.6.1-1.1.1-1.4L130.7,7a.4.4,0,0,1,.1-.3l.3-.2h4.3a.5.5,0,0,1,.4.5l-2.3,18.8a.7.7,0,0,0-.1.5,2.3,2.3,0,0,0,.5,1.5,1.6,1.6,0,0,0,1.3.6,2,2,0,0,0,1.6-.7,3.7,3.7,0,0,0,.8-1.9L139.9,7l.2-.3.3-.2h4.3l.3.2c0,.1.1.2,0,.3l-2.2,18.2a9.3,9.3,0,0,1-2.7,5.7,7.6,7.6,0,0,1-5.4,2.1,6.3,6.3,0,0,1-4.7-1.8"/><path class="cls-3" d="M162.5,6.7a.4.4,0,0,1,.1.3l-.4,3.6-.2.3-.3.2h-4.8l-2.5,21-.2.3-.3.2h-4.3l-.3-.2a.4.4,0,0,1-.1-.3l2.6-21c.1-.1,0-.1-.1-.1h-4.4a.5.5,0,0,1-.4-.5l.5-3.6.2-.3c0-.1.1-.2.3-.2h14.3c.2,0,.3.1.3.2"/><path class="cls-3" d="M34.7,55.1a.5.5,0,0,1,.4-.2h5.1a.5.5,0,0,1,.4.2c.1.1.1.2.1.4L36.9,85.8a.8.8,0,0,1-.2.4H30.9a.6.6,0,0,1-.1-.4l1.5-12.2c0-.2,0-.3-.2-.3H27.8a.3.3,0,0,0-.3.3L26,85.8a.8.8,0,0,1-.2.4H20a.6.6,0,0,1-.1-.4l3.7-30.3a.5.5,0,0,1,.2-.4l.4-.2h5.1c.3,0,.5.2.5.6L28.2,67.7l.2.2h4.4l.2-.2,1.5-12.2a.5.5,0,0,1,.2-.4"/><path class="cls-3" d="M43.6,84.6a7.8,7.8,0,0,1-2-5.6,7.1,7.1,0,0,1,.1-1.6l2.7-21.9a.7.7,0,0,1,.6-.6h5c.4,0,.5.2.5.6L47.7,78v.7a2.6,2.6,0,0,0,.6,1.8,1.9,1.9,0,0,0,1.6.8,2.6,2.6,0,0,0,1.9-.9,4.3,4.3,0,0,0,.9-2.4l2.8-22.5a.7.7,0,0,1,.6-.6h5.1l.4.2c0,.1.1.2,0,.4L59,77.4a11.2,11.2,0,0,1-3.2,6.8,9.7,9.7,0,0,1-6.6,2.5,7.5,7.5,0,0,1-5.6-2.1"/><path class="cls-3" d="M61.5,86.2a.6.6,0,0,1-.1-.4l3.7-30.3.2-.4.4-.2h5.5c.3,0,.4.2.5.5l3.6,16.8h.1c.1,0,.1-.1.1-.2l2.1-16.6a.5.5,0,0,1,.2-.4l.3-.2h5.1l.3.2c.1.1.1.2.1.4L79.9,85.8a.8.8,0,0,1-.2.4H73.8c-.3,0-.5-.1-.5-.4L69.7,69.1c0-.1,0-.2-.1-.2l-.2.2L67.5,85.8c-.1.1-.1.3-.2.4H61.5"/><path class="cls-3" d="M86.2,84.8a6.9,6.9,0,0,1-2-5.3V78.2l1.9-15.1a9.1,9.1,0,0,1,3.1-6.2,10,10,0,0,1,6.6-2.3,7.6,7.6,0,0,1,5.6,1.9,6.9,6.9,0,0,1,2.1,5.3,7.2,7.2,0,0,1-.1,1.3v1.7c-.1.2-.1.3-.3.4H97.2c-.1-.1-.1-.2-.1-.4l.2-1.8a.7.7,0,0,0,.1-.5,2.4,2.4,0,0,0-.6-1.8,2.1,2.1,0,0,0-1.7-.7,2.9,2.9,0,0,0-1.9.8,4.1,4.1,0,0,0-1,2.2L90.3,78.3a3.3,3.3,0,0,0,.5,2.1,2,2,0,0,0,1.7.9,2.7,2.7,0,0,0,2-.9,4.1,4.1,0,0,0,1-2.1l.4-3.6c0-.2-.1-.3-.2-.3H93.4c0-.1-.1-.2,0-.4l.4-4a.8.8,0,0,1,.2-.4h8.1c.4,0,.5.2.5.5l-1,8.3a9.3,9.3,0,0,1-3.1,6.2,10,10,0,0,1-6.6,2.3,8.5,8.5,0,0,1-5.7-1.9"/><path class="cls-3" d="M122.9,60.2l-.4.2h-9.1c-.2,0-.2,0-.2.2l-.9,7.1c0,.1,0,.2.2.2h5.2l.4.2a.4.4,0,0,1,.1.3l-.6,4.4a.8.8,0,0,1-.2.4h-5.6c-.2,0-.2.1-.2.3l-.9,7.1c-.1.1,0,.2.2.2h9l.4.2c.1.1.2.2.1.3l-.5,4.4a.8.8,0,0,1-.2.4H104a.6.6,0,0,1-.1-.4l3.8-30.3a.5.5,0,0,1,.2-.4l.3-.2h15l.3.2c.1.1.2.2.1.4l-.5,4.3a.5.5,0,0,1-.2.4"/><path class="cls-3" d="M132.2,60.6l-.9,7.6c-.1.2,0,.2.2.2h1.9a3.2,3.2,0,0,0,2.6-1.3,6.1,6.1,0,0,0,1-3.5,3.6,3.6,0,0,0-.7-2.4,2.6,2.6,0,0,0-1.9-.8h-1.9c-.2,0-.3,0-.3.2m2.2,25.3-1.9-12.4a.2.2,0,0,0-.2-.2h-1.4a.3.3,0,0,0-.3.3l-1.5,12.2a.8.8,0,0,1-.2.4h-5.8a.6.6,0,0,1-.1-.4l3.7-30.4c0-.1.1-.2.2-.3s.2-.2.4-.2h8.8a6.7,6.7,0,0,1,5.2,2.1,8.5,8.5,0,0,1,1.9,5.7c0,.7-.1,1.3-.1,1.7a11.9,11.9,0,0,1-1.5,4.6,8.9,8.9,0,0,1-3.2,3.2h-.1v.2l2.4,13.2h0a.8.8,0,0,1-.2.4h-5.6c-.3,0-.5-.1-.5-.4"/><path class="cls-1" d="M399.5,70.9H164.8l2.9-23.3a4.2,4.2,0,0,1,4.3-3.8H401.8a4.4,4.4,0,0,1,4.3,4.9l-2.3,18.4a4.3,4.3,0,0,1-4.3,3.8"/><path class="cls-1" d="M349.7,97.6H166.4a4.3,4.3,0,0,1-4.3-4.8l2.8-22.2h192l-2.8,23.2a4.4,4.4,0,0,1-4.4,3.8"/><path class="cls-3" d="M176.4,65.8a3.8,3.8,0,0,1-1.1-2.8,1.5,1.5,0,0,1,.1-.6v-.8c0-.1,0-.2.1-.2s.1-.1.2-.1h2.7c.1,0,.2,0,.2.1s.1.1.1.2v.9a1.5,1.5,0,0,0,.3,1,1,1,0,0,0,.8.4,1.4,1.4,0,0,0,1.1-.6,1.7,1.7,0,0,0,.4-1.3,1.5,1.5,0,0,0-.4-1.1,11,11,0,0,0-1.5-1.4l-1.7-1.4a5.6,5.6,0,0,1-1-1.5,4.2,4.2,0,0,1-.4-2v-.7a5.3,5.3,0,0,1,1.7-3.3,4.8,4.8,0,0,1,3.5-1.3,4.4,4.4,0,0,1,3,1.1,4,4,0,0,1,1.1,2.9,5.6,5.6,0,0,0-.1.7v.6c0,.1,0,.2-.1.2s-.1.1-.2.1h-2.9a.1.1,0,0,1,0-.2v-.7c.1,0,.1-.1.1-.3a1.3,1.3,0,0,0-.4-1,1.1,1.1,0,0,0-.8-.3,1.3,1.3,0,0,0-1,.4,3.3,3.3,0,0,0-.5,1.2v.3a1.5,1.5,0,0,0,.4,1.1l1.5,1.5a10,10,0,0,1,1.8,1.6,3.3,3.3,0,0,1,1,1.4,3.1,3.1,0,0,1,.4,1.7,1.8,1.8,0,0,1-.1.6,4.9,4.9,0,0,1-1.7,3.5,5.1,5.1,0,0,1-3.5,1.2A4.4,4.4,0,0,1,176.4,65.8Z"/><path class="cls-3" d="M197.2,49.6v.2l-.3,2.4c0,.1-.1.1-.1.2h-3.3l-1.7,13.7a.3.3,0,0,1-.1.2h-3.2c-.1,0-.1-.1-.1-.2l1.7-13.7c0-.1,0-.1-.1-.1h-2.8a.3.3,0,0,1-.3-.3l.3-2.4c0-.1.1-.1.1-.2H197C197.1,49.5,197.2,49.5,197.2,49.6Z"/><path class="cls-3" d="M198.4,65.7a4.5,4.5,0,0,1-1.1-3.1,1.9,1.9,0,0,1,.1-.8l1.4-12c0-.1.1-.1.1-.2h3a.3.3,0,0,1,.3.3l-1.5,12.3c-.1.1-.1.2-.1.4a1.7,1.7,0,0,0,.3,1,1.5,1.5,0,0,0,.9.4,1.2,1.2,0,0,0,1-.5,2.6,2.6,0,0,0,.6-1.3l1.5-12.3v-.2h3.2c0,.1.1.1,0,.2l-1.4,12a5.7,5.7,0,0,1-1.8,3.6,4.5,4.5,0,0,1-3.6,1.4A4,4,0,0,1,198.4,65.7Z"/><path class="cls-3" d="M208.3,66.5c-.1,0-.1-.1-.1-.2l2.1-16.5v-.2c0-.1.1-.1.2-.1h4.3a4.5,4.5,0,0,1,3.1,1.1,4,4,0,0,1,1.1,2.9v.8l-1,7.6a5.1,5.1,0,0,1-1.7,3.4,5.2,5.2,0,0,1-3.6,1.3h-4.5Zm3.7-2.8h1.1a2.4,2.4,0,0,0,1.1-.6,3,3,0,0,0,.6-1.4l.9-7.2v-.4a2.1,2.1,0,0,0-.3-1.2,1.1,1.1,0,0,0-1-.4h-1c-.1,0-.1,0-.1.1l-1.4,11A.1.1,0,0,0,212,63.7Z"/><path class="cls-3" d="M229.9,52.4h-5.2c-.1,0-.1,0-.1.1l-.5,3.9a.1.1,0,0,0,.1.1H227c.1,0,.2,0,.2.1s.1.1.1.2l-.3,2.3c0,.1-.1.2-.1.3h-3.1c-.1,0-.1.1-.1.2l-.5,3.9a.1.1,0,0,0,.1.1h5.2V64l-.3,2.3c0,.1,0,.2-.1.2h-8.5c-.1,0-.1-.1-.1-.2l2.1-16.5v-.2c0-.1.1-.1.2-.1H230c.1,0,.2,0,.2.1v.2l-.3,2.4C230,52.3,229.9,52.3,229.9,52.4Z"/><path class="cls-3" d="M230,66.5a.1.1,0,0,1,0-.2l2-16.5v-.2c0-.1.1-.1.2-.1h3q.1,0,.3.3l1.9,9.1c0,.1,0,.1.1.1a.1.1,0,0,1,.1-.1l1.1-9.1v-.2c0-.1.1-.1.2-.1h2.7c.1,0,.2,0,.2.1v.2L240,66.3c0,.1,0,.2-.1.2h-3.2c-.2,0-.3,0-.3-.2l-1.9-9.2a.1.1,0,0,0-.1-.1h-.1l-1,9.1-.2.2H230Z"/><path class="cls-3" d="M253.6,49.6c0,.1.1.1,0,.2l-.2,2.4-.2.2H250a.1.1,0,0,0-.1.1l-1.7,13.7c0,.1,0,.2-.1.2h-3.2v-.2l1.7-13.7c0-.1,0-.1-.1-.1h-2.9c-.1,0-.2-.1-.2-.3l.3-2.4v-.2c0-.1.1-.1.2-.1h9.4C253.5,49.5,253.6,49.5,253.6,49.6Z"/><path class="cls-3" d="M266.1,49.6c0-.1.1-.1.2-.1h3v.2l-2,16.5a.3.3,0,0,1-.1.2H264c-.1,0-.1-.1-.1-.2l.9-6.6a.3.3,0,0,0-.1-.2h-2.4a.2.2,0,0,0-.2.2l-.8,6.6c0,.1,0,.2-.1.2H258v-.2l2-16.5c0-.1.1-.1.1-.2h3a.3.3,0,0,1,.3.3l-.9,6.7H265a.1.1,0,0,0,.1-.1l.9-6.7Z"/><path class="cls-3" d="M270.9,65.7a4.5,4.5,0,0,1-1.1-3.1,1.9,1.9,0,0,1,.1-.8l1.4-12c0-.1.1-.1.1-.2h3a.3.3,0,0,1,.3.3l-1.5,12.3c-.1.1-.1.2-.1.4a1.3,1.3,0,0,0,.4,1,1.2,1.2,0,0,0,.8.4,1.6,1.6,0,0,0,1.1-.5,3.9,3.9,0,0,0,.5-1.3l1.5-12.3v-.2h3.2c0,.1.1.1,0,.2l-1.4,12a5.7,5.7,0,0,1-1.8,3.6,4.5,4.5,0,0,1-3.6,1.4A4,4,0,0,1,270.9,65.7Z"/><path class="cls-3" d="M280.8,66.5v-.2l2-16.5c0-.1.1-.1.1-.2h3.2q.1,0,.3.3l1.9,9.1c0,.1,0,.1.1.1h.1l1.1-9.1v-.2c0-.1.1-.1.2-.1h2.7c.1,0,.2,0,.2.1v.2l-2.1,16.5c0,.1,0,.2-.1.2h-3.2c-.1,0-.2,0-.3-.2l-1.9-9.2a.1.1,0,0,0-.1-.1.1.1,0,0,1-.1.1l-1,9.1a.3.3,0,0,1-.1.2h-3.2Z"/><path class="cls-3" d="M294.3,65.8a3.6,3.6,0,0,1-1.1-2.9v-.7l1-8.3a5.3,5.3,0,0,1,1.7-3.3,5.2,5.2,0,0,1,3.6-1.3,4.5,4.5,0,0,1,3.1,1.1,3.6,3.6,0,0,1,1.1,2.9v1.6c0,.1-.1.1-.1.2h-3c-.1,0-.2,0-.2-.1s-.1-.1-.1-.2l.2-1v-.3a1.7,1.7,0,0,0-.3-1,1.6,1.6,0,0,0-.9-.3,1.5,1.5,0,0,0-1.1.4,1.7,1.7,0,0,0-.5,1.2l-1.1,8.3a2.1,2.1,0,0,0,.3,1.2,1.1,1.1,0,0,0,.9.5,1.6,1.6,0,0,0,1.1-.5,1.7,1.7,0,0,0,.5-1.2l.3-1.9h-1.4v-.2l.3-2.2c0-.1,0-.2.1-.2s.1-.1.2-.1H303c.2,0,.2.1.2.3l-.5,4.5a5.3,5.3,0,0,1-1.7,3.4,5.6,5.6,0,0,1-3.6,1.2A4.3,4.3,0,0,1,294.3,65.8Z"/><path class="cls-3" d="M314.3,52.4h-5.2c-.1,0-.1,0-.1.1l-.5,3.9a.1.1,0,0,0,.1.1h3.1v.2l-.3,2.3a.4.4,0,0,1-.1.3h-3a.2.2,0,0,0-.2.2l-.5,3.9a.1.1,0,0,0,.1.1h5.2c.1,0,.1.1.1.2l-.3,2.3v.2H304a.1.1,0,0,1,0-.2l2-16.5v-.2h8.3c.1,0,.2,0,.2.1v.2l-.3,2.4C314.4,52.3,314.3,52.3,314.3,52.4Z"/><path class="cls-3" d="M320.6,66.4l-1-6.8h-.9a.2.2,0,0,0-.2.2l-.8,6.6a.3.3,0,0,1-.1.2h-3.2c-.1,0-.1-.1-.1-.2l2.1-16.5c0-.1,0-.2.1-.2s.1-.1.2-.1h4.8a3.5,3.5,0,0,1,2.8,1.2,4.2,4.2,0,0,1,1.1,3c0,.4-.1.7-.1,1a7.3,7.3,0,0,1-.8,2.5,5.5,5.5,0,0,1-1.7,1.7.1.1,0,0,0-.1.1h0l1.3,7.2h0c0,.1,0,.2-.1.2h-3C320.7,66.6,320.6,66.6,320.6,66.4Zm-1.2-13.8-.5,4.2c-.1,0,0,.1.1.1h1a1.9,1.9,0,0,0,1.4-.7,3.2,3.2,0,0,0,.6-2,1.8,1.8,0,0,0-.4-1.3,1.3,1.3,0,0,0-1-.4h-1.1C319.4,52.5,319.4,52.5,319.4,52.6Z"/><path class="cls-3" d="M330.3,66.5v-.2l2-16.5c0-.1.1-.1.1-.2h3a.3.3,0,0,1,.3.3l-2.1,16.5c0,.1,0,.2-.1.2h-3.2Z"/><path class="cls-3" d="M337,65.8a3.8,3.8,0,0,1-1.1-2.8,1.5,1.5,0,0,1,.1-.6v-.8c0-.1,0-.2.1-.2s.1-.1.2-.1h2.7c.1,0,.2,0,.2.1s.1.1.1.2v.9a1.5,1.5,0,0,0,.3,1,1.2,1.2,0,0,0,.8.4,1.4,1.4,0,0,0,1.1-.6,1.7,1.7,0,0,0,.4-1.3,1.5,1.5,0,0,0-.4-1.1,11,11,0,0,0-1.5-1.4l-1.6-1.4a5.8,5.8,0,0,1-1.1-1.5,4.2,4.2,0,0,1-.4-2v-.7a5.3,5.3,0,0,1,1.7-3.3,4.8,4.8,0,0,1,3.5-1.3,4.4,4.4,0,0,1,3,1.1,4,4,0,0,1,1.1,2.9,2.3,2.3,0,0,1-.1.7v.6c0,.1,0,.2-.1.2s-.1.1-.2.1h-2.9v-.9c.1,0,.1-.1.1-.3a1.3,1.3,0,0,0-.4-1,1.1,1.1,0,0,0-.8-.3,1.3,1.3,0,0,0-1,.4,3.3,3.3,0,0,0-.5,1.2v.3a1.5,1.5,0,0,0,.4,1.1,20.6,20.6,0,0,0,1.5,1.5,10,10,0,0,1,1.8,1.6,3.3,3.3,0,0,1,1,1.4,3.1,3.1,0,0,1,.4,1.7,1.8,1.8,0,0,1-.1.6,4.9,4.9,0,0,1-1.7,3.5,5.1,5.1,0,0,1-3.5,1.2A4.4,4.4,0,0,1,337,65.8Z"/><path class="cls-3" d="M357.3,66.4l-1-6.8h-.9c-.1,0-.1.1-.1.2l-.8,6.6-.2.2h-3.1c-.1,0-.1-.1-.1-.2l2-16.5a.3.3,0,0,0,.1-.2h5a3.7,3.7,0,0,1,2.9,1.2,4.2,4.2,0,0,1,1,3v1a7.5,7.5,0,0,1-.9,2.5,4.6,4.6,0,0,1-1.7,1.7.1.1,0,0,1-.1.1h0l1.3,7.2h0v.2h-3.1C357.4,66.6,357.3,66.6,357.3,66.4Zm-1.2-13.8-.5,4.2a.1.1,0,0,0,.1.1h1.1a2.1,2.1,0,0,0,1.4-.7,3.9,3.9,0,0,0,.5-2,2.5,2.5,0,0,0-.3-1.3,1.4,1.4,0,0,0-1.1-.4h-1C356.2,52.5,356.1,52.5,356.1,52.6Z"/><path class="cls-3" d="M372.1,52.4h-5.2a.1.1,0,0,0-.1.1l-.5,3.9h3.2v.2l-.3,2.3a.4.4,0,0,1-.1.3h-3a.2.2,0,0,0-.2.2l-.4,3.9c-.1,0,0,.1.1.1h5.1c.1,0,.1.1.1.2l-.3,2.3a.3.3,0,0,1-.1.2h-8.6v-.2l2-16.5c0-.1.1-.1.1-.2h8.6v.2l-.3,2.4Z"/><path class="cls-3" d="M379,66.4V64c.1,0,0,0,0-.1h-3c-.1,0-.2,0-.2.1l-.7,2.4-.4.2h-2.7c-.3,0-.3-.1-.2-.3l5.5-16.5a.3.3,0,0,1,.3-.3h3.2a.3.3,0,0,1,.3.3l1.4,16.5h0a.2.2,0,0,1-.2.2h-2.9C379.1,66.6,379,66.5,379,66.4Zm-2.3-5.2h2c.1,0,.1,0,.1-.1l-.2-6.3h-.1l-1.9,6.3C376.6,61.2,376.6,61.2,376.7,61.2Z"/><path class="cls-3" d="M384.5,66.5c-.1,0-.1-.1-.1-.2l2.1-16.5v-.2c0-.1.1-.1.2-.1h2.7a.3.3,0,0,1,.3.3l-1.7,13.8a.1.1,0,0,0,.1.1h5c.2,0,.2.1.2.3l-.2,2.3c-.1.1-.1.2-.2.2h-8.5Z"/><path class="cls-3" d="M395.2,66.2a1.9,1.9,0,0,1-.5-1.3,1.9,1.9,0,0,1,.4-1.2,3.4,3.4,0,0,1,.8-.9l1.1-.3a2.1,2.1,0,0,1,1.3.5,2.2,2.2,0,0,1,.5,1.4,2.4,2.4,0,0,1-2.3,2.3A1.5,1.5,0,0,1,395.2,66.2Z"/><path class="cls-3" d="M173.4,92l-1.2-16.6h0a.3.3,0,0,1,.3-.3h2.9a.3.3,0,0,1,.3.3l.3,8.8h.1l2.4-8.8a.3.3,0,0,1,.3-.3h2.4a.3.3,0,0,1,.3.3l.3,8.8h.1l2.3-8.8c.1-.2.2-.3.4-.3h2.8c.2,0,.2.1.2.3l-5,16.6c-.1.2-.2.2-.4.2h-2.6c-.1,0-.2,0-.2-.2l-.3-9.1a.1.1,0,0,0-.1-.1.1.1,0,0,1-.1.1L176.6,92c-.1.2-.2.2-.4.2h-2.5C173.5,92.2,173.4,92.2,173.4,92Z"/><path class="cls-3" d="M197.4,78h-5.1c-.1,0-.2,0-.2.1l-.4,3.9a.1.1,0,0,0,.1.1h3c.1,0,.1.1.1.2l-.3,2.4c-.1,0-.1.1-.1.2h-3.1c-.1,0-.1.1-.1.2l-.5,3.9h5c.1,0,.2,0,.2.1s.1.1.1.2l-.3,2.3a.4.4,0,0,1-.1.3h-8.5a.4.4,0,0,1-.1-.3l2-16.5c0-.1.1-.1.1-.2h8.6c0,.1.1.1,0,.2l-.3,2.4C197.5,77.9,197.5,77.9,197.4,78Z"/><path class="cls-3" d="M203.6,91.3a4,4,0,0,1-1.1-2.9v-.8l1-7.9a5.3,5.3,0,0,1,1.7-3.5,5.7,5.7,0,0,1,3.6-1.3,4.3,4.3,0,0,1,3.1,1.1,3.7,3.7,0,0,1,1.1,3v1.2h-3c-.2,0-.2-.1-.2-.3v-.9a1.3,1.3,0,0,0-.4-1,1.1,1.1,0,0,0-.8-.3,1.4,1.4,0,0,0-1.1.4,1.7,1.7,0,0,0-.5,1.2l-1.1,8.4v.3a1.2,1.2,0,0,0,1.2,1.3,2.1,2.1,0,0,0,1.1-.4,1.7,1.7,0,0,0,.5-1.2V87h3c.2,0,.3.1.2.3v.2a5.6,5.6,0,0,1-1.7,3.5,5.2,5.2,0,0,1-3.6,1.3A4.1,4.1,0,0,1,203.6,91.3Z"/><path class="cls-3" d="M220.1,92V89.6h-3.2l-.7,2.4c-.1.2-.2.2-.4.2H213c-.3,0-.3-.1-.2-.3l5.5-16.5a.3.3,0,0,1,.3-.3h3.2a.3.3,0,0,1,.3.3l1.4,16.5h0c0,.2-.1.2-.2.2h-2.9C220.2,92.2,220.1,92.2,220.1,92Zm-2.4-5.2h2.2l-.2-6.3a.1.1,0,0,0-.1-.1h0l-2,6.3Z"/><path class="cls-3" d="M225.2,92.2a.4.4,0,0,1-.1-.3l2.1-16.5c0-.1,0-.1.1-.2h3.2c.1,0,.2.1.2.3l2,9.1h.1l1.1-9.1v-.2h3.2c0,.1.1.1,0,.2l-2,16.5a.4.4,0,0,1-.1.3h-3.2c-.2,0-.3,0-.3-.2l-1.9-9.2h-.2l-1.1,9.1a.4.4,0,0,1-.1.3h-3.1Z"/><path class="cls-3" d="M250.1,75.2h3.2c.1.1.1.1.1.2l-2.1,16.5a.4.4,0,0,1-.1.3H248v-.3l.8-6.6c0-.1,0-.2-.1-.2h-2.3l-.2.2-.8,6.6c0,.1-.1.2-.1.3h-3.2c0-.1-.1-.2,0-.3l2-16.5c0-.1,0-.1.1-.2h3c.1,0,.2.1.2.3l-.8,6.7a.1.1,0,0,0,.1.1h2.5l.8-6.7C250,75.3,250.1,75.3,250.1,75.2Z"/><path class="cls-3" d="M263.8,78h-5.2c-.1,0-.1,0-.1.1l-.5,3.9a.1.1,0,0,0,.1.1h3.1v.2l-.3,2.4v.2h-3a.2.2,0,0,0-.2.2l-.5,3.9h5.3v.2l-.3,2.3-.2.3h-8.5c0-.1-.1-.2,0-.3l2-16.5c0-.1,0-.1.1-.2h8.5c.1.1.1.1.1.2l-.3,2.4C263.9,77.9,263.8,77.9,263.8,78Z"/><path class="cls-3" d="M263.9,92.2a.4.4,0,0,1-.1-.3l2.1-16.5c0-.1,0-.1.1-.2h3c.1,0,.2.1.2.3l-1.7,13.8h5.1a.3.3,0,0,1,.3.3l-.3,2.3c0,.1-.1.2-.1.3h-8.6Z"/><path class="cls-3" d="M283.9,76.3a4.5,4.5,0,0,1,1,3.1v.9a6.6,6.6,0,0,1-1.6,3.7,4.6,4.6,0,0,1-3.3,1.3h-1.8a.1.1,0,0,0-.1.1l-.8,6.5c0,.1-.1.2-.1.3H274a.4.4,0,0,1-.1-.3L276,75.4c0-.1,0-.2.1-.2s.1-.1.2-.1h4.8A3.5,3.5,0,0,1,283.9,76.3ZM281,81.9a3.2,3.2,0,0,0,.6-2,2.2,2.2,0,0,0-.4-1.3,1.2,1.2,0,0,0-1.1-.5h-1c-.1,0-.1,0-.1.1l-.6,4.3h1.2A1.7,1.7,0,0,0,281,81.9Z"/><path class="cls-3" d="M300.1,78h-5.2c-.1,0-.1,0-.1.1l-.5,3.9a.1.1,0,0,0,.1.1h3c.1,0,.1.1.1.2l-.3,2.4v.2H294c-.1,0-.1.1-.1.2l-.5,3.9h5.3v.2l-.3,2.3a.4.4,0,0,1-.1.3h-8.5a.4.4,0,0,1-.1-.3l2.1-16.5c0-.1,0-.1.1-.2h8.5c.1.1.1.1.1.2l-.3,2.4Z"/><path class="cls-3" d="M300.2,92.2a.4.4,0,0,1-.1-.3l2.1-16.5c0-.1,0-.1.1-.2h3.2c.1,0,.2.1.2.3l2,9.1h.1l1.1-9.1.2-.2h3.1c0,.1.1.1,0,.2l-2,16.5a.4.4,0,0,1-.1.3h-3.2c-.2,0-.3,0-.3-.2l-1.9-9.2h-.2l-1.1,9.1a.4.4,0,0,1-.1.3h-3.1Z"/><path class="cls-3" d="M312.4,92.2a.4.4,0,0,1-.1-.3l2-16.5.2-.2h4.4a4.6,4.6,0,0,1,3.2,1.1,4,4,0,0,1,1.1,2.9v.8l-1,7.6a5.5,5.5,0,0,1-1.7,3.4,5.2,5.2,0,0,1-3.7,1.3h-4.4Zm3.7-2.9h1.1a1.7,1.7,0,0,0,1.1-.6,3,3,0,0,0,.6-1.4l.9-7.2v-.4a2.1,2.1,0,0,0-.3-1.2,1.2,1.2,0,0,0-1-.4h-1c-.1,0-.1,0-.1.1l-1.4,11Z"/><path class="cls-3" d="M328.4,92.2c0-.1-.1-.2,0-.3l2-16.5c0-.1,0-.1.1-.2h3c.2,0,.2.1.2.3l-2,16.5a.4.4,0,0,1-.1.3h-3.2Z"/><path class="cls-3" d="M345.3,75.2v.2l-.3,2.4c0,.1,0,.1-.1.2h-3.2a.1.1,0,0,0-.1.1l-1.7,13.7a.4.4,0,0,1-.1.3h-3.2v-.3l1.7-13.7c0-.1,0-.1-.1-.1h-2.9c-.1,0-.2-.1-.2-.3l.3-2.4c0-.1,0-.1.1-.2h9.8Z"/><path class="cls-3" d="M344.2,91.8a1.9,1.9,0,0,1-.5-1.3,2.8,2.8,0,0,1,.4-1.2,3.8,3.8,0,0,1,.9-.9,1.9,1.9,0,0,1,1-.3,1.9,1.9,0,0,1,1.3.5,1.7,1.7,0,0,1,.5,1.4,2.3,2.3,0,0,1-.6,1.6,2.2,2.2,0,0,1-1.7.7A1.7,1.7,0,0,1,344.2,91.8Z"/></svg>