<?xml version="1.0" encoding="utf-8"?>
<!-- Generator: Adobe Illustrator 22.1.0, SVG Export Plug-In . SVG Version: 6.00 Build 0)  -->
<svg version="1.1" id="Layer_1" xmlns="http://www.w3.org/2000/svg" xmlns:xlink="http://www.w3.org/1999/xlink" x="0px" y="0px"
	 viewBox="0 0 241.9 185.5" style="enable-background:new 0 0 241.9 185.5;" xml:space="preserve">
<style type="text/css">
	.st0{fill:#1A0A29;}
	.st1{fill:#FFFFFF;}
	.st2{fill:#42EBB5;}
</style>
<g>
	<path class="st0" d="M212.1,34.3H91.7c-1.6,0-2.8-1.4-2.6-3l3.6-29.1C92.8,1,94,0,95.3,0h120.5c1.6,0,2.8,1.4,2.6,3l-3.6,28.9
		C214.7,33.3,213.5,34.3,212.1,34.3"/>
	<path class="st0" d="M235.6,72.7H2.6c-1.6,0-2.8-1.4-2.6-3l3.6-29.1c0.2-1.3,1.3-2.3,2.6-2.3h233c1.6,0,2.8,1.4,2.6,3l-3.6,28.9
		C238.1,71.6,237,72.7,235.6,72.7"/>
</g>
<g>
	<path class="st0" d="M19.8,24c-1,0.9-2.2,1.3-3.7,1.3h-4.3c-0.1,0-0.1,0-0.2-0.1s-0.1-0.1,0-0.2l2.2-17.9C13.9,7.1,13.9,7,14,7
		c0.1-0.1,0.1-0.1,0.2-0.1h3.9c1.4,0,2.5,0.3,3.2,1c0.8,0.7,1.2,1.7,1.2,3c0,0.2,0,0.5-0.1,0.9c-0.2,1.9-1.1,3.2-2.5,3.9
		c-0.1,0.1-0.1,0.1-0.1,0.1c1.1,0.8,1.7,2,1.7,3.6c0,0.2,0,0.4-0.1,0.8C21.4,21.9,20.8,23.1,19.8,24z M18.2,22.3
		c0.5-0.5,0.8-1.3,1-2.3c0-0.3,0.1-0.5,0.1-0.7c0-0.8-0.2-1.4-0.6-1.9c-0.4-0.4-0.9-0.7-1.6-0.7h-1.8c-0.1,0-0.1,0-0.1,0.1L14.4,23
		c0,0,0,0,0,0.1s0,0,0.1,0h1.8C17,23.1,17.7,22.8,18.2,22.3z M16.1,9.1C16.1,9.1,16.1,9.1,16.1,9.1l-0.7,5.7c0,0,0,0.1,0,0.1
		c0,0,0,0,0.1,0h1.7c0.9,0,1.6-0.3,2.1-0.9c0.5-0.6,0.8-1.5,0.8-2.5c0-0.7-0.2-1.3-0.6-1.7c-0.4-0.4-0.9-0.6-1.6-0.6L16.1,9.1
		C16.2,9.1,16.1,9.1,16.1,9.1z"/>
	<path class="st0" d="M31.8,19.7h-5.8c-0.1,0-0.1,0-0.1,0.1l-0.2,1.4c0,0.1,0,0.2,0,0.4c0,0.5,0.1,1,0.4,1.3
		c0.3,0.3,0.7,0.5,1.1,0.5c0.5,0,0.9-0.1,1.3-0.4c0.4-0.3,0.6-0.7,0.8-1.2c0.1-0.1,0.2-0.2,0.3-0.2l1.9,0.1c0.1,0,0.1,0,0.2,0.1
		c0,0.1,0,0.1,0,0.2c-0.2,1.1-0.8,2-1.6,2.7c-0.8,0.6-1.8,1-3.1,1c-1.2,0-2.1-0.3-2.8-0.9c-0.7-0.6-1-1.5-1-2.6c0-0.1,0-0.3,0.1-0.7
		l0.7-5.5c0.2-1.2,0.7-2.3,1.6-3c0.9-0.8,2-1.2,3.3-1.2c1.2,0,2.1,0.3,2.8,0.9c0.7,0.6,1,1.5,1,2.6c0,0.1,0,0.4-0.1,0.7l-0.4,3.5
		C32.1,19.6,32,19.7,31.8,19.7z M27.1,14.5c-0.4,0.4-0.6,0.9-0.7,1.6l-0.2,1.4c0,0.1,0,0.1,0.1,0.1h3.5c0,0,0.1,0,0.1,0
		c0,0,0,0,0-0.1l0.2-1.4c0-0.1,0-0.2,0-0.4c0-0.5-0.1-1-0.4-1.3c-0.3-0.3-0.7-0.5-1.2-0.5C28,13.9,27.5,14.1,27.1,14.5z"/>
	<path class="st0" d="M34.9,24.6c-0.7-0.6-1-1.5-1-2.6c0-0.1,0-0.4,0.1-0.7l0.7-5.5c0.2-1.2,0.7-2.3,1.6-3c0.9-0.8,2-1.2,3.3-1.2
		c1.2,0,2.1,0.3,2.8,0.9c0.7,0.6,1,1.4,1,2.4c0,0.2,0,0.4,0,0.5l-0.1,0.3c0,0.2-0.1,0.3-0.3,0.3L41,16.3c-0.2,0-0.2-0.1-0.2-0.3
		l0.1-0.3c0.1-0.5-0.1-0.9-0.4-1.3c-0.3-0.4-0.7-0.6-1.3-0.6c-0.5,0-1,0.2-1.4,0.6c-0.4,0.4-0.6,0.9-0.7,1.6l-0.6,5.1
		c0,0.1,0,0.2,0,0.4c0,0.5,0.1,1,0.4,1.3c0.3,0.3,0.7,0.5,1.2,0.5c0.5,0,1-0.2,1.4-0.6c0.4-0.4,0.6-0.8,0.7-1.3l0-0.3
		c0-0.2,0.1-0.3,0.3-0.3l1.9,0c0.2,0,0.2,0.1,0.2,0.3l-0.1,0.4c-0.1,1.1-0.6,2.1-1.5,2.8c-0.9,0.7-2,1.1-3.3,1.1
		C36.5,25.5,35.6,25.2,34.9,24.6z"/>
	<path class="st0" d="M51.8,12c0.1-0.1,0.1-0.1,0.2-0.1H54c0.2,0,0.2,0.1,0.2,0.3l-1.6,12.9c0,0.1,0,0.1-0.1,0.2
		c-0.1,0.1-0.1,0.1-0.2,0.1h-1.9c-0.2,0-0.2-0.1-0.2-0.3l0.1-0.6c0-0.1,0-0.1-0.1-0.1c-0.4,0.4-0.8,0.7-1.2,0.8s-0.9,0.3-1.3,0.3
		c-1,0-1.7-0.3-2.3-0.9c-0.5-0.6-0.8-1.4-0.8-2.4c0-0.2,0-0.4,0.1-0.8l0.7-5.5c0.2-1.3,0.6-2.3,1.3-3.1c0.7-0.7,1.6-1.1,2.7-1.1
		c0.4,0,0.9,0.1,1.3,0.3c0.4,0.2,0.8,0.5,1,0.8c0.1,0.1,0.1,0.1,0.2-0.1l0.1-0.6C51.7,12.1,51.8,12,51.8,12z M49.9,22.8
		c0.4-0.4,0.6-0.9,0.7-1.5l0.6-5.2c0-0.1,0-0.2,0-0.4c0-0.5-0.1-1-0.4-1.3c-0.3-0.3-0.7-0.5-1.1-0.5c-0.5,0-1,0.2-1.4,0.6
		c-0.4,0.4-0.6,0.9-0.7,1.6L47,21.2c0,0.1,0,0.2,0,0.4c0,0.5,0.1,1,0.4,1.3c0.3,0.3,0.7,0.5,1.2,0.5C49.1,23.3,49.5,23.2,49.9,22.8z
		"/>
	<path class="st0" d="M63,11.9H65c0.2,0,0.2,0.1,0.2,0.3l-1.6,12.9c0,0.1,0,0.1-0.1,0.2s-0.1,0.1-0.2,0.1h-1.9
		c-0.2,0-0.2-0.1-0.2-0.3l0.1-0.8c0-0.1,0-0.1,0-0.1s0,0-0.1,0.1c-0.6,0.8-1.5,1.2-2.6,1.2c-0.9,0-1.6-0.3-2.2-0.8
		c-0.5-0.5-0.8-1.3-0.8-2.4c0-0.2,0-0.4,0.1-0.8l1.2-9.4c0-0.1,0.1-0.1,0.1-0.2c0.1-0.1,0.1-0.1,0.2-0.1H59c0.2,0,0.2,0.1,0.2,0.3
		l-1.1,8.9c0,0.1,0,0.3,0,0.6c0,1.1,0.5,1.7,1.5,1.7c0.6,0,1-0.2,1.4-0.6c0.4-0.4,0.6-1,0.7-1.8l1.1-8.7C62.8,12,62.9,11.9,63,11.9z
		"/>
	<path class="st0" d="M67.2,24.7c-0.7-0.5-1-1.3-1-2.2c0-0.2,0-0.4,0-0.5l0-0.2c0-0.1,0.1-0.1,0.1-0.2s0.1-0.1,0.2-0.1h1.8
		c0.1,0,0.2,0,0.2,0.1c0,0,0.1,0.1,0,0.2l0,0.2c-0.1,0.5,0.1,0.9,0.4,1.2c0.3,0.3,0.7,0.5,1.3,0.5c0.6,0,1-0.2,1.4-0.5
		c0.4-0.4,0.5-0.8,0.5-1.3c0-0.5-0.2-0.9-0.5-1.1c-0.4-0.3-0.9-0.6-1.7-0.9c-0.6-0.3-1-0.5-1.4-0.8c-0.4-0.2-0.7-0.6-1-1.1
		c-0.3-0.5-0.4-1-0.4-1.7c0-0.2,0-0.4,0-0.6c0.1-1.2,0.6-2.1,1.4-2.8c0.8-0.7,1.8-1,3.1-1c1.1,0,2,0.3,2.7,0.9
		c0.6,0.6,0.9,1.4,0.9,2.4c0,0.3,0,0.5,0,0.6v0.1c0,0.2-0.1,0.3-0.3,0.3h-1.8c-0.2,0-0.2-0.1-0.2-0.2l0-0.2l0-0.2
		c0-0.4-0.1-0.8-0.4-1.1c-0.3-0.3-0.7-0.4-1.1-0.4c-0.5,0-0.9,0.2-1.3,0.5c-0.4,0.3-0.6,0.7-0.6,1.2c0,0.4,0,0.7,0.2,0.9
		c0.2,0.2,0.4,0.4,0.7,0.6c0.3,0.1,0.7,0.4,1.3,0.6c0.6,0.3,1.1,0.6,1.5,0.8c0.4,0.3,0.7,0.6,1,1.1c0.3,0.5,0.4,1,0.4,1.7
		c0,1.3-0.4,2.3-1.3,3.1c-0.9,0.8-2,1.2-3.4,1.2C68.8,25.5,67.9,25.2,67.2,24.7z"/>
	<path class="st0" d="M85,19.7h-5.8c-0.1,0-0.1,0-0.1,0.1l-0.2,1.4c0,0.1,0,0.2,0,0.4c0,0.5,0.1,1,0.4,1.3c0.3,0.3,0.7,0.5,1.1,0.5
		c0.5,0,0.9-0.1,1.3-0.4c0.4-0.3,0.6-0.7,0.8-1.2c0.1-0.1,0.2-0.2,0.3-0.2l1.9,0.1c0.1,0,0.1,0,0.2,0.1c0,0.1,0,0.1,0,0.2
		c-0.2,1.1-0.8,2-1.6,2.7c-0.8,0.6-1.8,1-3.1,1c-1.2,0-2.1-0.3-2.8-0.9c-0.7-0.6-1-1.5-1-2.6c0-0.1,0-0.3,0.1-0.7l0.7-5.5
		c0.2-1.2,0.7-2.3,1.6-3c0.9-0.8,2-1.2,3.3-1.2c1.2,0,2.1,0.3,2.8,0.9c0.7,0.6,1,1.5,1,2.6c0,0.1,0,0.4-0.1,0.7l-0.4,3.5
		C85.2,19.6,85.1,19.7,85,19.7z M80.2,14.5c-0.4,0.4-0.6,0.9-0.7,1.6l-0.2,1.4c0,0.1,0,0.1,0.1,0.1h3.5c0,0,0.1,0,0.1,0
		c0,0,0,0,0-0.1l0.2-1.4c0-0.1,0-0.2,0-0.4c0-0.5-0.1-1-0.4-1.3c-0.3-0.3-0.7-0.5-1.2-0.5C81.1,13.9,80.6,14.1,80.2,14.5z"/>
</g>
<g>
	<path class="st1" d="M101,6.9h2c0.1,0,0.1,0,0.2,0.1c0,0.1,0.1,0.1,0,0.2l-2.2,17.9c0,0.1-0.1,0.1-0.1,0.2s-0.1,0.1-0.2,0.1h-1.9
		c-0.2,0-0.2-0.1-0.2-0.3l1.9-15.6c0-0.1,0-0.1-0.1-0.1l-2.1,0.8l-0.1,0c-0.1,0-0.2-0.1-0.2-0.2l0.2-1.5c0-0.2,0.1-0.3,0.2-0.3
		l2.2-1.2C100.8,6.9,100.9,6.9,101,6.9z"/>
	<path class="st1" d="M108.9,25.2c0-0.1-0.1-0.1,0-0.2l1.6-12.9c0-0.2,0.1-0.3,0.3-0.3h1.9c0.2,0,0.2,0.1,0.2,0.3l-1.6,12.9
		c0,0.2-0.1,0.3-0.3,0.3h-1.9C109,25.3,109,25.3,108.9,25.2z M111,9.6c-0.2-0.3-0.4-0.6-0.4-1c0-0.6,0.2-1,0.5-1.4s0.8-0.6,1.3-0.6
		c0.4,0,0.7,0.1,1,0.4c0.2,0.3,0.4,0.6,0.4,1c0,0.6-0.2,1.1-0.5,1.4c-0.3,0.4-0.8,0.6-1.3,0.6C111.6,9.9,111.2,9.8,111,9.6z"/>
	<path class="st1" d="M123.1,12.6c0.5,0.6,0.7,1.4,0.7,2.4c0,0.3,0,0.6-0.1,1l-1.1,9c0,0.1,0,0.1-0.1,0.2s-0.1,0.1-0.2,0.1h-1.9
		c-0.1,0-0.2,0-0.2-0.1s-0.1-0.1,0-0.2l1.1-8.8c0-0.1,0-0.3,0-0.6c0-0.6-0.1-1-0.4-1.3c-0.3-0.3-0.6-0.5-1.1-0.5
		c-0.6,0-1.1,0.2-1.4,0.6c-0.4,0.4-0.6,1-0.7,1.8l-1.1,8.7c0,0.1,0,0.1-0.1,0.2s-0.1,0.1-0.2,0.1h-1.9c-0.2,0-0.2-0.1-0.2-0.3
		l1.6-12.9c0-0.2,0.1-0.3,0.3-0.3h1.9c0.2,0,0.2,0.1,0.2,0.3l-0.1,0.7c0,0,0,0.1,0.1,0.1c0,0,0.1,0,0.1,0c0.7-0.8,1.6-1.2,2.7-1.2
		C121.9,11.7,122.6,12,123.1,12.6z"/>
	<path class="st1" d="M139.9,21.5c-0.3,1.2-0.9,2.2-1.9,2.9c-0.9,0.7-2.1,1.1-3.4,1.1c-1.3,0-2.4-0.4-3.2-1.1
		c-0.8-0.7-1.2-1.7-1.2-2.9c0-0.3,0-0.8,0.1-1.6c0-0.2,0.1-0.3,0.3-0.3h1.9c0.2,0,0.3,0.1,0.2,0.3c-0.1,0.6-0.1,1-0.1,1.2
		c0,0.7,0.2,1.2,0.6,1.6c0.4,0.4,0.9,0.6,1.5,0.6s1.2-0.2,1.7-0.6c0.5-0.4,0.8-0.9,1-1.6c0.1-0.2,0.1-0.6,0.2-1.2l0.1-0.5
		c0.1-0.8,0.2-1.5,0.2-1.8c0-0.6-0.2-1.2-0.6-1.6s-0.9-0.6-1.5-0.6c-0.2,0-0.5,0.1-0.8,0.2c-0.2,0.1-0.3,0.1-0.4,0l-0.8-1
		c-0.1-0.1-0.1-0.1-0.1-0.2c0,0,0-0.1,0.1-0.2l4.6-5c0,0,0,0,0-0.1s0-0.1-0.1-0.1h-6.3c-0.2,0-0.2-0.1-0.2-0.3l0.2-1.7
		c0-0.2,0.1-0.3,0.3-0.3h8.9c0.1,0,0.1,0,0.2,0.1c0,0.1,0.1,0.1,0,0.2l-0.2,1.7c0,0.1-0.1,0.2-0.1,0.3l-3.6,4.2
		c-0.1,0.1,0,0.1,0,0.1c0.9,0.2,1.5,0.7,2,1.5c0.5,0.8,0.7,1.7,0.7,2.7c0,0.4,0,0.8-0.1,1.2c-0.1,0.4-0.1,0.7-0.1,0.8
		C140.1,20.6,140,21.2,139.9,21.5z"/>
	<path class="st1" d="M148.3,24.6c-0.7-0.6-1-1.5-1-2.6c0-0.1,0-0.4,0.1-0.7l0.7-5.5c0.2-1.2,0.7-2.3,1.6-3c0.9-0.8,2-1.2,3.3-1.2
		c1.2,0,2.1,0.3,2.8,0.9c0.7,0.6,1,1.4,1,2.4c0,0.2,0,0.4,0,0.5l-0.1,0.3c0,0.2-0.1,0.3-0.3,0.3l-1.9,0.1c-0.2,0-0.2-0.1-0.2-0.3
		l0.1-0.3c0.1-0.5-0.1-0.9-0.4-1.3c-0.3-0.4-0.7-0.6-1.3-0.6c-0.5,0-1,0.2-1.4,0.6c-0.4,0.4-0.6,0.9-0.7,1.6l-0.6,5.1
		c0,0.1,0,0.2,0,0.4c0,0.5,0.1,1,0.4,1.3c0.3,0.3,0.7,0.5,1.2,0.5c0.5,0,1-0.2,1.4-0.6c0.4-0.4,0.6-0.8,0.7-1.3l0-0.3
		c0-0.2,0.1-0.3,0.3-0.3l1.9,0c0.2,0,0.2,0.1,0.2,0.3l-0.1,0.4c-0.1,1.1-0.6,2.1-1.5,2.8c-0.9,0.7-2,1.1-3.3,1.1
		C149.9,25.5,149,25.2,148.3,24.6z"/>
	<path class="st1" d="M158.8,24.6c-0.7-0.6-1-1.5-1-2.6c0-0.1,0-0.3,0.1-0.7l0.7-5.5c0.2-1.2,0.7-2.3,1.6-3c0.9-0.8,2-1.2,3.3-1.2
		c1.2,0,2.2,0.3,2.8,1c0.7,0.6,1,1.5,1,2.6c0,0.1,0,0.3-0.1,0.7l-0.7,5.5c-0.2,1.3-0.7,2.3-1.5,3c-0.9,0.8-2,1.1-3.3,1.1
		C160.5,25.5,159.5,25.2,158.8,24.6z M163.4,22.7c0.4-0.4,0.6-0.9,0.7-1.5l0.6-5.1c0-0.1,0-0.2,0-0.4c0-0.5-0.1-1-0.4-1.3
		c-0.3-0.3-0.7-0.5-1.2-0.5c-0.5,0-1,0.2-1.4,0.6c-0.4,0.4-0.6,0.9-0.7,1.6l-0.6,5.1c0,0.1,0,0.2,0,0.4c0,0.5,0.1,1,0.4,1.3
		c0.3,0.3,0.7,0.5,1.2,0.5C162.5,23.3,163,23.1,163.4,22.7z"/>
	<path class="st1" d="M168.4,25.1l2.2-17.9c0-0.2,0.1-0.3,0.3-0.3h1.9c0.1,0,0.1,0,0.2,0.1c0,0.1,0.1,0.1,0,0.2l-2.2,17.9
		c0,0.1-0.1,0.1-0.1,0.2s-0.1,0.1-0.2,0.1h-1.9C168.4,25.3,168.4,25.2,168.4,25.1z"/>
	<path class="st1" d="M173.2,25.1l2.2-17.9c0-0.2,0.1-0.3,0.3-0.3h1.9c0.1,0,0.1,0,0.2,0.1c0,0.1,0.1,0.1,0,0.2l-2.2,17.9
		c0,0.1-0.1,0.1-0.1,0.2s-0.1,0.1-0.2,0.1h-1.9C173.3,25.3,173.2,25.2,173.2,25.1z"/>
	<path class="st1" d="M187,19.7h-5.8c-0.1,0-0.1,0-0.1,0.1l-0.2,1.4c0,0.1,0,0.2,0,0.4c0,0.5,0.1,1,0.4,1.3c0.3,0.3,0.7,0.5,1.1,0.5
		c0.5,0,0.9-0.1,1.3-0.4c0.4-0.3,0.6-0.7,0.8-1.2c0.1-0.1,0.2-0.2,0.3-0.2l1.9,0.1c0.1,0,0.1,0,0.2,0.1c0,0.1,0,0.1,0,0.2
		c-0.2,1.1-0.8,2-1.6,2.7c-0.8,0.6-1.8,1-3.1,1c-1.2,0-2.1-0.3-2.8-0.9c-0.7-0.6-1-1.5-1-2.6c0-0.1,0-0.3,0.1-0.7l0.7-5.5
		c0.2-1.2,0.7-2.3,1.6-3c0.9-0.8,2-1.2,3.3-1.2c1.2,0,2.1,0.3,2.8,0.9c0.7,0.6,1,1.5,1,2.6c0,0.1,0,0.4-0.1,0.7l-0.4,3.5
		C187.2,19.6,187.1,19.7,187,19.7z M182.3,14.5c-0.4,0.4-0.6,0.9-0.7,1.6l-0.2,1.4c0,0.1,0,0.1,0.1,0.1h3.5c0,0,0.1,0,0.1,0
		c0,0,0,0,0-0.1l0.2-1.4c0-0.1,0-0.2,0-0.4c0-0.5-0.1-1-0.4-1.3c-0.3-0.3-0.7-0.5-1.2-0.5C183.1,13.9,182.7,14.1,182.3,14.5z"/>
	<path class="st1" d="M196.4,12c0.1-0.1,0.1-0.1,0.2-0.1h1.9c0.2,0,0.2,0.1,0.2,0.3l-1.6,12.7c-0.2,1.8-0.8,3.3-1.8,4.3
		c-0.9,1-2.4,1.5-4.4,1.5l-0.7,0c-0.2,0-0.2-0.1-0.2-0.3l0.2-1.7c0-0.2,0.1-0.3,0.3-0.3c1.4,0.1,2.4-0.2,3-0.9
		c0.6-0.6,1-1.6,1.1-2.9l0.1-0.6c0,0,0-0.1,0-0.1s-0.1,0-0.1,0c-0.4,0.4-0.8,0.7-1.2,0.9s-0.9,0.3-1.4,0.3c-1,0-1.7-0.3-2.3-0.9
		c-0.5-0.6-0.8-1.4-0.8-2.4c0-0.2,0-0.5,0.1-0.8l0.6-5.3c0.2-1.3,0.6-2.3,1.3-3.1c0.7-0.7,1.6-1.1,2.7-1.1c1.1,0,1.9,0.4,2.3,1.2
		c0,0,0.1,0,0.1,0c0,0,0,0,0-0.1l0.1-0.7C196.3,12.1,196.4,12,196.4,12z M194.5,22.5c0.4-0.4,0.6-0.9,0.7-1.5l0.6-5
		c0-0.1,0-0.2,0-0.4c0-0.5-0.1-1-0.4-1.3c-0.3-0.3-0.7-0.5-1.1-0.5c-0.5,0-1,0.2-1.4,0.6c-0.4,0.4-0.6,0.9-0.7,1.6l-0.6,5
		c0,0.1,0,0.2,0,0.4c0,0.5,0.1,1,0.4,1.3c0.3,0.3,0.7,0.5,1.1,0.5C193.7,23.1,194.2,22.9,194.5,22.5z"/>
	<path class="st1" d="M208.4,19.7h-5.8c-0.1,0-0.1,0-0.1,0.1l-0.2,1.4c0,0.1,0,0.2,0,0.4c0,0.5,0.1,1,0.4,1.3
		c0.3,0.3,0.7,0.5,1.1,0.5c0.5,0,0.9-0.1,1.3-0.4c0.4-0.3,0.6-0.7,0.8-1.2c0.1-0.1,0.2-0.2,0.3-0.2l1.9,0.1c0.1,0,0.1,0,0.2,0.1
		c0,0.1,0,0.1,0,0.2c-0.2,1.1-0.8,2-1.6,2.7c-0.8,0.6-1.8,1-3.1,1c-1.2,0-2.1-0.3-2.8-0.9c-0.7-0.6-1-1.5-1-2.6c0-0.1,0-0.3,0.1-0.7
		l0.7-5.5c0.2-1.2,0.7-2.3,1.6-3c0.9-0.8,2-1.2,3.3-1.2c1.2,0,2.1,0.3,2.8,0.9c0.7,0.6,1,1.5,1,2.6c0,0.1,0,0.4-0.1,0.7l-0.4,3.5
		C208.7,19.6,208.6,19.7,208.4,19.7z M203.7,14.5c-0.4,0.4-0.6,0.9-0.7,1.6l-0.2,1.4c0,0.1,0,0.1,0.1,0.1h3.5c0,0,0.1,0,0.1,0
		c0,0,0,0,0-0.1l0.2-1.4c0-0.1,0-0.2,0-0.4c0-0.5-0.1-1-0.4-1.3c-0.3-0.3-0.7-0.5-1.2-0.5C204.6,13.9,204.1,14.1,203.7,14.5z"/>
</g>
<g>
	<path class="st1" d="M7.6,61.5c-0.7-0.5-1-1.3-1-2.2c0-0.2,0-0.4,0-0.5l0-0.2c0-0.1,0.1-0.1,0.1-0.2s0.1-0.1,0.2-0.1h1.8
		c0.1,0,0.2,0,0.2,0.1c0,0,0.1,0.1,0,0.2l0,0.2c-0.1,0.5,0.1,0.9,0.4,1.2c0.3,0.3,0.7,0.5,1.3,0.5c0.6,0,1-0.2,1.4-0.5
		c0.4-0.4,0.5-0.8,0.5-1.3c0-0.5-0.2-0.9-0.5-1.1c-0.4-0.3-0.9-0.6-1.7-0.9c-0.6-0.3-1-0.5-1.4-0.8c-0.4-0.2-0.7-0.6-1-1.1
		c-0.3-0.5-0.4-1-0.4-1.7c0-0.2,0-0.4,0-0.6c0.1-1.2,0.6-2.1,1.4-2.8c0.8-0.7,1.8-1,3.1-1c1.1,0,2,0.3,2.7,0.9
		c0.6,0.6,0.9,1.4,0.9,2.4c0,0.3,0,0.5,0,0.6v0.1c0,0.2-0.1,0.3-0.3,0.3h-1.8c-0.2,0-0.2-0.1-0.2-0.2l0-0.2l0-0.2
		c0-0.4-0.1-0.8-0.4-1.1c-0.3-0.3-0.7-0.4-1.1-0.4c-0.5,0-0.9,0.2-1.3,0.5c-0.4,0.3-0.6,0.7-0.6,1.2c0,0.4,0,0.7,0.2,0.9
		c0.2,0.2,0.4,0.4,0.7,0.6c0.3,0.1,0.7,0.4,1.3,0.6c0.6,0.3,1.1,0.6,1.5,0.8c0.4,0.3,0.7,0.6,1,1.1c0.3,0.5,0.4,1,0.4,1.7
		c0,1.3-0.4,2.3-1.3,3.1c-0.9,0.8-2,1.2-3.4,1.2C9.2,62.4,8.3,62.1,7.6,61.5z"/>
	<path class="st1" d="M22.8,50.6H21c-0.1,0-0.1,0-0.1,0.1l-0.9,7.4c0,0.1,0,0.3,0,0.5c0,0.5,0.1,0.9,0.3,1.1c0.2,0.2,0.5,0.3,1,0.3
		h0.2c0.2,0,0.2,0.1,0.2,0.3l-0.2,1.7c0,0.1-0.1,0.1-0.1,0.2s-0.1,0.1-0.2,0.1h-0.8c-1,0-1.7-0.2-2.2-0.5c-0.5-0.3-0.8-1-0.8-1.9
		c0-0.1,0-0.4,0.1-0.7l1-8.3c0-0.1,0-0.1-0.1-0.1h-1c-0.1,0-0.2,0-0.2-0.1c0-0.1-0.1-0.1,0-0.2l0.2-1.3c0-0.2,0.1-0.3,0.3-0.3h1
		c0.1,0,0.1,0,0.1-0.1l0.4-3c0-0.2,0.1-0.3,0.3-0.3h1.9c0.2,0,0.2,0.1,0.2,0.3l-0.3,3c0,0,0,0,0,0.1s0,0,0.1,0H23
		c0.2,0,0.2,0.1,0.2,0.3l-0.2,1.3C23,50.5,22.9,50.6,22.8,50.6z"/>
	<path class="st1" d="M31.3,48.8h1.9c0.2,0,0.2,0.1,0.2,0.3l-1.6,12.9c0,0.1,0,0.1-0.1,0.2s-0.1,0.1-0.2,0.1h-1.9
		c-0.2,0-0.2-0.1-0.2-0.3l0.1-0.8c0-0.1,0-0.1,0-0.1s0,0-0.1,0.1c-0.6,0.8-1.5,1.2-2.6,1.2c-0.9,0-1.6-0.3-2.2-0.8
		c-0.5-0.5-0.8-1.3-0.8-2.4c0-0.2,0-0.4,0.1-0.8l1.2-9.4c0-0.1,0.1-0.1,0.1-0.2c0.1-0.1,0.1-0.1,0.2-0.1h1.9c0.2,0,0.2,0.1,0.2,0.3
		l-1.1,8.9c0,0.1,0,0.3,0,0.6c0,1.1,0.5,1.7,1.5,1.7c0.6,0,1-0.2,1.4-0.6c0.4-0.4,0.6-1,0.7-1.8l1.1-8.7
		C31.1,48.9,31.2,48.8,31.3,48.8z"/>
	<path class="st1" d="M43,43.8h1.9c0.1,0,0.2,0,0.2,0.1c0,0.1,0.1,0.1,0,0.2L43,61.9c0,0.1,0,0.1-0.1,0.2s-0.1,0.1-0.2,0.1h-1.9
		c-0.2,0-0.2-0.1-0.2-0.3l0.1-0.6c0,0,0-0.1,0-0.1c0,0-0.1,0-0.1,0c-0.4,0.4-0.8,0.7-1.3,0.9c-0.5,0.2-0.9,0.3-1.4,0.3
		c-1,0-1.7-0.3-2.3-0.9c-0.5-0.6-0.8-1.4-0.8-2.4c0-0.2,0-0.4,0.1-0.8l0.7-5.5c0.2-1.3,0.6-2.3,1.3-3.1c0.7-0.7,1.6-1.1,2.7-1.1
		c0.5,0,0.9,0.1,1.3,0.3c0.4,0.2,0.8,0.5,1,0.9c0,0,0.1,0,0.1,0c0,0,0,0,0-0.1l0.7-5.7C42.8,43.9,42.9,43.8,43,43.8z M41.6,52.5
		c0-0.5-0.1-1-0.4-1.3c-0.3-0.3-0.7-0.5-1.1-0.5c-0.5,0-1,0.2-1.4,0.6c-0.4,0.4-0.6,0.9-0.7,1.6l-0.6,5.2c0,0.1,0,0.2,0,0.4
		c0,0.5,0.1,1,0.4,1.3c0.3,0.3,0.7,0.5,1.2,0.5c0.5,0,1-0.2,1.4-0.6c0.4-0.4,0.6-0.9,0.7-1.5l0.6-5.2C41.6,52.8,41.6,52.7,41.6,52.5
		z"/>
	<path class="st1" d="M54.4,56.5h-5.8c-0.1,0-0.1,0-0.1,0.1l-0.2,1.4c0,0.1,0,0.2,0,0.4c0,0.5,0.1,1,0.4,1.3
		c0.3,0.3,0.7,0.5,1.1,0.5c0.5,0,0.9-0.1,1.3-0.4c0.4-0.3,0.6-0.7,0.8-1.2c0.1-0.1,0.2-0.2,0.3-0.2l1.9,0.1c0.1,0,0.1,0,0.2,0.1
		c0,0.1,0,0.1,0,0.2c-0.2,1.1-0.8,2-1.6,2.7c-0.8,0.6-1.8,1-3.1,1c-1.2,0-2.1-0.3-2.8-0.9c-0.7-0.6-1-1.5-1-2.6c0-0.1,0-0.3,0.1-0.7
		l0.7-5.5c0.2-1.2,0.7-2.3,1.6-3c0.9-0.8,2-1.2,3.3-1.2c1.2,0,2.1,0.3,2.8,0.9c0.7,0.6,1,1.5,1,2.6c0,0.1,0,0.4-0.1,0.7l-0.4,3.5
		C54.7,56.4,54.6,56.5,54.4,56.5z M49.7,51.4c-0.4,0.4-0.6,0.9-0.7,1.6l-0.2,1.4c0,0.1,0,0.1,0.1,0.1h3.5c0,0,0.1,0,0.1,0
		c0,0,0,0,0-0.1l0.2-1.4c0-0.1,0-0.2,0-0.4c0-0.5-0.1-1-0.4-1.3c-0.3-0.3-0.7-0.5-1.2-0.5C50.5,50.8,50.1,51,49.7,51.4z"/>
	<path class="st1" d="M65.2,49.5c0.5,0.6,0.7,1.4,0.7,2.4c0,0.3,0,0.6-0.1,1l-1.1,9c0,0.1,0,0.1-0.1,0.2s-0.1,0.1-0.2,0.1h-1.9
		c-0.1,0-0.2,0-0.2-0.1s-0.1-0.1,0-0.2l1.1-8.8c0-0.1,0-0.3,0-0.6c0-0.6-0.1-1-0.4-1.3c-0.3-0.3-0.6-0.5-1.1-0.5
		c-0.6,0-1.1,0.2-1.4,0.6c-0.4,0.4-0.6,1-0.7,1.8l-1.1,8.7c0,0.1,0,0.1-0.1,0.2s-0.1,0.1-0.2,0.1h-1.9c-0.2,0-0.2-0.1-0.2-0.3
		l1.6-12.9c0-0.2,0.1-0.3,0.3-0.3h1.9c0.2,0,0.2,0.1,0.2,0.3l-0.1,0.7c0,0,0,0.1,0.1,0.1c0,0,0.1,0,0.1,0c0.7-0.8,1.6-1.2,2.7-1.2
		C64,48.6,64.7,48.9,65.2,49.5z"/>
	<path class="st1" d="M73.5,50.6h-1.8c-0.1,0-0.1,0-0.1,0.1l-0.9,7.4c0,0.1,0,0.3,0,0.5c0,0.5,0.1,0.9,0.3,1.1
		c0.2,0.2,0.5,0.3,1,0.3h0.2c0.2,0,0.2,0.1,0.2,0.3l-0.2,1.7c0,0.1-0.1,0.1-0.1,0.2s-0.1,0.1-0.2,0.1h-0.8c-1,0-1.7-0.2-2.2-0.5
		c-0.5-0.3-0.8-1-0.8-1.9c0-0.1,0-0.4,0.1-0.7l1-8.3c0-0.1,0-0.1-0.1-0.1h-1c-0.1,0-0.2,0-0.2-0.1c0-0.1-0.1-0.1,0-0.2l0.2-1.3
		c0-0.2,0.1-0.3,0.3-0.3h1c0.1,0,0.1,0,0.1-0.1l0.4-3c0-0.2,0.1-0.3,0.3-0.3H72c0.2,0,0.2,0.1,0.2,0.3l-0.3,3c0,0,0,0,0,0.1
		s0,0,0.1,0h1.8c0.2,0,0.2,0.1,0.2,0.3l-0.2,1.3C73.8,50.5,73.7,50.6,73.5,50.6z"/>
	<path class="st1" d="M75.3,61.5c-0.7-0.5-1-1.3-1-2.2c0-0.2,0-0.4,0-0.5l0-0.2c0-0.1,0.1-0.1,0.1-0.2s0.1-0.1,0.2-0.1h1.8
		c0.1,0,0.2,0,0.2,0.1c0,0,0.1,0.1,0,0.2l0,0.2c-0.1,0.5,0.1,0.9,0.4,1.2c0.3,0.3,0.7,0.5,1.3,0.5c0.6,0,1-0.2,1.4-0.5
		c0.4-0.4,0.5-0.8,0.5-1.3c0-0.5-0.2-0.9-0.5-1.1c-0.4-0.3-0.9-0.6-1.7-0.9c-0.6-0.3-1-0.5-1.4-0.8c-0.4-0.2-0.7-0.6-1-1.1
		c-0.3-0.5-0.4-1-0.4-1.7c0-0.2,0-0.4,0-0.6c0.1-1.2,0.6-2.1,1.4-2.8c0.8-0.7,1.8-1,3.1-1c1.1,0,2,0.3,2.7,0.9
		c0.6,0.6,0.9,1.4,0.9,2.4c0,0.3,0,0.5,0,0.6v0.1c0,0.2-0.1,0.3-0.3,0.3h-1.8c-0.2,0-0.2-0.1-0.2-0.2l0-0.2l0-0.2
		c0-0.4-0.1-0.8-0.4-1.1c-0.3-0.3-0.7-0.4-1.1-0.4c-0.5,0-0.9,0.2-1.3,0.5c-0.4,0.3-0.6,0.7-0.6,1.2c0,0.4,0,0.7,0.2,0.9
		c0.2,0.2,0.4,0.4,0.7,0.6c0.3,0.1,0.7,0.4,1.3,0.6c0.6,0.3,1.1,0.6,1.5,0.8c0.4,0.3,0.7,0.6,1,1.1c0.3,0.5,0.4,1,0.4,1.7
		c0,1.3-0.4,2.3-1.3,3.1c-0.9,0.8-2,1.2-3.4,1.2C76.8,62.4,75.9,62.1,75.3,61.5z"/>
	<path class="st1" d="M89.5,62.1c0-0.1-0.1-0.1,0-0.2l1.6-12.9c0-0.2,0.1-0.3,0.3-0.3h1.9c0.2,0,0.2,0.1,0.2,0.3l-1.6,12.9
		c0,0.2-0.1,0.3-0.3,0.3h-1.9C89.6,62.2,89.6,62.2,89.5,62.1z M91.6,46.4c-0.2-0.3-0.4-0.6-0.4-1c0-0.6,0.2-1,0.5-1.4
		s0.8-0.6,1.3-0.6c0.4,0,0.7,0.1,1,0.4c0.2,0.3,0.4,0.6,0.4,1c0,0.6-0.2,1.1-0.5,1.4c-0.3,0.4-0.8,0.6-1.3,0.6
		C92.1,46.8,91.8,46.7,91.6,46.4z"/>
	<path class="st1" d="M95.6,61.5c-0.7-0.5-1-1.3-1-2.2c0-0.2,0-0.4,0-0.5l0-0.2c0-0.1,0.1-0.1,0.1-0.2s0.1-0.1,0.2-0.1h1.8
		c0.1,0,0.2,0,0.2,0.1c0,0,0.1,0.1,0,0.2l0,0.2c-0.1,0.5,0.1,0.9,0.4,1.2c0.3,0.3,0.7,0.5,1.3,0.5c0.6,0,1-0.2,1.4-0.5
		c0.4-0.4,0.5-0.8,0.5-1.3c0-0.5-0.2-0.9-0.5-1.1c-0.4-0.3-0.9-0.6-1.7-0.9c-0.6-0.3-1-0.5-1.4-0.8c-0.4-0.2-0.7-0.6-1-1.1
		c-0.3-0.5-0.4-1-0.4-1.7c0-0.2,0-0.4,0-0.6c0.1-1.2,0.6-2.1,1.4-2.8c0.8-0.7,1.8-1,3.1-1c1.1,0,2,0.3,2.7,0.9
		c0.6,0.6,0.9,1.4,0.9,2.4c0,0.3,0,0.5,0,0.6v0.1c0,0.2-0.1,0.3-0.3,0.3h-1.8c-0.2,0-0.2-0.1-0.2-0.2l0-0.2l0-0.2
		c0-0.4-0.1-0.8-0.4-1.1c-0.3-0.3-0.7-0.4-1.1-0.4c-0.5,0-0.9,0.2-1.3,0.5c-0.4,0.3-0.6,0.7-0.6,1.2c0,0.4,0,0.7,0.2,0.9
		c0.2,0.2,0.4,0.4,0.7,0.6c0.3,0.1,0.7,0.4,1.3,0.6c0.6,0.3,1.1,0.6,1.5,0.8c0.4,0.3,0.7,0.6,1,1.1c0.3,0.5,0.4,1,0.4,1.7
		c0,1.3-0.4,2.3-1.3,3.1c-0.9,0.8-2,1.2-3.4,1.2C97.2,62.4,96.3,62.1,95.6,61.5z"/>
	<path class="st1" d="M114.4,48.7c0,0.1,0,0.1,0.1,0.1h1.8c0.2,0,0.2,0.1,0.2,0.3l-0.2,1.3c0,0.2-0.1,0.3-0.3,0.3h-1.8
		c-0.1,0-0.1,0-0.1,0.1l-1.4,11.2c0,0.2-0.1,0.3-0.3,0.3h-1.9c-0.2,0-0.2-0.1-0.2-0.3l1.4-11.2c0-0.1,0-0.1-0.1-0.1h-0.9
		c-0.1,0-0.1,0-0.2-0.1c0-0.1-0.1-0.1,0-0.2l0.2-1.3c0-0.2,0.1-0.3,0.3-0.3h0.9c0.1,0,0.1,0,0.1-0.1l0.1-0.7
		c0.2-1.6,0.6-2.7,1.3-3.4c0.7-0.7,1.8-1,3.2-1h0.3c0.2,0,0.2,0.1,0.2,0.3l-0.2,1.6c0,0.2-0.1,0.3-0.3,0.3h-0.3
		c-0.5,0-1,0.2-1.3,0.6c-0.3,0.4-0.5,1-0.6,1.8L114.4,48.7z"/>
	<path class="st1" d="M118.2,61.5c-0.7-0.6-1-1.5-1-2.6c0-0.1,0-0.3,0.1-0.7l0.7-5.5c0.2-1.2,0.7-2.3,1.6-3c0.9-0.8,2-1.2,3.3-1.2
		c1.2,0,2.2,0.3,2.8,1c0.7,0.6,1,1.5,1,2.6c0,0.1,0,0.3-0.1,0.7l-0.7,5.5c-0.2,1.3-0.7,2.3-1.5,3c-0.9,0.8-2,1.1-3.3,1.1
		C119.8,62.4,118.8,62.1,118.2,61.5z M122.7,59.6c0.4-0.4,0.6-0.9,0.7-1.5l0.6-5.1c0-0.1,0-0.2,0-0.4c0-0.5-0.1-1-0.4-1.3
		c-0.3-0.3-0.7-0.5-1.2-0.5c-0.5,0-1,0.2-1.4,0.6c-0.4,0.4-0.6,0.9-0.7,1.6l-0.6,5.1c0,0.1,0,0.2,0,0.4c0,0.5,0.1,1,0.4,1.3
		c0.3,0.3,0.7,0.5,1.2,0.5C121.8,60.2,122.3,60,122.7,59.6z"/>
	<path class="st1" d="M129,61.5c-0.7-0.6-1-1.5-1-2.6c0-0.1,0-0.3,0.1-0.7l0.7-5.5c0.2-1.2,0.7-2.3,1.6-3c0.9-0.8,2-1.2,3.3-1.2
		c1.2,0,2.2,0.3,2.8,1c0.7,0.6,1,1.5,1,2.6c0,0.1,0,0.3-0.1,0.7l-0.7,5.5c-0.2,1.3-0.7,2.3-1.5,3c-0.9,0.8-2,1.1-3.3,1.1
		C130.6,62.4,129.7,62.1,129,61.5z M133.5,59.6c0.4-0.4,0.6-0.9,0.7-1.5l0.6-5.1c0-0.1,0-0.2,0-0.4c0-0.5-0.1-1-0.4-1.3
		c-0.3-0.3-0.7-0.5-1.2-0.5c-0.5,0-1,0.2-1.4,0.6c-0.4,0.4-0.6,0.9-0.7,1.6l-0.6,5.1c0,0.1,0,0.2,0,0.4c0,0.5,0.1,1,0.4,1.3
		c0.3,0.3,0.7,0.5,1.2,0.5C132.6,60.2,133.1,60,133.5,59.6z"/>
	<path class="st1" d="M147,43.8h1.9c0.1,0,0.2,0,0.2,0.1c0,0.1,0.1,0.1,0,0.2L147,61.9c0,0.1,0,0.1-0.1,0.2s-0.1,0.1-0.2,0.1h-1.9
		c-0.2,0-0.2-0.1-0.2-0.3l0.1-0.6c0,0,0-0.1,0-0.1c0,0-0.1,0-0.1,0c-0.4,0.4-0.8,0.7-1.3,0.9c-0.5,0.2-0.9,0.3-1.4,0.3
		c-1,0-1.7-0.3-2.3-0.9c-0.5-0.6-0.8-1.4-0.8-2.4c0-0.2,0-0.4,0.1-0.8l0.7-5.5c0.2-1.3,0.6-2.3,1.3-3.1c0.7-0.7,1.6-1.1,2.7-1.1
		c0.5,0,0.9,0.1,1.3,0.3c0.4,0.2,0.8,0.5,1,0.9c0,0,0.1,0,0.1,0c0,0,0,0,0-0.1l0.7-5.7C146.8,43.9,146.8,43.8,147,43.8z M145.6,52.5
		c0-0.5-0.1-1-0.4-1.3c-0.3-0.3-0.7-0.5-1.1-0.5c-0.5,0-1,0.2-1.4,0.6c-0.4,0.4-0.6,0.9-0.7,1.6l-0.6,5.2c0,0.1,0,0.2,0,0.4
		c0,0.5,0.1,1,0.4,1.3c0.3,0.3,0.7,0.5,1.2,0.5c0.5,0,1-0.2,1.4-0.6c0.4-0.4,0.6-0.9,0.7-1.5l0.6-5.2
		C145.6,52.8,145.6,52.7,145.6,52.5z"/>
	<path class="st1" d="M154.9,62.1c0-0.1-0.1-0.1,0-0.2l1.6-12.9c0-0.2,0.1-0.3,0.3-0.3h1.9c0.2,0,0.2,0.1,0.2,0.3l-1.6,12.9
		c0,0.2-0.1,0.3-0.3,0.3h-1.9C155,62.2,155,62.2,154.9,62.1z M157,46.4c-0.2-0.3-0.4-0.6-0.4-1c0-0.6,0.2-1,0.5-1.4s0.8-0.6,1.3-0.6
		c0.4,0,0.7,0.1,1,0.4c0.2,0.3,0.4,0.6,0.4,1c0,0.6-0.2,1.1-0.5,1.4c-0.3,0.4-0.8,0.6-1.3,0.6C157.5,46.8,157.2,46.7,157,46.4z"/>
	<path class="st1" d="M169.1,49.5c0.5,0.6,0.7,1.4,0.7,2.4c0,0.3,0,0.6-0.1,1l-1.1,9c0,0.1,0,0.1-0.1,0.2s-0.1,0.1-0.2,0.1h-1.9
		c-0.1,0-0.2,0-0.2-0.1s-0.1-0.1,0-0.2l1.1-8.8c0-0.1,0-0.3,0-0.6c0-0.6-0.1-1-0.4-1.3c-0.3-0.3-0.6-0.5-1.1-0.5
		c-0.6,0-1.1,0.2-1.4,0.6c-0.4,0.4-0.6,1-0.7,1.8l-1.1,8.7c0,0.1,0,0.1-0.1,0.2s-0.1,0.1-0.2,0.1h-1.9c-0.2,0-0.2-0.1-0.2-0.3
		l1.6-12.9c0-0.2,0.1-0.3,0.3-0.3h1.9c0.2,0,0.2,0.1,0.2,0.3l-0.1,0.7c0,0,0,0.1,0.1,0.1c0,0,0.1,0,0.1,0c0.7-0.8,1.6-1.2,2.7-1.2
		C167.9,48.6,168.6,48.9,169.1,49.5z"/>
	<path class="st1" d="M172.1,61.5c-0.7-0.5-1-1.3-1-2.2c0-0.2,0-0.4,0-0.5l0-0.2c0-0.1,0.1-0.1,0.1-0.2s0.1-0.1,0.2-0.1h1.8
		c0.1,0,0.2,0,0.2,0.1c0,0,0.1,0.1,0,0.2l0,0.2c-0.1,0.5,0.1,0.9,0.4,1.2c0.3,0.3,0.7,0.5,1.3,0.5c0.6,0,1-0.2,1.4-0.5
		c0.4-0.4,0.5-0.8,0.5-1.3c0-0.5-0.2-0.9-0.5-1.1c-0.4-0.3-0.9-0.6-1.7-0.9c-0.6-0.3-1-0.5-1.4-0.8c-0.4-0.2-0.7-0.6-1-1.1
		c-0.3-0.5-0.4-1-0.4-1.7c0-0.2,0-0.4,0-0.6c0.1-1.2,0.6-2.1,1.4-2.8c0.8-0.7,1.8-1,3.1-1c1.1,0,2,0.3,2.7,0.9
		c0.6,0.6,0.9,1.4,0.9,2.4c0,0.3,0,0.5,0,0.6v0.1c0,0.2-0.1,0.3-0.3,0.3H178c-0.2,0-0.2-0.1-0.2-0.2l0-0.2l0-0.2
		c0-0.4-0.1-0.8-0.4-1.1c-0.3-0.3-0.7-0.4-1.1-0.4c-0.5,0-0.9,0.2-1.3,0.5c-0.4,0.3-0.6,0.7-0.6,1.2c0,0.4,0,0.7,0.2,0.9
		c0.2,0.2,0.4,0.4,0.7,0.6c0.3,0.1,0.7,0.4,1.3,0.6c0.6,0.3,1.1,0.6,1.5,0.8c0.4,0.3,0.7,0.6,1,1.1c0.3,0.5,0.4,1,0.4,1.7
		c0,1.3-0.4,2.3-1.3,3.1c-0.9,0.8-2,1.2-3.4,1.2C173.7,62.4,172.7,62.1,172.1,61.5z"/>
	<path class="st1" d="M189.8,56.5H184c-0.1,0-0.1,0-0.1,0.1l-0.2,1.4c0,0.1,0,0.2,0,0.4c0,0.5,0.1,1,0.4,1.3
		c0.3,0.3,0.7,0.5,1.1,0.5c0.5,0,0.9-0.1,1.3-0.4c0.4-0.3,0.6-0.7,0.8-1.2c0.1-0.1,0.2-0.2,0.3-0.2l1.9,0.1c0.1,0,0.1,0,0.2,0.1
		c0,0.1,0,0.1,0,0.2c-0.2,1.1-0.8,2-1.6,2.7c-0.8,0.6-1.8,1-3.1,1c-1.2,0-2.1-0.3-2.8-0.9c-0.7-0.6-1-1.5-1-2.6c0-0.1,0-0.3,0.1-0.7
		l0.7-5.5c0.2-1.2,0.7-2.3,1.6-3c0.9-0.8,2-1.2,3.3-1.2c1.2,0,2.1,0.3,2.8,0.9c0.7,0.6,1,1.5,1,2.6c0,0.1,0,0.4-0.1,0.7l-0.4,3.5
		C190.1,56.4,190,56.5,189.8,56.5z M185.1,51.4c-0.4,0.4-0.6,0.9-0.7,1.6l-0.2,1.4c0,0.1,0,0.1,0.1,0.1h3.5c0,0,0.1,0,0.1,0
		c0,0,0,0,0-0.1l0.2-1.4c0-0.1,0-0.2,0-0.4c0-0.5-0.1-1-0.4-1.3c-0.3-0.3-0.7-0.5-1.2-0.5C185.9,50.8,185.5,51,185.1,51.4z"/>
	<path class="st1" d="M192.9,61.5c-0.7-0.6-1-1.5-1-2.6c0-0.1,0-0.4,0.1-0.7l0.7-5.5c0.2-1.2,0.7-2.3,1.6-3c0.9-0.8,2-1.2,3.3-1.2
		c1.2,0,2.1,0.3,2.8,0.9c0.7,0.6,1,1.4,1,2.4c0,0.2,0,0.4,0,0.5l-0.1,0.3c0,0.2-0.1,0.3-0.3,0.3l-1.9,0.1c-0.2,0-0.2-0.1-0.2-0.3
		l0.1-0.3c0.1-0.5-0.1-0.9-0.4-1.3c-0.3-0.4-0.7-0.6-1.3-0.6c-0.5,0-1,0.2-1.4,0.6c-0.4,0.4-0.6,0.9-0.7,1.6l-0.6,5.1
		c0,0.1,0,0.2,0,0.4c0,0.5,0.1,1,0.4,1.3c0.3,0.3,0.7,0.5,1.2,0.5c0.5,0,1-0.2,1.4-0.6c0.4-0.4,0.6-0.8,0.7-1.3l0-0.3
		c0-0.2,0.1-0.3,0.3-0.3l1.9,0c0.2,0,0.2,0.1,0.2,0.3l-0.1,0.4c-0.1,1.1-0.6,2.1-1.5,2.8c-0.9,0.7-2,1.1-3.3,1.1
		C194.5,62.4,193.6,62.1,192.9,61.5z"/>
	<path class="st1" d="M210,48.8h1.9c0.2,0,0.2,0.1,0.2,0.3l-1.6,12.9c0,0.1,0,0.1-0.1,0.2s-0.1,0.1-0.2,0.1h-1.9
		c-0.2,0-0.2-0.1-0.2-0.3l0.1-0.8c0-0.1,0-0.1,0-0.1s0,0-0.1,0.1c-0.6,0.8-1.5,1.2-2.6,1.2c-0.9,0-1.6-0.3-2.2-0.8
		c-0.5-0.5-0.8-1.3-0.8-2.4c0-0.2,0-0.4,0.1-0.8l1.2-9.4c0-0.1,0.1-0.1,0.1-0.2c0.1-0.1,0.1-0.1,0.2-0.1h1.9c0.2,0,0.2,0.1,0.2,0.3
		l-1.1,8.9c0,0.1,0,0.3,0,0.6c0,1.1,0.5,1.7,1.5,1.7c0.6,0,1-0.2,1.4-0.6c0.4-0.4,0.6-1,0.7-1.8l1.1-8.7
		C209.8,48.9,209.9,48.8,210,48.8z"/>
	<path class="st1" d="M220.9,49c0.1,0.1,0.1,0.2,0.1,0.3l-0.6,2c-0.1,0.2-0.2,0.2-0.3,0.2c-0.2-0.1-0.5-0.1-0.8-0.1
		c-0.2,0-0.3,0-0.4,0c-0.5,0.1-1,0.4-1.4,0.9c-0.4,0.5-0.7,1.2-0.8,2l-0.9,7.7c0,0.1,0,0.1-0.1,0.2s-0.1,0.1-0.2,0.1h-1.9
		c-0.2,0-0.2-0.1-0.2-0.3l1.6-12.9c0-0.2,0.1-0.3,0.3-0.3h1.9c0.2,0,0.2,0.1,0.2,0.3l-0.2,1.5c0,0.1,0,0.1,0,0.1c0,0,0,0,0.1-0.1
		c0.7-1.3,1.5-1.9,2.6-1.9C220.3,48.7,220.6,48.8,220.9,49z"/>
	<path class="st1" d="M229.8,56.5h-5.8c-0.1,0-0.1,0-0.1,0.1l-0.2,1.4c0,0.1,0,0.2,0,0.4c0,0.5,0.1,1,0.4,1.3
		c0.3,0.3,0.7,0.5,1.1,0.5c0.5,0,0.9-0.1,1.3-0.4c0.4-0.3,0.6-0.7,0.8-1.2c0.1-0.1,0.2-0.2,0.3-0.2l1.9,0.1c0.1,0,0.1,0,0.2,0.1
		c0,0.1,0,0.1,0,0.2c-0.2,1.1-0.8,2-1.6,2.7c-0.8,0.6-1.8,1-3.1,1c-1.2,0-2.1-0.3-2.8-0.9c-0.7-0.6-1-1.5-1-2.6c0-0.1,0-0.3,0.1-0.7
		l0.7-5.5c0.2-1.2,0.7-2.3,1.6-3c0.9-0.8,2-1.2,3.3-1.2c1.2,0,2.1,0.3,2.8,0.9c0.7,0.6,1,1.5,1,2.6c0,0.1,0,0.4-0.1,0.7l-0.4,3.5
		C230.1,56.4,230,56.5,229.8,56.5z M225.1,51.4c-0.4,0.4-0.6,0.9-0.7,1.6l-0.2,1.4c0,0.1,0,0.1,0.1,0.1h3.5c0,0,0.1,0,0.1,0
		c0,0,0,0,0-0.1l0.2-1.4c0-0.1,0-0.2,0-0.4c0-0.5-0.1-1-0.4-1.3c-0.3-0.3-0.7-0.5-1.2-0.5C226,50.8,225.5,51,225.1,51.4z"/>
	<path class="st1" d="M232.1,61.8c-0.3-0.3-0.4-0.7-0.4-1.1c0-0.5,0.2-1,0.6-1.4s0.8-0.6,1.3-0.6c0.4,0,0.8,0.1,1.1,0.4
		c0.3,0.3,0.4,0.7,0.4,1.1c0,0.6-0.2,1-0.6,1.5c-0.4,0.4-0.8,0.6-1.4,0.6C232.8,62.2,232.4,62.1,232.1,61.8z"/>
</g>
<g>
	<path class="st2" d="M147.5,181.4H3.2c-1.9,0-3.4-1.7-3.2-3.6l4.1-33.3c0.2-1.5,1.5-2.7,3.1-2.7h144.5c1.8,0,3.3,1.6,3.1,3.5
		l-4.1,33.5C150.4,180.3,149.1,181.4,147.5,181.4"/>
</g>
<g>
	<path d="M8.7,136.8c-0.8-0.7-1.2-1.7-1.2-3c0-0.2,0-0.4,0.1-0.7l1-8.5c0.2-1.4,0.8-2.6,1.8-3.5c1-0.9,2.2-1.3,3.7-1.3
		c1.3,0,2.4,0.4,3.2,1.1c0.8,0.7,1.2,1.7,1.2,3c0,0.2,0,0.4-0.1,0.7l-0.1,1c0,0.1-0.1,0.2-0.1,0.2c-0.1,0.1-0.1,0.1-0.2,0.1h-2.9
		c-0.1,0-0.2,0-0.2-0.1c-0.1-0.1-0.1-0.1-0.1-0.2l0.1-1c0-0.1,0-0.2,0-0.3c0-0.4-0.1-0.8-0.3-1s-0.5-0.4-0.9-0.4
		c-0.4,0-0.8,0.2-1.1,0.5c-0.3,0.3-0.5,0.7-0.6,1.2l-1.1,8.6c-0.1,0.5,0,0.9,0.3,1.2c0.2,0.3,0.5,0.5,1,0.5c0.4,0,0.8-0.2,1.1-0.5
		c0.3-0.3,0.5-0.7,0.6-1.2l0.3-2c0-0.1,0-0.1-0.1-0.1h-1.1c-0.1,0-0.2,0-0.2-0.1c-0.1-0.1-0.1-0.1-0.1-0.2l0.3-2.3
		c0-0.1,0-0.2,0.1-0.2c0.1-0.1,0.1-0.1,0.2-0.1h4.3c0.2,0,0.3,0.1,0.3,0.3l-0.6,4.7c-0.2,1.5-0.8,2.6-1.8,3.5s-2.2,1.3-3.7,1.3
		C10.5,137.9,9.4,137.5,8.7,136.8z"/>
	<path d="M20.1,136.8c-0.8-0.8-1.2-1.8-1.2-3.1c0-0.2,0-0.4,0.1-0.8l1-8.1c0.2-1.5,0.8-2.7,1.8-3.6c1-0.9,2.3-1.4,3.8-1.4
		c1.4,0,2.4,0.4,3.2,1.1c0.8,0.8,1.2,1.8,1.2,3.1c0,0.2,0,0.4-0.1,0.8l-1,8.1c-0.2,1.5-0.8,2.7-1.8,3.6c-1,0.9-2.3,1.4-3.8,1.4
		C21.9,137.9,20.9,137.5,20.1,136.8z M24.8,134.3c0.3-0.3,0.5-0.8,0.6-1.3l1-8.4c0-0.1,0-0.2,0-0.3c0-0.5-0.1-0.8-0.4-1.1
		c-0.2-0.3-0.6-0.4-1-0.4c-0.5,0-0.8,0.2-1.2,0.5c-0.3,0.3-0.5,0.8-0.6,1.3l-1,8.4c0,0.1,0,0.2,0,0.3c0,0.5,0.1,0.8,0.4,1.1
		c0.2,0.3,0.5,0.4,0.9,0.4C24.1,134.8,24.5,134.7,24.8,134.3z"/>
	<path d="M42.1,120.1c0,0.1,0.1,0.1,0,0.2l-0.3,2.5c0,0.1-0.1,0.2-0.1,0.2c-0.1,0.1-0.1,0.1-0.2,0.1h-3.1c0,0-0.1,0-0.1,0
		s0,0.1,0,0.1l-1.7,14.2c0,0.1-0.1,0.2-0.1,0.2c-0.1,0.1-0.1,0.1-0.2,0.1h-2.9c-0.1,0-0.2,0-0.2-0.1c0-0.1-0.1-0.1,0-0.2l1.7-14.2
		c0-0.1,0-0.1-0.1-0.1h-2.9c-0.2,0-0.3-0.1-0.3-0.3l0.3-2.5c0-0.1,0.1-0.2,0.1-0.2c0.1-0.1,0.1-0.1,0.2-0.1h9.7
		C42,120,42.1,120,42.1,120.1z"/>
	<path d="M57.3,123c-0.1,0.1-0.1,0.1-0.2,0.1H52c-0.1,0-0.1,0-0.1,0.1l-0.5,4c0,0.1,0,0.1,0.1,0.1h3c0.1,0,0.2,0,0.2,0.1
		c0,0.1,0.1,0.1,0,0.2l-0.3,2.5c0,0.1-0.1,0.2-0.1,0.2c-0.1,0.1-0.1,0.1-0.2,0.1h-2.9c-0.1,0-0.2,0-0.2,0.1l-0.5,4
		c0,0.1,0,0.1,0.1,0.1h5.1c0.1,0,0.2,0,0.2,0.1c0.1,0.1,0.1,0.1,0.1,0.2l-0.3,2.5c0,0.1-0.1,0.2-0.1,0.2c-0.1,0.1-0.1,0.1-0.2,0.1
		h-8.4c-0.1,0-0.2,0-0.2-0.1c-0.1-0.1-0.1-0.1-0.1-0.2l2.1-17.1c0-0.1,0.1-0.2,0.1-0.2c0.1-0.1,0.1-0.1,0.2-0.1h8.4
		c0.1,0,0.2,0,0.2,0.1s0.1,0.1,0.1,0.2l-0.3,2.5C57.4,122.8,57.4,122.9,57.3,123z"/>
	<path d="M56.9,137.6c0-0.1,0-0.2,0-0.3l4.3-8.4c0-0.1,0-0.1,0-0.2l-2.3-8.4l0-0.1c0-0.2,0.1-0.3,0.3-0.3h3c0.2,0,0.2,0.1,0.3,0.3
		l1.1,4.9c0,0.1,0,0.1,0.1,0.1c0,0,0.1,0,0.1-0.1l2.2-4.9c0.1-0.2,0.2-0.3,0.4-0.3h2.9c0.1,0,0.2,0,0.2,0.1s0,0.2,0,0.3l-4.3,8.4
		c0,0.1,0,0.1,0,0.2l2.3,8.4l0,0.1c0,0.1,0,0.1-0.1,0.2c-0.1,0.1-0.1,0.1-0.2,0.1h-2.9c-0.2,0-0.2-0.1-0.3-0.3l-1.1-4.8
		c0-0.1,0-0.1-0.1-0.1c0,0-0.1,0-0.1,0.1l-2.3,4.8c-0.1,0.2-0.2,0.3-0.4,0.3h-2.9C57,137.7,56.9,137.7,56.9,137.6z"/>
	<path d="M80.9,120.1c0,0.1,0.1,0.1,0,0.2l-0.3,2.5c0,0.1-0.1,0.2-0.1,0.2c-0.1,0.1-0.1,0.1-0.2,0.1h-3.1c0,0-0.1,0-0.1,0
		s0,0.1,0,0.1l-1.7,14.2c0,0.1-0.1,0.2-0.1,0.2c-0.1,0.1-0.1,0.1-0.2,0.1h-2.9c-0.1,0-0.2,0-0.2-0.1c0-0.1-0.1-0.1,0-0.2l1.7-14.2
		c0-0.1,0-0.1-0.1-0.1h-2.9c-0.2,0-0.3-0.1-0.3-0.3l0.3-2.5c0-0.1,0.1-0.2,0.1-0.2c0.1-0.1,0.1-0.1,0.2-0.1h9.7
		C80.8,120,80.9,120,80.9,120.1z"/>
	<path d="M86.9,137.4l-1-7c0-0.1-0.1-0.1-0.1-0.1H85c-0.1,0-0.2,0-0.2,0.1l-0.8,6.9c0,0.1-0.1,0.2-0.1,0.2c-0.1,0.1-0.1,0.1-0.2,0.1
		h-2.9c-0.1,0-0.2,0-0.2-0.1c-0.1-0.1-0.1-0.1-0.1-0.2l2.1-17.1c0-0.1,0.1-0.2,0.1-0.2c0.1-0.1,0.1-0.1,0.2-0.1h5
		c1.2,0,2.2,0.4,2.9,1.2s1.1,1.9,1.1,3.2c0,0.4,0,0.7-0.1,0.9c-0.1,1-0.4,1.9-0.9,2.6c-0.5,0.8-1,1.4-1.8,1.8c0,0-0.1,0-0.1,0.1
		c0,0,0,0.1,0,0.1l1.3,7.5v0.1c0,0.1,0,0.2-0.1,0.2c-0.1,0.1-0.1,0.1-0.2,0.1h-2.9C87.1,137.7,87,137.6,86.9,137.4z M85.7,123.2
		l-0.5,4.3c0,0.1,0,0.1,0.1,0.1h1.1c0.6,0,1-0.2,1.4-0.7c0.4-0.5,0.6-1.2,0.6-2c0-0.6-0.1-1-0.4-1.3c-0.3-0.3-0.6-0.5-1-0.5h-1.1
		C85.8,123,85.7,123.1,85.7,123.2z"/>
	<path d="M99.2,137.4l-0.1-2.4c0,0,0-0.1,0-0.1c0,0-0.1,0-0.1,0h-3.1c-0.1,0-0.2,0-0.2,0.1l-0.7,2.5c0,0.2-0.2,0.3-0.4,0.3h-2.9
		c-0.2,0-0.3-0.1-0.2-0.3l5.7-17.1c0.1-0.2,0.2-0.3,0.4-0.3h3.3c0.2,0,0.3,0.1,0.3,0.3l1.5,17.1v0.1c0,0.2-0.1,0.3-0.3,0.3h-3
		C99.3,137.7,99.2,137.6,99.2,137.4z M96.7,132.1h2.1c0.1,0,0.1,0,0.1-0.1l-0.2-6.5c0-0.1,0-0.1-0.1-0.1s-0.1,0-0.1,0.1l-2,6.5
		C96.6,132.1,96.6,132.1,96.7,132.1z"/>
	<path d="M109.2,137.6c0-0.1-0.1-0.1,0-0.2l2.1-17.1c0-0.1,0.1-0.2,0.1-0.2c0.1-0.1,0.1-0.1,0.2-0.1h2.8c0.2,0,0.3,0.1,0.3,0.2
		l1.5,4.7c0.1,0.1,0.1,0.1,0.2,0l2.7-4.7c0.1-0.2,0.2-0.2,0.4-0.2h2.9c0.1,0,0.2,0,0.2,0.1c0.1,0.1,0.1,0.1,0.1,0.2l-2.1,17.1
		c0,0.1-0.1,0.2-0.1,0.2c-0.1,0.1-0.1,0.1-0.2,0.1h-2.9c-0.1,0-0.2,0-0.2-0.1c-0.1-0.1-0.1-0.1-0.1-0.2l1.3-10.9c0-0.1,0-0.1,0-0.1
		c0,0-0.1,0-0.1,0.1l-2.4,3.9c-0.1,0.2-0.2,0.2-0.2,0.2c-0.1,0-0.1-0.1-0.2-0.2l-1.4-4c0-0.1-0.1-0.1-0.1-0.1c0,0-0.1,0-0.1,0.1
		l-1.3,11c0,0.1-0.1,0.2-0.1,0.2c-0.1,0.1-0.1,0.1-0.2,0.1h-2.9C109.4,137.7,109.3,137.7,109.2,137.6z"/>
</g>
<g>
	<path d="M133.2,123c-0.1,0.1-0.1,0.1-0.2,0.1h-5.1c-0.1,0-0.1,0-0.1,0.1l-0.5,4c0,0.1,0,0.1,0.1,0.1h3c0.1,0,0.2,0,0.2,0.1
		c0,0.1,0.1,0.1,0,0.2l-0.3,2.5c0,0.1-0.1,0.2-0.1,0.2c-0.1,0.1-0.1,0.1-0.2,0.1H127c-0.1,0-0.2,0-0.2,0.1l-0.5,4
		c0,0.1,0,0.1,0.1,0.1h5.1c0.1,0,0.2,0,0.2,0.1c0.1,0.1,0.1,0.1,0.1,0.2l-0.3,2.5c0,0.1-0.1,0.2-0.1,0.2c-0.1,0.1-0.1,0.1-0.2,0.1
		h-8.4c-0.1,0-0.2,0-0.2-0.1c-0.1-0.1-0.1-0.1-0.1-0.2l2.1-17.1c0-0.1,0.1-0.2,0.1-0.2c0.1-0.1,0.1-0.1,0.2-0.1h8.4
		c0.1,0,0.2,0,0.2,0.1s0.1,0.1,0.1,0.2l-0.3,2.5C133.3,122.8,133.2,122.9,133.2,123z"/>
	<path d="M140.4,137.4l-0.1-2.4c0,0,0-0.1,0-0.1c0,0-0.1,0-0.1,0h-3.1c-0.1,0-0.2,0-0.2,0.1l-0.7,2.5c0,0.2-0.2,0.3-0.4,0.3h-2.9
		c-0.2,0-0.3-0.1-0.2-0.3l5.7-17.1c0.1-0.2,0.2-0.3,0.4-0.3h3.3c0.2,0,0.3,0.1,0.3,0.3l1.5,17.1v0.1c0,0.2-0.1,0.3-0.3,0.3h-3
		C140.4,137.7,140.4,137.6,140.4,137.4z M137.9,132.1h2.1c0.1,0,0.1,0,0.1-0.1l-0.2-6.5c0-0.1,0-0.1-0.1-0.1s-0.1,0-0.1,0.1l-2,6.5
		C137.8,132.1,137.8,132.1,137.9,132.1z"/>
</g>
<g>
	<path d="M146,137.6c-0.1-0.1-0.1-0.1-0.1-0.2l2.1-17.1c0-0.1,0.1-0.2,0.1-0.2c0.1-0.1,0.1-0.1,0.2-0.1h2.9c0.2,0,0.3,0.1,0.3,0.3
		l-1.7,14.2c0,0.1,0,0.1,0.1,0.1h5.1c0.2,0,0.3,0.1,0.3,0.3l-0.3,2.5c0,0.1-0.1,0.2-0.1,0.2c-0.1,0.1-0.1,0.1-0.2,0.1h-8.4
		C146.1,137.7,146,137.7,146,137.6z"/>
</g>
<g>
	<path d="M13.6,174.9c-1.3-1.2-2-2.9-2-4.9c0-0.3,0-0.6,0.1-1.2l0.2-1.4c0-0.1,0.1-0.3,0.2-0.4s0.2-0.2,0.4-0.2h4.8
		c0.1,0,0.3,0.1,0.3,0.2s0.1,0.2,0.1,0.4l-0.1,1.1c0,0.1,0,0.3,0,0.6c0,0.7,0.2,1.3,0.5,1.8c0.4,0.4,0.8,0.6,1.4,0.6
		c0.7,0,1.4-0.3,1.9-0.9c0.5-0.6,0.8-1.4,0.8-2.3c0-0.7-0.2-1.4-0.7-2s-1.4-1.4-2.8-2.6c-1.2-0.9-2.1-1.8-2.8-2.5
		c-0.7-0.7-1.3-1.6-1.8-2.6c-0.5-1-0.8-2.2-0.8-3.5c0-0.3,0-0.7,0.1-1.3c0.3-2.4,1.3-4.4,2.9-5.9c1.7-1.5,3.7-2.2,6.1-2.2
		c2.2,0,4,0.6,5.3,1.9c1.3,1.3,2,2.9,2,5.1c0,0.3,0,0.7-0.1,1.3l-0.1,1c0,0.1-0.1,0.3-0.2,0.4s-0.2,0.2-0.4,0.2h-4.8
		c-0.1,0-0.3,0-0.3-0.2c-0.1-0.1-0.1-0.2-0.1-0.4l0.1-1.2c0-0.1,0-0.3,0-0.6c0-0.7-0.2-1.3-0.6-1.7c-0.4-0.4-0.9-0.6-1.5-0.6
		c-0.7,0-1.2,0.3-1.7,0.8c-0.5,0.5-0.8,1.2-0.9,2.1l0,0.5c0,0.7,0.2,1.4,0.7,2c0.5,0.6,1.3,1.5,2.6,2.5c1.4,1.2,2.5,2.1,3.3,2.9
		s1.4,1.6,1.8,2.4c0.4,0.9,0.6,1.9,0.6,3c0,0.2,0,0.6-0.1,1.2c-0.3,2.5-1.3,4.5-3,6s-3.8,2.2-6.2,2.2
		C16.6,176.8,14.9,176.2,13.6,174.9z"/>
</g>
<g>
	<path d="M34,176l-2.1-29.2v-0.1c0-0.3,0.2-0.5,0.5-0.5h5.1c0.3,0,0.5,0.2,0.5,0.5l0.5,15.5c0,0.1,0.1,0.2,0.1,0.2s0.1-0.1,0.1-0.2
		l4.2-15.5c0.1-0.3,0.3-0.5,0.6-0.5h4.2c0.3,0,0.5,0.2,0.5,0.5l0.6,15.5c0,0.1,0,0.2,0.1,0.2c0.1,0,0.1-0.1,0.2-0.2l4-15.5
		c0.1-0.3,0.3-0.5,0.6-0.5h5c0.3,0,0.5,0.2,0.4,0.6L50.1,176c-0.1,0.3-0.3,0.5-0.6,0.5H45c-0.3,0-0.5-0.2-0.5-0.5L44,160
		c0-0.1,0-0.2-0.1-0.2s-0.1,0.1-0.2,0.2l-4.2,16c-0.1,0.3-0.3,0.5-0.6,0.5h-4.4C34.2,176.4,34,176.3,34,176z"/>
	<path d="M58.3,176.3c-0.1-0.1-0.1-0.2-0.1-0.4l3.6-29.2c0-0.1,0.1-0.3,0.2-0.4c0.1-0.1,0.2-0.2,0.4-0.2h4.9c0.3,0,0.5,0.2,0.5,0.5
		l-3.6,29.2c0,0.1-0.1,0.3-0.2,0.4c-0.1,0.1-0.2,0.2-0.4,0.2h-4.9C58.5,176.4,58.3,176.4,58.3,176.3z"/>
	<path d="M85.3,148.3c1.2,1.4,1.8,3.2,1.8,5.5c0,0.7,0,1.3-0.1,1.6c-0.3,2.7-1.3,4.8-2.9,6.4s-3.5,2.4-5.8,2.4h-3.1
		c-0.1,0-0.2,0.1-0.3,0.2l-1.4,11.5c0,0.1-0.1,0.3-0.2,0.4c-0.1,0.1-0.2,0.2-0.4,0.2h-4.9c-0.1,0-0.3,0-0.3-0.2
		c-0.1-0.1-0.1-0.2-0.1-0.4l3.6-29.2c0-0.1,0.1-0.3,0.2-0.4s0.2-0.2,0.4-0.2h8.5C82.4,146.2,84.1,146.9,85.3,148.3z M80.2,158.2
		c0.7-0.9,1-2,1-3.5c0-1-0.2-1.8-0.7-2.4c-0.4-0.6-1.1-0.8-1.8-0.8h-1.9c-0.1,0-0.2,0.1-0.2,0.2l-0.9,7.6c0,0.1,0.1,0.2,0.2,0.2h1.9
		C78.7,159.5,79.5,159.1,80.2,158.2z"/>
	<path d="M105.5,151.3c-0.1,0.1-0.2,0.2-0.4,0.2h-8.8c-0.1,0-0.2,0.1-0.2,0.2l-0.9,6.8c0,0.1,0.1,0.2,0.2,0.2h5
		c0.1,0,0.3,0.1,0.3,0.2c0.1,0.1,0.1,0.2,0.1,0.4l-0.5,4.2c0,0.1-0.1,0.3-0.2,0.4s-0.2,0.2-0.4,0.2h-5c-0.2,0-0.3,0.1-0.3,0.2
		l-0.8,6.9c-0.1,0.1,0,0.2,0.2,0.2h8.7c0.1,0,0.3,0.1,0.4,0.2c0.1,0.1,0.1,0.2,0.1,0.4l-0.5,4.2c0,0.1-0.1,0.3-0.2,0.4
		c-0.1,0.1-0.2,0.2-0.4,0.2H87.7c-0.1,0-0.3,0-0.3-0.2c-0.1-0.1-0.1-0.2-0.1-0.4l3.6-29.2c0-0.1,0.1-0.3,0.2-0.4
		c0.1-0.1,0.2-0.2,0.4-0.2h14.4c0.1,0,0.3,0.1,0.3,0.2c0.1,0.1,0.1,0.2,0.1,0.4l-0.5,4.2C105.6,151.1,105.6,151.2,105.5,151.3z"/>
	<path d="M107.9,174.9c-1.3-1.2-2-2.9-2-4.9c0-0.3,0-0.6,0.1-1.2l0.2-1.4c0-0.1,0.1-0.3,0.2-0.4s0.2-0.2,0.4-0.2h4.8
		c0.1,0,0.3,0.1,0.3,0.2s0.1,0.2,0.1,0.4l-0.1,1.1c0,0.1,0,0.3,0,0.6c0,0.7,0.2,1.3,0.5,1.8c0.4,0.4,0.8,0.6,1.4,0.6
		c0.7,0,1.4-0.3,1.9-0.9c0.5-0.6,0.8-1.4,0.8-2.3c0-0.7-0.2-1.4-0.7-2s-1.4-1.4-2.8-2.6c-1.2-0.9-2.1-1.8-2.8-2.5
		c-0.7-0.7-1.3-1.6-1.8-2.6c-0.5-1-0.8-2.2-0.8-3.5c0-0.3,0-0.7,0.1-1.3c0.3-2.4,1.3-4.4,2.9-5.9c1.7-1.5,3.7-2.2,6.1-2.2
		c2.2,0,4,0.6,5.3,1.9c1.3,1.3,2,2.9,2,5.1c0,0.3,0,0.7-0.1,1.3l-0.1,1c0,0.1-0.1,0.3-0.2,0.4s-0.2,0.2-0.4,0.2h-4.8
		c-0.1,0-0.3,0-0.3-0.2c-0.1-0.1-0.1-0.2-0.1-0.4l0.1-1.2c0-0.1,0-0.3,0-0.6c0-0.7-0.2-1.3-0.6-1.7c-0.4-0.4-0.9-0.6-1.5-0.6
		c-0.7,0-1.2,0.3-1.7,0.8c-0.5,0.5-0.8,1.2-0.9,2.1l0,0.5c0,0.7,0.2,1.4,0.7,2c0.5,0.6,1.3,1.5,2.6,2.5c1.4,1.2,2.5,2.1,3.3,2.9
		s1.4,1.6,1.8,2.4c0.4,0.9,0.6,1.9,0.6,3c0,0.2,0,0.6-0.1,1.2c-0.3,2.5-1.3,4.5-3,6s-3.8,2.2-6.2,2.2
		C110.9,176.8,109.2,176.2,107.9,174.9z"/>
	<path d="M129.4,166.7c-0.1-0.1-0.1-0.2-0.1-0.4l0.2-1.4c0.2-1.4,0.6-2.6,1.3-3.5c0.7-0.9,1.6-1.8,2.8-2.7c1.1-0.9,1.9-1.6,2.4-2.3
		s0.8-1.6,0.8-2.6c0-0.7-0.2-1.3-0.5-1.8c-0.4-0.4-0.9-0.7-1.5-0.7c-0.8,0-1.5,0.3-2,0.9c-0.5,0.6-0.9,1.4-1,2.3l-0.1,0.7
		c0,0.3-0.2,0.5-0.6,0.5l-4.9-0.2c-0.3,0-0.5-0.2-0.4-0.5l0-0.5c0.2-1.7,0.8-3.3,1.7-4.6s2.1-2.4,3.5-3.1s2.9-1.1,4.6-1.1
		c2.2,0,4,0.6,5.3,1.9c1.3,1.3,1.9,3,1.9,5.1c0,0.3,0,0.7-0.1,1.4c-0.1,1.3-0.4,2.4-0.9,3.3c-0.5,0.9-1,1.6-1.5,2.2
		c-0.6,0.6-1.3,1.2-2.1,1.9c-0.9,0.7-1.6,1.4-2,1.9c-0.4,0.5-0.7,1.1-0.8,1.9l-0.1,1c0,0.1-0.1,0.3-0.2,0.4
		c-0.1,0.1-0.2,0.2-0.4,0.2h-4.9C129.6,166.9,129.5,166.8,129.4,166.7z M129.2,175.7c-0.5-0.6-0.8-1.3-0.8-2.2c0-1,0.4-1.9,1.1-2.7
		c0.8-0.8,1.6-1.2,2.6-1.2c0.8,0,1.5,0.3,2,0.9c0.6,0.6,0.8,1.3,0.8,2.1c0,1-0.4,1.9-1.1,2.7s-1.6,1.2-2.6,1.2
		C130.4,176.5,129.7,176.2,129.2,175.7z"/>
</g>
</svg>
