<?xml version="1.0" encoding="utf-8"?>
<!-- Generator: Adobe Illustrator 22.1.0, SVG Export Plug-In . SVG Version: 6.00 Build 0)  -->
<svg version="1.1" id="Layer_1" xmlns="http://www.w3.org/2000/svg" xmlns:xlink="http://www.w3.org/1999/xlink" x="0px" y="0px"
	 viewBox="0 0 154.9 49.6" style="enable-background:new 0 0 154.9 49.6;" xml:space="preserve">
<style type="text/css">
	.st0{fill:#1A0A29;}
	.st1{fill:#FFFFFF;}
	.st2{fill:#ED008C;}
</style>
<g>
	<path class="st0" d="M117.2,36.7H3.1c-1.7,0-3-1.5-2.8-3.2L4,2.5C4.2,1.1,5.4,0,6.9,0H121c1.7,0,3,1.5,2.8,3.2l-3.8,31
		C119.8,35.6,118.6,36.7,117.2,36.7"/>
</g>
<g>
	<path class="st1" d="M9.2,29.8c-1.1-1.1-1.7-2.5-1.7-4.4c0-0.2,0-0.6,0.1-1.2l1.5-11.8c0.2-2.2,1.1-3.9,2.5-5.2
		c1.4-1.3,3.2-1.9,5.4-1.9c1.9,0,3.5,0.5,4.6,1.6c1.1,1.1,1.7,2.5,1.7,4.4c0,0.2,0,0.6-0.1,1.1l-0.1,0.4c0,0.1-0.1,0.2-0.2,0.3
		c-0.1,0.1-0.2,0.1-0.3,0.1l-4.2,0.2c-0.3,0-0.4-0.1-0.4-0.4l0.1-0.9c0-0.1,0-0.2,0-0.4c0-0.6-0.2-1.1-0.5-1.4S17,9.7,16.5,9.7
		c-0.6,0-1.1,0.2-1.6,0.7c-0.4,0.4-0.7,1-0.8,1.7l-1.5,12.6c0,0.1,0,0.2,0,0.4c0,0.6,0.2,1.1,0.5,1.4c0.3,0.4,0.8,0.5,1.3,0.5
		c0.6,0,1.2-0.2,1.6-0.6c0.4-0.4,0.7-1,0.8-1.7l0.1-1c0-0.1,0.1-0.2,0.2-0.3c0.1-0.1,0.2-0.1,0.3-0.1l4.1,0.2c0.3,0,0.4,0.1,0.4,0.4
		l0,0.4c-0.3,2.2-1.1,3.9-2.6,5.2c-1.5,1.3-3.2,2-5.4,2C11.9,31.4,10.4,30.9,9.2,29.8z"/>
	<path class="st1" d="M25.7,29.8c-1.1-1.1-1.7-2.6-1.7-4.4c0-0.2,0-0.6,0.1-1.2l1.4-11.7c0.3-2.2,1.1-3.9,2.6-5.3
		c1.5-1.3,3.3-2,5.4-2c2,0,3.5,0.5,4.7,1.6c1.1,1.1,1.7,2.6,1.7,4.4c0,0.2,0,0.6-0.1,1.2l-1.4,11.7c-0.3,2.2-1.1,3.9-2.6,5.3
		c-1.5,1.3-3.3,2-5.5,2C28.4,31.4,26.8,30.9,25.7,29.8z M32.5,26.3c0.5-0.5,0.7-1.1,0.8-1.9l1.5-12.1c0-0.1,0-0.2,0-0.4
		c0-0.7-0.2-1.2-0.5-1.6C34,9.9,33.6,9.7,33,9.7c-0.7,0-1.2,0.2-1.7,0.7c-0.5,0.5-0.7,1.1-0.8,1.9L29,24.4c0,0.1,0,0.2,0,0.4
		c0,0.7,0.2,1.2,0.5,1.6c0.3,0.4,0.8,0.6,1.3,0.6C31.5,27,32.1,26.8,32.5,26.3z"/>
	<path class="st1" d="M40.4,31c-0.1-0.1-0.1-0.2-0.1-0.3l3-24.7c0-0.1,0.1-0.2,0.2-0.3c0.1-0.1,0.2-0.1,0.3-0.1H48
		c0.3,0,0.4,0.1,0.4,0.4l-2.5,20.5c0,0.1,0,0.2,0.1,0.2h7.4c0.3,0,0.4,0.1,0.4,0.4l-0.4,3.5c0,0.1-0.1,0.2-0.2,0.3
		c-0.1,0.1-0.2,0.1-0.3,0.1H40.7C40.6,31.1,40.5,31.1,40.4,31z"/>
	<path class="st1" d="M55.5,31c-0.1-0.1-0.1-0.2-0.1-0.3l3-24.7c0-0.1,0.1-0.2,0.2-0.3c0.1-0.1,0.2-0.1,0.3-0.1h4.1
		c0.3,0,0.4,0.1,0.4,0.4l-2.5,20.5c0,0.1,0,0.2,0.1,0.2h7.4c0.3,0,0.4,0.1,0.4,0.4l-0.4,3.5c0,0.1-0.1,0.2-0.2,0.3
		c-0.1,0.1-0.2,0.1-0.3,0.1H55.8C55.7,31.1,55.6,31.1,55.5,31z"/>
	<path class="st1" d="M85.9,9.9c-0.1,0.1-0.2,0.1-0.3,0.1h-7.4c-0.1,0-0.2,0.1-0.2,0.2l-0.7,5.8c0,0.1,0,0.2,0.1,0.2h4.3
		c0.1,0,0.2,0,0.3,0.1c0.1,0.1,0.1,0.2,0.1,0.3l-0.4,3.5c0,0.1-0.1,0.2-0.2,0.3c-0.1,0.1-0.2,0.1-0.3,0.1h-4.2
		c-0.1,0-0.2,0.1-0.2,0.2L76,26.5c0,0.1,0,0.2,0.1,0.2h7.4c0.1,0,0.2,0,0.3,0.1s0.1,0.2,0.1,0.3l-0.4,3.5c0,0.1-0.1,0.2-0.2,0.3
		c-0.1,0.1-0.2,0.1-0.3,0.1H70.9c-0.1,0-0.2,0-0.3-0.1c-0.1-0.1-0.1-0.2-0.1-0.3l3-24.7c0-0.1,0.1-0.2,0.2-0.3
		c0.1-0.1,0.2-0.1,0.3-0.1h12.2c0.1,0,0.2,0,0.3,0.1c0.1,0.1,0.1,0.2,0.1,0.3l-0.4,3.5C86.1,9.7,86,9.8,85.9,9.9z"/>
	<path class="st1" d="M88,29.8c-1.1-1-1.7-2.5-1.7-4.3c0-0.2,0-0.6,0.1-1.1l1.5-12.3c0.2-2.1,1.1-3.8,2.5-5c1.4-1.3,3.2-1.9,5.4-1.9
		c1.9,0,3.4,0.5,4.6,1.6c1.1,1.1,1.7,2.5,1.7,4.3c0,0.2,0,0.6-0.1,1.1l-0.1,1.4c0,0.1-0.1,0.2-0.2,0.3c-0.1,0.1-0.2,0.1-0.3,0.1
		h-4.1c-0.1,0-0.2,0-0.3-0.1c-0.1-0.1-0.1-0.2-0.1-0.3l0.2-1.5c0-0.1,0-0.2,0-0.4c0-0.6-0.2-1.1-0.5-1.5c-0.3-0.4-0.8-0.5-1.3-0.5
		c-0.6,0-1.1,0.2-1.6,0.7c-0.4,0.5-0.7,1-0.8,1.8l-1.5,12.4c-0.1,0.7,0,1.3,0.4,1.8s0.8,0.7,1.4,0.7c0.6,0,1.2-0.2,1.6-0.7
		s0.7-1,0.8-1.8l0.4-2.9c0-0.1,0-0.2-0.1-0.2h-1.6c-0.1,0-0.2,0-0.3-0.1c-0.1-0.1-0.1-0.2-0.1-0.3l0.4-3.2c0-0.1,0-0.2,0.1-0.3
		c0.1-0.1,0.2-0.1,0.3-0.1h6.3c0.3,0,0.4,0.1,0.4,0.4l-0.8,6.8c-0.2,2.1-1.1,3.8-2.6,5c-1.5,1.3-3.2,1.9-5.4,1.9
		C90.7,31.4,89.1,30.9,88,29.8z"/>
	<path class="st1" d="M117.8,9.9c-0.1,0.1-0.2,0.1-0.3,0.1h-7.4c-0.1,0-0.2,0.1-0.2,0.2l-0.7,5.8c0,0.1,0,0.2,0.1,0.2h4.3
		c0.1,0,0.2,0,0.3,0.1c0.1,0.1,0.1,0.2,0.1,0.3l-0.4,3.5c0,0.1-0.1,0.2-0.2,0.3c-0.1,0.1-0.2,0.1-0.3,0.1h-4.2
		c-0.1,0-0.2,0.1-0.2,0.2l-0.7,5.8c0,0.1,0,0.2,0.1,0.2h7.4c0.1,0,0.2,0,0.3,0.1s0.1,0.2,0.1,0.3l-0.4,3.5c0,0.1-0.1,0.2-0.2,0.3
		c-0.1,0.1-0.2,0.1-0.3,0.1h-12.2c-0.1,0-0.2,0-0.3-0.1c-0.1-0.1-0.1-0.2-0.1-0.3l3-24.7c0-0.1,0.1-0.2,0.2-0.3
		c0.1-0.1,0.2-0.1,0.3-0.1h12.2c0.1,0,0.2,0,0.3,0.1c0.1,0.1,0.1,0.2,0.1,0.3L118,9.6C118,9.7,117.9,9.8,117.8,9.9z"/>
</g>
<g>
	<path class="st2" d="M115.6,31c-0.1-0.1-0.1-0.2-0.1-0.3l3-24.7c0-0.1,0.1-0.2,0.2-0.3c0.1-0.1,0.2-0.1,0.3-0.1h4.1
		c0.3,0,0.4,0.1,0.4,0.4l-3,24.7c0,0.1-0.1,0.2-0.2,0.3c-0.1,0.1-0.2,0.1-0.3,0.1h-4.1C115.8,31.1,115.7,31.1,115.6,31z"/>
</g>
<g>
	<path class="st0" d="M5.1,47.5H1.7C1.7,47.8,1.8,48,2,48.2c0.2,0.1,0.4,0.2,0.7,0.2c0.2,0,0.5,0,0.6-0.1c0.2-0.1,0.3-0.2,0.3-0.4
		l1.4,0.4c-0.1,0.4-0.4,0.8-0.8,1s-0.9,0.3-1.5,0.3c-0.9,0-1.6-0.2-2-0.7S0,47.8,0,47c0-0.8,0.2-1.5,0.7-1.9c0.5-0.5,1.1-0.7,2-0.7
		c0.8,0,1.4,0.2,1.9,0.7c0.4,0.5,0.7,1.1,0.7,1.9C5.2,47.2,5.2,47.3,5.1,47.5z M1.7,46.6h1.9c-0.1-0.7-0.4-1-0.9-1
		C2.1,45.6,1.8,45.9,1.7,46.6z"/>
	<path class="st0" d="M9.5,49.5l-1-1.8l-1,1.8H5.6L7.4,47l-1.8-2.5h2l0.9,1.7l1-1.7h1.9L9.6,47l1.8,2.6H9.5z"/>
</g>
<g>
	<path class="st0" d="M13.5,48c0.2,0.2,0.3,0.4,0.3,0.7c0,0.3-0.1,0.5-0.3,0.7s-0.4,0.2-0.7,0.2c-0.3,0-0.6-0.1-0.7-0.2
		c-0.2-0.2-0.3-0.4-0.3-0.7c0-0.3,0.1-0.5,0.3-0.7c0.2-0.2,0.4-0.2,0.7-0.2C13.1,47.8,13.3,47.9,13.5,48z"/>
</g>
<g>
	<path class="st2" d="M128.6,14.6v3H128l0-0.5c-0.2,0.4-0.6,0.5-1.1,0.5c-0.3,0-0.6-0.1-0.8-0.3c-0.2-0.2-0.3-0.4-0.3-0.8v-1.9h0.6
		v1.8c0,0.3,0.1,0.4,0.2,0.6s0.3,0.2,0.5,0.2c0.2,0,0.4-0.1,0.6-0.2c0.2-0.2,0.2-0.4,0.2-0.7v-1.6H128.6z"/>
	<path class="st2" d="M129.9,17.5c-0.2-0.1-0.4-0.3-0.5-0.5l0.4-0.4c0.1,0.2,0.2,0.3,0.3,0.4c0.2,0.1,0.3,0.1,0.6,0.1
		c0.2,0,0.4,0,0.5-0.1c0.1-0.1,0.2-0.2,0.2-0.3c0-0.1-0.1-0.2-0.2-0.2c-0.1-0.1-0.3-0.1-0.5-0.2c-0.4-0.1-0.7-0.2-0.9-0.3
		c-0.2-0.1-0.3-0.3-0.3-0.6c0-0.2,0-0.3,0.1-0.5s0.2-0.3,0.4-0.3s0.4-0.1,0.7-0.1c0.3,0,0.6,0.1,0.8,0.2s0.3,0.3,0.5,0.5l-0.5,0.3
		c-0.1-0.2-0.2-0.3-0.3-0.4c-0.1-0.1-0.3-0.1-0.5-0.1c-0.2,0-0.3,0-0.4,0.1c-0.1,0.1-0.2,0.2-0.2,0.3c0,0.1,0.1,0.2,0.2,0.3
		c0.1,0.1,0.3,0.1,0.6,0.2c0.4,0.1,0.7,0.2,0.9,0.3c0.2,0.1,0.3,0.3,0.3,0.6c0,0.3-0.1,0.5-0.3,0.6c-0.2,0.2-0.5,0.2-0.9,0.2
		C130.4,17.6,130.1,17.6,129.9,17.5z"/>
	<path class="st2" d="M135.3,16.3h-2.2c0,0.3,0.1,0.5,0.3,0.6c0.1,0.1,0.3,0.2,0.6,0.2c0.2,0,0.4,0,0.5-0.1c0.1-0.1,0.2-0.2,0.3-0.3
		l0.5,0.2c-0.2,0.5-0.6,0.7-1.3,0.7c-0.5,0-0.8-0.1-1.1-0.4c-0.3-0.3-0.4-0.6-0.4-1.1c0-0.5,0.1-0.9,0.4-1.1
		c0.3-0.3,0.6-0.4,1.1-0.4c0.4,0,0.8,0.1,1,0.4c0.2,0.3,0.4,0.6,0.4,1.1C135.4,16.1,135.4,16.2,135.3,16.3z M133.4,15.2
		c-0.1,0.1-0.2,0.3-0.3,0.6h1.6c0-0.2-0.1-0.4-0.3-0.6c-0.1-0.1-0.3-0.2-0.5-0.2C133.8,15,133.6,15.1,133.4,15.2z"/>
	<path class="st2" d="M138,14.9c-0.1-0.1-0.1-0.3-0.1-0.5c0-0.2,0.1-0.4,0.2-0.6c0.1-0.2,0.3-0.3,0.5-0.4l0.3,0.3
		c-0.2,0.1-0.3,0.1-0.4,0.2s-0.2,0.2-0.2,0.4l0,0c0,0,0.1,0,0.2,0c0.1,0,0.2,0,0.3,0.1s0.1,0.2,0.1,0.3c0,0.1,0,0.2-0.1,0.3
		s-0.2,0.1-0.3,0.1C138.2,15.1,138.1,15.1,138,14.9z M139.2,14.9c-0.1-0.1-0.1-0.3-0.1-0.5c0-0.2,0.1-0.4,0.2-0.6s0.3-0.3,0.5-0.4
		l0.3,0.3c-0.2,0.1-0.3,0.1-0.4,0.2c-0.1,0.1-0.2,0.2-0.2,0.4l0,0c0,0,0.1,0,0.2,0c0.1,0,0.2,0,0.3,0.1s0.1,0.2,0.1,0.3
		c0,0.1,0,0.2-0.1,0.3c-0.1,0.1-0.2,0.1-0.3,0.1C139.4,15.1,139.3,15.1,139.2,14.9z"/>
	<path class="st2" d="M141.6,17.6H141v-3.9h0.6V17.6z"/>
	<path class="st2" d="M143.4,13.6c0.1,0.1,0.1,0.3,0.1,0.5c0,0.2-0.1,0.4-0.2,0.6s-0.3,0.3-0.5,0.4l-0.3-0.3
		c0.2-0.1,0.3-0.1,0.4-0.3s0.2-0.2,0.2-0.4l0,0c0,0-0.1,0-0.2,0c-0.1,0-0.2,0-0.3-0.1c-0.1-0.1-0.1-0.2-0.1-0.3c0-0.1,0-0.2,0.1-0.3
		s0.2-0.1,0.3-0.1C143.1,13.4,143.3,13.5,143.4,13.6z M144.6,13.6c0.1,0.1,0.1,0.3,0.1,0.5c0,0.2-0.1,0.4-0.2,0.6s-0.3,0.3-0.5,0.4
		l-0.3-0.3c0.2-0.1,0.3-0.1,0.4-0.3s0.2-0.2,0.2-0.4l0,0c0,0-0.1,0-0.2,0c-0.1,0-0.2,0-0.3-0.1c-0.1-0.1-0.1-0.2-0.1-0.3
		c0-0.1,0-0.2,0.1-0.3c0.1-0.1,0.2-0.1,0.3-0.1C144.3,13.4,144.5,13.5,144.6,13.6z"/>
</g>
<g>
	<path class="st2" d="M149.2,17.4c-0.1,0.1-0.2,0.1-0.3,0.2s-0.3,0.1-0.4,0.1c-0.3,0-0.5-0.1-0.7-0.2c-0.2-0.1-0.2-0.3-0.3-0.6v-1.7
		h-0.6v-0.5h0.6v-0.7l0.6-0.2v0.9h1v0.5h-1v1.6c0,0.1,0,0.2,0.1,0.3c0.1,0.1,0.2,0.1,0.3,0.1c0.2,0,0.3-0.1,0.5-0.2L149.2,17.4z"/>
	<path class="st2" d="M152.2,14.9c0.3,0.3,0.4,0.6,0.4,1.1c0,0.5-0.1,0.9-0.4,1.1c-0.3,0.3-0.6,0.4-1.1,0.4c-0.5,0-0.8-0.1-1.1-0.4
		c-0.3-0.3-0.4-0.6-0.4-1.1c0-0.5,0.1-0.9,0.4-1.1c0.3-0.3,0.6-0.4,1.1-0.4C151.5,14.5,151.9,14.7,152.2,14.9z M150.5,15.3
		c-0.1,0.2-0.2,0.4-0.2,0.8c0,0.3,0.1,0.6,0.2,0.8c0.1,0.2,0.4,0.3,0.6,0.3c0.3,0,0.5-0.1,0.6-0.3c0.1-0.2,0.2-0.4,0.2-0.8
		c0-0.3-0.1-0.6-0.2-0.8c-0.1-0.2-0.4-0.3-0.6-0.3C150.8,15,150.6,15.1,150.5,15.3z"/>
</g>
<g>
	<path class="st2" d="M128.7,19.2v4.3h-0.6l0-0.5c-0.1,0.2-0.2,0.3-0.4,0.4s-0.4,0.2-0.6,0.2c-0.4,0-0.7-0.1-1-0.4
		c-0.2-0.3-0.4-0.6-0.4-1.1c0-0.5,0.1-0.9,0.4-1.1c0.2-0.3,0.6-0.4,1-0.4c0.2,0,0.4,0,0.6,0.1c0.2,0.1,0.3,0.2,0.4,0.4v-1.8H128.7z
		 M127.8,22.8c0.1-0.2,0.2-0.4,0.2-0.7V22c0-0.3-0.1-0.5-0.2-0.7c-0.1-0.2-0.3-0.3-0.6-0.3c-0.3,0-0.5,0.1-0.6,0.3
		c-0.1,0.2-0.2,0.4-0.2,0.8c0,0.3,0.1,0.6,0.2,0.8c0.1,0.2,0.3,0.3,0.6,0.3C127.5,23,127.7,22.9,127.8,22.8z"/>
	<path class="st2" d="M132.3,22.2h-2.2c0,0.3,0.1,0.5,0.3,0.6c0.1,0.1,0.3,0.2,0.6,0.2c0.2,0,0.4,0,0.5-0.1c0.1-0.1,0.2-0.2,0.3-0.3
		l0.5,0.2c-0.2,0.5-0.6,0.7-1.3,0.7c-0.5,0-0.8-0.1-1.1-0.4c-0.3-0.3-0.4-0.6-0.4-1.1c0-0.5,0.1-0.9,0.4-1.1
		c0.3-0.3,0.6-0.4,1.1-0.4c0.4,0,0.8,0.1,1,0.4c0.2,0.3,0.4,0.6,0.4,1.1C132.3,22,132.3,22.1,132.3,22.2z M130.4,21.2
		c-0.1,0.1-0.2,0.3-0.3,0.6h1.6c0-0.2-0.1-0.4-0.3-0.6c-0.1-0.1-0.3-0.2-0.5-0.2C130.7,21,130.5,21,130.4,21.2z"/>
</g>
<g>
	<path class="st2" d="M134.9,23.3c-0.1,0.1-0.2,0.1-0.3,0.2s-0.3,0.1-0.4,0.1c-0.3,0-0.5-0.1-0.7-0.2c-0.2-0.1-0.2-0.3-0.3-0.6V21
		h-0.6v-0.5h0.6v-0.7l0.6-0.2v0.9h1V21h-1v1.6c0,0.1,0,0.2,0.1,0.3c0.1,0.1,0.2,0.1,0.3,0.1c0.2,0,0.3-0.1,0.5-0.2L134.9,23.3z"/>
	<path class="st2" d="M138.1,22.2H136c0,0.3,0.1,0.5,0.3,0.6c0.1,0.1,0.3,0.2,0.6,0.2c0.2,0,0.4,0,0.5-0.1c0.1-0.1,0.2-0.2,0.3-0.3
		l0.5,0.2c-0.2,0.5-0.6,0.7-1.3,0.7c-0.5,0-0.8-0.1-1.1-0.4c-0.3-0.3-0.4-0.6-0.4-1.1c0-0.5,0.1-0.9,0.4-1.1
		c0.3-0.3,0.6-0.4,1.1-0.4c0.4,0,0.8,0.1,1,0.4c0.2,0.3,0.4,0.6,0.4,1.1C138.2,22,138.2,22.1,138.1,22.2z M136.2,21.2
		c-0.1,0.1-0.2,0.3-0.3,0.6h1.6c0-0.2-0.1-0.4-0.3-0.6c-0.1-0.1-0.3-0.2-0.5-0.2C136.6,21,136.4,21,136.2,21.2z"/>
	<path class="st2" d="M140.8,20.5l-0.1,0.6c-0.1-0.1-0.2-0.1-0.4-0.1c-0.1,0-0.2,0-0.4,0.1s-0.2,0.2-0.3,0.3s-0.1,0.3-0.1,0.5v1.6
		H139v-3h0.5l0.1,0.5c0.2-0.4,0.5-0.6,0.9-0.6C140.6,20.5,140.7,20.5,140.8,20.5z"/>
	<path class="st2" d="M145.5,20.6c0.2,0.1,0.3,0.2,0.4,0.4c0.1,0.2,0.1,0.4,0.1,0.6v1.9h-0.6v-1.8c0-0.2-0.1-0.4-0.2-0.5
		S145,21,144.8,21c-0.2,0-0.4,0.1-0.5,0.2c-0.1,0.2-0.2,0.4-0.2,0.7v1.6h-0.6v-1.8c0-0.2-0.1-0.4-0.2-0.5S143,21,142.8,21
		c-0.1,0-0.2,0-0.4,0.1c-0.1,0.1-0.2,0.2-0.3,0.3c-0.1,0.1-0.1,0.3-0.1,0.5v1.6h-0.6v-3h0.6l0,0.5c0.1-0.2,0.2-0.3,0.4-0.4
		c0.2-0.1,0.4-0.1,0.6-0.1c0.2,0,0.4,0,0.6,0.2s0.3,0.2,0.4,0.4c0.1-0.2,0.2-0.3,0.4-0.4s0.4-0.2,0.6-0.2
		C145.2,20.5,145.4,20.5,145.5,20.6z"/>
	<path class="st2" d="M147,19.9c-0.1-0.1-0.1-0.2-0.1-0.3c0-0.1,0-0.2,0.1-0.3c0.1-0.1,0.2-0.1,0.3-0.1s0.2,0,0.3,0.1
		c0.1,0.1,0.1,0.2,0.1,0.3c0,0.1,0,0.2-0.1,0.3c-0.1,0.1-0.2,0.1-0.3,0.1S147.1,20,147,19.9z M147.7,23.5H147v-3h0.6V23.5z"/>
	<path class="st2" d="M151,20.7c0.2,0.2,0.3,0.5,0.3,0.8v1.9h-0.6v-1.7c0-0.5-0.2-0.8-0.6-0.8c-0.2,0-0.4,0.1-0.6,0.2
		c-0.2,0.2-0.2,0.4-0.2,0.7v1.6h-0.6v-3h0.6l0,0.5c0.1-0.2,0.2-0.3,0.4-0.4c0.2-0.1,0.4-0.1,0.6-0.1C150.6,20.5,150.8,20.5,151,20.7
		z"/>
	<path class="st2" d="M154.9,22.2h-2.2c0,0.3,0.1,0.5,0.3,0.6c0.1,0.1,0.3,0.2,0.6,0.2c0.2,0,0.4,0,0.5-0.1c0.1-0.1,0.2-0.2,0.3-0.3
		l0.5,0.2c-0.2,0.5-0.6,0.7-1.3,0.7c-0.5,0-0.8-0.1-1.1-0.4c-0.3-0.3-0.4-0.6-0.4-1.1c0-0.5,0.1-0.9,0.4-1.1
		c0.3-0.3,0.6-0.4,1.1-0.4c0.4,0,0.8,0.1,1,0.4c0.2,0.3,0.4,0.6,0.4,1.1C154.9,22,154.9,22.1,154.9,22.2z M153,21.2
		c-0.1,0.1-0.2,0.3-0.3,0.6h1.6c0-0.2-0.1-0.4-0.3-0.6c-0.1-0.1-0.3-0.2-0.5-0.2C153.3,21,153.2,21,153,21.2z"/>
</g>
<g>
	<path class="st2" d="M126.2,29.3c-0.2-0.1-0.4-0.3-0.5-0.5l0.4-0.4c0.1,0.2,0.2,0.3,0.3,0.4c0.2,0.1,0.3,0.1,0.6,0.1
		c0.2,0,0.4,0,0.5-0.1c0.1-0.1,0.2-0.2,0.2-0.3c0-0.1-0.1-0.2-0.2-0.2c-0.1-0.1-0.3-0.1-0.5-0.2c-0.4-0.1-0.7-0.2-0.9-0.3
		c-0.2-0.1-0.3-0.3-0.3-0.6c0-0.2,0-0.3,0.1-0.5s0.2-0.3,0.4-0.3s0.4-0.1,0.7-0.1c0.3,0,0.6,0.1,0.8,0.2s0.3,0.3,0.5,0.5l-0.5,0.3
		c-0.1-0.2-0.2-0.3-0.3-0.4c-0.1-0.1-0.3-0.1-0.5-0.1c-0.2,0-0.3,0-0.4,0.1c-0.1,0.1-0.2,0.2-0.2,0.3c0,0.1,0.1,0.2,0.2,0.3
		c0.1,0.1,0.3,0.1,0.6,0.2c0.4,0.1,0.7,0.2,0.9,0.3c0.2,0.1,0.3,0.3,0.3,0.6c0,0.3-0.1,0.5-0.3,0.6c-0.2,0.2-0.5,0.2-0.9,0.2
		C126.7,29.4,126.4,29.4,126.2,29.3z"/>
	<path class="st2" d="M131.6,26.8c0.2,0.3,0.3,0.6,0.3,1.1c0,0.5-0.1,0.9-0.3,1.1c-0.2,0.3-0.6,0.4-1,0.4c-0.2,0-0.4,0-0.6-0.1
		c-0.2-0.1-0.3-0.2-0.4-0.4v1.7h-0.6v-4.2h0.6l0,0.5c0.1-0.2,0.2-0.3,0.4-0.4c0.2-0.1,0.4-0.2,0.6-0.2
		C131.1,26.4,131.4,26.5,131.6,26.8z M131.1,28.7c0.1-0.2,0.2-0.4,0.2-0.8c0-0.3-0.1-0.6-0.2-0.8c-0.1-0.2-0.3-0.3-0.6-0.3
		c-0.2,0-0.4,0.1-0.6,0.2c-0.1,0.2-0.2,0.4-0.2,0.7V28c0,0.3,0.1,0.5,0.2,0.7c0.1,0.2,0.3,0.2,0.6,0.2
		C130.8,28.9,131,28.8,131.1,28.7z"/>
	<path class="st2" d="M135.6,28.9l0,0.4c-0.1,0-0.2,0.1-0.4,0.1c-0.2,0-0.3,0-0.4-0.1c-0.1-0.1-0.2-0.2-0.2-0.3
		c-0.1,0.1-0.2,0.2-0.4,0.3c-0.2,0.1-0.4,0.1-0.6,0.1c-0.3,0-0.5-0.1-0.7-0.2c-0.2-0.1-0.3-0.3-0.3-0.6c0-0.2,0.1-0.4,0.3-0.6
		c0.2-0.2,0.5-0.3,0.9-0.3l0.8-0.1v-0.2c0-0.2-0.1-0.3-0.2-0.4s-0.3-0.2-0.4-0.2c-0.4,0-0.6,0.2-0.8,0.5l-0.5-0.3
		c0.1-0.2,0.2-0.4,0.4-0.6c0.2-0.1,0.5-0.2,0.8-0.2c0.4,0,0.7,0.1,0.9,0.3c0.2,0.2,0.3,0.4,0.3,0.8v1.3c0,0.1,0,0.1,0,0.2
		c0,0,0.1,0.1,0.2,0.1C135.4,29,135.5,29,135.6,28.9z M134.2,28.8c0.2-0.1,0.2-0.2,0.2-0.4v-0.4l-0.6,0.1c-0.2,0-0.4,0.1-0.5,0.2
		s-0.1,0.2-0.1,0.3c0,0.1,0,0.2,0.1,0.3c0.1,0.1,0.2,0.1,0.3,0.1C133.9,29,134.1,28.9,134.2,28.8z"/>
	<path class="st2" d="M138.7,27.2l-0.6,0.2c-0.1-0.4-0.3-0.6-0.7-0.6c-0.3,0-0.5,0.1-0.6,0.3c-0.1,0.2-0.2,0.4-0.2,0.8
		c0,0.3,0.1,0.6,0.2,0.8c0.1,0.2,0.4,0.3,0.6,0.3c0.2,0,0.4,0,0.5-0.1s0.2-0.2,0.2-0.4l0.6,0.2c-0.1,0.3-0.2,0.5-0.5,0.6
		c-0.2,0.2-0.5,0.2-0.8,0.2c-0.5,0-0.8-0.1-1.1-0.4c-0.3-0.3-0.4-0.6-0.4-1.1c0-0.5,0.1-0.9,0.4-1.1c0.3-0.3,0.6-0.4,1.1-0.4
		C138.1,26.4,138.5,26.6,138.7,27.2z"/>
	<path class="st2" d="M139.5,25.8c-0.1-0.1-0.1-0.2-0.1-0.3c0-0.1,0-0.2,0.1-0.3c0.1-0.1,0.2-0.1,0.3-0.1s0.2,0,0.3,0.1
		c0.1,0.1,0.1,0.2,0.1,0.3c0,0.1,0,0.2-0.1,0.3c-0.1,0.1-0.2,0.1-0.3,0.1S139.6,25.9,139.5,25.8z M140.1,29.4h-0.6v-3h0.6V29.4z"/>
	<path class="st2" d="M143.5,26.7c0.2,0.2,0.3,0.5,0.3,0.8v1.9h-0.6v-1.7c0-0.5-0.2-0.8-0.6-0.8c-0.2,0-0.4,0.1-0.6,0.2
		c-0.2,0.2-0.2,0.4-0.2,0.7v1.6h-0.6v-3h0.6l0,0.5c0.1-0.2,0.2-0.3,0.4-0.4c0.2-0.1,0.4-0.1,0.6-0.1C143,26.4,143.3,26.5,143.5,26.7
		z"/>
</g>
<g>
	<path class="st2" d="M147.2,29.1c0.2,0.1,0.2,0.3,0.2,0.6c0,0.2-0.1,0.4-0.2,0.5s-0.3,0.3-0.5,0.3c-0.2,0.1-0.5,0.1-0.8,0.1
		c-0.5,0-0.8-0.1-1.1-0.2c-0.2-0.1-0.4-0.3-0.4-0.5c0-0.1,0-0.3,0.1-0.4c0.1-0.1,0.2-0.2,0.4-0.2c-0.1-0.1-0.2-0.1-0.3-0.2
		c-0.1-0.1-0.1-0.2-0.1-0.3c0-0.3,0.2-0.5,0.5-0.6c-0.2-0.1-0.3-0.2-0.3-0.3c-0.1-0.1-0.1-0.3-0.1-0.5c0-0.2,0.1-0.4,0.2-0.5
		c0.1-0.2,0.3-0.3,0.5-0.4s0.4-0.1,0.7-0.1c0.2,0,0.4,0,0.6,0.1c0.1-0.2,0.2-0.4,0.3-0.5c0.1-0.1,0.3-0.2,0.6-0.2l0.1,0.5
		c-0.2,0-0.3,0-0.5,0.1c-0.1,0.1-0.2,0.1-0.2,0.2c0.1,0.1,0.2,0.2,0.3,0.3c0.1,0.1,0.1,0.3,0.1,0.4c0,0.3-0.1,0.5-0.4,0.7
		c-0.2,0.2-0.5,0.3-0.9,0.3c-0.2,0-0.3,0-0.5-0.1c-0.1,0-0.2,0.1-0.2,0.1c0,0.1-0.1,0.1-0.1,0.2c0,0.1,0,0.2,0.1,0.2
		c0.1,0,0.2,0.1,0.3,0.1h1C146.8,28.9,147,29,147.2,29.1z M146.7,30.1c0.2-0.1,0.2-0.2,0.2-0.3c0-0.1,0-0.2-0.1-0.2
		c-0.1-0.1-0.2-0.1-0.4-0.1h-0.8c-0.2,0-0.3,0-0.4,0.1c-0.1,0.1-0.1,0.1-0.1,0.2c0,0.1,0.1,0.2,0.2,0.3c0.2,0.1,0.4,0.1,0.7,0.1
		C146.3,30.2,146.5,30.1,146.7,30.1z M145.5,27c-0.1,0.1-0.2,0.2-0.2,0.4c0,0.2,0.1,0.3,0.2,0.4c0.1,0.1,0.3,0.2,0.5,0.2
		c0.2,0,0.3-0.1,0.5-0.2c0.1-0.1,0.2-0.2,0.2-0.4c0-0.2-0.1-0.3-0.2-0.4c-0.1-0.1-0.3-0.2-0.5-0.2C145.7,26.8,145.6,26.9,145.5,27z"
		/>
</g>
</svg>
