<?xml version="1.0" encoding="utf-8"?>
<!-- Generator: Adobe Illustrator 22.1.0, SVG Export Plug-In . SVG Version: 6.00 Build 0)  -->
<svg version="1.1" id="Layer_1" xmlns="http://www.w3.org/2000/svg" xmlns:xlink="http://www.w3.org/1999/xlink" x="0px" y="0px"
	 viewBox="0 0 402 185.1" style="enable-background:new 0 0 402 185.1;" xml:space="preserve">
<style type="text/css">
	.st0{fill:#FFFFFF;}
	.st1{fill:#42EBB5;}
	.st2{fill:#1A0A29;}
</style>
<rect class="st0" width="402" height="185.1"/>
<g>
	<path class="st1" d="M273.1,82.2H135.8c-2.4,0-4.3-2.1-4-4.5l3.4-28c0.2-2,2-3.6,4-3.6h137.3c2.4,0,4.3,2.1,4,4.5l-3.4,28
		C276.9,80.7,275.2,82.2,273.1,82.2"/>
	<path class="st0" d="M132.8,134.3c-1.6,0-3.2-0.7-4.3-1.9c-1.1-1.2-1.6-2.9-1.4-4.5l4.3-34.8c0.4-2.9,2.8-5.1,5.7-5.1l130.8-0.1
		c1.6,0,3.2,0.7,4.3,1.9c1.1,1.2,1.6,2.9,1.4,4.5l-4.3,34.8c-0.4,2.9-2.8,5.1-5.7,5.1L132.8,134.3L132.8,134.3z"/>
	<path class="st2" d="M267.9,86.2L267.9,86.2l-130.8,0.1c-3.8,0-6.9,2.8-7.4,6.6l-4.3,34.8c-0.3,2.1,0.4,4.3,1.8,5.9
		c1.4,1.6,3.5,2.5,5.6,2.5l130.8-0.1c3.8,0,6.9-2.8,7.4-6.6l4.3-34.8c0.3-2.1-0.4-4.3-1.8-5.9C272.1,87.1,270,86.2,267.9,86.2
		 M267.9,89.6c2.4,0,4.3,2.1,4,4.5l-4.3,34.8c-0.2,2-2,3.6-4,3.6l-130.8,0.1c-2.4,0-4.3-2.1-4-4.5l4.3-34.8c0.2-2,2-3.6,4-3.6
		L267.9,89.6z"/>
	<path class="st2" d="M144,75c-1-1-1.6-2.3-1.6-3.9c0-0.2,0-0.5,0.1-0.9l0.1-1.1c0-0.1,0.1-0.2,0.2-0.3c0.1-0.1,0.2-0.1,0.3-0.1h3.8
		c0.1,0,0.2,0,0.3,0.1c0.1,0.1,0.1,0.2,0.1,0.3l-0.1,0.9c0,0.1,0,0.2,0,0.4c0,0.6,0.1,1.1,0.4,1.4c0.3,0.3,0.7,0.5,1.1,0.5
		c0.6,0,1.1-0.2,1.5-0.7c0.4-0.5,0.6-1.1,0.6-1.8c0-0.6-0.2-1.1-0.6-1.6c-0.4-0.4-1.1-1.1-2.2-2c-0.9-0.8-1.7-1.4-2.2-2
		c-0.6-0.6-1-1.2-1.4-2.1c-0.4-0.8-0.6-1.7-0.6-2.8c0-0.2,0-0.6,0.1-1c0.2-1.9,1-3.5,2.3-4.7c1.3-1.2,2.9-1.8,4.9-1.8
		c1.8,0,3.2,0.5,4.2,1.5c1,1,1.6,2.3,1.6,4c0,0.2,0,0.6-0.1,1.1l-0.1,0.8c0,0.1,0,0.2-0.1,0.3c-0.1,0.1-0.2,0.1-0.3,0.1h-3.8
		c-0.1,0-0.2,0-0.3-0.1c-0.1-0.1-0.1-0.2-0.1-0.3l0.1-0.9c0-0.1,0-0.2,0-0.4c0-0.6-0.1-1-0.4-1.4c-0.3-0.3-0.7-0.5-1.2-0.5
		c-0.5,0-1,0.2-1.4,0.6c-0.4,0.4-0.6,1-0.7,1.7l0,0.4c0,0.6,0.2,1.1,0.6,1.6c0.4,0.5,1.1,1.2,2.1,2c1.1,0.9,2,1.7,2.6,2.3
		c0.6,0.6,1.1,1.3,1.4,1.9c0.3,0.7,0.5,1.5,0.5,2.4c0,0.2,0,0.5-0.1,1c-0.3,2-1.1,3.6-2.4,4.8c-1.4,1.2-3,1.8-4.9,1.8
		C146.4,76.5,145,76,144,75"/>
	<path class="st2" d="M160.3,75.8l-1.6-23.2v-0.1c0-0.3,0.1-0.4,0.4-0.4h4.1c0.3,0,0.4,0.1,0.4,0.4l0.4,12.4c0,0.1,0.1,0.1,0.1,0.1
		s0.1,0,0.1-0.1l3.3-12.4c0.1-0.3,0.2-0.4,0.5-0.4h3.4c0.3,0,0.4,0.1,0.4,0.4l0.4,12.4c0,0.1,0,0.1,0.1,0.1s0.1,0,0.1-0.1l3.2-12.4
		c0.1-0.3,0.2-0.4,0.5-0.4h3.9c0.3,0,0.4,0.1,0.3,0.4l-7.1,23.2c-0.1,0.3-0.2,0.4-0.5,0.4H169c-0.3,0-0.4-0.1-0.4-0.4l-0.4-12.7
		c0-0.1,0-0.1-0.1-0.1c0,0-0.1,0-0.1,0.1l-3.3,12.7c-0.1,0.3-0.2,0.4-0.5,0.4h-3.5C160.4,76.2,160.3,76.1,160.3,75.8"/>
	<path class="st2" d="M179.5,76.1c-0.1-0.1-0.1-0.2-0.1-0.3l2.8-23.2c0-0.1,0.1-0.2,0.2-0.3c0.1-0.1,0.2-0.1,0.3-0.1h3.9
		c0.3,0,0.4,0.1,0.4,0.4l-2.8,23.2c0,0.1-0.1,0.2-0.2,0.3c-0.1,0.1-0.2,0.1-0.3,0.1h-3.9C179.7,76.2,179.6,76.1,179.5,76.1"/>
	<path class="st2" d="M197,61.7c0.5-0.7,0.8-1.6,0.8-2.8c0-0.8-0.2-1.4-0.5-1.9s-0.8-0.7-1.5-0.7h-1.5c-0.1,0-0.2,0.1-0.2,0.2
		l-0.8,6c0,0.1,0,0.2,0.1,0.2h1.5C195.8,62.7,196.5,62.3,197,61.7 M201.1,53.8c1,1.1,1.5,2.6,1.5,4.4c0,0.6,0,1-0.1,1.3
		c-0.3,2.1-1,3.8-2.3,5.1c-1.3,1.3-2.8,1.9-4.6,1.9h-2.5c-0.1,0-0.2,0.1-0.2,0.2l-1.1,9.1c0,0.1-0.1,0.2-0.2,0.3
		c-0.1,0.1-0.2,0.1-0.3,0.1h-3.9c-0.1,0-0.2,0-0.3-0.1c-0.1-0.1-0.1-0.2-0.1-0.3l2.9-23.2c0-0.1,0.1-0.2,0.2-0.3
		c0.1-0.1,0.2-0.1,0.3-0.1h6.7C198.8,52.1,200.1,52.7,201.1,53.8"/>
	<path class="st2" d="M217.1,56.2c-0.1,0.1-0.2,0.1-0.3,0.1h-7c-0.1,0-0.2,0.1-0.2,0.2l-0.7,5.4c0,0.1,0,0.2,0.1,0.2h4
		c0.1,0,0.2,0,0.3,0.1c0.1,0.1,0.1,0.2,0.1,0.3l-0.4,3.3c0,0.1-0.1,0.2-0.2,0.3c-0.1,0.1-0.2,0.1-0.3,0.1h-4c-0.1,0-0.2,0.1-0.2,0.2
		l-0.7,5.5c0,0.1,0,0.2,0.1,0.2h6.9c0.1,0,0.2,0,0.3,0.1c0.1,0.1,0.1,0.2,0.1,0.3l-0.4,3.3c0,0.1-0.1,0.2-0.2,0.3
		c-0.1,0.1-0.2,0.1-0.3,0.1H203c-0.1,0-0.2,0-0.3-0.1c-0.1-0.1-0.1-0.2-0.1-0.3l2.8-23.2c0-0.1,0.1-0.2,0.2-0.3
		c0.1-0.1,0.2-0.1,0.3-0.1h11.4c0.1,0,0.2,0,0.3,0.1c0.1,0.1,0.1,0.2,0.1,0.3l-0.4,3.3C217.3,56,217.2,56.1,217.1,56.2"/>
	<path class="st1" d="M261.7,116.7H138.1c-0.5,0-0.9-0.5-0.9-1l1.2-9.5c0.1-0.4,0.4-0.8,0.9-0.8h123.6c0.5,0,0.9,0.5,0.9,1l-1.2,9.5
		C262.5,116.4,262.1,116.7,261.7,116.7"/>
	<path class="st2" d="M235.4,71.6c0.4-0.4,0.7-1,0.8-1.8l1.4-11.4c0-0.1,0-0.2,0-0.4c0-0.6-0.2-1.1-0.5-1.5
		c-0.3-0.4-0.8-0.5-1.3-0.5c-0.6,0-1.1,0.2-1.6,0.7c-0.4,0.4-0.7,1-0.8,1.8l-1.4,11.4c0,0.1,0,0.2,0,0.4c0,0.6,0.2,1.1,0.5,1.5
		c0.3,0.4,0.7,0.6,1.3,0.6C234.5,72.3,235,72.1,235.4,71.6 M229,74.9c-1.1-1-1.6-2.4-1.6-4.2c0-0.2,0-0.6,0.1-1.1l1.3-11
		c0.3-2.1,1.1-3.7,2.4-4.9c1.4-1.2,3.1-1.9,5.1-1.9c1.9,0,3.3,0.5,4.4,1.5c1.1,1,1.6,2.4,1.6,4.2c0,0.2,0,0.6-0.1,1.1l-1.3,11
		c-0.3,2.1-1.1,3.7-2.5,4.9c-1.4,1.2-3.1,1.9-5.1,1.9C231.5,76.5,230,75.9,229,74.9"/>
	<path class="st2" d="M245,74.9c-1-1.1-1.6-2.5-1.6-4.3c0-0.5,0-1,0.1-1.2l2.1-16.8c0-0.1,0.1-0.2,0.2-0.3c0.1-0.1,0.2-0.1,0.3-0.1
		h3.9c0.3,0,0.4,0.1,0.4,0.4l-2.1,17.3c0,0.1,0,0.3,0,0.5c0,0.6,0.1,1.1,0.4,1.4c0.3,0.4,0.7,0.5,1.2,0.5c0.6,0,1.1-0.2,1.5-0.7
		c0.4-0.5,0.6-1.1,0.7-1.8l2.1-17.3c0-0.1,0.1-0.2,0.2-0.3c0.1-0.1,0.2-0.1,0.3-0.1h3.9c0.1,0,0.2,0,0.3,0.1
		c0.1,0.1,0.1,0.2,0.1,0.3l-2.1,16.8c-0.3,2.2-1.1,3.9-2.4,5.2c-1.4,1.3-3.1,1.9-5,1.9C247.4,76.5,246,75.9,245,74.9"/>
	<path class="st2" d="M274.9,52.3c0.1,0.1,0.1,0.2,0.1,0.3l-0.4,3.3c0,0.1-0.1,0.2-0.2,0.3c-0.1,0.1-0.2,0.1-0.3,0.1h-4.2
		c0,0-0.1,0-0.1,0.1c0,0-0.1,0.1-0.1,0.1l-2.4,19.3c0,0.1-0.1,0.2-0.2,0.3c-0.1,0.1-0.2,0.1-0.3,0.1H263c-0.1,0-0.2,0-0.3-0.1
		c-0.1-0.1-0.1-0.2-0.1-0.3l2.4-19.3c0-0.1,0-0.2-0.1-0.2h-4c-0.3,0-0.4-0.1-0.4-0.4l0.4-3.3c0-0.1,0.1-0.2,0.2-0.3
		c0.1-0.1,0.2-0.1,0.3-0.1h13.2C274.7,52.2,274.8,52.2,274.9,52.3"/>
	<path class="st2" d="M157.3,96.8c0.1-0.1,0.2-0.1,0.4-0.1h4.7c0.1,0,0.2,0,0.3,0.1c0.1,0.1,0.1,0.2,0.1,0.4l-3.4,27.9
		c0,0.1-0.1,0.3-0.2,0.4c-0.1,0.1-0.2,0.1-0.4,0.1h-4.7c-0.1,0-0.2,0-0.3-0.1c-0.1-0.1-0.1-0.2-0.1-0.4l1.4-11.3
		c0-0.1-0.1-0.2-0.2-0.2h-4c-0.2,0-0.2,0.1-0.2,0.2l-1.4,11.3c0,0.1-0.1,0.3-0.2,0.4c-0.1,0.1-0.2,0.1-0.4,0.1h-4.7
		c-0.1,0-0.2,0-0.3-0.1c-0.1-0.1-0.1-0.2-0.1-0.4l3.4-27.9c0-0.1,0.1-0.3,0.2-0.4c0.1-0.1,0.2-0.1,0.4-0.1h4.7
		c0.3,0,0.5,0.2,0.5,0.5l-1.4,11.2c0,0.1,0.1,0.2,0.2,0.2h4c0.1,0,0.2-0.1,0.2-0.2l1.4-11.2C157.1,97,157.2,96.9,157.3,96.8"/>
	<path class="st2" d="M165.5,124c-1.3-1.3-1.9-3-1.9-5.1c0-0.7,0-1.2,0.1-1.5l2.5-20.2c0-0.1,0.1-0.3,0.2-0.4
		c0.1-0.1,0.2-0.1,0.4-0.1h4.7c0.3,0,0.5,0.2,0.5,0.5l-2.6,20.7c0,0.1,0,0.3,0,0.6c0,0.7,0.2,1.3,0.5,1.7c0.4,0.4,0.8,0.7,1.4,0.7
		c0.7,0,1.3-0.3,1.8-0.8c0.5-0.6,0.8-1.3,0.9-2.1l2.6-20.7c0-0.1,0.1-0.3,0.2-0.4c0.1-0.1,0.2-0.1,0.4-0.1h4.7c0.1,0,0.2,0,0.3,0.1
		c0.1,0.1,0.1,0.2,0.1,0.4l-2.5,20.2c-0.3,2.6-1.3,4.7-2.9,6.2c-1.6,1.6-3.7,2.3-6.1,2.3C168.5,125.9,166.8,125.2,165.5,124"/>
	<path class="st2" d="M181.9,125.4c-0.1-0.1-0.1-0.2-0.1-0.4l3.4-27.9c0-0.1,0.1-0.3,0.2-0.4c0.1-0.1,0.2-0.1,0.3-0.1h5
		c0.2,0,0.4,0.1,0.5,0.4l3.3,15.4c0,0.1,0,0.1,0.1,0.1c0.1,0,0.1-0.1,0.1-0.1l1.9-15.3c0-0.1,0.1-0.3,0.2-0.4
		c0.1-0.1,0.2-0.1,0.4-0.1h4.6c0.1,0,0.2,0,0.3,0.1c0.1,0.1,0.1,0.2,0.1,0.4l-3.4,27.9c0,0.1-0.1,0.3-0.2,0.4
		c-0.1,0.1-0.2,0.1-0.3,0.1h-5.1c-0.3,0-0.4-0.1-0.5-0.4l-3.3-15.5c0-0.1,0-0.1-0.1-0.1c-0.1,0-0.1,0-0.1,0.1l-1.8,15.4
		c0,0.1-0.1,0.3-0.2,0.4c-0.1,0.1-0.2,0.1-0.4,0.1h-4.6C182.1,125.5,182,125.5,181.9,125.4"/>
	<path class="st2" d="M204.7,124.1c-1.3-1.2-1.9-2.8-1.9-4.8c0-0.2,0-0.6,0.1-1.2l1.7-13.9c0.3-2.4,1.2-4.3,2.9-5.7
		c1.6-1.4,3.7-2.1,6.1-2.1c2.2,0,3.9,0.6,5.2,1.8c1.3,1.2,1.9,2.8,1.9,4.8c0,0.2,0,0.6-0.1,1.2l-0.2,1.6c0,0.1-0.1,0.3-0.2,0.4
		c-0.1,0.1-0.2,0.1-0.4,0.1h-4.7c-0.1,0-0.2,0-0.3-0.1c-0.1-0.1-0.1-0.2-0.1-0.4l0.2-1.6c0-0.1,0-0.3,0-0.5c0-0.7-0.2-1.2-0.6-1.6
		c-0.4-0.4-0.9-0.6-1.5-0.6c-0.7,0-1.3,0.3-1.8,0.8c-0.5,0.5-0.8,1.2-0.9,2l-1.7,14c-0.1,0.8,0.1,1.5,0.4,2c0.4,0.5,0.9,0.8,1.6,0.8
		c0.7,0,1.3-0.3,1.8-0.8c0.5-0.5,0.8-1.2,0.9-2l0.4-3.3c0-0.1-0.1-0.2-0.2-0.2h-1.8c-0.1,0-0.2,0-0.3-0.1c-0.1-0.1-0.1-0.2-0.1-0.4
		l0.5-3.7c0-0.1,0.1-0.3,0.2-0.4c0.1-0.1,0.2-0.1,0.4-0.1h7.1c0.3,0,0.5,0.2,0.5,0.5l-0.9,7.6c-0.3,2.4-1.2,4.3-2.9,5.7
		c-1.7,1.4-3.7,2.1-6.1,2.1C207.7,125.9,205.9,125.3,204.7,124.1"/>
	<path class="st2" d="M238.4,101.5c-0.1,0.1-0.2,0.1-0.4,0.1h-8.4c-0.1,0-0.2,0.1-0.2,0.2l-0.8,6.5c0,0.1,0.1,0.2,0.2,0.2h4.8
		c0.1,0,0.2,0,0.3,0.1c0.1,0.1,0.1,0.2,0.1,0.4l-0.5,4c0,0.1-0.1,0.3-0.2,0.4c-0.1,0.1-0.2,0.1-0.4,0.1h-4.8c-0.2,0-0.2,0.1-0.2,0.2
		l-0.8,6.6c-0.1,0.1,0,0.2,0.2,0.2h8.3c0.1,0,0.3,0,0.4,0.1c0.1,0.1,0.1,0.2,0.1,0.4l-0.5,4c0,0.1-0.1,0.3-0.2,0.4
		c-0.1,0.1-0.2,0.1-0.4,0.1h-13.7c-0.1,0-0.2,0-0.3-0.1c-0.1-0.1-0.1-0.2-0.1-0.4l3.4-27.9c0-0.1,0.1-0.3,0.2-0.4
		c0.1-0.1,0.2-0.1,0.4-0.1h13.7c0.1,0,0.2,0,0.3,0.1c0.1,0.1,0.1,0.2,0.1,0.4l-0.5,4C238.5,101.3,238.5,101.4,238.4,101.5"/>
	<path class="st2" d="M247,101.9l-0.9,7c-0.1,0.1,0,0.2,0.2,0.2h1.8c0.9,0,1.7-0.4,2.3-1.2c0.6-0.8,0.9-1.9,0.9-3.2
		c0-0.9-0.2-1.7-0.6-2.2c-0.4-0.5-1-0.8-1.7-0.8h-1.8C247.1,101.7,247,101.7,247,101.9 M249,125.1l-1.7-11.4
		c-0.1-0.1-0.1-0.2-0.2-0.2h-1.3c-0.2,0-0.2,0.1-0.2,0.2l-1.4,11.3c0,0.1-0.1,0.3-0.2,0.3c-0.1,0.1-0.2,0.1-0.4,0.1h-4.7
		c-0.1,0-0.2,0-0.3-0.1c-0.1-0.1-0.1-0.2-0.1-0.3l3.4-27.9c0-0.1,0.1-0.3,0.2-0.4c0.1-0.1,0.2-0.1,0.4-0.1h8.1c2,0,3.6,0.7,4.8,2
		c1.2,1.3,1.8,3,1.8,5.2c0,0.7,0,1.2-0.1,1.5c-0.2,1.6-0.7,3-1.4,4.3c-0.7,1.3-1.7,2.2-2.9,2.9c-0.1,0-0.1,0.1-0.1,0.1
		c0,0,0,0.1,0,0.1l2.2,12.2v0.1c0,0.1,0,0.3-0.1,0.3c-0.1,0.1-0.2,0.1-0.4,0.1h-4.8C249.2,125.5,249,125.4,249,125.1"/>
</g>
</svg>
