<svg id="Layer_1" data-name="Layer 1" xmlns="http://www.w3.org/2000/svg" viewBox="0 0 498.8 110.1"><defs><style>.cls-1{fill:#42ebb5;}.cls-2{fill:#1a0a29;}</style></defs><title>tagline</title><path class="cls-1" d="M490,0H20.2a8.8,8.8,0,0,0-8.8,7.8L5.6,55.3h0L.1,100.2a8.8,8.8,0,0,0,8.8,9.9H383.6a8.9,8.9,0,0,0,8.8-7.8l5.7-47h87.2a8.8,8.8,0,0,0,8.8-7.7l4.7-37.7A8.9,8.9,0,0,0,490,0Z"/><path class="cls-2" d="M29.3,45A7.8,7.8,0,0,1,27,39.3a7.2,7.2,0,0,1,.1-1.3l.2-1.6c0-.2.1-.3.2-.5H34a.9.9,0,0,1,.1.5l-.2,1.2v.7a3.2,3.2,0,0,0,.6,2,2.1,2.1,0,0,0,1.7.8A2.9,2.9,0,0,0,38.4,40a4,4,0,0,0,.9-2.7,3.8,3.8,0,0,0-.8-2.3,38.9,38.9,0,0,0-3.2-2.9A37.3,37.3,0,0,1,32,29.2a11.4,11.4,0,0,1-2.1-3,8.7,8.7,0,0,1-.9-4,8.6,8.6,0,0,1,.1-1.5,10.1,10.1,0,0,1,3.4-6.8,10.4,10.4,0,0,1,7.1-2.6,8.3,8.3,0,0,1,6.1,2.2A7.8,7.8,0,0,1,48,19.4c0,.3-.1.8-.1,1.5l-.2,1.2a.5.5,0,0,1-.2.4.4.4,0,0,1-.4.2H41.5c-.2,0-.3,0-.4-.2s-.1-.2-.1-.4l.2-1.3v-.7a3.2,3.2,0,0,0-.6-2,2.4,2.4,0,0,0-1.8-.7,3,3,0,0,0-2,.8,4.4,4.4,0,0,0-1,2.5v.6a3.4,3.4,0,0,0,.8,2.3,21.1,21.1,0,0,0,3,2.9l3.8,3.3a10.8,10.8,0,0,1,2,2.9,7.4,7.4,0,0,1,.8,3.4c0,.3-.1.7-.1,1.4a11.2,11.2,0,0,1-3.5,7,10.8,10.8,0,0,1-7.2,2.6A8.5,8.5,0,0,1,29.3,45Z"/><path class="cls-2" d="M71.8,11.9c.1.1.1.2.1.4l-.6,4.9a.8.8,0,0,1-.2.4l-.4.2H64.4c-.1.1-.1.1-.1.2L60.9,46.1l-.3.4a.5.5,0,0,1-.4.2H54.5a.5.5,0,0,1-.4-.2c-.1-.1-.1-.2-.1-.4L57.5,18c0-.2,0-.2-.2-.2H51.5a.5.5,0,0,1-.6-.6l.6-4.9a.5.5,0,0,1,.2-.4l.5-.2H71.4Z"/><path class="cls-2" d="M74.2,44.8A8.6,8.6,0,0,1,72,38.6a8.7,8.7,0,0,1,.1-1.8l3-24.5a.7.7,0,0,1,.6-.6h5.7c.3,0,.5.2.5.6L78.8,37.5v.7a3.7,3.7,0,0,0,.6,2.1,2.2,2.2,0,0,0,1.8.8,3,3,0,0,0,2.1-1,4.6,4.6,0,0,0,1-2.6l3.1-25.2.3-.4.4-.2h5.7a.5.5,0,0,1,.4.2c.1.1.1.2.1.4l-3,24.5a12.1,12.1,0,0,1-3.6,7.5,10.1,10.1,0,0,1-7.3,2.8A8.5,8.5,0,0,1,74.2,44.8Z"/><path class="cls-2" d="M94.4,46.5c-.1-.1-.1-.2-.1-.4l4.1-33.8.3-.4.4-.2h8.7a9.2,9.2,0,0,1,6.4,2.2,7.8,7.8,0,0,1,2.3,6,9.9,9.9,0,0,1-.1,1.5L114.5,37a11.2,11.2,0,0,1-3.5,7.1,11.2,11.2,0,0,1-7.5,2.6H94.8A.5.5,0,0,1,94.4,46.5Zm7.6-5.8h2.2a3,3,0,0,0,2.3-1.1,4.8,4.8,0,0,0,1.2-2.9l1.8-14.7a2.2,2.2,0,0,0,.1-.9,3.6,3.6,0,0,0-.7-2.4,2.4,2.4,0,0,0-1.9-.8h-2.2c-.1,0-.2,0-.2.2l-2.8,22.4C101.8,40.6,101.8,40.7,102,40.7Z"/><path class="cls-2" d="M138.5,17.6a.5.5,0,0,1-.4.2H127.9c-.1,0-.2,0-.2.2l-1,7.9c0,.2.1.3.2.3h6.2c.1.2.2.3.1.5l-.6,4.8a.5.5,0,0,1-.2.4c-.1.2-.2.2-.4.2h-5.8a.3.3,0,0,0-.3.3l-1,7.9c0,.2,0,.3.2.3h10.6a.9.9,0,0,1,.1.5l-.6,4.8a.5.5,0,0,1-.2.4l-.5.2H117.9a.5.5,0,0,1-.4-.2c-.1-.1-.1-.2-.1-.4l4.1-33.8.3-.4a.5.5,0,0,1,.4-.2h16.6a.5.5,0,0,1,.4.2c.1.1.2.2.1.4l-.6,4.9A.8.8,0,0,1,138.5,17.6Z"/><path class="cls-2" d="M138.8,46.5c-.1-.1-.1-.2-.1-.4l4.1-33.8c.1-.2.1-.3.3-.4l.4-.2h6.1a.5.5,0,0,1,.5.5l4,18.7c0,.1.1.2.2.1a.1.1,0,0,0,.1-.1l2.3-18.6a.5.5,0,0,1,.2-.4l.4-.2h5.6l.4.2c.1.1.2.2.1.4l-4.1,33.8a.5.5,0,0,1-.2.4l-.5.2h-6.1a.6.6,0,0,1-.6-.5l-4-18.7c0-.1,0-.2-.1-.2s-.1.1-.2.2l-2.2,18.6a.5.5,0,0,1-.2.4l-.5.2h-5.5A.5.5,0,0,1,138.8,46.5Z"/><path class="cls-2" d="M187,11.9c.1.1.2.2.1.4l-.6,4.9a.8.8,0,0,1-.2.4l-.4.2h-6.3c0,.1-.1.1-.1.2l-3.4,28.1a.5.5,0,0,1-.2.4l-.5.2h-5.7l-.4-.2c-.1-.1-.1-.2-.1-.4L172.7,18c.1-.2,0-.2-.2-.2h-5.8a.5.5,0,0,1-.6-.6l.6-4.9c.1-.2.1-.3.3-.4a.5.5,0,0,1,.4-.2h19.2A.5.5,0,0,1,187,11.9Z"/><path class="cls-2" d="M212.5,11.9l.4-.2h5.7a.5.5,0,0,1,.4.2c.1.1.2.2.1.4L215,46.1c-.1.2-.1.3-.2.4l-.5.2h-5.7l-.4-.2c-.1-.1-.1-.2-.1-.4l1.7-13.6c0-.2,0-.3-.2-.3h-4.8a.3.3,0,0,0-.3.3l-1.7,13.6a.5.5,0,0,1-.2.4l-.5.2h-5.6l-.4-.2c-.1-.1-.2-.2-.1-.4l4.1-33.8c.1-.2.1-.3.3-.4a.5.5,0,0,1,.4-.2h5.6a.5.5,0,0,1,.6.6l-1.7,13.6c0,.2,0,.3.2.3h4.8a.3.3,0,0,0,.3-.3l1.7-13.6A.5.5,0,0,1,212.5,11.9Z"/><path class="cls-2" d="M222.5,44.8a8.2,8.2,0,0,1-2.3-6.2,8.7,8.7,0,0,1,.1-1.8l3-24.5a.5.5,0,0,1,.2-.4l.4-.2h5.7c.3,0,.5.2.5.6L227,37.5v.7a3.7,3.7,0,0,0,.6,2.1,2.3,2.3,0,0,0,1.8.8,3,3,0,0,0,2.1-1,5.6,5.6,0,0,0,1.1-2.6l3.1-25.2a.5.5,0,0,1,.2-.4l.4-.2H242l.4.2c.1.1.2.2.1.4l-3,24.5a11.5,11.5,0,0,1-3.5,7.5,10.3,10.3,0,0,1-7.4,2.8A8.2,8.2,0,0,1,222.5,44.8Z"/><path class="cls-2" d="M242.7,46.5c-.1-.1-.2-.2-.1-.4l4.1-33.8.2-.4.5-.2h6.1a.5.5,0,0,1,.5.5l4,18.7c0,.1.1.2.1.1s.2,0,.2-.1l2.3-18.6a.5.5,0,0,1,.2-.4l.4-.2h5.6a.5.5,0,0,1,.4.2c.1.1.2.2.1.4l-4.1,33.8c-.1.2-.1.3-.3.4a.5.5,0,0,1-.4.2h-6.1c-.4,0-.6-.2-.6-.5l-4-18.7c0-.1,0-.2-.1-.2l-.2.2-2.2,18.6a.5.5,0,0,1-.2.4l-.5.2h-5.5Z"/><path class="cls-2" d="M270.2,45a7.9,7.9,0,0,1-2.3-5.9c0-.3.1-.8.1-1.4l2.1-16.9a10.4,10.4,0,0,1,3.4-6.9,11.1,11.1,0,0,1,7.4-2.6,8.6,8.6,0,0,1,6.3,2.2,7.8,7.8,0,0,1,2.3,5.9,8.8,8.8,0,0,1-.1,1.4l-.2,1.9a.5.5,0,0,1-.2.4.6.6,0,0,1-.5.2h-5.6c-.2,0-.3,0-.4-.2s-.2-.2-.1-.4l.2-2c.1-.1.1-.3.1-.6a3.2,3.2,0,0,0-.7-2,2.4,2.4,0,0,0-1.8-.7,2.9,2.9,0,0,0-2.2.9,4.5,4.5,0,0,0-1.1,2.4l-2.1,17a3.6,3.6,0,0,0,.5,2.4,2.2,2.2,0,0,0,1.9,1,2.7,2.7,0,0,0,2.2-1,3.8,3.8,0,0,0,1.1-2.4l.5-4c0-.2,0-.2-.2-.2h-2.1a.5.5,0,0,1-.4-.2c-.1-.1-.2-.3-.1-.4l.5-4.5a.5.5,0,0,1,.2-.4l.5-.2H288c.3,0,.5.2.5.6l-1.1,9.3a10.5,10.5,0,0,1-3.5,6.8,11.1,11.1,0,0,1-7.4,2.6A9.2,9.2,0,0,1,270.2,45Z"/><path class="cls-2" d="M311.1,17.6l-.4.2H300.5c-.1,0-.2,0-.2.2l-1,7.9c0,.2,0,.3.2.3h6.2a.9.9,0,0,1,.1.5l-.6,4.8a.5.5,0,0,1-.2.4.4.4,0,0,1-.4.2h-5.8a.3.3,0,0,0-.3.3l-1,7.9c-.1.2,0,.3.2.3h10.5a.6.6,0,0,1,.2.5l-.6,4.8c-.1.2-.1.3-.3.4a.5.5,0,0,1-.4.2H290.5a.5.5,0,0,1-.4-.2c-.1-.1-.2-.2-.1-.4l4.1-33.8c.1-.2.1-.3.2-.4l.5-.2h16.6a.5.5,0,0,1,.4.2c.1.1.1.2.1.4l-.6,4.9A.8.8,0,0,1,311.1,17.6Z"/><path class="cls-2" d="M323.9,46.2l-2-13.8-.3-.2H320a.3.3,0,0,0-.3.3l-1.6,13.6-.3.4-.4.2h-5.7a.5.5,0,0,1-.4-.2c-.1-.1-.1-.2-.1-.4l4.2-33.8c0-.2.1-.3.2-.5h10.2a7.7,7.7,0,0,1,5.8,2.3,9.3,9.3,0,0,1,2.1,6.4,8.7,8.7,0,0,1-.1,1.8,12.8,12.8,0,0,1-1.7,5.2,11,11,0,0,1-3.5,3.6c-.1,0-.1,0-.1.1s-.1.1,0,.2L330.9,46h0c0,.2,0,.3-.2.4a.5.5,0,0,1-.4.2h-5.8A.6.6,0,0,1,323.9,46.2ZM321.5,18l-1,8.5c-.1.2,0,.3.2.3h2.2a3.5,3.5,0,0,0,2.8-1.5,6.7,6.7,0,0,0,1.1-3.9,3.6,3.6,0,0,0-.8-2.7,2.5,2.5,0,0,0-2-.9h-2.2C321.6,17.8,321.5,17.8,321.5,18Z"/><path class="cls-2" d="M343.9,46.5c-.1-.1-.2-.2-.1-.4l4.1-33.8a.5.5,0,0,1,.2-.4l.5-.2h5.6a.5.5,0,0,1,.6.6l-4.2,33.8a.5.5,0,0,1-.2.4l-.5.2h-5.6Z"/><path class="cls-2" d="M357.6,45a7.8,7.8,0,0,1-2.3-5.7,7.2,7.2,0,0,1,.1-1.3l.2-1.6c0-.2.1-.3.2-.5h6.5a.9.9,0,0,1,.1.5l-.2,1.2v.7a3.2,3.2,0,0,0,.6,2,2.1,2.1,0,0,0,1.7.8,2.9,2.9,0,0,0,2.2-1.1,4,4,0,0,0,.9-2.7,3.8,3.8,0,0,0-.8-2.3,38.9,38.9,0,0,0-3.2-2.9,37.3,37.3,0,0,1-3.3-2.9,11.4,11.4,0,0,1-2.1-3,8.7,8.7,0,0,1-.9-4,8.6,8.6,0,0,1,.1-1.5,10.1,10.1,0,0,1,3.4-6.8,10.4,10.4,0,0,1,7.1-2.6,8.3,8.3,0,0,1,6.1,2.2,7.8,7.8,0,0,1,2.3,5.9c0,.3-.1.8-.1,1.5l-.2,1.2a.5.5,0,0,1-.2.4.4.4,0,0,1-.4.2h-5.6c-.2,0-.3,0-.4-.2s-.1-.2-.1-.4l.2-1.3v-.7a3.2,3.2,0,0,0-.6-2,2.4,2.4,0,0,0-1.8-.7,3,3,0,0,0-2,.8,4.4,4.4,0,0,0-1,2.5v.6a3.4,3.4,0,0,0,.8,2.3,21.1,21.1,0,0,0,3,2.9l3.8,3.3a10.8,10.8,0,0,1,2,2.9,7.4,7.4,0,0,1,.8,3.4c0,.3-.1.7-.1,1.4a11.2,11.2,0,0,1-3.5,7,10.8,10.8,0,0,1-7.2,2.6A8.5,8.5,0,0,1,357.6,45Z"/><path class="cls-2" d="M399.1,46.2,397,32.4l-.2-.2h-1.6a.3.3,0,0,0-.3.3l-1.7,13.6a.5.5,0,0,1-.2.4l-.5.2h-5.6a.5.5,0,0,1-.4-.2c-.1-.1-.2-.2-.1-.4l4.1-33.8c0-.2.1-.3.2-.5H401a7.5,7.5,0,0,1,5.7,2.3,9.4,9.4,0,0,1,2.2,6.4,7.4,7.4,0,0,1-.2,1.8,14.4,14.4,0,0,1-1.6,5.2,12,12,0,0,1-3.5,3.6c-.1,0-.2,0-.2.1v.2L406.1,46h0a.5.5,0,0,1-.2.4l-.4.2h-5.8C399.3,46.7,399.1,46.5,399.1,46.2ZM396.7,18l-1.1,8.5c-.1.2,0,.3.2.3H398a3.5,3.5,0,0,0,2.8-1.5,6.1,6.1,0,0,0,1.2-3.9,4.1,4.1,0,0,0-.8-2.7,2.6,2.6,0,0,0-2.1-.9h-2.2C396.7,17.8,396.7,17.8,396.7,18Z"/><path class="cls-2" d="M429.3,17.6l-.4.2H418.7c-.2,0-.2,0-.2.2l-1,7.9c0,.2,0,.3.2.3h6.2a.9.9,0,0,1,.1.5l-.6,4.8a.5.5,0,0,1-.2.4.4.4,0,0,1-.4.2H417a.3.3,0,0,0-.3.3l-1,7.9c-.1.2,0,.3.2.3h10.5c.1.2.2.3.2.5l-.6,4.8-.3.4a.5.5,0,0,1-.4.2H408.7a.5.5,0,0,1-.4-.2c-.1-.1-.2-.2-.1-.4l4.1-33.8a.5.5,0,0,1,.2-.4l.5-.2h16.6a.5.5,0,0,1,.4.2c.1.1.1.2.1.4l-.6,4.9A.8.8,0,0,1,429.3,17.6Z"/><path class="cls-2" d="M443.5,46.2l-.2-4.8c0-.1,0-.2-.1-.2H437c-.2,0-.4.1-.4.2l-1.4,4.9a.8.8,0,0,1-.7.5h-5.7c-.5,0-.6-.2-.4-.6l11.3-33.8a.7.7,0,0,1,.7-.6h6.5a.5.5,0,0,1,.6.6l2.9,33.8h0a.5.5,0,0,1-.5.5H444C443.6,46.7,443.5,46.5,443.5,46.2Zm-4.9-10.5h4.2c.1,0,.2-.1.2-.3l-.4-12.9a.1.1,0,0,0-.1-.1c-.1,0-.2,0-.2.1l-3.9,12.9C438.4,35.6,438.4,35.7,438.6,35.7Z"/><path class="cls-2" d="M454.6,46.5c-.1-.1-.2-.2-.1-.4l4.1-33.8a.5.5,0,0,1,.2-.4l.5-.2h5.6c.4,0,.5.2.5.6L462,40.4c-.1.2,0,.3.2.3h10.1a.5.5,0,0,1,.6.6l-.6,4.8a.5.5,0,0,1-.2.4l-.5.2H455A.5.5,0,0,1,454.6,46.5Z"/><path class="cls-2" d="M476.5,45.8a3.6,3.6,0,0,1-1-2.7,4.4,4.4,0,0,1,.7-2.4,7.7,7.7,0,0,1,1.8-1.8,4.6,4.6,0,0,1,2.2-.6,3.3,3.3,0,0,1,2.6,1.1,3.6,3.6,0,0,1,1,2.7,4.8,4.8,0,0,1-1.3,3.4,4.8,4.8,0,0,1-3.4,1.4A3.5,3.5,0,0,1,476.5,45.8Z"/><path class="cls-2" d="M23.1,98.5,20.7,64.7h0c0-.4.2-.5.6-.5h5.9c.4,0,.6.1.6.5l.5,18a.2.2,0,0,0,.2.2.3.3,0,0,0,.1-.2l4.9-18c.1-.4.3-.5.7-.5h4.9c.3,0,.5.1.5.5l.7,18c0,.1,0,.2.1.2s.1-.1.2-.2l4.6-18c.1-.4.3-.5.7-.5h5.8c.4,0,.5.2.4.6L41.8,98.5a.7.7,0,0,1-.7.6H35.9a.5.5,0,0,1-.6-.6L34.7,80c0-.1,0-.2-.1-.2s-.1.1-.2.2L29.6,98.5a.7.7,0,0,1-.7.6H23.7A.5.5,0,0,1,23.1,98.5Z"/><path class="cls-2" d="M72.2,69.9l-.4.2H61.7a.3.3,0,0,0-.3.3l-1,7.9a.2.2,0,0,0,.2.2h5.9l.4.2c.1.1.1.2.1.4L66.4,84l-.3.4-.4.2H59.9c-.2,0-.3,0-.3.2l-.9,8c-.1.1,0,.2.2.2H69l.4.2c.1.1.1.2.1.4l-.6,4.9-.2.4-.4.2H51.6l-.4-.2a.6.6,0,0,1-.1-.4l4.2-33.8a.8.8,0,0,1,.2-.5H73a.7.7,0,0,1,.1.5l-.6,4.8Z"/><path class="cls-2" d="M84.8,97.2a8.1,8.1,0,0,1-2.3-6c0-.3.1-.9.1-1.6l2-16.2a11,11,0,0,1,3.5-7.1,10.6,10.6,0,0,1,7.4-2.6,8.5,8.5,0,0,1,6.3,2.2,8.1,8.1,0,0,1,2.3,6,9.9,9.9,0,0,1-.1,1.5V74l-.2.4-.5.2-5.7.2a.5.5,0,0,1-.5-.5l.2-1.3v-.6a3.2,3.2,0,0,0-.6-2,2.5,2.5,0,0,0-1.9-.7,2.9,2.9,0,0,0-2.1.9A3.8,3.8,0,0,0,91.5,73L89.4,90.2a3.5,3.5,0,0,0-.1.6,2.9,2.9,0,0,0,.7,1.9,2.4,2.4,0,0,0,1.8.7,2.9,2.9,0,0,0,2.2-.9,3.6,3.6,0,0,0,1.1-2.3V88.9l.3-.5h.4l5.6.2c.4,0,.6.2.5.6v.5a11.3,11.3,0,0,1-3.6,7.2,10.5,10.5,0,0,1-7.3,2.7A8.9,8.9,0,0,1,84.8,97.2Z"/><path class="cls-2" d="M118.6,98.5l-.2-4.8c0-.1,0-.1-.1-.2h-6.2c-.2,0-.3,0-.4.2l-1.4,4.8a.7.7,0,0,1-.7.6h-5.7c-.4,0-.6-.3-.4-.7l11.3-33.8c.1-.4.3-.5.7-.5H122c.4,0,.6.1.6.5l2.9,33.8h0c0,.4-.1.6-.5.6h-5.9C118.8,99.1,118.6,98.9,118.6,98.5ZM113.7,88h4.2c.2,0,.2-.1.2-.2l-.4-12.9c0-.1,0-.2-.1-.2s-.1.1-.2.2l-3.9,12.9A.2.2,0,0,0,113.7,88Z"/><path class="cls-2" d="M128.9,98.9a.6.6,0,0,1-.1-.4L133,64.7a.8.8,0,0,1,.2-.5h6.5c.3,0,.5.1.6.5l4,18.7c0,.1,0,.1.1.1l.2-.2,2.2-18.5c.1-.2.1-.4.3-.5h6.4a.7.7,0,0,1,.1.5l-4.2,33.8a.8.8,0,0,1-.2.4l-.4.2h-6.2a.6.6,0,0,1-.6-.5l-3.9-18.8h-.3l-2.2,18.7a.5.5,0,0,1-.3.4l-.4.2h-5.6Z"/><path class="cls-2" d="M180,64.2h6.5a.7.7,0,0,1,.1.5l-4.2,33.8a.8.8,0,0,1-.2.4l-.4.2h-5.7l-.4-.2a.6.6,0,0,1-.1-.4l1.7-13.7c0-.2-.1-.2-.2-.2h-4.9c-.2,0-.3,0-.3.2l-1.6,13.7a.5.5,0,0,1-.3.4l-.4.2h-5.7l-.4-.2a.6.6,0,0,1-.1-.4l4.2-33.8a.8.8,0,0,1,.2-.5h6.1c.4,0,.5.2.5.6l-1.7,13.6a.2.2,0,0,0,.2.2h4.9l.3-.2,1.6-13.6C179.8,64.5,179.8,64.3,180,64.2Z"/><path class="cls-2" d="M207.9,69.9l-.5.2H197.3a.3.3,0,0,0-.3.3l-1,7.9a.2.2,0,0,0,.2.2h5.9l.4.2c.1.1.1.2.1.4L202,84c-.1.1-.1.3-.2.4l-.5.2h-5.8c-.2,0-.3,0-.3.2l-.9,8c-.1.1,0,.2.2.2h10.1l.4.2c.1.1.2.2.1.4l-.6,4.9-.2.4-.4.2H187.2l-.4-.2a.6.6,0,0,1-.1-.4l4.2-33.8a.8.8,0,0,1,.2-.5h17.5a.7.7,0,0,1,.1.5l-.6,4.8Z"/><path class="cls-2" d="M208.1,98.9c-.1-.1-.2-.3-.1-.4l4.1-33.8c.1-.2.1-.4.3-.5h6a.5.5,0,0,1,.6.6l-3.5,28.1c0,.1,0,.2.2.2h10.2c.3,0,.5.2.5.6l-.6,4.9-.2.4-.4.2H208.5Z"/><path class="cls-2" d="M248.9,66.4a8.9,8.9,0,0,1,2.2,6.4c0,.8-.1,1.4-.1,1.9a12.2,12.2,0,0,1-3.4,7.4,8.8,8.8,0,0,1-6.7,2.8h-3.6q-.2,0-.3.3l-1.6,13.3a.8.8,0,0,1-.2.4l-.5.2h-5.6l-.4-.2c-.1-.1-.2-.3-.1-.4l4.1-33.9c.1-.2.1-.3.3-.4a.5.5,0,0,1,.4-.2h9.8A7.2,7.2,0,0,1,248.9,66.4ZM243,77.9a6.5,6.5,0,0,0,1.2-4.1,4.1,4.1,0,0,0-.8-2.7,2.4,2.4,0,0,0-2.1-1h-2.2c-.1,0-.2.1-.2.3l-1.1,8.8c0,.1,0,.2.2.2h2.1A3.4,3.4,0,0,0,243,77.9Z"/><path class="cls-2" d="M282,69.9l-.4.2H271.4c-.1,0-.2.1-.2.3l-1,7.9c0,.1,0,.2.2.2h5.8l.4.2c.1.1.2.2.1.4l-.6,4.9-.2.4-.4.2h-5.8c-.2,0-.3,0-.3.2l-1,8c0,.1,0,.2.2.2h10.1l.4.2c.2.1.2.2.2.4l-.6,4.9c-.1.1-.1.3-.3.4l-.4.2H261.4l-.4-.2c-.1-.1-.2-.3-.1-.4L265,64.7c.1-.2.1-.4.2-.5h17.5a.4.4,0,0,1,.1.5l-.6,4.8A.5.5,0,0,1,282,69.9Z"/><path class="cls-2" d="M282.3,98.9c-.1-.1-.2-.3-.1-.4l4.1-33.8c.1-.2.1-.4.2-.5h6.6c.3,0,.4.1.5.5l4,18.7a.1.1,0,0,0,.1.1.2.2,0,0,0,.2-.2l2.3-18.5a.8.8,0,0,1,.2-.5h6.4a.7.7,0,0,1,.1.5l-4.1,33.8c-.1.1-.1.3-.3.4l-.4.2H296c-.4,0-.6-.2-.6-.5l-4-18.8h-.3l-2.2,18.7a.8.8,0,0,1-.2.4l-.5.2h-5.5Z"/><path class="cls-2" d="M307.2,98.9c-.1-.1-.2-.3-.1-.4l4.1-33.8a.8.8,0,0,1,.2-.5h9.2a8.9,8.9,0,0,1,6.4,2.2,8.1,8.1,0,0,1,2.3,6,9.9,9.9,0,0,1-.1,1.5l-1.9,15.6a11.1,11.1,0,0,1-3.6,7,10.4,10.4,0,0,1-7.4,2.7h-8.7A.5.5,0,0,1,307.2,98.9Zm7.6-5.9H317a3.7,3.7,0,0,0,2.3-1.2,5.9,5.9,0,0,0,1.2-2.9l1.8-14.7c0-.2.1-.5.1-.8a4.3,4.3,0,0,0-.7-2.4,2.3,2.3,0,0,0-1.9-.9h-2.2c-.2,0-.2.1-.2.3l-2.8,22.4C314.5,92.9,314.6,93,314.8,93Z"/><path class="cls-2" d="M340,98.9c-.1-.1-.2-.3-.1-.4L344,64.7a.8.8,0,0,1,.2-.5h6.1a.5.5,0,0,1,.6.6l-4.2,33.8a.8.8,0,0,1-.2.4l-.5.2h-5.6Z"/><path class="cls-2" d="M374.5,64.2a.7.7,0,0,1,.1.5l-.6,4.8-.3.4-.4.2H367v.2l-3.5,28.1-.2.4-.4.2h-5.7l-.4-.2c-.1-.1-.2-.3-.1-.4l3.4-28.1c.1-.2,0-.3-.2-.3h-5.8c-.4,0-.5-.2-.5-.6l.6-4.8a.8.8,0,0,1,.2-.5h20.1Z"/><path class="cls-2" d="M372.3,98.2a3.6,3.6,0,0,1-1-2.7,4,4,0,0,1,.7-2.4,5.2,5.2,0,0,1,1.8-1.8,3.8,3.8,0,0,1,2.2-.7,3.6,3.6,0,0,1,2.6,1.1,3.7,3.7,0,0,1,1.1,2.7,4.9,4.9,0,0,1-1.4,3.4,4.3,4.3,0,0,1-3.3,1.5A3.7,3.7,0,0,1,372.3,98.2Z"/></svg>